<?xml version="1.0" encoding="UTF-8"?>
<svg xmlns="http://www.w3.org/2000/svg" version="1.1" width="500" height="500" viewBox="0 0 500 500"><rect x="0" y="0" width="500" height="500" fill="#ffffff"/><g transform="scale(20)"><g transform="translate(0,0)"><path fill-rule="evenodd" d="M9 0L9 1L8 1L8 3L9 3L9 4L8 4L8 8L6 8L6 9L7 9L7 10L6 10L6 11L5 11L5 10L4 10L4 8L3 8L3 9L2 9L2 8L0 8L0 10L1 10L1 9L2 9L2 10L3 10L3 11L0 11L0 13L1 13L1 12L2 12L2 15L1 15L1 14L0 14L0 15L1 15L1 16L0 16L0 17L4 17L4 15L5 15L5 16L6 16L6 17L7 17L7 16L6 16L6 15L8 15L8 19L9 19L9 21L8 21L8 22L10 22L10 24L9 24L9 23L8 23L8 25L10 25L10 24L12 24L12 23L13 23L13 25L19 25L19 24L21 24L21 23L22 23L22 22L23 22L23 21L22 21L22 22L21 22L21 20L23 20L23 19L25 19L25 17L24 17L24 16L25 16L25 12L24 12L24 11L25 11L25 9L24 9L24 8L22 8L22 9L21 9L21 8L18 8L18 9L17 9L17 8L16 8L16 7L17 7L17 5L16 5L16 4L17 4L17 3L16 3L16 1L17 1L17 0L15 0L15 1L14 1L14 3L15 3L15 4L14 4L14 5L13 5L13 3L11 3L11 2L13 2L13 0L12 0L12 1L11 1L11 0ZM9 1L9 2L11 2L11 1ZM9 4L9 5L10 5L10 6L9 6L9 7L10 7L10 8L8 8L8 9L9 9L9 10L10 10L10 8L11 8L11 7L12 7L12 6L13 6L13 8L12 8L12 9L11 9L11 11L9 11L9 14L8 14L8 15L9 15L9 16L10 16L10 17L9 17L9 18L10 18L10 17L12 17L12 18L11 18L11 19L10 19L10 22L11 22L11 23L12 23L12 22L13 22L13 23L14 23L14 24L15 24L15 23L20 23L20 21L16 21L16 19L15 19L15 20L14 20L14 19L12 19L12 18L13 18L13 17L14 17L14 18L16 18L16 16L17 16L17 15L16 15L16 14L18 14L18 13L17 13L17 12L15 12L15 11L17 11L17 9L15 9L15 8L14 8L14 6L15 6L15 7L16 7L16 6L15 6L15 5L14 5L14 6L13 6L13 5L11 5L11 4ZM10 6L10 7L11 7L11 6ZM13 8L13 9L14 9L14 10L13 10L13 13L14 13L14 14L13 14L13 16L14 16L14 17L15 17L15 16L14 16L14 15L15 15L15 12L14 12L14 11L15 11L15 9L14 9L14 8ZM19 9L19 10L21 10L21 9ZM22 9L22 10L24 10L24 9ZM7 10L7 11L6 11L6 12L3 12L3 13L5 13L5 14L7 14L7 13L8 13L8 12L7 12L7 11L8 11L8 10ZM18 11L18 12L19 12L19 11ZM21 11L21 12L20 12L20 15L21 15L21 18L22 18L22 19L23 19L23 18L24 18L24 17L23 17L23 18L22 18L22 16L23 16L23 15L24 15L24 14L23 14L23 15L22 15L22 13L23 13L23 11ZM6 12L6 13L7 13L7 12ZM11 12L11 13L10 13L10 14L9 14L9 15L11 15L11 16L12 16L12 14L11 14L11 13L12 13L12 12ZM21 12L21 13L22 13L22 12ZM3 14L3 15L2 15L2 16L3 16L3 15L4 15L4 14ZM17 17L17 20L20 20L20 17ZM18 18L18 19L19 19L19 18ZM11 19L11 20L12 20L12 19ZM13 20L13 22L14 22L14 23L15 23L15 21L14 21L14 20ZM24 22L24 23L25 23L25 22ZM23 24L23 25L25 25L25 24ZM0 0L0 7L7 7L7 0ZM1 1L1 6L6 6L6 1ZM2 2L2 5L5 5L5 2ZM18 0L18 7L25 7L25 0ZM19 1L19 6L24 6L24 1ZM20 2L20 5L23 5L23 2ZM0 18L0 25L7 25L7 18ZM1 19L1 24L6 24L6 19ZM2 20L2 23L5 23L5 20Z" fill="#000000"/></g></g></svg>
