<?xml version="1.0" encoding="UTF-8"?>
<svg xmlns="http://www.w3.org/2000/svg" version="1.1" width="500" height="500" viewBox="0 0 500 500"><rect x="0" y="0" width="500" height="500" fill="#ffffff"/><g transform="scale(20)"><g transform="translate(0,0)"><path fill-rule="evenodd" d="M8 0L8 1L9 1L9 2L8 2L8 5L9 5L9 4L11 4L11 5L10 5L10 10L9 10L9 8L8 8L8 10L4 10L4 8L0 8L0 11L1 11L1 10L2 10L2 12L1 12L1 13L2 13L2 12L3 12L3 13L5 13L5 15L4 15L4 16L3 16L3 17L4 17L4 16L5 16L5 17L7 17L7 16L5 16L5 15L7 15L7 14L6 14L6 13L11 13L11 16L10 16L10 17L8 17L8 18L9 18L9 20L12 20L12 21L11 21L11 23L10 23L10 22L9 22L9 21L8 21L8 25L9 25L9 23L10 23L10 25L11 25L11 23L12 23L12 22L13 22L13 25L14 25L14 22L15 22L15 25L16 25L16 22L17 22L17 25L19 25L19 24L20 24L20 25L25 25L25 24L23 24L23 23L24 23L24 22L25 22L25 20L24 20L24 21L22 21L22 22L21 22L21 17L23 17L23 19L25 19L25 17L24 17L24 16L25 16L25 15L24 15L24 14L25 14L25 13L23 13L23 12L24 12L24 11L23 11L23 8L20 8L20 9L19 9L19 10L20 10L20 11L19 11L19 12L18 12L18 11L17 11L17 10L16 10L16 11L17 11L17 13L18 13L18 14L21 14L21 15L20 15L20 16L16 16L16 17L15 17L15 14L16 14L16 15L17 15L17 14L16 14L16 13L15 13L15 14L13 14L13 13L14 13L14 11L15 11L15 9L13 9L13 6L14 6L14 7L15 7L15 8L17 8L17 9L18 9L18 8L17 8L17 6L16 6L16 7L15 7L15 6L14 6L14 3L15 3L15 5L16 5L16 4L17 4L17 3L15 3L15 2L13 2L13 0L12 0L12 1L11 1L11 0L10 0L10 1L9 1L9 0ZM14 0L14 1L15 1L15 0ZM16 1L16 2L17 2L17 1ZM11 2L11 4L12 4L12 3L13 3L13 2ZM12 5L12 6L11 6L11 8L12 8L12 6L13 6L13 5ZM8 6L8 7L9 7L9 6ZM6 8L6 9L7 9L7 8ZM24 8L24 9L25 9L25 8ZM11 9L11 10L12 10L12 9ZM20 9L20 10L21 10L21 11L20 11L20 12L21 12L21 11L22 11L22 9ZM3 10L3 11L4 11L4 12L5 12L5 13L6 13L6 12L9 12L9 11L4 11L4 10ZM13 10L13 11L11 11L11 13L12 13L12 12L13 12L13 11L14 11L14 10ZM21 13L21 14L22 14L22 15L21 15L21 16L24 16L24 15L23 15L23 14L22 14L22 13ZM1 14L1 15L0 15L0 16L1 16L1 15L2 15L2 14ZM9 14L9 15L8 15L8 16L9 16L9 15L10 15L10 14ZM12 14L12 16L11 16L11 17L10 17L10 18L11 18L11 19L13 19L13 22L14 22L14 21L16 21L16 18L15 18L15 20L14 20L14 18L13 18L13 16L14 16L14 15L13 15L13 14ZM17 17L17 20L20 20L20 17ZM18 18L18 19L19 19L19 18ZM17 21L17 22L18 22L18 21ZM22 22L22 23L23 23L23 22ZM20 23L20 24L21 24L21 23ZM0 0L0 7L7 7L7 0ZM1 1L1 6L6 6L6 1ZM2 2L2 5L5 5L5 2ZM18 0L18 7L25 7L25 0ZM19 1L19 6L24 6L24 1ZM20 2L20 5L23 5L23 2ZM0 18L0 25L7 25L7 18ZM1 19L1 24L6 24L6 19ZM2 20L2 23L5 23L5 20Z" fill="#000000"/></g></g></svg>
