<?xml version="1.0" encoding="UTF-8"?>
<svg xmlns="http://www.w3.org/2000/svg" version="1.1" width="500" height="500" viewBox="0 0 500 500"><rect x="0" y="0" width="500" height="500" fill="#ffffff"/><g transform="scale(23.81)"><g transform="translate(0,0)"><path fill-rule="evenodd" d="M8 0L8 4L9 4L9 5L8 5L8 7L9 7L9 5L10 5L10 7L11 7L11 5L12 5L12 9L11 9L11 10L10 10L10 9L9 9L9 10L8 10L8 9L7 9L7 8L4 8L4 9L2 9L2 8L0 8L0 10L1 10L1 13L5 13L5 11L8 11L8 12L6 12L6 13L8 13L8 14L11 14L11 15L10 15L10 16L9 16L9 15L8 15L8 17L9 17L9 19L8 19L8 21L10 21L10 20L9 20L9 19L12 19L12 17L13 17L13 19L14 19L14 18L15 18L15 20L16 20L16 19L19 19L19 17L20 17L20 18L21 18L21 16L19 16L19 17L18 17L18 16L17 16L17 14L19 14L19 13L21 13L21 12L20 12L20 10L19 10L19 9L21 9L21 8L17 8L17 9L16 9L16 8L15 8L15 9L13 9L13 5L12 5L12 4L11 4L11 3L12 3L12 2L13 2L13 1L12 1L12 0L11 0L11 1L12 1L12 2L9 2L9 1L10 1L10 0ZM1 9L1 10L2 10L2 11L3 11L3 12L4 12L4 11L5 11L5 9L4 9L4 10L2 10L2 9ZM6 9L6 10L7 10L7 9ZM12 9L12 11L11 11L11 12L10 12L10 13L12 13L12 15L13 15L13 17L15 17L15 18L16 18L16 17L15 17L15 16L16 16L16 15L14 15L14 14L13 14L13 13L19 13L19 11L18 11L18 10L17 10L17 11L16 11L16 12L15 12L15 11L14 11L14 10L13 10L13 9ZM9 10L9 11L10 11L10 10ZM12 11L12 13L13 13L13 11ZM10 16L10 18L11 18L11 17L12 17L12 16ZM17 17L17 18L18 18L18 17ZM12 20L12 21L13 21L13 20ZM17 20L17 21L18 21L18 20ZM20 20L20 21L21 21L21 20ZM0 0L0 7L7 7L7 0ZM1 1L1 6L6 6L6 1ZM2 2L2 5L5 5L5 2ZM14 0L14 7L21 7L21 0ZM15 1L15 6L20 6L20 1ZM16 2L16 5L19 5L19 2ZM0 14L0 21L7 21L7 14ZM1 15L1 20L6 20L6 15ZM2 16L2 19L5 19L5 16Z" fill="#000000"/></g></g></svg>
