<?xml version="1.0" encoding="UTF-8"?>
<svg xmlns="http://www.w3.org/2000/svg" version="1.1" width="500" height="500" viewBox="0 0 500 500"><rect x="0" y="0" width="500" height="500" fill="#ffffff"/><g transform="scale(23.81)"><g transform="translate(0,0)"><path fill-rule="evenodd" d="M10 0L10 1L8 1L8 2L10 2L10 3L11 3L11 2L10 2L10 1L11 1L11 0ZM12 0L12 1L13 1L13 0ZM12 2L12 4L9 4L9 3L8 3L8 4L9 4L9 5L8 5L8 7L9 7L9 8L6 8L6 9L5 9L5 8L0 8L0 10L1 10L1 9L2 9L2 11L1 11L1 13L5 13L5 11L3 11L3 9L5 9L5 10L6 10L6 11L7 11L7 12L6 12L6 13L8 13L8 15L10 15L10 16L12 16L12 15L11 15L11 14L9 14L9 13L11 13L11 11L12 11L12 13L13 13L13 12L14 12L14 13L17 13L17 14L15 14L15 15L17 15L17 14L18 14L18 17L17 17L17 18L18 18L18 19L16 19L16 18L15 18L15 17L16 17L16 16L15 16L15 17L14 17L14 14L13 14L13 17L12 17L12 19L13 19L13 20L15 20L15 21L17 21L17 20L18 20L18 21L19 21L19 20L18 20L18 19L19 19L19 18L18 18L18 17L21 17L21 16L19 16L19 14L20 14L20 13L21 13L21 12L20 12L20 11L21 11L21 10L19 10L19 9L20 9L20 8L19 8L19 9L18 9L18 8L17 8L17 9L16 9L16 8L15 8L15 10L14 10L14 8L11 8L11 9L10 9L10 7L11 7L11 6L12 6L12 7L13 7L13 2ZM10 5L10 6L9 6L9 7L10 7L10 6L11 6L11 5ZM6 9L6 10L7 10L7 11L9 11L9 12L10 12L10 11L11 11L11 10L13 10L13 9L11 9L11 10L10 10L10 11L9 11L9 9ZM17 9L17 10L18 10L18 9ZM15 10L15 11L14 11L14 12L16 12L16 10ZM18 12L18 13L20 13L20 12ZM8 16L8 21L9 21L9 19L11 19L11 17L9 17L9 16ZM13 17L13 19L15 19L15 18L14 18L14 17ZM20 19L20 20L21 20L21 19ZM11 20L11 21L12 21L12 20ZM0 0L0 7L7 7L7 0ZM1 1L1 6L6 6L6 1ZM2 2L2 5L5 5L5 2ZM14 0L14 7L21 7L21 0ZM15 1L15 6L20 6L20 1ZM16 2L16 5L19 5L19 2ZM0 14L0 21L7 21L7 14ZM1 15L1 20L6 20L6 15ZM2 16L2 19L5 19L5 16Z" fill="#000000"/></g></g></svg>
