<?xml version="1.0" encoding="UTF-8"?>
<svg xmlns="http://www.w3.org/2000/svg" version="1.1" width="500" height="500" viewBox="0 0 500 500"><rect x="0" y="0" width="500" height="500" fill="#ffffff"/><g transform="scale(20)"><g transform="translate(0,0)"><path fill-rule="evenodd" d="M9 0L9 1L8 1L8 3L9 3L9 4L8 4L8 8L6 8L6 9L8 9L8 8L10 8L10 10L6 10L6 11L8 11L8 12L5 12L5 10L4 10L4 8L3 8L3 10L2 10L2 8L0 8L0 10L1 10L1 13L3 13L3 12L4 12L4 15L1 15L1 14L0 14L0 15L1 15L1 16L0 16L0 17L2 17L2 16L5 16L5 17L8 17L8 19L9 19L9 20L10 20L10 21L12 21L12 19L13 19L13 18L14 18L14 20L13 20L13 21L14 21L14 22L12 22L12 23L11 23L11 22L9 22L9 21L8 21L8 22L9 22L9 23L8 23L8 25L9 25L9 23L10 23L10 24L13 24L13 25L17 25L17 23L18 23L18 22L17 22L17 23L16 23L16 22L15 22L15 21L14 21L14 20L16 20L16 21L19 21L19 23L22 23L22 22L21 22L21 15L23 15L23 14L24 14L24 15L25 15L25 9L24 9L24 8L22 8L22 9L21 9L21 8L18 8L18 10L16 10L16 12L17 12L17 13L16 13L16 14L19 14L19 15L18 15L18 16L17 16L17 15L15 15L15 9L14 9L14 8L13 8L13 6L14 6L14 7L15 7L15 8L17 8L17 5L16 5L16 4L15 4L15 5L14 5L14 4L13 4L13 6L12 6L12 5L11 5L11 6L10 6L10 5L9 5L9 4L12 4L12 3L13 3L13 2L14 2L14 3L15 3L15 2L16 2L16 1L17 1L17 0L15 0L15 1L13 1L13 0L12 0L12 1L11 1L11 2L9 2L9 1L10 1L10 0ZM9 6L9 7L10 7L10 8L11 8L11 9L12 9L12 10L11 10L11 11L9 11L9 13L11 13L11 14L10 14L10 16L8 16L8 17L9 17L9 19L10 19L10 20L11 20L11 19L12 19L12 18L13 18L13 17L14 17L14 18L15 18L15 17L14 17L14 16L13 16L13 15L14 15L14 13L13 13L13 11L14 11L14 10L13 10L13 9L12 9L12 6L11 6L11 7L10 7L10 6ZM15 6L15 7L16 7L16 6ZM19 9L19 11L17 11L17 12L19 12L19 11L21 11L21 9ZM22 9L22 10L23 10L23 9ZM3 10L3 11L2 11L2 12L3 12L3 11L4 11L4 10ZM12 10L12 11L11 11L11 12L12 12L12 11L13 11L13 10ZM22 11L22 12L20 12L20 15L19 15L19 16L20 16L20 15L21 15L21 14L23 14L23 13L24 13L24 11ZM6 13L6 14L5 14L5 15L6 15L6 16L7 16L7 15L9 15L9 14L7 14L7 13ZM6 14L6 15L7 15L7 14ZM11 14L11 15L13 15L13 14ZM22 16L22 18L23 18L23 19L22 19L22 20L23 20L23 21L24 21L24 20L25 20L25 16L24 16L24 18L23 18L23 16ZM10 17L10 19L11 19L11 18L12 18L12 17ZM17 17L17 20L20 20L20 17ZM18 18L18 19L19 19L19 18ZM23 19L23 20L24 20L24 19ZM24 22L24 23L25 23L25 22ZM14 23L14 24L15 24L15 23ZM19 24L19 25L22 25L22 24ZM23 24L23 25L25 25L25 24ZM0 0L0 7L7 7L7 0ZM1 1L1 6L6 6L6 1ZM2 2L2 5L5 5L5 2ZM18 0L18 7L25 7L25 0ZM19 1L19 6L24 6L24 1ZM20 2L20 5L23 5L23 2ZM0 18L0 25L7 25L7 18ZM1 19L1 24L6 24L6 19ZM2 20L2 23L5 23L5 20Z" fill="#000000"/></g></g></svg>
