<?xml version="1.0" encoding="UTF-8"?>
<svg xmlns="http://www.w3.org/2000/svg" version="1.1" width="500" height="500" viewBox="0 0 500 500"><rect x="0" y="0" width="500" height="500" fill="#ffffff"/><g transform="scale(20)"><g transform="translate(0,0)"><path fill-rule="evenodd" d="M8 0L8 1L9 1L9 2L8 2L8 5L9 5L9 4L11 4L11 5L10 5L10 10L9 10L9 8L8 8L8 9L7 9L7 8L6 8L6 9L4 9L4 8L0 8L0 11L1 11L1 12L0 12L0 13L2 13L2 11L3 11L3 13L4 13L4 14L3 14L3 15L2 15L2 14L1 14L1 15L0 15L0 16L1 16L1 15L2 15L2 16L3 16L3 17L5 17L5 16L6 16L6 17L7 17L7 16L6 16L6 15L8 15L8 16L10 16L10 18L9 18L9 17L8 17L8 18L9 18L9 19L10 19L10 20L9 20L9 21L8 21L8 25L10 25L10 24L11 24L11 25L13 25L13 24L15 24L15 25L16 25L16 24L15 24L15 23L17 23L17 24L18 24L18 25L25 25L25 24L23 24L23 23L24 23L24 22L25 22L25 21L24 21L24 20L25 20L25 17L24 17L24 16L25 16L25 15L24 15L24 14L25 14L25 11L24 11L24 13L23 13L23 11L22 11L22 13L23 13L23 14L21 14L21 12L18 12L18 11L19 11L19 10L18 10L18 11L16 11L16 13L15 13L15 14L14 14L14 15L15 15L15 14L16 14L16 13L17 13L17 12L18 12L18 14L21 14L21 16L18 16L18 15L16 15L16 17L15 17L15 16L12 16L12 14L13 14L13 13L14 13L14 11L15 11L15 9L14 9L14 10L13 10L13 6L14 6L14 7L15 7L15 5L16 5L16 8L17 8L17 9L18 9L18 8L17 8L17 5L16 5L16 4L17 4L17 1L16 1L16 3L15 3L15 5L13 5L13 4L14 4L14 2L13 2L13 0L12 0L12 1L11 1L11 0L10 0L10 1L9 1L9 0ZM14 0L14 1L15 1L15 0ZM11 2L11 4L12 4L12 3L13 3L13 2ZM12 5L12 6L11 6L11 8L12 8L12 6L13 6L13 5ZM8 6L8 7L9 7L9 6ZM20 8L20 9L23 9L23 8ZM24 8L24 9L25 9L25 8ZM6 9L6 10L7 10L7 11L6 11L6 12L4 12L4 13L5 13L5 14L4 14L4 15L6 15L6 14L8 14L8 15L9 15L9 13L8 13L8 12L7 12L7 11L9 11L9 10L7 10L7 9ZM11 9L11 10L12 10L12 9ZM3 10L3 11L4 11L4 10ZM20 10L20 11L21 11L21 10ZM11 11L11 13L10 13L10 15L11 15L11 13L12 13L12 12L13 12L13 11ZM6 12L6 13L7 13L7 12ZM22 15L22 16L23 16L23 15ZM11 16L11 18L10 18L10 19L12 19L12 20L10 20L10 21L11 21L11 23L14 23L14 22L13 22L13 21L15 21L15 22L17 22L17 23L18 23L18 24L22 24L22 23L18 23L18 21L16 21L16 18L14 18L14 19L13 19L13 17L12 17L12 16ZM17 17L17 20L20 20L20 17ZM21 17L21 18L22 18L22 17ZM23 17L23 18L24 18L24 17ZM18 18L18 19L19 19L19 18ZM21 19L21 20L22 20L22 22L23 22L23 20L24 20L24 19ZM19 21L19 22L20 22L20 21ZM9 23L9 24L10 24L10 23ZM0 0L0 7L7 7L7 0ZM1 1L1 6L6 6L6 1ZM2 2L2 5L5 5L5 2ZM18 0L18 7L25 7L25 0ZM19 1L19 6L24 6L24 1ZM20 2L20 5L23 5L23 2ZM0 18L0 25L7 25L7 18ZM1 19L1 24L6 24L6 19ZM2 20L2 23L5 23L5 20Z" fill="#000000"/></g></g></svg>
