<?xml version="1.0" encoding="UTF-8"?>
<svg xmlns="http://www.w3.org/2000/svg" version="1.1" width="500" height="500" viewBox="0 0 500 500"><rect x="0" y="0" width="500" height="500" fill="#ffffff"/><g transform="scale(17.241)"><g transform="translate(0,0)"><path fill-rule="evenodd" d="M10 0L10 2L11 2L11 0ZM12 0L12 1L13 1L13 2L12 2L12 4L13 4L13 3L14 3L14 4L17 4L17 5L15 5L15 6L14 6L14 8L16 8L16 9L19 9L19 10L20 10L20 11L19 11L19 12L17 12L17 10L15 10L15 9L12 9L12 7L13 7L13 5L11 5L11 6L10 6L10 4L11 4L11 3L8 3L8 4L9 4L9 5L8 5L8 7L9 7L9 8L6 8L6 9L5 9L5 8L0 8L0 9L2 9L2 10L3 10L3 9L5 9L5 10L4 10L4 11L2 11L2 13L0 13L0 15L3 15L3 16L2 16L2 17L1 17L1 16L0 16L0 21L1 21L1 18L2 18L2 20L3 20L3 21L7 21L7 20L8 20L8 23L11 23L11 24L10 24L10 25L9 25L9 24L8 24L8 29L10 29L10 28L11 28L11 25L12 25L12 26L13 26L13 27L12 27L12 29L13 29L13 28L14 28L14 29L20 29L20 28L21 28L21 29L24 29L24 28L22 28L22 27L25 27L25 28L26 28L26 29L27 29L27 28L28 28L28 26L29 26L29 25L27 25L27 24L28 24L28 23L27 23L27 24L26 24L26 22L29 22L29 21L28 21L28 20L26 20L26 21L25 21L25 18L26 18L26 19L27 19L27 18L29 18L29 16L28 16L28 15L27 15L27 16L26 16L26 14L29 14L29 12L28 12L28 10L29 10L29 9L28 9L28 8L27 8L27 9L26 9L26 8L25 8L25 9L24 9L24 8L23 8L23 9L22 9L22 8L21 8L21 2L20 2L20 4L19 4L19 3L17 3L17 1L20 1L20 0L17 0L17 1L16 1L16 0L15 0L15 1L14 1L14 0ZM8 1L8 2L9 2L9 1ZM14 2L14 3L16 3L16 2ZM18 4L18 5L17 5L17 7L16 7L16 6L15 6L15 7L16 7L16 8L19 8L19 9L21 9L21 11L20 11L20 13L21 13L21 14L17 14L17 13L14 13L14 12L15 12L15 11L14 11L14 12L13 12L13 13L12 13L12 11L13 11L13 10L12 10L12 9L11 9L11 8L10 8L10 9L8 9L8 10L9 10L9 12L11 12L11 13L10 13L10 14L9 14L9 13L8 13L8 12L7 12L7 11L6 11L6 10L7 10L7 9L6 9L6 10L5 10L5 11L4 11L4 14L3 14L3 15L4 15L4 16L3 16L3 17L4 17L4 16L5 16L5 15L4 15L4 14L5 14L5 12L7 12L7 13L6 13L6 14L7 14L7 13L8 13L8 15L6 15L6 16L9 16L9 19L10 19L10 20L9 20L9 21L10 21L10 22L13 22L13 23L12 23L12 25L15 25L15 26L19 26L19 25L20 25L20 26L21 26L21 27L22 27L22 26L25 26L25 25L26 25L26 24L25 24L25 25L20 25L20 24L19 24L19 23L18 23L18 22L20 22L20 20L23 20L23 18L24 18L24 17L26 17L26 16L25 16L25 15L24 15L24 16L23 16L23 14L22 14L22 13L23 13L23 12L24 12L24 13L25 13L25 14L26 14L26 12L27 12L27 13L28 13L28 12L27 12L27 10L26 10L26 12L24 12L24 11L25 11L25 10L24 10L24 11L23 11L23 10L22 10L22 9L21 9L21 8L20 8L20 5L19 5L19 4ZM18 5L18 7L19 7L19 5ZM9 6L9 7L10 7L10 6ZM11 6L11 7L12 7L12 6ZM10 9L10 11L11 11L11 9ZM0 10L0 12L1 12L1 10ZM11 14L11 15L10 15L10 17L12 17L12 18L13 18L13 19L12 19L12 21L13 21L13 20L14 20L14 21L17 21L17 22L18 22L18 21L19 21L19 18L20 18L20 19L21 19L21 18L23 18L23 17L21 17L21 16L22 16L22 14L21 14L21 16L20 16L20 15L19 15L19 16L17 16L17 15L16 15L16 14L15 14L15 15L14 15L14 16L15 16L15 17L12 17L12 15L13 15L13 14ZM19 16L19 17L18 17L18 18L17 18L17 17L15 17L15 18L17 18L17 19L16 19L16 20L18 20L18 18L19 18L19 17L20 17L20 16ZM27 16L27 17L28 17L28 16ZM6 17L6 18L7 18L7 19L6 19L6 20L7 20L7 19L8 19L8 17ZM4 18L4 20L5 20L5 18ZM14 19L14 20L15 20L15 19ZM10 20L10 21L11 21L11 20ZM21 21L21 24L24 24L24 21ZM15 22L15 23L14 23L14 24L15 24L15 25L19 25L19 24L15 24L15 23L16 23L16 22ZM22 22L22 23L23 23L23 22ZM9 26L9 27L10 27L10 26ZM14 27L14 28L15 28L15 27ZM16 27L16 28L18 28L18 27ZM19 27L19 28L20 28L20 27ZM26 27L26 28L27 28L27 27ZM0 0L0 7L7 7L7 0ZM1 1L1 6L6 6L6 1ZM2 2L2 5L5 5L5 2ZM22 0L22 7L29 7L29 0ZM23 1L23 6L28 6L28 1ZM24 2L24 5L27 5L27 2ZM0 22L0 29L7 29L7 22ZM1 23L1 28L6 28L6 23ZM2 24L2 27L5 27L5 24Z" fill="#000000"/></g></g></svg>
