<?xml version="1.0" encoding="UTF-8"?>
<svg xmlns="http://www.w3.org/2000/svg" version="1.1" width="500" height="500" viewBox="0 0 500 500"><rect x="0" y="0" width="500" height="500" fill="#ffffff"/><g transform="scale(20)"><g transform="translate(0,0)"><path fill-rule="evenodd" d="M10 0L10 2L11 2L11 0ZM12 0L12 1L13 1L13 2L12 2L12 4L14 4L14 5L11 5L11 6L10 6L10 4L11 4L11 3L8 3L8 4L9 4L9 5L8 5L8 7L9 7L9 8L6 8L6 9L10 9L10 11L11 11L11 9L12 9L12 10L13 10L13 9L14 9L14 10L15 10L15 11L14 11L14 12L13 12L13 11L12 11L12 13L14 13L14 14L15 14L15 15L16 15L16 16L15 16L15 17L16 17L16 19L15 19L15 18L14 18L14 17L12 17L12 15L13 15L13 14L10 14L10 15L11 15L11 16L10 16L10 17L12 17L12 18L13 18L13 19L12 19L12 21L13 21L13 20L14 20L14 21L15 21L15 23L14 23L14 24L15 24L15 25L16 25L16 24L17 24L17 25L25 25L25 18L23 18L23 16L24 16L24 17L25 17L25 14L23 14L23 13L24 13L24 12L25 12L25 10L23 10L23 9L24 9L24 8L23 8L23 9L22 9L22 8L21 8L21 9L22 9L22 10L20 10L20 8L19 8L19 10L17 10L17 11L16 11L16 10L15 10L15 9L18 9L18 8L17 8L17 5L15 5L15 4L17 4L17 2L16 2L16 1L15 1L15 0L14 0L14 1L13 1L13 0ZM8 1L8 2L9 2L9 1ZM14 1L14 2L13 2L13 3L14 3L14 4L15 4L15 3L14 3L14 2L15 2L15 1ZM14 5L14 6L13 6L13 7L12 7L12 6L11 6L11 7L12 7L12 9L13 9L13 8L14 8L14 9L15 9L15 7L16 7L16 6L15 6L15 5ZM9 6L9 7L10 7L10 6ZM14 6L14 7L15 7L15 6ZM0 8L0 9L1 9L1 10L0 10L0 11L1 11L1 12L0 12L0 17L1 17L1 12L3 12L3 14L2 14L2 15L3 15L3 17L4 17L4 16L6 16L6 17L8 17L8 19L9 19L9 20L8 20L8 25L12 25L12 23L13 23L13 22L11 22L11 20L10 20L10 19L11 19L11 18L9 18L9 16L6 16L6 15L8 15L8 14L9 14L9 13L11 13L11 12L5 12L5 13L7 13L7 14L6 14L6 15L5 15L5 14L4 14L4 11L5 11L5 8ZM10 8L10 9L11 9L11 8ZM2 9L2 10L1 10L1 11L3 11L3 10L4 10L4 9ZM6 10L6 11L7 11L7 10ZM19 10L19 11L20 11L20 10ZM22 10L22 12L24 12L24 11L23 11L23 10ZM15 11L15 12L14 12L14 13L15 13L15 14L18 14L18 15L19 15L19 13L20 13L20 14L21 14L21 16L23 16L23 14L22 14L22 13L20 13L20 12L19 12L19 13L18 13L18 12L17 12L17 13L15 13L15 12L16 12L16 11ZM3 14L3 15L4 15L4 14ZM17 17L17 20L20 20L20 17ZM18 18L18 19L19 19L19 18ZM21 18L21 20L23 20L23 18ZM14 19L14 20L15 20L15 19ZM9 20L9 24L10 24L10 20ZM16 21L16 22L18 22L18 23L17 23L17 24L19 24L19 22L20 22L20 24L21 24L21 22L22 22L22 21L21 21L21 22L20 22L20 21L19 21L19 22L18 22L18 21ZM23 22L23 23L22 23L22 24L24 24L24 22ZM15 23L15 24L16 24L16 23ZM0 0L0 7L7 7L7 0ZM1 1L1 6L6 6L6 1ZM2 2L2 5L5 5L5 2ZM18 0L18 7L25 7L25 0ZM19 1L19 6L24 6L24 1ZM20 2L20 5L23 5L23 2ZM0 18L0 25L7 25L7 18ZM1 19L1 24L6 24L6 19ZM2 20L2 23L5 23L5 20Z" fill="#000000"/></g></g></svg>
