<?xml version="1.0" encoding="UTF-8"?>
<svg xmlns="http://www.w3.org/2000/svg" version="1.1" width="500" height="500" viewBox="0 0 500 500"><rect x="0" y="0" width="500" height="500" fill="#ffffff"/><g transform="scale(23.81)"><g transform="translate(0,0)"><path fill-rule="evenodd" d="M9 0L9 1L8 1L8 2L9 2L9 3L8 3L8 4L9 4L9 5L8 5L8 7L9 7L9 8L6 8L6 9L9 9L9 10L4 10L4 9L5 9L5 8L0 8L0 9L1 9L1 10L0 10L0 11L1 11L1 13L7 13L7 12L6 12L6 11L9 11L9 12L8 12L8 15L9 15L9 16L8 16L8 21L15 21L15 20L16 20L16 18L17 18L17 19L18 19L18 20L17 20L17 21L18 21L18 20L19 20L19 21L20 21L20 20L19 20L19 18L20 18L20 17L19 17L19 18L18 18L18 17L16 17L16 16L17 16L17 15L18 15L18 16L20 16L20 14L21 14L21 13L20 13L20 14L19 14L19 13L17 13L17 12L20 12L20 10L21 10L21 9L20 9L20 8L19 8L19 9L20 9L20 10L19 10L19 11L17 11L17 12L16 12L16 13L15 13L15 12L13 12L13 11L14 11L14 10L15 10L15 11L16 11L16 10L18 10L18 8L17 8L17 9L16 9L16 8L15 8L15 9L14 9L14 8L12 8L12 7L13 7L13 5L12 5L12 4L13 4L13 3L12 3L12 4L11 4L11 3L10 3L10 2L11 2L11 1L12 1L12 2L13 2L13 1L12 1L12 0L11 0L11 1L10 1L10 0ZM9 1L9 2L10 2L10 1ZM9 3L9 4L10 4L10 5L9 5L9 7L10 7L10 9L11 9L11 7L12 7L12 5L11 5L11 4L10 4L10 3ZM10 5L10 7L11 7L11 5ZM2 9L2 11L4 11L4 10L3 10L3 9ZM12 9L12 10L9 10L9 11L10 11L10 13L9 13L9 15L12 15L12 14L13 14L13 16L16 16L16 15L17 15L17 14L16 14L16 15L15 15L15 13L14 13L14 14L13 14L13 13L12 13L12 14L11 14L11 12L12 12L12 10L14 10L14 9ZM15 9L15 10L16 10L16 9ZM18 14L18 15L19 15L19 14ZM9 16L9 19L12 19L12 20L15 20L15 18L16 18L16 17L15 17L15 18L14 18L14 17L12 17L12 16ZM11 17L11 18L12 18L12 19L14 19L14 18L12 18L12 17ZM0 0L0 7L7 7L7 0ZM1 1L1 6L6 6L6 1ZM2 2L2 5L5 5L5 2ZM14 0L14 7L21 7L21 0ZM15 1L15 6L20 6L20 1ZM16 2L16 5L19 5L19 2ZM0 14L0 21L7 21L7 14ZM1 15L1 20L6 20L6 15ZM2 16L2 19L5 19L5 16Z" fill="#000000"/></g></g></svg>
