<?xml version="1.0" encoding="UTF-8"?>
<svg xmlns="http://www.w3.org/2000/svg" version="1.1" width="500" height="500" viewBox="0 0 500 500"><rect x="0" y="0" width="500" height="500" fill="#ffffff"/><g transform="scale(23.81)"><g transform="translate(0,0)"><path fill-rule="evenodd" d="M11 0L11 1L8 1L8 2L9 2L9 3L8 3L8 4L9 4L9 5L8 5L8 7L9 7L9 8L6 8L6 9L7 9L7 10L6 10L6 11L5 11L5 12L4 12L4 13L5 13L5 12L6 12L6 13L7 13L7 12L8 12L8 10L9 10L9 11L10 11L10 12L9 12L9 13L8 13L8 15L9 15L9 13L10 13L10 16L11 16L11 14L12 14L12 17L11 17L11 18L12 18L12 20L11 20L11 19L10 19L10 20L9 20L9 16L8 16L8 21L16 21L16 20L17 20L17 21L18 21L18 20L19 20L19 21L20 21L20 20L19 20L19 19L18 19L18 17L16 17L16 16L13 16L13 15L16 15L16 14L18 14L18 15L17 15L17 16L20 16L20 14L21 14L21 13L20 13L20 14L19 14L19 13L18 13L18 12L20 12L20 10L21 10L21 9L20 9L20 8L19 8L19 9L20 9L20 10L19 10L19 11L17 11L17 12L16 12L16 13L15 13L15 12L13 12L13 10L12 10L12 9L14 9L14 10L15 10L15 11L16 11L16 10L18 10L18 8L17 8L17 9L16 9L16 8L15 8L15 9L14 9L14 8L13 8L13 5L12 5L12 4L13 4L13 1L12 1L12 0ZM11 1L11 2L10 2L10 3L9 3L9 4L10 4L10 6L9 6L9 7L10 7L10 11L11 11L11 12L10 12L10 13L11 13L11 12L12 12L12 10L11 10L11 9L12 9L12 8L11 8L11 7L12 7L12 5L11 5L11 4L10 4L10 3L12 3L12 1ZM10 6L10 7L11 7L11 6ZM0 8L0 9L5 9L5 8ZM15 9L15 10L16 10L16 9ZM1 10L1 11L0 11L0 13L1 13L1 11L2 11L2 12L3 12L3 11L4 11L4 10L3 10L3 11L2 11L2 10ZM6 11L6 12L7 12L7 11ZM12 13L12 14L15 14L15 13ZM12 17L12 18L13 18L13 20L15 20L15 19L17 19L17 18L15 18L15 17ZM19 17L19 18L20 18L20 17ZM0 0L0 7L7 7L7 0ZM1 1L1 6L6 6L6 1ZM2 2L2 5L5 5L5 2ZM14 0L14 7L21 7L21 0ZM15 1L15 6L20 6L20 1ZM16 2L16 5L19 5L19 2ZM0 14L0 21L7 21L7 14ZM1 15L1 20L6 20L6 15ZM2 16L2 19L5 19L5 16Z" fill="#000000"/></g></g></svg>
