<?xml version="1.0" encoding="UTF-8"?>
<svg xmlns="http://www.w3.org/2000/svg" version="1.1" width="500" height="500" viewBox="0 0 500 500"><rect x="0" y="0" width="500" height="500" fill="#ffffff"/><g transform="scale(20)"><g transform="translate(0,0)"><path fill-rule="evenodd" d="M8 0L8 1L10 1L10 0ZM13 0L13 1L14 1L14 2L11 2L11 4L10 4L10 3L9 3L9 2L8 2L8 5L9 5L9 6L8 6L8 7L9 7L9 8L8 8L8 9L7 9L7 8L6 8L6 9L7 9L7 10L5 10L5 9L4 9L4 8L0 8L0 10L1 10L1 11L2 11L2 12L1 12L1 13L2 13L2 14L1 14L1 15L0 15L0 16L1 16L1 15L2 15L2 16L3 16L3 17L4 17L4 15L3 15L3 14L4 14L4 13L3 13L3 12L5 12L5 14L6 14L6 15L8 15L8 14L6 14L6 13L7 13L7 12L6 12L6 11L8 11L8 12L9 12L9 14L12 14L12 16L11 16L11 17L10 17L10 15L9 15L9 16L8 16L8 18L10 18L10 21L8 21L8 25L9 25L9 23L10 23L10 21L12 21L12 22L11 22L11 23L14 23L14 20L15 20L15 19L14 19L14 20L13 20L13 18L16 18L16 21L18 21L18 22L16 22L16 23L15 23L15 24L14 24L14 25L16 25L16 23L17 23L17 25L19 25L19 24L22 24L22 25L25 25L25 24L23 24L23 23L24 23L24 22L25 22L25 21L24 21L24 20L25 20L25 17L24 17L24 16L25 16L25 15L24 15L24 14L25 14L25 11L24 11L24 10L23 10L23 8L20 8L20 9L22 9L22 10L19 10L19 11L20 11L20 14L21 14L21 15L22 15L22 14L21 14L21 12L22 12L22 13L23 13L23 11L24 11L24 14L23 14L23 16L20 16L20 15L19 15L19 16L18 16L18 14L19 14L19 12L18 12L18 14L17 14L17 15L15 15L15 14L16 14L16 13L17 13L17 11L11 11L11 13L10 13L10 12L9 12L9 11L8 11L8 10L10 10L10 9L9 9L9 8L10 8L10 7L11 7L11 8L12 8L12 7L13 7L13 6L14 6L14 7L15 7L15 8L17 8L17 10L18 10L18 8L17 8L17 5L16 5L16 4L17 4L17 2L15 2L15 0ZM14 2L14 4L13 4L13 3L12 3L12 5L10 5L10 6L9 6L9 7L10 7L10 6L11 6L11 7L12 7L12 5L14 5L14 6L15 6L15 7L16 7L16 5L15 5L15 2ZM24 8L24 9L25 9L25 8ZM1 9L1 10L2 10L2 11L3 11L3 9ZM14 9L14 10L15 10L15 9ZM22 10L22 11L23 11L23 10ZM12 12L12 14L13 14L13 16L12 16L12 17L11 17L11 18L12 18L12 17L13 17L13 16L14 16L14 14L15 14L15 12L14 12L14 13L13 13L13 12ZM6 16L6 17L7 17L7 16ZM15 16L15 17L16 17L16 16ZM17 17L17 20L20 20L20 17ZM23 17L23 18L22 18L22 20L21 20L21 22L22 22L22 21L23 21L23 18L24 18L24 17ZM18 18L18 19L19 19L19 18ZM11 19L11 20L12 20L12 19ZM19 21L19 22L20 22L20 21ZM12 24L12 25L13 25L13 24ZM0 0L0 7L7 7L7 0ZM1 1L1 6L6 6L6 1ZM2 2L2 5L5 5L5 2ZM18 0L18 7L25 7L25 0ZM19 1L19 6L24 6L24 1ZM20 2L20 5L23 5L23 2ZM0 18L0 25L7 25L7 18ZM1 19L1 24L6 24L6 19ZM2 20L2 23L5 23L5 20Z" fill="#000000"/></g></g></svg>
