<?xml version="1.0" encoding="UTF-8"?>
<svg xmlns="http://www.w3.org/2000/svg" version="1.1" width="500" height="500" viewBox="0 0 500 500"><rect x="0" y="0" width="500" height="500" fill="#ffffff"/><g transform="scale(20)"><g transform="translate(0,0)"><path fill-rule="evenodd" d="M10 0L10 2L11 2L11 0ZM12 0L12 1L13 1L13 2L12 2L12 4L14 4L14 5L11 5L11 6L10 6L10 4L11 4L11 3L8 3L8 4L9 4L9 5L8 5L8 7L9 7L9 8L6 8L6 9L5 9L5 8L0 8L0 12L1 12L1 13L0 13L0 17L1 17L1 13L2 13L2 14L3 14L3 15L2 15L2 17L4 17L4 16L5 16L5 17L7 17L7 16L5 16L5 15L7 15L7 14L6 14L6 13L7 13L7 12L8 12L8 14L9 14L9 15L8 15L8 16L9 16L9 15L10 15L10 16L11 16L11 17L12 17L12 18L13 18L13 19L12 19L12 21L13 21L13 20L14 20L14 21L15 21L15 23L14 23L14 24L15 24L15 25L16 25L16 24L17 24L17 25L19 25L19 24L20 24L20 25L21 25L21 24L22 24L22 25L25 25L25 20L24 20L24 19L25 19L25 18L23 18L23 16L24 16L24 17L25 17L25 14L24 14L24 13L25 13L25 12L24 12L24 11L25 11L25 10L24 10L24 8L23 8L23 10L22 10L22 11L23 11L23 12L21 12L21 11L20 11L20 10L18 10L18 8L17 8L17 6L16 6L16 5L15 5L15 4L17 4L17 3L16 3L16 1L15 1L15 0L14 0L14 1L13 1L13 0ZM8 1L8 2L9 2L9 1ZM13 2L13 3L14 3L14 4L15 4L15 2ZM14 5L14 6L13 6L13 7L12 7L12 6L11 6L11 7L12 7L12 9L11 9L11 8L10 8L10 9L9 9L9 10L8 10L8 9L6 9L6 10L7 10L7 11L6 11L6 12L5 12L5 11L4 11L4 12L2 12L2 13L4 13L4 14L5 14L5 13L6 13L6 12L7 12L7 11L9 11L9 12L11 12L11 13L10 13L10 15L11 15L11 14L13 14L13 15L12 15L12 17L15 17L15 19L14 19L14 20L15 20L15 19L16 19L16 17L15 17L15 16L14 16L14 15L15 15L15 14L17 14L17 13L18 13L18 14L19 14L19 16L23 16L23 14L21 14L21 13L20 13L20 12L19 12L19 11L18 11L18 12L17 12L17 13L14 13L14 12L16 12L16 11L14 11L14 12L13 12L13 13L12 13L12 11L13 11L13 10L12 10L12 9L14 9L14 10L17 10L17 9L15 9L15 8L16 8L16 6L15 6L15 5ZM9 6L9 7L10 7L10 6ZM14 6L14 8L15 8L15 6ZM19 8L19 9L20 9L20 8ZM21 8L21 9L22 9L22 8ZM1 9L1 11L2 11L2 10L3 10L3 9ZM4 9L4 10L5 10L5 9ZM10 9L10 11L11 11L11 9ZM4 12L4 13L5 13L5 12ZM18 12L18 13L19 13L19 12ZM23 12L23 13L24 13L24 12ZM16 15L16 16L17 16L17 15ZM8 17L8 19L9 19L9 18L10 18L10 19L11 19L11 18L10 18L10 17ZM17 17L17 20L20 20L20 17ZM21 17L21 18L22 18L22 17ZM18 18L18 19L19 19L19 18ZM22 19L22 20L23 20L23 21L24 21L24 20L23 20L23 19ZM8 20L8 25L12 25L12 23L13 23L13 22L11 22L11 20L10 20L10 22L9 22L9 20ZM16 21L16 23L15 23L15 24L16 24L16 23L17 23L17 24L18 24L18 23L20 23L20 24L21 24L21 23L22 23L22 24L24 24L24 22L22 22L22 21L21 21L21 22L18 22L18 21ZM10 22L10 23L9 23L9 24L10 24L10 23L11 23L11 22ZM17 22L17 23L18 23L18 22ZM0 0L0 7L7 7L7 0ZM1 1L1 6L6 6L6 1ZM2 2L2 5L5 5L5 2ZM18 0L18 7L25 7L25 0ZM19 1L19 6L24 6L24 1ZM20 2L20 5L23 5L23 2ZM0 18L0 25L7 25L7 18ZM1 19L1 24L6 24L6 19ZM2 20L2 23L5 23L5 20Z" fill="#000000"/></g></g></svg>
