<?xml version="1.0" encoding="UTF-8"?>
<svg xmlns="http://www.w3.org/2000/svg" version="1.1" width="500" height="500" viewBox="0 0 500 500"><rect x="0" y="0" width="500" height="500" fill="#ffffff"/><g transform="scale(20)"><g transform="translate(0,0)"><path fill-rule="evenodd" d="M8 0L8 1L11 1L11 3L10 3L10 2L9 2L9 3L10 3L10 5L9 5L9 6L8 6L8 8L9 8L9 9L10 9L10 10L9 10L9 11L7 11L7 10L8 10L8 9L7 9L7 8L6 8L6 9L5 9L5 8L3 8L3 9L2 9L2 8L0 8L0 10L1 10L1 11L0 11L0 12L3 12L3 13L2 13L2 14L1 14L1 13L0 13L0 17L1 17L1 15L3 15L3 17L7 17L7 16L9 16L9 17L8 17L8 18L10 18L10 17L11 17L11 18L12 18L12 19L11 19L11 20L10 20L10 21L12 21L12 22L10 22L10 23L8 23L8 25L10 25L10 23L11 23L11 25L14 25L14 19L15 19L15 18L16 18L16 20L15 20L15 25L17 25L17 24L16 24L16 22L17 22L17 21L18 21L18 22L19 22L19 21L21 21L21 22L20 22L20 23L18 23L18 24L19 24L19 25L21 25L21 23L22 23L22 24L24 24L24 25L25 25L25 20L24 20L24 21L21 21L21 18L22 18L22 19L23 19L23 18L24 18L24 19L25 19L25 18L24 18L24 17L25 17L25 14L24 14L24 13L25 13L25 10L24 10L24 11L23 11L23 10L22 10L22 9L20 9L20 10L18 10L18 9L19 9L19 8L18 8L18 9L16 9L16 8L17 8L17 6L16 6L16 7L15 7L15 4L16 4L16 3L17 3L17 2L15 2L15 1L12 1L12 0ZM16 0L16 1L17 1L17 0ZM12 2L12 4L14 4L14 3L13 3L13 2ZM10 5L10 6L9 6L9 7L10 7L10 9L11 9L11 10L10 10L10 11L9 11L9 12L7 12L7 11L5 11L5 12L4 12L4 13L3 13L3 15L4 15L4 13L5 13L5 15L6 15L6 16L7 16L7 15L6 15L6 14L8 14L8 15L10 15L10 16L12 16L12 15L14 15L14 14L15 14L15 13L13 13L13 12L14 12L14 9L12 9L12 6L13 6L13 8L14 8L14 6L13 6L13 5L12 5L12 6L11 6L11 5ZM10 6L10 7L11 7L11 6ZM24 8L24 9L25 9L25 8ZM1 9L1 10L2 10L2 9ZM3 9L3 11L4 11L4 9ZM6 9L6 10L7 10L7 9ZM12 10L12 11L13 11L13 10ZM17 10L17 12L16 12L16 16L19 16L19 15L20 15L20 16L22 16L22 15L23 15L23 14L22 14L22 13L24 13L24 12L20 12L20 11L19 11L19 13L18 13L18 14L19 14L19 15L17 15L17 12L18 12L18 10ZM21 10L21 11L22 11L22 10ZM5 12L5 13L7 13L7 12ZM9 12L9 14L10 14L10 15L11 15L11 12ZM12 13L12 14L13 14L13 13ZM19 13L19 14L21 14L21 15L22 15L22 14L21 14L21 13ZM13 16L13 17L12 17L12 18L15 18L15 16ZM17 17L17 20L20 20L20 17ZM22 17L22 18L23 18L23 17ZM18 18L18 19L19 19L19 18ZM12 19L12 21L13 21L13 19ZM8 20L8 22L9 22L9 20ZM12 22L12 23L13 23L13 22ZM0 0L0 7L7 7L7 0ZM1 1L1 6L6 6L6 1ZM2 2L2 5L5 5L5 2ZM18 0L18 7L25 7L25 0ZM19 1L19 6L24 6L24 1ZM20 2L20 5L23 5L23 2ZM0 18L0 25L7 25L7 18ZM1 19L1 24L6 24L6 19ZM2 20L2 23L5 23L5 20Z" fill="#000000"/></g></g></svg>
