<?xml version="1.0" encoding="UTF-8"?>
<svg xmlns="http://www.w3.org/2000/svg" version="1.1" width="500" height="500" viewBox="0 0 500 500"><rect x="0" y="0" width="500" height="500" fill="#ffffff"/><g transform="scale(20)"><g transform="translate(0,0)"><path fill-rule="evenodd" d="M9 0L9 1L8 1L8 2L9 2L9 3L8 3L8 4L10 4L10 7L11 7L11 4L12 4L12 5L13 5L13 6L12 6L12 9L13 9L13 8L14 8L14 9L17 9L17 10L15 10L15 11L14 11L14 12L15 12L15 13L12 13L12 11L13 11L13 10L11 10L11 11L10 11L10 9L11 9L11 8L6 8L6 9L5 9L5 8L0 8L0 9L3 9L3 10L4 10L4 11L3 11L3 12L2 12L2 10L0 10L0 11L1 11L1 12L2 12L2 13L0 13L0 17L1 17L1 14L2 14L2 16L3 16L3 17L4 17L4 16L5 16L5 15L4 15L4 16L3 16L3 14L2 14L2 13L3 13L3 12L4 12L4 14L5 14L5 13L7 13L7 14L6 14L6 15L7 15L7 16L6 16L6 17L8 17L8 19L9 19L9 20L8 20L8 25L11 25L11 24L10 24L10 23L9 23L9 22L10 22L10 20L11 20L11 21L12 21L12 22L13 22L13 23L12 23L12 25L13 25L13 24L14 24L14 25L16 25L16 24L17 24L17 25L18 25L18 24L19 24L19 25L20 25L20 23L18 23L18 22L19 22L19 21L20 21L20 22L22 22L22 23L21 23L21 24L22 24L22 25L25 25L25 20L24 20L24 21L23 21L23 20L22 20L22 19L21 19L21 17L22 17L22 18L23 18L23 19L25 19L25 18L23 18L23 16L24 16L24 17L25 17L25 14L24 14L24 13L25 13L25 10L23 10L23 9L24 9L24 8L23 8L23 9L22 9L22 8L21 8L21 9L22 9L22 11L24 11L24 12L22 12L22 13L21 13L21 11L20 11L20 10L18 10L18 8L17 8L17 5L14 5L14 4L12 4L12 2L13 2L13 1L15 1L15 2L14 2L14 3L16 3L16 4L17 4L17 3L16 3L16 1L15 1L15 0L13 0L13 1L11 1L11 2L10 2L10 0ZM10 3L10 4L11 4L11 3ZM8 5L8 7L9 7L9 5ZM13 6L13 7L14 7L14 8L16 8L16 6L15 6L15 7L14 7L14 6ZM19 8L19 9L20 9L20 8ZM4 9L4 10L5 10L5 11L4 11L4 12L5 12L5 11L6 11L6 12L8 12L8 14L9 14L9 15L10 15L10 17L9 17L9 19L10 19L10 18L13 18L13 19L12 19L12 21L15 21L15 22L16 22L16 23L14 23L14 24L16 24L16 23L17 23L17 22L18 22L18 21L15 21L15 20L14 20L14 19L16 19L16 17L14 17L14 16L16 16L16 15L14 15L14 16L13 16L13 17L12 17L12 15L13 15L13 14L12 14L12 13L11 13L11 12L10 12L10 13L11 13L11 15L10 15L10 14L9 14L9 12L8 12L8 11L6 11L6 10L7 10L7 9L6 9L6 10L5 10L5 9ZM8 9L8 10L9 10L9 9ZM15 11L15 12L17 12L17 13L15 13L15 14L17 14L17 13L18 13L18 14L20 14L20 15L21 15L21 13L18 13L18 12L17 12L17 11ZM19 11L19 12L20 12L20 11ZM17 15L17 16L19 16L19 15ZM22 15L22 16L23 16L23 15ZM17 17L17 20L20 20L20 17ZM18 18L18 19L19 19L19 18ZM21 20L21 21L22 21L22 22L23 22L23 23L22 23L22 24L24 24L24 22L23 22L23 21L22 21L22 20ZM0 0L0 7L7 7L7 0ZM1 1L1 6L6 6L6 1ZM2 2L2 5L5 5L5 2ZM18 0L18 7L25 7L25 0ZM19 1L19 6L24 6L24 1ZM20 2L20 5L23 5L23 2ZM0 18L0 25L7 25L7 18ZM1 19L1 24L6 24L6 19ZM2 20L2 23L5 23L5 20Z" fill="#000000"/></g></g></svg>
