<?xml version="1.0" encoding="UTF-8"?>
<svg xmlns="http://www.w3.org/2000/svg" version="1.1" width="500" height="500" viewBox="0 0 500 500"><rect x="0" y="0" width="500" height="500" fill="#ffffff"/><g transform="scale(17.241)"><g transform="translate(0,0)"><path fill-rule="evenodd" d="M10 0L10 2L11 2L11 0ZM12 0L12 1L15 1L15 2L14 2L14 3L13 3L13 2L12 2L12 4L13 4L13 5L11 5L11 6L10 6L10 4L11 4L11 3L8 3L8 4L9 4L9 5L8 5L8 7L9 7L9 8L6 8L6 9L5 9L5 8L0 8L0 11L1 11L1 12L3 12L3 13L1 13L1 15L0 15L0 16L2 16L2 17L0 17L0 21L1 21L1 18L2 18L2 20L3 20L3 21L8 21L8 23L10 23L10 24L8 24L8 29L9 29L9 27L10 27L10 28L11 28L11 27L10 27L10 25L12 25L12 26L13 26L13 27L12 27L12 29L13 29L13 28L14 28L14 29L15 29L15 28L16 28L16 29L20 29L20 28L21 28L21 27L23 27L23 28L24 28L24 29L27 29L27 28L28 28L28 26L29 26L29 25L27 25L27 24L29 24L29 23L27 23L27 24L26 24L26 22L29 22L29 21L28 21L28 20L26 20L26 17L27 17L27 16L29 16L29 15L28 15L28 14L29 14L29 12L28 12L28 13L27 13L27 12L26 12L26 11L27 11L27 10L29 10L29 9L28 9L28 8L27 8L27 10L26 10L26 8L25 8L25 9L24 9L24 8L23 8L23 9L22 9L22 8L21 8L21 9L19 9L19 8L20 8L20 7L21 7L21 6L20 6L20 7L19 7L19 5L21 5L21 4L20 4L20 3L21 3L21 2L20 2L20 3L19 3L19 5L15 5L15 4L18 4L18 3L17 3L17 1L15 1L15 0ZM18 0L18 1L21 1L21 0ZM8 1L8 2L9 2L9 1ZM15 2L15 3L14 3L14 4L15 4L15 3L16 3L16 2ZM13 5L13 7L12 7L12 6L11 6L11 7L12 7L12 9L11 9L11 8L10 8L10 9L9 9L9 12L11 12L11 13L9 13L9 16L8 16L8 15L5 15L5 13L6 13L6 14L8 14L8 13L6 13L6 12L7 12L7 11L8 11L8 9L6 9L6 10L7 10L7 11L5 11L5 9L1 9L1 10L2 10L2 11L3 11L3 10L4 10L4 11L5 11L5 13L3 13L3 14L2 14L2 16L3 16L3 14L4 14L4 15L5 15L5 16L8 16L8 17L9 17L9 21L10 21L10 18L11 18L11 22L10 22L10 23L11 23L11 22L13 22L13 23L12 23L12 25L15 25L15 26L17 26L17 27L16 27L16 28L20 28L20 27L21 27L21 26L23 26L23 27L24 27L24 28L25 28L25 27L26 27L26 28L27 28L27 25L26 25L26 26L25 26L25 25L21 25L21 26L20 26L20 27L18 27L18 26L19 26L19 25L20 25L20 24L19 24L19 22L20 22L20 18L19 18L19 17L20 17L20 15L21 15L21 19L23 19L23 18L22 18L22 17L25 17L25 16L24 16L24 15L22 15L22 14L19 14L19 13L21 13L21 11L22 11L22 13L25 13L25 15L26 15L26 16L27 16L27 15L26 15L26 14L27 14L27 13L25 13L25 11L26 11L26 10L21 10L21 11L20 11L20 10L17 10L17 9L15 9L15 8L16 8L16 6L15 6L15 5ZM9 6L9 7L10 7L10 6ZM14 6L14 7L15 7L15 6ZM17 6L17 8L19 8L19 7L18 7L18 6ZM10 9L10 11L11 11L11 9ZM12 9L12 10L13 10L13 11L12 11L12 13L13 13L13 12L14 12L14 13L19 13L19 12L17 12L17 10L14 10L14 9ZM14 11L14 12L15 12L15 11ZM23 11L23 12L24 12L24 11ZM10 14L10 16L9 16L9 17L12 17L12 18L13 18L13 19L12 19L12 21L13 21L13 20L14 20L14 21L17 21L17 22L15 22L15 23L14 23L14 24L16 24L16 25L17 25L17 26L18 26L18 25L19 25L19 24L16 24L16 23L17 23L17 22L19 22L19 20L17 20L17 18L15 18L15 17L19 17L19 16L17 16L17 14L15 14L15 15L14 15L14 16L15 16L15 17L12 17L12 15L13 15L13 14ZM18 14L18 15L19 15L19 14ZM2 17L2 18L3 18L3 19L4 19L4 20L8 20L8 19L6 19L6 18L7 18L7 17ZM28 17L28 18L29 18L29 17ZM18 18L18 19L19 19L19 18ZM14 19L14 20L15 20L15 19ZM24 19L24 20L25 20L25 22L26 22L26 20L25 20L25 19ZM21 21L21 24L24 24L24 21ZM22 22L22 23L23 23L23 22ZM24 26L24 27L25 27L25 26ZM14 27L14 28L15 28L15 27ZM0 0L0 7L7 7L7 0ZM1 1L1 6L6 6L6 1ZM2 2L2 5L5 5L5 2ZM22 0L22 7L29 7L29 0ZM23 1L23 6L28 6L28 1ZM24 2L24 5L27 5L27 2ZM0 22L0 29L7 29L7 22ZM1 23L1 28L6 28L6 23ZM2 24L2 27L5 27L5 24Z" fill="#000000"/></g></g></svg>
