<?xml version="1.0" encoding="UTF-8"?>
<svg xmlns="http://www.w3.org/2000/svg" version="1.1" width="500" height="500" viewBox="0 0 500 500"><rect x="0" y="0" width="500" height="500" fill="#ffffff"/><g transform="scale(20)"><g transform="translate(0,0)"><path fill-rule="evenodd" d="M8 0L8 4L10 4L10 3L11 3L11 4L12 4L12 2L11 2L11 0ZM12 0L12 1L13 1L13 2L15 2L15 1L16 1L16 2L17 2L17 1L16 1L16 0L15 0L15 1L13 1L13 0ZM9 2L9 3L10 3L10 2ZM13 3L13 5L11 5L11 6L10 6L10 7L9 7L9 5L8 5L8 7L9 7L9 8L10 8L10 7L11 7L11 6L12 6L12 8L11 8L11 9L9 9L9 10L8 10L8 11L7 11L7 10L5 10L5 9L7 9L7 8L4 8L4 9L2 9L2 8L0 8L0 9L1 9L1 11L0 11L0 12L2 12L2 13L0 13L0 14L3 14L3 15L2 15L2 16L0 16L0 17L2 17L2 16L3 16L3 15L4 15L4 17L7 17L7 16L5 16L5 15L8 15L8 18L9 18L9 19L8 19L8 21L10 21L10 22L9 22L9 23L8 23L8 25L9 25L9 24L10 24L10 25L12 25L12 24L13 24L13 25L15 25L15 23L17 23L17 24L18 24L18 23L19 23L19 24L21 24L21 23L20 23L20 22L19 22L19 21L23 21L23 23L22 23L22 25L25 25L25 24L24 24L24 22L25 22L25 19L24 19L24 21L23 21L23 16L24 16L24 17L25 17L25 15L23 15L23 14L22 14L22 13L23 13L23 11L22 11L22 10L21 10L21 9L25 9L25 8L21 8L21 9L20 9L20 8L19 8L19 10L18 10L18 11L19 11L19 12L18 12L18 13L17 13L17 12L16 12L16 9L17 9L17 8L16 8L16 9L15 9L15 8L13 8L13 5L14 5L14 7L15 7L15 5L16 5L16 3L15 3L15 5L14 5L14 3ZM16 6L16 7L17 7L17 6ZM12 8L12 9L11 9L11 10L9 10L9 11L8 11L8 12L9 12L9 13L10 13L10 14L11 14L11 15L9 15L9 18L10 18L10 19L11 19L11 18L12 18L12 17L13 17L13 18L15 18L15 19L14 19L14 21L16 21L16 20L15 20L15 19L16 19L16 18L15 18L15 17L16 17L16 16L21 16L21 17L22 17L22 16L21 16L21 15L22 15L22 14L21 14L21 15L20 15L20 13L21 13L21 12L22 12L22 11L21 11L21 10L20 10L20 13L18 13L18 15L16 15L16 16L15 16L15 17L13 17L13 16L14 16L14 15L15 15L15 14L13 14L13 13L12 13L12 12L13 12L13 11L12 11L12 12L11 12L11 13L10 13L10 11L11 11L11 10L12 10L12 9L13 9L13 10L14 10L14 9L13 9L13 8ZM2 10L2 11L3 11L3 13L4 13L4 15L5 15L5 14L7 14L7 13L6 13L6 12L7 12L7 11L5 11L5 13L4 13L4 10ZM14 11L14 13L16 13L16 14L17 14L17 13L16 13L16 12L15 12L15 11ZM24 12L24 13L25 13L25 12ZM12 15L12 16L11 16L11 17L12 17L12 16L13 16L13 15ZM17 17L17 20L20 20L20 17ZM18 18L18 19L19 19L19 18ZM21 18L21 20L22 20L22 18ZM12 19L12 20L11 20L11 23L10 23L10 24L12 24L12 23L13 23L13 24L14 24L14 23L15 23L15 22L13 22L13 21L12 21L12 20L13 20L13 19ZM17 21L17 23L18 23L18 21ZM0 0L0 7L7 7L7 0ZM1 1L1 6L6 6L6 1ZM2 2L2 5L5 5L5 2ZM18 0L18 7L25 7L25 0ZM19 1L19 6L24 6L24 1ZM20 2L20 5L23 5L23 2ZM0 18L0 25L7 25L7 18ZM1 19L1 24L6 24L6 19ZM2 20L2 23L5 23L5 20Z" fill="#000000"/></g></g></svg>
