<?xml version="1.0" encoding="UTF-8"?>
<svg xmlns="http://www.w3.org/2000/svg" version="1.1" width="500" height="500" viewBox="0 0 500 500"><rect x="0" y="0" width="500" height="500" fill="#ffffff"/><g transform="scale(20)"><g transform="translate(0,0)"><path fill-rule="evenodd" d="M9 0L9 1L8 1L8 3L9 3L9 4L8 4L8 8L6 8L6 9L5 9L5 10L6 10L6 11L7 11L7 10L9 10L9 11L8 11L8 14L5 14L5 13L7 13L7 12L5 12L5 13L4 13L4 12L3 12L3 11L4 11L4 10L2 10L2 8L0 8L0 10L2 10L2 11L1 11L1 12L0 12L0 13L1 13L1 14L0 14L0 15L1 15L1 16L0 16L0 17L4 17L4 16L5 16L5 17L7 17L7 16L5 16L5 15L8 15L8 16L10 16L10 15L11 15L11 14L12 14L12 16L11 16L11 17L13 17L13 19L15 19L15 20L16 20L16 22L15 22L15 21L14 21L14 20L13 20L13 21L14 21L14 22L12 22L12 23L11 23L11 24L9 24L9 23L10 23L10 22L11 22L11 20L12 20L12 19L11 19L11 18L10 18L10 17L8 17L8 19L9 19L9 20L10 20L10 22L9 22L9 21L8 21L8 22L9 22L9 23L8 23L8 25L11 25L11 24L12 24L12 23L13 23L13 25L15 25L15 24L14 24L14 23L16 23L16 25L19 25L19 23L16 23L16 22L18 22L18 21L20 21L20 23L22 23L22 22L23 22L23 21L24 21L24 20L23 20L23 19L25 19L25 13L23 13L23 14L21 14L21 15L23 15L23 16L22 16L22 17L21 17L21 16L17 16L17 15L16 15L16 18L14 18L14 17L15 17L15 16L14 16L14 15L13 15L13 13L14 13L14 14L15 14L15 13L16 13L16 14L18 14L18 15L19 15L19 14L20 14L20 13L19 13L19 9L21 9L21 11L23 11L23 12L24 12L24 11L25 11L25 9L24 9L24 8L22 8L22 9L21 9L21 8L18 8L18 12L17 12L17 10L16 10L16 11L15 11L15 9L16 9L16 8L17 8L17 5L16 5L16 4L17 4L17 3L15 3L15 2L16 2L16 1L17 1L17 0L15 0L15 2L14 2L14 3L15 3L15 6L14 6L14 8L13 8L13 6L12 6L12 5L11 5L11 6L10 6L10 5L9 5L9 4L12 4L12 3L13 3L13 1L14 1L14 0L12 0L12 1L11 1L11 2L9 2L9 1L10 1L10 0ZM13 4L13 5L14 5L14 4ZM9 6L9 7L10 7L10 8L8 8L8 9L9 9L9 10L10 10L10 8L11 8L11 9L12 9L12 10L11 10L11 11L9 11L9 13L12 13L12 12L13 12L13 10L14 10L14 9L15 9L15 8L14 8L14 9L13 9L13 8L12 8L12 6L11 6L11 7L10 7L10 6ZM15 6L15 7L16 7L16 6ZM3 8L3 9L4 9L4 8ZM6 9L6 10L7 10L7 9ZM22 9L22 10L24 10L24 9ZM1 12L1 13L2 13L2 12ZM3 13L3 14L1 14L1 15L2 15L2 16L4 16L4 15L5 15L5 14L4 14L4 13ZM3 14L3 15L4 15L4 14ZM9 14L9 15L10 15L10 14ZM23 14L23 15L24 15L24 14ZM13 16L13 17L14 17L14 16ZM23 16L23 18L24 18L24 16ZM17 17L17 20L20 20L20 17ZM18 18L18 19L19 19L19 18ZM10 19L10 20L11 20L11 19ZM21 20L21 22L22 22L22 21L23 21L23 20ZM24 22L24 23L25 23L25 22ZM20 24L20 25L22 25L22 24ZM23 24L23 25L25 25L25 24ZM0 0L0 7L7 7L7 0ZM1 1L1 6L6 6L6 1ZM2 2L2 5L5 5L5 2ZM18 0L18 7L25 7L25 0ZM19 1L19 6L24 6L24 1ZM20 2L20 5L23 5L23 2ZM0 18L0 25L7 25L7 18ZM1 19L1 24L6 24L6 19ZM2 20L2 23L5 23L5 20Z" fill="#000000"/></g></g></svg>
