<?xml version="1.0" encoding="UTF-8"?>
<svg xmlns="http://www.w3.org/2000/svg" version="1.1" width="500" height="500" viewBox="0 0 500 500"><rect x="0" y="0" width="500" height="500" fill="#ffffff"/><g transform="scale(20)"><g transform="translate(0,0)"><path fill-rule="evenodd" d="M9 0L9 1L8 1L8 2L9 2L9 3L8 3L8 4L10 4L10 7L11 7L11 4L12 4L12 5L13 5L13 6L12 6L12 9L13 9L13 10L11 10L11 11L10 11L10 9L11 9L11 8L6 8L6 9L7 9L7 10L6 10L6 11L4 11L4 10L3 10L3 9L5 9L5 8L0 8L0 9L1 9L1 10L0 10L0 11L4 11L4 13L3 13L3 12L2 12L2 13L1 13L1 12L0 12L0 17L1 17L1 14L2 14L2 17L4 17L4 16L5 16L5 17L7 17L7 16L5 16L5 15L4 15L4 14L5 14L5 12L6 12L6 13L7 13L7 12L9 12L9 13L8 13L8 14L9 14L9 13L10 13L10 15L8 15L8 16L9 16L9 17L8 17L8 19L10 19L10 20L8 20L8 25L9 25L9 24L11 24L11 25L12 25L12 24L13 24L13 25L14 25L14 24L13 24L13 23L12 23L12 24L11 24L11 22L13 22L13 21L14 21L14 22L15 22L15 21L17 21L17 22L16 22L16 23L15 23L15 25L16 25L16 24L18 24L18 25L25 25L25 21L23 21L23 20L22 20L22 19L25 19L25 18L23 18L23 16L19 16L19 15L20 15L20 13L21 13L21 14L22 14L22 15L25 15L25 14L22 14L22 13L24 13L24 12L25 12L25 10L23 10L23 11L24 11L24 12L18 12L18 11L17 11L17 10L15 10L15 9L14 9L14 8L17 8L17 9L18 9L18 8L17 8L17 5L15 5L15 4L17 4L17 2L16 2L16 1L15 1L15 0L14 0L14 1L11 1L11 2L10 2L10 0ZM14 1L14 2L12 2L12 4L13 4L13 5L14 5L14 6L13 6L13 8L14 8L14 6L15 6L15 7L16 7L16 6L15 6L15 5L14 5L14 4L15 4L15 3L16 3L16 2L15 2L15 1ZM10 3L10 4L11 4L11 3ZM13 3L13 4L14 4L14 3ZM8 5L8 7L9 7L9 5ZM19 8L19 10L20 10L20 11L21 11L21 10L22 10L22 8L21 8L21 10L20 10L20 8ZM23 8L23 9L24 9L24 8ZM8 10L8 11L9 11L9 10ZM13 10L13 11L12 11L12 12L14 12L14 13L13 13L13 14L12 14L12 13L11 13L11 12L10 12L10 13L11 13L11 15L10 15L10 16L11 16L11 17L9 17L9 18L11 18L11 19L12 19L12 20L11 20L11 21L13 21L13 20L14 20L14 21L15 21L15 20L14 20L14 19L13 19L13 18L14 18L14 17L15 17L15 19L16 19L16 16L17 16L17 15L16 15L16 16L14 16L14 15L15 15L15 14L19 14L19 13L15 13L15 10ZM6 11L6 12L7 12L7 11ZM16 11L16 12L17 12L17 11ZM2 13L2 14L3 14L3 13ZM14 13L14 14L13 14L13 15L11 15L11 16L13 16L13 17L11 17L11 18L13 18L13 17L14 17L14 16L13 16L13 15L14 15L14 14L15 14L15 13ZM6 14L6 15L7 15L7 14ZM3 15L3 16L4 16L4 15ZM24 16L24 17L25 17L25 16ZM17 17L17 20L20 20L20 17ZM18 18L18 19L19 19L19 18ZM21 18L21 19L22 19L22 18ZM19 21L19 22L18 22L18 23L19 23L19 22L20 22L20 24L24 24L24 22L22 22L22 21L21 21L21 22L20 22L20 21ZM9 22L9 23L10 23L10 22ZM0 0L0 7L7 7L7 0ZM1 1L1 6L6 6L6 1ZM2 2L2 5L5 5L5 2ZM18 0L18 7L25 7L25 0ZM19 1L19 6L24 6L24 1ZM20 2L20 5L23 5L23 2ZM0 18L0 25L7 25L7 18ZM1 19L1 24L6 24L6 19ZM2 20L2 23L5 23L5 20Z" fill="#000000"/></g></g></svg>
