<?xml version="1.0" encoding="UTF-8"?>
<svg xmlns="http://www.w3.org/2000/svg" version="1.1" width="500" height="500" viewBox="0 0 500 500"><rect x="0" y="0" width="500" height="500" fill="#ffffff"/><g transform="scale(20)"><g transform="translate(0,0)"><path fill-rule="evenodd" d="M9 0L9 1L8 1L8 2L9 2L9 3L8 3L8 4L10 4L10 7L11 7L11 4L12 4L12 5L13 5L13 6L12 6L12 9L14 9L14 10L11 10L11 11L10 11L10 9L11 9L11 8L6 8L6 9L5 9L5 8L0 8L0 9L1 9L1 10L0 10L0 11L1 11L1 10L2 10L2 12L3 12L3 13L0 13L0 17L1 17L1 14L2 14L2 15L4 15L4 16L3 16L3 17L4 17L4 16L5 16L5 15L7 15L7 16L6 16L6 17L8 17L8 19L11 19L11 21L10 21L10 20L8 20L8 25L12 25L12 24L13 24L13 25L14 25L14 24L15 24L15 25L16 25L16 24L17 24L17 25L20 25L20 22L21 22L21 23L23 23L23 22L24 22L24 24L21 24L21 25L25 25L25 21L23 21L23 20L21 20L21 18L22 18L22 19L24 19L24 20L25 20L25 18L23 18L23 16L19 16L19 15L18 15L18 14L15 14L15 13L14 13L14 12L16 12L16 13L17 13L17 12L18 12L18 13L19 13L19 14L20 14L20 15L21 15L21 14L22 14L22 15L25 15L25 14L22 14L22 13L24 13L24 12L25 12L25 10L23 10L23 11L24 11L24 12L19 12L19 11L17 11L17 12L16 12L16 10L15 10L15 9L17 9L17 10L18 10L18 8L15 8L15 6L16 6L16 7L17 7L17 6L16 6L16 5L15 5L15 4L14 4L14 3L16 3L16 4L17 4L17 3L16 3L16 1L15 1L15 0L14 0L14 1L15 1L15 2L14 2L14 3L13 3L13 4L12 4L12 2L13 2L13 1L11 1L11 2L10 2L10 0ZM10 3L10 4L11 4L11 3ZM13 4L13 5L14 5L14 6L13 6L13 8L14 8L14 9L15 9L15 8L14 8L14 6L15 6L15 5L14 5L14 4ZM8 5L8 7L9 7L9 5ZM19 8L19 10L20 10L20 11L21 11L21 10L22 10L22 8L21 8L21 10L20 10L20 8ZM23 8L23 9L24 9L24 8ZM6 9L6 10L3 10L3 11L5 11L5 12L8 12L8 14L9 14L9 15L10 15L10 13L11 13L11 17L10 17L10 16L8 16L8 17L10 17L10 18L13 18L13 19L12 19L12 20L14 20L14 21L13 21L13 22L12 22L12 21L11 21L11 23L10 23L10 22L9 22L9 24L12 24L12 23L13 23L13 24L14 24L14 21L15 21L15 19L16 19L16 18L13 18L13 17L12 17L12 15L13 15L13 16L14 16L14 17L16 17L16 16L14 16L14 15L13 15L13 14L14 14L14 13L13 13L13 12L14 12L14 11L12 11L12 13L11 13L11 12L10 12L10 13L9 13L9 12L8 12L8 9ZM6 10L6 11L7 11L7 10ZM4 13L4 15L5 15L5 14L7 14L7 13ZM12 13L12 14L13 14L13 13ZM20 13L20 14L21 14L21 13ZM24 16L24 17L25 17L25 16ZM17 17L17 20L20 20L20 17ZM18 18L18 19L19 19L19 18ZM16 21L16 22L15 22L15 24L16 24L16 23L17 23L17 24L19 24L19 22L18 22L18 21ZM22 21L22 22L23 22L23 21ZM17 22L17 23L18 23L18 22ZM0 0L0 7L7 7L7 0ZM1 1L1 6L6 6L6 1ZM2 2L2 5L5 5L5 2ZM18 0L18 7L25 7L25 0ZM19 1L19 6L24 6L24 1ZM20 2L20 5L23 5L23 2ZM0 18L0 25L7 25L7 18ZM1 19L1 24L6 24L6 19ZM2 20L2 23L5 23L5 20Z" fill="#000000"/></g></g></svg>
