<?xml version="1.0" encoding="UTF-8"?>
<svg xmlns="http://www.w3.org/2000/svg" version="1.1" width="500" height="500" viewBox="0 0 500 500"><rect x="0" y="0" width="500" height="500" fill="#ffffff"/><g transform="scale(20)"><g transform="translate(0,0)"><path fill-rule="evenodd" d="M10 0L10 2L11 2L11 0ZM12 0L12 1L13 1L13 2L12 2L12 4L13 4L13 5L11 5L11 6L10 6L10 4L11 4L11 3L8 3L8 4L9 4L9 5L8 5L8 7L9 7L9 8L6 8L6 9L7 9L7 10L6 10L6 11L5 11L5 12L6 12L6 13L5 13L5 14L6 14L6 15L7 15L7 16L6 16L6 17L7 17L7 16L8 16L8 19L9 19L9 20L8 20L8 25L10 25L10 23L11 23L11 24L12 24L12 23L11 23L11 22L15 22L15 21L16 21L16 22L17 22L17 21L18 21L18 22L19 22L19 24L18 24L18 23L16 23L16 24L15 24L15 23L14 23L14 24L13 24L13 25L14 25L14 24L15 24L15 25L16 25L16 24L17 24L17 25L19 25L19 24L20 24L20 22L21 22L21 23L23 23L23 22L24 22L24 24L21 24L21 25L25 25L25 21L23 21L23 20L25 20L25 18L23 18L23 16L22 16L22 15L21 15L21 14L20 14L20 13L24 13L24 12L25 12L25 10L24 10L24 8L23 8L23 11L24 11L24 12L21 12L21 10L20 10L20 8L19 8L19 10L15 10L15 9L18 9L18 8L17 8L17 6L16 6L16 5L15 5L15 4L17 4L17 3L15 3L15 2L16 2L16 1L15 1L15 0L14 0L14 1L13 1L13 0ZM8 1L8 2L9 2L9 1ZM14 1L14 2L13 2L13 3L14 3L14 4L15 4L15 3L14 3L14 2L15 2L15 1ZM13 5L13 7L12 7L12 6L11 6L11 7L12 7L12 9L11 9L11 8L10 8L10 9L9 9L9 10L8 10L8 11L6 11L6 12L7 12L7 13L6 13L6 14L7 14L7 15L9 15L9 18L10 18L10 15L11 15L11 14L14 14L14 13L15 13L15 14L16 14L16 15L15 15L15 16L14 16L14 15L12 15L12 16L14 16L14 17L13 17L13 18L12 18L12 17L11 17L11 19L10 19L10 20L11 20L11 21L13 21L13 20L14 20L14 21L15 21L15 19L16 19L16 17L15 17L15 16L16 16L16 15L17 15L17 16L18 16L18 15L17 15L17 12L14 12L14 11L15 11L15 10L14 10L14 9L15 9L15 8L16 8L16 6L15 6L15 5ZM9 6L9 7L10 7L10 6ZM14 6L14 7L15 7L15 6ZM0 8L0 10L1 10L1 9L2 9L2 10L3 10L3 11L4 11L4 9L5 9L5 8ZM13 8L13 9L12 9L12 10L13 10L13 11L12 11L12 13L14 13L14 12L13 12L13 11L14 11L14 10L13 10L13 9L14 9L14 8ZM21 8L21 9L22 9L22 8ZM10 9L10 11L11 11L11 9ZM1 11L1 12L0 12L0 17L1 17L1 12L2 12L2 11ZM19 11L19 13L18 13L18 14L19 14L19 13L20 13L20 11ZM3 12L3 14L2 14L2 15L3 15L3 16L2 16L2 17L5 17L5 16L4 16L4 15L3 15L3 14L4 14L4 12ZM8 12L8 13L7 13L7 14L9 14L9 15L10 15L10 14L9 14L9 13L11 13L11 12ZM23 14L23 15L25 15L25 14ZM19 15L19 16L21 16L21 15ZM24 16L24 17L25 17L25 16ZM14 17L14 18L15 18L15 17ZM17 17L17 20L20 20L20 17ZM21 17L21 20L23 20L23 18L22 18L22 17ZM18 18L18 19L19 19L19 18ZM11 19L11 20L13 20L13 19ZM9 21L9 23L10 23L10 21ZM22 21L22 22L23 22L23 21ZM0 0L0 7L7 7L7 0ZM1 1L1 6L6 6L6 1ZM2 2L2 5L5 5L5 2ZM18 0L18 7L25 7L25 0ZM19 1L19 6L24 6L24 1ZM20 2L20 5L23 5L23 2ZM0 18L0 25L7 25L7 18ZM1 19L1 24L6 24L6 19ZM2 20L2 23L5 23L5 20Z" fill="#000000"/></g></g></svg>
