<?xml version="1.0" encoding="UTF-8"?>
<svg xmlns="http://www.w3.org/2000/svg" version="1.1" width="500" height="500" viewBox="0 0 500 500"><rect x="0" y="0" width="500" height="500" fill="#ffffff"/><g transform="scale(20)"><g transform="translate(0,0)"><path fill-rule="evenodd" d="M10 0L10 1L8 1L8 3L9 3L9 4L8 4L8 8L6 8L6 9L7 9L7 10L6 10L6 11L8 11L8 13L9 13L9 15L8 15L8 16L9 16L9 15L10 15L10 13L11 13L11 16L10 16L10 17L8 17L8 19L12 19L12 20L13 20L13 18L14 18L14 20L16 20L16 22L15 22L15 21L14 21L14 22L15 22L15 23L14 23L14 24L15 24L15 23L16 23L16 25L17 25L17 23L18 23L18 25L20 25L20 23L22 23L22 22L21 22L21 17L23 17L23 16L17 16L17 15L18 15L18 14L19 14L19 15L20 15L20 13L19 13L19 12L18 12L18 10L20 10L20 12L21 12L21 11L22 11L22 10L24 10L24 11L23 11L23 12L24 12L24 13L21 13L21 15L23 15L23 14L24 14L24 18L23 18L23 19L22 19L22 20L24 20L24 21L25 21L25 20L24 20L24 19L25 19L25 9L24 9L24 8L22 8L22 10L20 10L20 9L21 9L21 8L18 8L18 9L17 9L17 10L16 10L16 11L15 11L15 9L14 9L14 8L16 8L16 7L17 7L17 6L16 6L16 4L17 4L17 2L16 2L16 1L17 1L17 0L15 0L15 5L14 5L14 4L13 4L13 3L12 3L12 7L11 7L11 4L10 4L10 3L9 3L9 2L11 2L11 0ZM13 1L13 2L14 2L14 1ZM9 5L9 8L8 8L8 9L10 9L10 10L9 10L9 11L11 11L11 8L10 8L10 5ZM13 6L13 7L12 7L12 8L14 8L14 6ZM15 6L15 7L16 7L16 6ZM0 8L0 10L1 10L1 9L2 9L2 10L3 10L3 11L2 11L2 13L3 13L3 14L2 14L2 15L1 15L1 14L0 14L0 15L1 15L1 16L0 16L0 17L2 17L2 16L3 16L3 15L4 15L4 10L5 10L5 9L4 9L4 8L3 8L3 9L2 9L2 8ZM3 9L3 10L4 10L4 9ZM5 12L5 16L6 16L6 17L7 17L7 16L6 16L6 15L7 15L7 14L6 14L6 13L7 13L7 12ZM9 12L9 13L10 13L10 12ZM12 12L12 16L11 16L11 17L10 17L10 18L12 18L12 16L14 16L14 17L15 17L15 18L16 18L16 13L17 13L17 14L18 14L18 12L15 12L15 13L14 13L14 12ZM13 13L13 15L15 15L15 14L14 14L14 13ZM17 17L17 20L20 20L20 17ZM18 18L18 19L19 19L19 18ZM9 20L9 21L8 21L8 22L9 22L9 23L8 23L8 25L9 25L9 24L11 24L11 22L12 22L12 21L10 21L10 20ZM18 21L18 23L20 23L20 21ZM16 22L16 23L17 23L17 22ZM24 22L24 23L25 23L25 22ZM12 24L12 25L13 25L13 24ZM23 24L23 25L25 25L25 24ZM0 0L0 7L7 7L7 0ZM1 1L1 6L6 6L6 1ZM2 2L2 5L5 5L5 2ZM18 0L18 7L25 7L25 0ZM19 1L19 6L24 6L24 1ZM20 2L20 5L23 5L23 2ZM0 18L0 25L7 25L7 18ZM1 19L1 24L6 24L6 19ZM2 20L2 23L5 23L5 20Z" fill="#000000"/></g></g></svg>
