<?xml version="1.0" encoding="UTF-8"?>
<svg xmlns="http://www.w3.org/2000/svg" version="1.1" width="500" height="500" viewBox="0 0 500 500"><rect x="0" y="0" width="500" height="500" fill="#ffffff"/><g transform="scale(20)"><g transform="translate(0,0)"><path fill-rule="evenodd" d="M9 0L9 1L8 1L8 2L9 2L9 3L8 3L8 4L10 4L10 7L11 7L11 4L12 4L12 5L13 5L13 4L14 4L14 7L15 7L15 9L14 9L14 8L13 8L13 6L12 6L12 9L14 9L14 12L13 12L13 13L12 13L12 11L13 11L13 10L11 10L11 11L10 11L10 9L11 9L11 8L6 8L6 9L7 9L7 10L4 10L4 11L3 11L3 10L0 10L0 12L1 12L1 13L0 13L0 17L1 17L1 14L2 14L2 17L4 17L4 16L3 16L3 15L5 15L5 17L7 17L7 16L6 16L6 15L8 15L8 13L7 13L7 12L8 12L8 11L9 11L9 14L10 14L10 15L11 15L11 13L12 13L12 14L15 14L15 16L16 16L16 17L14 17L14 16L13 16L13 15L12 15L12 17L14 17L14 20L12 20L12 19L13 19L13 18L10 18L10 17L11 17L11 16L10 16L10 17L9 17L9 16L8 16L8 19L9 19L9 18L10 18L10 19L11 19L11 20L8 20L8 25L11 25L11 24L12 24L12 23L13 23L13 21L14 21L14 24L13 24L13 25L14 25L14 24L15 24L15 25L16 25L16 24L18 24L18 25L25 25L25 21L23 21L23 20L22 20L22 21L23 21L23 22L22 22L22 23L23 23L23 22L24 22L24 24L21 24L21 23L20 23L20 22L21 22L21 17L22 17L22 18L23 18L23 19L24 19L24 20L25 20L25 18L23 18L23 16L24 16L24 17L25 17L25 16L24 16L24 15L25 15L25 14L23 14L23 12L25 12L25 10L24 10L24 8L23 8L23 12L22 12L22 13L21 13L21 11L22 11L22 10L21 10L21 11L19 11L19 10L20 10L20 8L19 8L19 10L15 10L15 9L18 9L18 8L16 8L16 7L17 7L17 6L16 6L16 5L15 5L15 4L17 4L17 3L15 3L15 2L17 2L17 1L15 1L15 0L14 0L14 1L11 1L11 2L10 2L10 0ZM12 2L12 4L13 4L13 3L14 3L14 4L15 4L15 3L14 3L14 2ZM10 3L10 4L11 4L11 3ZM8 5L8 7L9 7L9 5ZM15 6L15 7L16 7L16 6ZM0 8L0 9L5 9L5 8ZM21 8L21 9L22 9L22 8ZM8 9L8 10L9 10L9 9ZM2 11L2 14L3 14L3 11ZM6 11L6 12L7 12L7 11ZM16 11L16 12L14 12L14 13L15 13L15 14L18 14L18 15L19 15L19 16L21 16L21 15L22 15L22 16L23 16L23 14L21 14L21 13L20 13L20 12L19 12L19 13L18 13L18 11ZM4 12L4 13L5 13L5 12ZM10 12L10 13L11 13L11 12ZM16 12L16 13L17 13L17 12ZM6 13L6 14L7 14L7 13ZM19 13L19 14L20 14L20 15L21 15L21 14L20 14L20 13ZM17 17L17 20L20 20L20 17ZM15 18L15 19L16 19L16 18ZM18 18L18 19L19 19L19 18ZM14 20L14 21L15 21L15 24L16 24L16 23L17 23L17 22L18 22L18 23L19 23L19 22L18 22L18 21L15 21L15 20ZM9 21L9 24L11 24L11 23L12 23L12 21ZM10 22L10 23L11 23L11 22ZM0 0L0 7L7 7L7 0ZM1 1L1 6L6 6L6 1ZM2 2L2 5L5 5L5 2ZM18 0L18 7L25 7L25 0ZM19 1L19 6L24 6L24 1ZM20 2L20 5L23 5L23 2ZM0 18L0 25L7 25L7 18ZM1 19L1 24L6 24L6 19ZM2 20L2 23L5 23L5 20Z" fill="#000000"/></g></g></svg>
