<?xml version="1.0" encoding="UTF-8"?>
<svg xmlns="http://www.w3.org/2000/svg" version="1.1" width="500" height="500" viewBox="0 0 500 500"><rect x="0" y="0" width="500" height="500" fill="#ffffff"/><g transform="scale(20)"><g transform="translate(0,0)"><path fill-rule="evenodd" d="M9 0L9 1L8 1L8 2L9 2L9 3L8 3L8 4L10 4L10 7L11 7L11 4L12 4L12 5L13 5L13 6L12 6L12 9L14 9L14 10L11 10L11 11L10 11L10 9L11 9L11 8L6 8L6 9L9 9L9 11L8 11L8 10L6 10L6 11L5 11L5 10L4 10L4 9L5 9L5 8L0 8L0 9L2 9L2 10L0 10L0 11L1 11L1 12L0 12L0 17L1 17L1 13L3 13L3 10L4 10L4 13L5 13L5 15L3 15L3 14L2 14L2 16L6 16L6 17L8 17L8 19L10 19L10 18L9 18L9 17L10 17L10 16L11 16L11 13L12 13L12 14L13 14L13 15L12 15L12 17L13 17L13 16L14 16L14 17L16 17L16 19L14 19L14 20L15 20L15 21L12 21L12 19L13 19L13 18L11 18L11 20L10 20L10 21L9 21L9 20L8 20L8 25L10 25L10 24L11 24L11 22L10 22L10 21L12 21L12 22L13 22L13 23L12 23L12 25L13 25L13 24L14 24L14 25L16 25L16 24L17 24L17 25L18 25L18 24L19 24L19 25L25 25L25 18L22 18L22 17L25 17L25 14L24 14L24 16L22 16L22 17L21 17L21 15L20 15L20 16L14 16L14 15L16 15L16 14L14 14L14 13L12 13L12 11L14 11L14 10L15 10L15 13L17 13L17 15L19 15L19 14L18 14L18 13L21 13L21 14L22 14L22 13L24 13L24 12L25 12L25 10L23 10L23 9L24 9L24 8L23 8L23 9L22 9L22 8L21 8L21 9L22 9L22 10L23 10L23 12L20 12L20 11L18 11L18 10L17 10L17 12L16 12L16 10L15 10L15 9L18 9L18 8L17 8L17 5L15 5L15 4L14 4L14 3L16 3L16 4L17 4L17 3L16 3L16 2L17 2L17 1L15 1L15 0L13 0L13 1L11 1L11 2L10 2L10 0ZM13 1L13 2L12 2L12 4L13 4L13 5L14 5L14 6L13 6L13 8L14 8L14 9L15 9L15 7L16 7L16 6L15 6L15 5L14 5L14 4L13 4L13 3L14 3L14 2L15 2L15 1ZM10 3L10 4L11 4L11 3ZM8 5L8 7L9 7L9 5ZM14 6L14 7L15 7L15 6ZM19 8L19 9L20 9L20 8ZM6 11L6 12L8 12L8 13L9 13L9 14L7 14L7 13L6 13L6 14L7 14L7 15L6 15L6 16L7 16L7 15L9 15L9 14L10 14L10 13L11 13L11 12L10 12L10 13L9 13L9 12L8 12L8 11ZM17 12L17 13L18 13L18 12ZM8 16L8 17L9 17L9 16ZM17 17L17 20L20 20L20 17ZM18 18L18 19L19 19L19 18ZM21 19L21 22L18 22L18 21L16 21L16 22L18 22L18 23L17 23L17 24L18 24L18 23L20 23L20 24L21 24L21 22L22 22L22 24L24 24L24 22L23 22L23 21L22 21L22 20L24 20L24 19ZM9 23L9 24L10 24L10 23ZM14 23L14 24L16 24L16 23ZM0 0L0 7L7 7L7 0ZM1 1L1 6L6 6L6 1ZM2 2L2 5L5 5L5 2ZM18 0L18 7L25 7L25 0ZM19 1L19 6L24 6L24 1ZM20 2L20 5L23 5L23 2ZM0 18L0 25L7 25L7 18ZM1 19L1 24L6 24L6 19ZM2 20L2 23L5 23L5 20Z" fill="#000000"/></g></g></svg>
