<?xml version="1.0" encoding="UTF-8"?>
<svg xmlns="http://www.w3.org/2000/svg" version="1.1" width="500" height="500" viewBox="0 0 500 500"><rect x="0" y="0" width="500" height="500" fill="#ffffff"/><g transform="scale(20)"><g transform="translate(0,0)"><path fill-rule="evenodd" d="M10 0L10 1L9 1L9 2L8 2L8 3L9 3L9 5L10 5L10 7L11 7L11 8L12 8L12 9L11 9L11 10L10 10L10 9L9 9L9 6L8 6L8 8L4 8L4 9L3 9L3 8L0 8L0 10L1 10L1 11L0 11L0 12L1 12L1 13L2 13L2 15L1 15L1 14L0 14L0 15L1 15L1 16L0 16L0 17L1 17L1 16L2 16L2 17L5 17L5 16L2 16L2 15L4 15L4 14L5 14L5 15L7 15L7 14L8 14L8 16L9 16L9 15L10 15L10 14L12 14L12 12L13 12L13 16L12 16L12 15L11 15L11 16L12 16L12 17L11 17L11 19L12 19L12 20L10 20L10 19L9 19L9 17L8 17L8 21L9 21L9 22L8 22L8 25L9 25L9 22L10 22L10 23L11 23L11 24L10 24L10 25L11 25L11 24L12 24L12 25L13 25L13 24L12 24L12 23L11 23L11 22L12 22L12 20L14 20L14 21L15 21L15 22L16 22L16 21L17 21L17 22L18 22L18 21L20 21L20 22L19 22L19 23L18 23L18 24L17 24L17 23L16 23L16 25L19 25L19 24L20 24L20 25L22 25L22 24L21 24L21 23L23 23L23 25L25 25L25 24L24 24L24 23L25 23L25 22L24 22L24 23L23 23L23 22L22 22L22 21L21 21L21 19L23 19L23 21L25 21L25 16L24 16L24 15L25 15L25 12L24 12L24 13L22 13L22 14L20 14L20 13L19 13L19 11L20 11L20 12L22 12L22 11L25 11L25 9L24 9L24 10L23 10L23 8L22 8L22 9L21 9L21 10L20 10L20 9L19 9L19 8L17 8L17 9L18 9L18 11L17 11L17 10L16 10L16 11L15 11L15 9L16 9L16 7L17 7L17 6L16 6L16 5L17 5L17 2L16 2L16 1L17 1L17 0L15 0L15 2L16 2L16 4L15 4L15 6L14 6L14 7L13 7L13 3L12 3L12 2L11 2L11 3L12 3L12 5L10 5L10 3L9 3L9 2L10 2L10 1L11 1L11 0ZM11 6L11 7L12 7L12 8L13 8L13 7L12 7L12 6ZM15 6L15 7L14 7L14 8L15 8L15 7L16 7L16 6ZM1 9L1 10L2 10L2 11L1 11L1 12L3 12L3 13L6 13L6 14L7 14L7 13L6 13L6 12L7 12L7 11L10 11L10 10L8 10L8 9L6 9L6 10L5 10L5 12L3 12L3 11L4 11L4 10L2 10L2 9ZM6 10L6 11L7 11L7 10ZM13 10L13 11L14 11L14 10ZM11 11L11 12L12 12L12 11ZM8 12L8 13L9 13L9 14L10 14L10 12ZM15 12L15 14L14 14L14 15L16 15L16 16L21 16L21 18L22 18L22 17L23 17L23 15L20 15L20 14L19 14L19 15L18 15L18 12ZM16 14L16 15L17 15L17 14ZM6 16L6 17L7 17L7 16ZM15 17L15 18L16 18L16 17ZM17 17L17 20L20 20L20 17ZM18 18L18 19L19 19L19 18ZM15 20L15 21L16 21L16 20ZM10 21L10 22L11 22L11 21ZM13 22L13 23L14 23L14 22ZM0 0L0 7L7 7L7 0ZM1 1L1 6L6 6L6 1ZM2 2L2 5L5 5L5 2ZM18 0L18 7L25 7L25 0ZM19 1L19 6L24 6L24 1ZM20 2L20 5L23 5L23 2ZM0 18L0 25L7 25L7 18ZM1 19L1 24L6 24L6 19ZM2 20L2 23L5 23L5 20Z" fill="#000000"/></g></g></svg>
