<?xml version="1.0" encoding="UTF-8"?>
<svg xmlns="http://www.w3.org/2000/svg" version="1.1" width="500" height="500" viewBox="0 0 500 500"><rect x="0" y="0" width="500" height="500" fill="#ffffff"/><g transform="scale(20)"><g transform="translate(0,0)"><path fill-rule="evenodd" d="M8 0L8 4L9 4L9 5L8 5L8 7L9 7L9 6L10 6L10 9L11 9L11 8L12 8L12 9L13 9L13 10L15 10L15 11L14 11L14 12L13 12L13 11L12 11L12 12L11 12L11 13L10 13L10 14L9 14L9 15L7 15L7 14L8 14L8 13L9 13L9 12L10 12L10 11L11 11L11 10L9 10L9 9L8 9L8 10L9 10L9 12L8 12L8 11L7 11L7 10L6 10L6 11L5 11L5 9L7 9L7 8L4 8L4 9L2 9L2 8L0 8L0 9L1 9L1 10L0 10L0 11L1 11L1 12L0 12L0 14L1 14L1 13L2 13L2 15L3 15L3 16L4 16L4 17L8 17L8 18L10 18L10 19L8 19L8 21L9 21L9 22L10 22L10 23L8 23L8 25L10 25L10 24L12 24L12 25L14 25L14 23L16 23L16 22L13 22L13 21L15 21L15 20L16 20L16 21L18 21L18 23L17 23L17 24L18 24L18 25L19 25L19 22L20 22L20 21L23 21L23 23L22 23L22 22L21 22L21 23L22 23L22 24L20 24L20 25L25 25L25 24L24 24L24 22L25 22L25 19L23 19L23 18L22 18L22 20L21 20L21 15L20 15L20 14L22 14L22 17L25 17L25 16L24 16L24 15L23 15L23 10L24 10L24 9L25 9L25 8L21 8L21 9L20 9L20 8L19 8L19 10L18 10L18 9L17 9L17 5L16 5L16 3L15 3L15 1L16 1L16 2L17 2L17 1L16 1L16 0L15 0L15 1L14 1L14 0L13 0L13 1L11 1L11 2L12 2L12 5L13 5L13 1L14 1L14 3L15 3L15 4L14 4L14 5L16 5L16 7L15 7L15 6L14 6L14 7L13 7L13 6L12 6L12 7L11 7L11 3L10 3L10 2L9 2L9 0ZM12 7L12 8L13 8L13 7ZM14 7L14 9L16 9L16 10L17 10L17 9L16 9L16 8L15 8L15 7ZM21 9L21 10L19 10L19 11L18 11L18 12L17 12L17 13L16 13L16 11L15 11L15 13L13 13L13 12L12 12L12 13L11 13L11 14L10 14L10 15L11 15L11 14L12 14L12 13L13 13L13 14L15 14L15 13L16 13L16 15L14 15L14 17L16 17L16 15L18 15L18 16L19 16L19 13L22 13L22 9ZM3 10L3 11L2 11L2 12L3 12L3 11L4 11L4 10ZM6 11L6 12L4 12L4 13L3 13L3 15L4 15L4 16L5 16L5 15L4 15L4 14L5 14L5 13L6 13L6 14L7 14L7 13L8 13L8 12L7 12L7 11ZM20 11L20 12L21 12L21 11ZM6 12L6 13L7 13L7 12ZM18 12L18 13L17 13L17 14L18 14L18 13L19 13L19 12ZM24 12L24 13L25 13L25 12ZM6 15L6 16L7 16L7 15ZM12 15L12 16L10 16L10 18L11 18L11 19L10 19L10 20L9 20L9 21L10 21L10 22L12 22L12 21L13 21L13 20L14 20L14 19L16 19L16 18L13 18L13 17L12 17L12 16L13 16L13 15ZM0 16L0 17L2 17L2 16ZM17 17L17 20L20 20L20 17ZM18 18L18 19L19 19L19 18ZM12 19L12 20L10 20L10 21L12 21L12 20L13 20L13 19ZM23 20L23 21L24 21L24 20ZM12 23L12 24L13 24L13 23ZM0 0L0 7L7 7L7 0ZM1 1L1 6L6 6L6 1ZM2 2L2 5L5 5L5 2ZM18 0L18 7L25 7L25 0ZM19 1L19 6L24 6L24 1ZM20 2L20 5L23 5L23 2ZM0 18L0 25L7 25L7 18ZM1 19L1 24L6 24L6 19ZM2 20L2 23L5 23L5 20Z" fill="#000000"/></g></g></svg>
