<?xml version="1.0" encoding="UTF-8"?>
<svg xmlns="http://www.w3.org/2000/svg" version="1.1" width="500" height="500" viewBox="0 0 500 500"><rect x="0" y="0" width="500" height="500" fill="#ffffff"/><g transform="scale(20)"><g transform="translate(0,0)"><path fill-rule="evenodd" d="M9 0L9 1L8 1L8 3L9 3L9 4L8 4L8 8L6 8L6 9L5 9L5 10L4 10L4 11L3 11L3 12L2 12L2 10L3 10L3 9L4 9L4 8L3 8L3 9L2 9L2 8L0 8L0 12L1 12L1 13L2 13L2 14L3 14L3 15L1 15L1 14L0 14L0 15L1 15L1 16L0 16L0 17L2 17L2 16L5 16L5 17L8 17L8 19L9 19L9 21L8 21L8 22L9 22L9 23L8 23L8 25L10 25L10 24L11 24L11 25L12 25L12 24L14 24L14 25L15 25L15 24L14 24L14 23L15 23L15 22L16 22L16 25L17 25L17 23L18 23L18 25L22 25L22 24L21 24L21 22L22 22L22 23L23 23L23 22L22 22L22 20L23 20L23 19L25 19L25 16L24 16L24 15L25 15L25 12L24 12L24 11L25 11L25 9L24 9L24 8L22 8L22 9L21 9L21 8L18 8L18 10L19 10L19 12L18 12L18 13L16 13L16 11L15 11L15 12L14 12L14 11L13 11L13 12L12 12L12 13L10 13L10 15L9 15L9 16L10 16L10 17L12 17L12 16L13 16L13 17L14 17L14 18L13 18L13 20L12 20L12 19L11 19L11 18L9 18L9 17L8 17L8 16L6 16L6 15L8 15L8 14L9 14L9 11L11 11L11 10L12 10L12 9L11 9L11 8L10 8L10 7L11 7L11 6L12 6L12 8L13 8L13 10L15 10L15 9L16 9L16 8L17 8L17 6L16 6L16 4L17 4L17 2L16 2L16 1L17 1L17 0L15 0L15 5L14 5L14 4L13 4L13 6L12 6L12 5L11 5L11 6L10 6L10 5L9 5L9 4L12 4L12 3L13 3L13 2L14 2L14 1L13 1L13 0L12 0L12 1L11 1L11 2L9 2L9 1L10 1L10 0ZM9 6L9 7L10 7L10 6ZM13 6L13 8L14 8L14 9L15 9L15 8L14 8L14 6ZM15 6L15 7L16 7L16 6ZM8 8L8 9L6 9L6 10L8 10L8 11L4 11L4 12L3 12L3 13L4 13L4 12L5 12L5 13L6 13L6 14L4 14L4 15L6 15L6 14L7 14L7 13L8 13L8 11L9 11L9 10L10 10L10 8ZM1 9L1 10L2 10L2 9ZM20 9L20 11L21 11L21 12L20 12L20 13L19 13L19 14L17 14L17 16L20 16L20 15L21 15L21 17L22 17L22 18L24 18L24 17L22 17L22 16L23 16L23 15L24 15L24 14L23 14L23 13L24 13L24 12L23 12L23 10L24 10L24 9L23 9L23 10L22 10L22 11L21 11L21 9ZM6 12L6 13L7 13L7 12ZM13 13L13 14L14 14L14 15L16 15L16 13L15 13L15 14L14 14L14 13ZM11 14L11 16L12 16L12 14ZM19 14L19 15L20 15L20 14ZM21 14L21 15L23 15L23 14ZM15 16L15 18L14 18L14 20L13 20L13 21L14 21L14 22L15 22L15 21L16 21L16 22L17 22L17 21L16 21L16 20L15 20L15 18L16 18L16 16ZM17 17L17 20L20 20L20 17ZM18 18L18 19L19 19L19 18ZM21 19L21 20L22 20L22 19ZM10 20L10 21L9 21L9 22L10 22L10 21L11 21L11 20ZM14 20L14 21L15 21L15 20ZM24 20L24 21L25 21L25 20ZM18 21L18 23L19 23L19 21ZM24 22L24 23L25 23L25 22ZM23 24L23 25L25 25L25 24ZM0 0L0 7L7 7L7 0ZM1 1L1 6L6 6L6 1ZM2 2L2 5L5 5L5 2ZM18 0L18 7L25 7L25 0ZM19 1L19 6L24 6L24 1ZM20 2L20 5L23 5L23 2ZM0 18L0 25L7 25L7 18ZM1 19L1 24L6 24L6 19ZM2 20L2 23L5 23L5 20Z" fill="#000000"/></g></g></svg>
