<?xml version="1.0" encoding="UTF-8"?>
<svg xmlns="http://www.w3.org/2000/svg" version="1.1" width="500" height="500" viewBox="0 0 500 500"><rect x="0" y="0" width="500" height="500" fill="#ffffff"/><g transform="scale(20)"><g transform="translate(0,0)"><path fill-rule="evenodd" d="M8 0L8 4L10 4L10 3L11 3L11 4L12 4L12 2L11 2L11 0ZM12 0L12 1L14 1L14 0ZM15 0L15 1L16 1L16 2L14 2L14 3L13 3L13 5L11 5L11 6L10 6L10 7L9 7L9 5L8 5L8 7L9 7L9 8L10 8L10 7L11 7L11 6L12 6L12 8L11 8L11 9L7 9L7 8L4 8L4 9L3 9L3 10L1 10L1 9L2 9L2 8L0 8L0 10L1 10L1 11L0 11L0 12L2 12L2 11L3 11L3 12L6 12L6 13L4 13L4 14L3 14L3 13L2 13L2 14L3 14L3 15L2 15L2 16L0 16L0 17L4 17L4 16L3 16L3 15L5 15L5 17L8 17L8 18L9 18L9 17L10 17L10 18L11 18L11 20L12 20L12 21L13 21L13 22L15 22L15 23L14 23L14 24L13 24L13 23L12 23L12 24L11 24L11 23L10 23L10 22L11 22L11 21L10 21L10 20L9 20L9 19L8 19L8 21L9 21L9 23L8 23L8 25L9 25L9 23L10 23L10 24L11 24L11 25L12 25L12 24L13 24L13 25L15 25L15 23L16 23L16 22L15 22L15 21L14 21L14 19L15 19L15 20L16 20L16 21L18 21L18 23L20 23L20 22L19 22L19 21L23 21L23 23L22 23L22 22L21 22L21 23L22 23L22 24L20 24L20 25L25 25L25 24L24 24L24 22L25 22L25 19L24 19L24 21L23 21L23 18L22 18L22 20L21 20L21 16L20 16L20 15L19 15L19 14L22 14L22 17L25 17L25 16L24 16L24 15L23 15L23 10L24 10L24 9L25 9L25 8L21 8L21 9L20 9L20 8L19 8L19 10L18 10L18 9L17 9L17 6L16 6L16 9L15 9L15 5L16 5L16 3L17 3L17 1L16 1L16 0ZM9 2L9 3L10 3L10 2ZM14 3L14 5L13 5L13 8L12 8L12 9L11 9L11 10L9 10L9 11L8 11L8 10L7 10L7 9L4 9L4 10L7 10L7 11L6 11L6 12L9 12L9 13L6 13L6 14L5 14L5 15L6 15L6 16L7 16L7 15L6 15L6 14L8 14L8 15L9 15L9 16L8 16L8 17L9 17L9 16L12 16L12 17L11 17L11 18L12 18L12 17L13 17L13 18L15 18L15 19L16 19L16 18L15 18L15 17L13 17L13 16L14 16L14 15L15 15L15 14L13 14L13 13L12 13L12 12L13 12L13 11L12 11L12 12L11 12L11 13L10 13L10 11L11 11L11 10L12 10L12 9L13 9L13 10L14 10L14 9L13 9L13 8L14 8L14 5L15 5L15 3ZM16 9L16 11L14 11L14 13L16 13L16 14L17 14L17 13L18 13L18 14L19 14L19 13L18 13L18 12L19 12L19 11L18 11L18 12L17 12L17 13L16 13L16 11L17 11L17 9ZM21 9L21 10L20 10L20 11L21 11L21 12L20 12L20 13L22 13L22 9ZM24 12L24 13L25 13L25 12ZM0 13L0 14L1 14L1 13ZM9 13L9 15L10 15L10 13ZM12 15L12 16L13 16L13 15ZM18 15L18 16L19 16L19 15ZM17 17L17 20L20 20L20 17ZM18 18L18 19L19 19L19 18ZM12 19L12 20L13 20L13 19ZM18 24L18 25L19 25L19 24ZM0 0L0 7L7 7L7 0ZM1 1L1 6L6 6L6 1ZM2 2L2 5L5 5L5 2ZM18 0L18 7L25 7L25 0ZM19 1L19 6L24 6L24 1ZM20 2L20 5L23 5L23 2ZM0 18L0 25L7 25L7 18ZM1 19L1 24L6 24L6 19ZM2 20L2 23L5 23L5 20Z" fill="#000000"/></g></g></svg>
