<?xml version="1.0" encoding="UTF-8"?>
<svg xmlns="http://www.w3.org/2000/svg" version="1.1" width="500" height="500" viewBox="0 0 500 500"><rect x="0" y="0" width="500" height="500" fill="#ffffff"/><g transform="scale(23.81)"><g transform="translate(0,0)"><path fill-rule="evenodd" d="M9 0L9 1L8 1L8 2L9 2L9 3L8 3L8 4L10 4L10 5L8 5L8 7L9 7L9 6L10 6L10 8L6 8L6 9L7 9L7 10L3 10L3 9L5 9L5 8L0 8L0 11L1 11L1 12L0 12L0 13L2 13L2 11L3 11L3 13L4 13L4 12L5 12L5 13L7 13L7 12L9 12L9 13L8 13L8 15L9 15L9 16L8 16L8 21L9 21L9 19L10 19L10 21L11 21L11 20L12 20L12 21L15 21L15 20L13 20L13 18L12 18L12 17L15 17L15 18L14 18L14 19L16 19L16 18L20 18L20 17L17 17L17 16L19 16L19 15L20 15L20 14L21 14L21 13L20 13L20 12L19 12L19 11L20 11L20 10L21 10L21 9L20 9L20 8L19 8L19 9L18 9L18 8L17 8L17 9L16 9L16 8L15 8L15 9L16 9L16 10L12 10L12 9L14 9L14 8L13 8L13 5L12 5L12 4L13 4L13 3L12 3L12 2L13 2L13 1L12 1L12 0L11 0L11 1L10 1L10 0ZM9 1L9 2L10 2L10 4L12 4L12 3L11 3L11 2L12 2L12 1L11 1L11 2L10 2L10 1ZM11 5L11 8L10 8L10 9L12 9L12 5ZM17 9L17 10L16 10L16 11L13 11L13 12L16 12L16 13L12 13L12 10L11 10L11 13L9 13L9 15L10 15L10 14L11 14L11 15L12 15L12 14L13 14L13 16L15 16L15 17L16 17L16 16L17 16L17 14L18 14L18 13L19 13L19 14L20 14L20 13L19 13L19 12L16 12L16 11L17 11L17 10L18 10L18 11L19 11L19 10L20 10L20 9L19 9L19 10L18 10L18 9ZM1 10L1 11L2 11L2 10ZM7 10L7 11L6 11L6 12L7 12L7 11L10 11L10 10ZM11 13L11 14L12 14L12 13ZM16 13L16 14L14 14L14 15L16 15L16 14L17 14L17 13ZM10 16L10 17L9 17L9 18L11 18L11 19L12 19L12 18L11 18L11 17L12 17L12 16ZM17 19L17 20L19 20L19 21L20 21L20 20L19 20L19 19ZM0 0L0 7L7 7L7 0ZM1 1L1 6L6 6L6 1ZM2 2L2 5L5 5L5 2ZM14 0L14 7L21 7L21 0ZM15 1L15 6L20 6L20 1ZM16 2L16 5L19 5L19 2ZM0 14L0 21L7 21L7 14ZM1 15L1 20L6 20L6 15ZM2 16L2 19L5 19L5 16Z" fill="#000000"/></g></g></svg>
