<?xml version="1.0" encoding="UTF-8"?>
<svg xmlns="http://www.w3.org/2000/svg" version="1.1" width="500" height="500" viewBox="0 0 500 500"><rect x="0" y="0" width="500" height="500" fill="#ffffff"/><g transform="scale(23.81)"><g transform="translate(0,0)"><path fill-rule="evenodd" d="M8 0L8 1L10 1L10 0ZM11 0L11 2L10 2L10 3L9 3L9 2L8 2L8 5L11 5L11 4L10 4L10 3L12 3L12 5L13 5L13 2L12 2L12 0ZM8 6L8 7L9 7L9 8L8 8L8 9L7 9L7 8L6 8L6 9L7 9L7 10L5 10L5 9L4 9L4 8L0 8L0 10L2 10L2 12L1 12L1 11L0 11L0 13L3 13L3 12L5 12L5 13L7 13L7 12L5 12L5 11L7 11L7 10L8 10L8 9L9 9L9 8L10 8L10 9L11 9L11 10L9 10L9 11L10 11L10 12L9 12L9 13L8 13L8 14L9 14L9 17L8 17L8 21L12 21L12 19L14 19L14 21L15 21L15 20L16 20L16 21L19 21L19 20L17 20L17 19L19 19L19 18L17 18L17 19L16 19L16 18L15 18L15 19L14 19L14 16L13 16L13 17L10 17L10 16L12 16L12 15L10 15L10 14L9 14L9 13L10 13L10 12L11 12L11 13L12 13L12 14L13 14L13 15L14 15L14 14L13 14L13 13L15 13L15 14L16 14L16 15L17 15L17 16L15 16L15 17L19 17L19 14L18 14L18 15L17 15L17 13L18 13L18 11L16 11L16 12L14 12L14 11L12 11L12 9L11 9L11 6L10 6L10 7L9 7L9 6ZM12 6L12 8L13 8L13 9L14 9L14 8L13 8L13 6ZM16 8L16 10L19 10L19 13L20 13L20 11L21 11L21 8L20 8L20 10L19 10L19 8ZM2 9L2 10L3 10L3 9ZM4 10L4 11L5 11L5 10ZM20 16L20 17L21 17L21 16ZM9 17L9 19L10 19L10 17ZM11 18L11 19L12 19L12 18ZM20 19L20 20L21 20L21 19ZM0 0L0 7L7 7L7 0ZM1 1L1 6L6 6L6 1ZM2 2L2 5L5 5L5 2ZM14 0L14 7L21 7L21 0ZM15 1L15 6L20 6L20 1ZM16 2L16 5L19 5L19 2ZM0 14L0 21L7 21L7 14ZM1 15L1 20L6 20L6 15ZM2 16L2 19L5 19L5 16Z" fill="#000000"/></g></g></svg>
