<?xml version="1.0" encoding="UTF-8"?>
<svg xmlns="http://www.w3.org/2000/svg" version="1.1" width="500" height="500" viewBox="0 0 500 500"><rect x="0" y="0" width="500" height="500" fill="#ffffff"/><g transform="scale(20)"><g transform="translate(0,0)"><path fill-rule="evenodd" d="M9 0L9 1L8 1L8 3L9 3L9 4L8 4L8 8L6 8L6 9L8 9L8 10L5 10L5 13L7 13L7 12L6 12L6 11L8 11L8 10L9 10L9 11L11 11L11 9L12 9L12 8L10 8L10 7L11 7L11 6L10 6L10 5L9 5L9 4L11 4L11 5L13 5L13 6L12 6L12 7L13 7L13 6L14 6L14 8L13 8L13 10L12 10L12 11L13 11L13 13L14 13L14 14L15 14L15 12L16 12L16 13L18 13L18 14L16 14L16 15L18 15L18 16L16 16L16 18L14 18L14 17L15 17L15 16L14 16L14 15L13 15L13 14L11 14L11 13L10 13L10 14L9 14L9 15L8 15L8 14L4 14L4 13L2 13L2 12L3 12L3 10L4 10L4 8L3 8L3 10L2 10L2 8L0 8L0 9L1 9L1 11L0 11L0 13L2 13L2 15L1 15L1 14L0 14L0 15L1 15L1 16L0 16L0 17L2 17L2 15L3 15L3 17L4 17L4 15L8 15L8 16L6 16L6 17L8 17L8 19L9 19L9 20L10 20L10 19L11 19L11 20L12 20L12 19L11 19L11 18L12 18L12 17L11 17L11 16L10 16L10 15L12 15L12 16L14 16L14 17L13 17L13 19L16 19L16 22L15 22L15 21L14 21L14 20L13 20L13 25L17 25L17 24L18 24L18 25L19 25L19 24L20 24L20 25L22 25L22 24L21 24L21 23L23 23L23 21L22 21L22 22L21 22L21 16L19 16L19 15L20 15L20 12L21 12L21 11L20 11L20 9L21 9L21 8L18 8L18 9L17 9L17 8L16 8L16 7L17 7L17 5L16 5L16 4L17 4L17 3L16 3L16 2L17 2L17 0L15 0L15 2L14 2L14 3L15 3L15 4L14 4L14 5L13 5L13 2L12 2L12 1L14 1L14 0L12 0L12 1L11 1L11 0ZM9 1L9 2L11 2L11 3L12 3L12 2L11 2L11 1ZM14 5L14 6L15 6L15 7L16 7L16 6L15 6L15 5ZM9 6L9 7L10 7L10 6ZM8 8L8 9L9 9L9 10L10 10L10 8ZM14 8L14 9L15 9L15 10L13 10L13 11L14 11L14 12L15 12L15 11L16 11L16 10L17 10L17 9L15 9L15 8ZM22 8L22 9L24 9L24 10L22 10L22 11L23 11L23 13L22 13L22 14L21 14L21 15L23 15L23 16L22 16L22 20L23 20L23 19L25 19L25 16L24 16L24 15L25 15L25 12L24 12L24 11L25 11L25 9L24 9L24 8ZM18 10L18 12L19 12L19 10ZM8 12L8 13L9 13L9 12ZM3 14L3 15L4 15L4 14ZM23 14L23 15L24 15L24 14ZM8 16L8 17L9 17L9 19L10 19L10 17L9 17L9 16ZM17 17L17 20L20 20L20 17ZM23 17L23 18L24 18L24 17ZM18 18L18 19L19 19L19 18ZM8 21L8 22L10 22L10 24L9 24L9 23L8 23L8 25L10 25L10 24L11 24L11 21ZM17 21L17 22L18 22L18 24L19 24L19 23L20 23L20 22L19 22L19 21ZM14 22L14 24L15 24L15 22ZM24 22L24 23L25 23L25 22ZM23 24L23 25L25 25L25 24ZM0 0L0 7L7 7L7 0ZM1 1L1 6L6 6L6 1ZM2 2L2 5L5 5L5 2ZM18 0L18 7L25 7L25 0ZM19 1L19 6L24 6L24 1ZM20 2L20 5L23 5L23 2ZM0 18L0 25L7 25L7 18ZM1 19L1 24L6 24L6 19ZM2 20L2 23L5 23L5 20Z" fill="#000000"/></g></g></svg>
