<?xml version="1.0" encoding="UTF-8"?>
<svg xmlns="http://www.w3.org/2000/svg" version="1.1" width="500" height="500" viewBox="0 0 500 500"><rect x="0" y="0" width="500" height="500" fill="#ffffff"/><g transform="scale(20)"><g transform="translate(0,0)"><path fill-rule="evenodd" d="M10 0L10 2L11 2L11 0ZM12 0L12 1L15 1L15 2L14 2L14 3L13 3L13 2L12 2L12 4L14 4L14 5L15 5L15 6L14 6L14 7L15 7L15 9L14 9L14 8L13 8L13 9L12 9L12 7L13 7L13 5L11 5L11 6L10 6L10 4L11 4L11 3L8 3L8 4L9 4L9 5L8 5L8 7L9 7L9 8L6 8L6 9L5 9L5 8L0 8L0 9L4 9L4 10L3 10L3 11L0 11L0 17L1 17L1 14L2 14L2 16L3 16L3 17L4 17L4 16L3 16L3 15L4 15L4 14L2 14L2 13L5 13L5 15L8 15L8 16L5 16L5 17L8 17L8 19L9 19L9 18L10 18L10 19L11 19L11 18L10 18L10 17L9 17L9 15L11 15L11 17L12 17L12 18L13 18L13 19L12 19L12 21L13 21L13 20L14 20L14 21L15 21L15 23L14 23L14 24L15 24L15 25L16 25L16 24L17 24L17 23L18 23L18 22L19 22L19 21L20 21L20 22L21 22L21 23L23 23L23 22L24 22L24 24L22 24L22 25L25 25L25 18L23 18L23 20L22 20L22 21L21 21L21 18L22 18L22 17L25 17L25 14L23 14L23 13L25 13L25 10L24 10L24 8L23 8L23 10L22 10L22 11L23 11L23 12L21 12L21 11L20 11L20 12L19 12L19 10L18 10L18 8L16 8L16 7L17 7L17 6L16 6L16 5L15 5L15 4L14 4L14 3L16 3L16 4L17 4L17 3L16 3L16 1L15 1L15 0ZM8 1L8 2L9 2L9 1ZM9 6L9 7L10 7L10 6ZM11 6L11 7L12 7L12 6ZM15 6L15 7L16 7L16 6ZM10 8L10 9L9 9L9 11L8 11L8 12L7 12L7 11L6 11L6 10L8 10L8 9L6 9L6 10L4 10L4 11L3 11L3 12L4 12L4 11L5 11L5 12L7 12L7 13L6 13L6 14L7 14L7 13L8 13L8 15L9 15L9 14L13 14L13 15L12 15L12 17L14 17L14 18L15 18L15 19L14 19L14 20L15 20L15 19L16 19L16 17L15 17L15 16L16 16L16 15L15 15L15 14L18 14L18 15L19 15L19 14L20 14L20 15L21 15L21 16L24 16L24 15L23 15L23 14L22 14L22 13L18 13L18 12L17 12L17 13L15 13L15 12L14 12L14 11L15 11L15 10L17 10L17 11L18 11L18 10L17 10L17 9L15 9L15 10L12 10L12 9L11 9L11 8ZM19 8L19 9L20 9L20 8ZM21 8L21 9L22 9L22 8ZM10 9L10 11L11 11L11 9ZM12 11L12 13L13 13L13 14L15 14L15 13L14 13L14 12L13 12L13 11ZM1 12L1 13L2 13L2 12ZM8 12L8 13L11 13L11 12ZM14 15L14 16L15 16L15 15ZM17 17L17 20L20 20L20 17ZM18 18L18 19L19 19L19 18ZM8 20L8 25L12 25L12 23L13 23L13 22L10 22L10 21L11 21L11 20ZM16 21L16 23L15 23L15 24L16 24L16 23L17 23L17 22L18 22L18 21ZM22 21L22 22L23 22L23 21ZM10 23L10 24L11 24L11 23ZM18 24L18 25L20 25L20 24ZM0 0L0 7L7 7L7 0ZM1 1L1 6L6 6L6 1ZM2 2L2 5L5 5L5 2ZM18 0L18 7L25 7L25 0ZM19 1L19 6L24 6L24 1ZM20 2L20 5L23 5L23 2ZM0 18L0 25L7 25L7 18ZM1 19L1 24L6 24L6 19ZM2 20L2 23L5 23L5 20Z" fill="#000000"/></g></g></svg>
