<?xml version="1.0" encoding="UTF-8"?>
<svg xmlns="http://www.w3.org/2000/svg" version="1.1" width="500" height="500" viewBox="0 0 500 500"><rect x="0" y="0" width="500" height="500" fill="#ffffff"/><g transform="scale(20)"><g transform="translate(0,0)"><path fill-rule="evenodd" d="M9 0L9 1L8 1L8 2L9 2L9 3L8 3L8 4L10 4L10 7L11 7L11 4L12 4L12 5L13 5L13 6L12 6L12 9L13 9L13 8L14 8L14 9L17 9L17 10L15 10L15 11L14 11L14 12L15 12L15 13L12 13L12 11L13 11L13 10L11 10L11 11L10 11L10 9L11 9L11 8L6 8L6 9L7 9L7 10L4 10L4 9L5 9L5 8L0 8L0 9L1 9L1 10L0 10L0 11L1 11L1 12L0 12L0 17L1 17L1 14L2 14L2 13L3 13L3 14L4 14L4 15L7 15L7 14L8 14L8 16L5 16L5 17L8 17L8 19L10 19L10 20L8 20L8 25L9 25L9 24L10 24L10 25L11 25L11 24L10 24L10 23L9 23L9 22L10 22L10 20L11 20L11 21L12 21L12 22L13 22L13 23L12 23L12 25L13 25L13 24L14 24L14 25L16 25L16 24L18 24L18 25L20 25L20 24L21 24L21 25L25 25L25 20L24 20L24 21L23 21L23 20L21 20L21 17L25 17L25 14L21 14L21 15L20 15L20 14L18 14L18 13L25 13L25 12L20 12L20 10L18 10L18 8L17 8L17 5L14 5L14 4L12 4L12 2L13 2L13 1L11 1L11 2L10 2L10 0ZM14 0L14 3L15 3L15 4L17 4L17 2L16 2L16 1L15 1L15 0ZM10 3L10 4L11 4L11 3ZM8 5L8 7L9 7L9 5ZM13 6L13 7L14 7L14 8L15 8L15 7L16 7L16 6L15 6L15 7L14 7L14 6ZM19 8L19 9L20 9L20 8ZM21 8L21 9L22 9L22 8ZM23 8L23 9L24 9L24 8ZM8 9L8 11L4 11L4 10L3 10L3 11L4 11L4 12L3 12L3 13L5 13L5 14L7 14L7 13L5 13L5 12L8 12L8 11L9 11L9 9ZM22 10L22 11L25 11L25 10ZM17 11L17 13L15 13L15 14L16 14L16 15L17 15L17 13L18 13L18 11ZM10 12L10 13L11 13L11 16L10 16L10 15L9 15L9 16L10 16L10 17L11 17L11 18L10 18L10 19L11 19L11 18L13 18L13 19L12 19L12 21L15 21L15 20L14 20L14 19L16 19L16 17L14 17L14 16L15 16L15 15L14 15L14 16L13 16L13 17L12 17L12 15L13 15L13 14L12 14L12 13L11 13L11 12ZM8 13L8 14L9 14L9 13ZM2 15L2 16L3 16L3 17L4 17L4 16L3 16L3 15ZM21 15L21 16L24 16L24 15ZM17 17L17 20L20 20L20 17ZM18 18L18 19L19 19L19 18ZM22 18L22 19L25 19L25 18ZM16 21L16 22L18 22L18 23L21 23L21 24L24 24L24 22L23 22L23 21L21 21L21 22L20 22L20 21L19 21L19 22L18 22L18 21ZM21 22L21 23L22 23L22 22ZM14 23L14 24L16 24L16 23ZM0 0L0 7L7 7L7 0ZM1 1L1 6L6 6L6 1ZM2 2L2 5L5 5L5 2ZM18 0L18 7L25 7L25 0ZM19 1L19 6L24 6L24 1ZM20 2L20 5L23 5L23 2ZM0 18L0 25L7 25L7 18ZM1 19L1 24L6 24L6 19ZM2 20L2 23L5 23L5 20Z" fill="#000000"/></g></g></svg>
