<?xml version="1.0" encoding="UTF-8"?>
<svg xmlns="http://www.w3.org/2000/svg" version="1.1" width="500" height="500" viewBox="0 0 500 500"><rect x="0" y="0" width="500" height="500" fill="#ffffff"/><g transform="scale(20)"><g transform="translate(0,0)"><path fill-rule="evenodd" d="M9 0L9 1L8 1L8 2L9 2L9 3L8 3L8 4L10 4L10 7L11 7L11 4L12 4L12 5L13 5L13 6L12 6L12 9L14 9L14 10L11 10L11 11L10 11L10 9L11 9L11 8L6 8L6 9L5 9L5 8L0 8L0 9L1 9L1 10L0 10L0 11L1 11L1 12L0 12L0 17L1 17L1 14L2 14L2 17L3 17L3 16L4 16L4 17L5 17L5 16L6 16L6 17L7 17L7 16L6 16L6 15L7 15L7 14L9 14L9 15L8 15L8 19L9 19L9 20L8 20L8 25L9 25L9 22L10 22L10 25L11 25L11 21L12 21L12 22L13 22L13 23L12 23L12 25L13 25L13 24L14 24L14 25L16 25L16 24L17 24L17 23L18 23L18 22L22 22L22 21L23 21L23 22L24 22L24 24L22 24L22 23L21 23L21 24L20 24L20 23L19 23L19 24L18 24L18 25L25 25L25 18L23 18L23 17L25 17L25 14L22 14L22 13L23 13L23 12L25 12L25 10L23 10L23 9L24 9L24 8L23 8L23 9L22 9L22 8L21 8L21 9L22 9L22 10L21 10L21 11L23 11L23 12L22 12L22 13L21 13L21 12L19 12L19 11L18 11L18 10L17 10L17 12L16 12L16 10L15 10L15 9L18 9L18 8L15 8L15 6L16 6L16 7L17 7L17 5L15 5L15 4L17 4L17 3L15 3L15 2L16 2L16 1L15 1L15 0L14 0L14 1L15 1L15 2L14 2L14 3L13 3L13 4L12 4L12 2L13 2L13 1L11 1L11 2L10 2L10 0ZM10 3L10 4L11 4L11 3ZM14 3L14 4L13 4L13 5L14 5L14 4L15 4L15 3ZM8 5L8 7L9 7L9 5ZM13 6L13 8L14 8L14 9L15 9L15 8L14 8L14 6ZM19 8L19 9L20 9L20 8ZM2 9L2 10L1 10L1 11L3 11L3 13L2 13L2 12L1 12L1 13L2 13L2 14L3 14L3 13L4 13L4 16L5 16L5 14L7 14L7 13L6 13L6 12L7 12L7 11L6 11L6 10L8 10L8 12L9 12L9 10L8 10L8 9L6 9L6 10L5 10L5 9L4 9L4 11L3 11L3 9ZM14 10L14 11L12 11L12 13L11 13L11 12L10 12L10 13L9 13L9 14L10 14L10 13L11 13L11 15L9 15L9 16L10 16L10 19L11 19L11 18L13 18L13 19L12 19L12 21L15 21L15 20L14 20L14 19L16 19L16 16L18 16L18 15L19 15L19 14L20 14L20 16L24 16L24 15L22 15L22 14L21 14L21 13L18 13L18 12L17 12L17 13L16 13L16 12L14 12L14 11L15 11L15 10ZM4 11L4 12L5 12L5 11ZM12 13L12 14L13 14L13 15L12 15L12 17L13 17L13 16L14 16L14 17L15 17L15 16L16 16L16 14L14 14L14 13ZM17 13L17 14L18 14L18 13ZM14 15L14 16L15 16L15 15ZM17 17L17 20L20 20L20 17ZM18 18L18 19L19 19L19 18ZM22 18L22 19L21 19L21 20L24 20L24 19L23 19L23 18ZM9 20L9 21L10 21L10 20ZM16 21L16 22L15 22L15 23L14 23L14 24L16 24L16 23L17 23L17 22L18 22L18 21ZM0 0L0 7L7 7L7 0ZM1 1L1 6L6 6L6 1ZM2 2L2 5L5 5L5 2ZM18 0L18 7L25 7L25 0ZM19 1L19 6L24 6L24 1ZM20 2L20 5L23 5L23 2ZM0 18L0 25L7 25L7 18ZM1 19L1 24L6 24L6 19ZM2 20L2 23L5 23L5 20Z" fill="#000000"/></g></g></svg>
