<?xml version="1.0" encoding="UTF-8"?>
<svg xmlns="http://www.w3.org/2000/svg" version="1.1" width="500" height="500" viewBox="0 0 500 500"><rect x="0" y="0" width="500" height="500" fill="#ffffff"/><g transform="scale(20)"><g transform="translate(0,0)"><path fill-rule="evenodd" d="M10 0L10 2L11 2L11 0ZM12 0L12 1L15 1L15 3L17 3L17 1L15 1L15 0ZM8 1L8 2L9 2L9 1ZM12 2L12 4L14 4L14 5L15 5L15 6L14 6L14 7L15 7L15 9L14 9L14 8L12 8L12 7L13 7L13 5L11 5L11 6L10 6L10 4L11 4L11 3L8 3L8 4L9 4L9 5L8 5L8 7L9 7L9 8L6 8L6 9L10 9L10 11L11 11L11 9L12 9L12 10L13 10L13 11L12 11L12 12L9 12L9 11L8 11L8 12L6 12L6 11L7 11L7 10L3 10L3 11L2 11L2 10L1 10L1 9L5 9L5 8L0 8L0 10L1 10L1 11L0 11L0 17L1 17L1 14L2 14L2 15L3 15L3 16L2 16L2 17L4 17L4 15L5 15L5 17L8 17L8 19L9 19L9 20L8 20L8 25L9 25L9 22L15 22L15 23L16 23L16 24L17 24L17 25L25 25L25 21L23 21L23 20L24 20L24 19L25 19L25 18L23 18L23 17L25 17L25 14L23 14L23 12L25 12L25 10L24 10L24 8L23 8L23 12L21 12L21 11L22 11L22 8L21 8L21 11L20 11L20 8L19 8L19 10L18 10L18 11L19 11L19 12L16 12L16 11L17 11L17 10L15 10L15 9L18 9L18 8L17 8L17 5L15 5L15 4L14 4L14 3L13 3L13 2ZM9 6L9 7L10 7L10 6ZM11 6L11 7L12 7L12 6ZM15 6L15 7L16 7L16 6ZM10 8L10 9L11 9L11 8ZM13 9L13 10L14 10L14 9ZM1 11L1 13L3 13L3 15L4 15L4 14L5 14L5 15L6 15L6 16L9 16L9 17L10 17L10 16L9 16L9 15L6 15L6 14L10 14L10 15L11 15L11 16L12 16L12 17L13 17L13 20L12 20L12 18L11 18L11 19L10 19L10 20L9 20L9 21L13 21L13 20L14 20L14 21L15 21L15 19L16 19L16 18L14 18L14 17L16 17L16 16L14 16L14 13L15 13L15 14L17 14L17 15L19 15L19 16L24 16L24 15L23 15L23 14L21 14L21 13L20 13L20 12L19 12L19 13L15 13L15 12L14 12L14 11L13 11L13 12L12 12L12 13L13 13L13 14L11 14L11 13L9 13L9 12L8 12L8 13L6 13L6 12L5 12L5 11L4 11L4 12L2 12L2 11ZM4 12L4 13L5 13L5 12ZM13 12L13 13L14 13L14 12ZM19 13L19 15L20 15L20 13ZM12 15L12 16L13 16L13 17L14 17L14 16L13 16L13 15ZM17 17L17 20L20 20L20 17ZM21 17L21 18L22 18L22 17ZM18 18L18 19L19 19L19 18ZM22 19L22 20L23 20L23 19ZM19 21L19 22L16 22L16 23L17 23L17 24L18 24L18 23L19 23L19 24L20 24L20 23L21 23L21 24L24 24L24 22L22 22L22 21L21 21L21 22L20 22L20 21ZM19 22L19 23L20 23L20 22ZM12 23L12 24L10 24L10 25L12 25L12 24L13 24L13 25L14 25L14 24L13 24L13 23ZM0 0L0 7L7 7L7 0ZM1 1L1 6L6 6L6 1ZM2 2L2 5L5 5L5 2ZM18 0L18 7L25 7L25 0ZM19 1L19 6L24 6L24 1ZM20 2L20 5L23 5L23 2ZM0 18L0 25L7 25L7 18ZM1 19L1 24L6 24L6 19ZM2 20L2 23L5 23L5 20Z" fill="#000000"/></g></g></svg>
