<?xml version="1.0" encoding="UTF-8"?>
<svg xmlns="http://www.w3.org/2000/svg" version="1.1" width="500" height="500" viewBox="0 0 500 500"><rect x="0" y="0" width="500" height="500" fill="#ffffff"/><g transform="scale(20)"><g transform="translate(0,0)"><path fill-rule="evenodd" d="M9 0L9 1L8 1L8 2L9 2L9 3L8 3L8 4L10 4L10 7L11 7L11 4L12 4L12 5L13 5L13 6L12 6L12 9L14 9L14 11L15 11L15 12L16 12L16 13L17 13L17 14L18 14L18 15L19 15L19 16L15 16L15 15L16 15L16 14L15 14L15 13L14 13L14 12L13 12L13 13L12 13L12 11L13 11L13 10L11 10L11 11L10 11L10 9L11 9L11 8L6 8L6 9L5 9L5 8L0 8L0 9L1 9L1 10L0 10L0 11L1 11L1 12L0 12L0 17L1 17L1 12L2 12L2 14L3 14L3 15L4 15L4 17L5 17L5 16L6 16L6 17L8 17L8 19L9 19L9 20L8 20L8 25L9 25L9 22L10 22L10 24L11 24L11 22L10 22L10 21L9 21L9 20L10 20L10 19L11 19L11 21L12 21L12 22L13 22L13 23L12 23L12 25L13 25L13 24L14 24L14 25L16 25L16 24L17 24L17 25L19 25L19 24L18 24L18 23L17 23L17 22L16 22L16 21L18 21L18 22L19 22L19 23L20 23L20 24L21 24L21 23L20 23L20 22L21 22L21 21L22 21L22 23L23 23L23 22L24 22L24 24L22 24L22 25L25 25L25 20L21 20L21 19L22 19L22 18L21 18L21 16L20 16L20 14L18 14L18 13L19 13L19 12L20 12L20 13L21 13L21 14L22 14L22 15L24 15L24 16L22 16L22 17L25 17L25 14L22 14L22 13L23 13L23 12L25 12L25 10L24 10L24 8L23 8L23 12L22 12L22 13L21 13L21 11L22 11L22 8L21 8L21 11L20 11L20 10L19 10L19 11L18 11L18 13L17 13L17 12L16 12L16 10L15 10L15 9L17 9L17 10L18 10L18 8L16 8L16 7L17 7L17 5L15 5L15 4L17 4L17 2L16 2L16 1L15 1L15 0L14 0L14 1L11 1L11 2L10 2L10 0ZM12 2L12 4L13 4L13 5L14 5L14 6L13 6L13 8L14 8L14 9L15 9L15 7L16 7L16 6L15 6L15 5L14 5L14 4L15 4L15 2ZM10 3L10 4L11 4L11 3ZM13 3L13 4L14 4L14 3ZM8 5L8 7L9 7L9 5ZM14 6L14 7L15 7L15 6ZM19 8L19 9L20 9L20 8ZM3 9L3 12L4 12L4 9ZM6 9L6 10L8 10L8 11L6 11L6 12L5 12L5 13L6 13L6 14L4 14L4 13L3 13L3 14L4 14L4 15L6 15L6 16L7 16L7 15L6 15L6 14L8 14L8 13L6 13L6 12L8 12L8 11L9 11L9 9ZM10 12L10 13L9 13L9 15L10 15L10 13L11 13L11 16L10 16L10 18L9 18L9 19L10 19L10 18L14 18L14 19L12 19L12 21L14 21L14 22L15 22L15 19L16 19L16 17L15 17L15 16L14 16L14 13L13 13L13 14L12 14L12 13L11 13L11 12ZM12 15L12 17L14 17L14 18L15 18L15 17L14 17L14 16L13 16L13 15ZM2 16L2 17L3 17L3 16ZM17 17L17 20L20 20L20 17ZM18 18L18 19L19 19L19 18ZM23 18L23 19L25 19L25 18ZM19 21L19 22L20 22L20 21ZM14 23L14 24L16 24L16 23ZM0 0L0 7L7 7L7 0ZM1 1L1 6L6 6L6 1ZM2 2L2 5L5 5L5 2ZM18 0L18 7L25 7L25 0ZM19 1L19 6L24 6L24 1ZM20 2L20 5L23 5L23 2ZM0 18L0 25L7 25L7 18ZM1 19L1 24L6 24L6 19ZM2 20L2 23L5 23L5 20Z" fill="#000000"/></g></g></svg>
