<?xml version="1.0" encoding="UTF-8"?>
<svg xmlns="http://www.w3.org/2000/svg" version="1.1" width="500" height="500" viewBox="0 0 500 500"><rect x="0" y="0" width="500" height="500" fill="#ffffff"/><g transform="scale(20)"><g transform="translate(0,0)"><path fill-rule="evenodd" d="M10 0L10 1L8 1L8 3L9 3L9 4L8 4L8 8L6 8L6 9L4 9L4 8L3 8L3 10L2 10L2 11L5 11L5 12L3 12L3 15L4 15L4 16L2 16L2 15L1 15L1 14L2 14L2 12L1 12L1 14L0 14L0 15L1 15L1 16L0 16L0 17L5 17L5 15L7 15L7 14L5 14L5 15L4 15L4 13L5 13L5 12L6 12L6 13L7 13L7 12L8 12L8 13L9 13L9 14L10 14L10 13L11 13L11 15L10 15L10 16L9 16L9 17L8 17L8 16L6 16L6 17L8 17L8 19L9 19L9 20L10 20L10 24L9 24L9 23L8 23L8 25L11 25L11 22L12 22L12 21L11 21L11 19L12 19L12 20L13 20L13 18L14 18L14 20L16 20L16 21L14 21L14 22L15 22L15 23L14 23L14 24L15 24L15 23L16 23L16 25L20 25L20 24L22 24L22 23L23 23L23 21L22 21L22 20L24 20L24 21L25 21L25 20L24 20L24 19L25 19L25 16L24 16L24 15L25 15L25 9L24 9L24 8L22 8L22 9L23 9L23 11L24 11L24 15L23 15L23 13L21 13L21 15L19 15L19 16L17 16L17 15L18 15L18 14L19 14L19 13L20 13L20 12L21 12L21 11L22 11L22 10L21 10L21 11L20 11L20 12L18 12L18 10L20 10L20 9L21 9L21 8L18 8L18 9L17 9L17 12L18 12L18 14L17 14L17 13L16 13L16 11L15 11L15 9L14 9L14 8L12 8L12 7L13 7L13 6L14 6L14 7L15 7L15 8L17 8L17 6L16 6L16 4L17 4L17 0L15 0L15 2L16 2L16 3L15 3L15 5L14 5L14 4L13 4L13 3L12 3L12 7L11 7L11 4L10 4L10 3L9 3L9 2L11 2L11 0ZM13 0L13 1L14 1L14 0ZM9 5L9 8L8 8L8 10L7 10L7 9L6 9L6 10L7 10L7 11L6 11L6 12L7 12L7 11L8 11L8 10L9 10L9 11L11 11L11 8L10 8L10 5ZM15 6L15 7L16 7L16 6ZM0 8L0 10L1 10L1 9L2 9L2 8ZM9 9L9 10L10 10L10 9ZM13 9L13 10L14 10L14 9ZM9 12L9 13L10 13L10 12ZM12 12L12 16L11 16L11 17L9 17L9 18L12 18L12 16L14 16L14 17L15 17L15 18L16 18L16 15L17 15L17 14L16 14L16 13L14 13L14 12ZM13 13L13 15L15 15L15 14L14 14L14 13ZM21 15L21 18L22 18L22 16L23 16L23 15ZM17 17L17 20L20 20L20 17ZM23 17L23 18L24 18L24 17ZM18 18L18 19L19 19L19 18ZM21 19L21 20L22 20L22 19ZM8 21L8 22L9 22L9 21ZM16 21L16 23L17 23L17 24L18 24L18 23L19 23L19 24L20 24L20 23L19 23L19 22L20 22L20 21L18 21L18 23L17 23L17 21ZM21 22L21 23L22 23L22 22ZM24 22L24 23L25 23L25 22ZM12 24L12 25L13 25L13 24ZM23 24L23 25L25 25L25 24ZM0 0L0 7L7 7L7 0ZM1 1L1 6L6 6L6 1ZM2 2L2 5L5 5L5 2ZM18 0L18 7L25 7L25 0ZM19 1L19 6L24 6L24 1ZM20 2L20 5L23 5L23 2ZM0 18L0 25L7 25L7 18ZM1 19L1 24L6 24L6 19ZM2 20L2 23L5 23L5 20Z" fill="#000000"/></g></g></svg>
