<?xml version="1.0" encoding="UTF-8"?>
<svg xmlns="http://www.w3.org/2000/svg" version="1.1" width="500" height="500" viewBox="0 0 500 500"><rect x="0" y="0" width="500" height="500" fill="#ffffff"/><g transform="scale(17.241)"><g transform="translate(0,0)"><path fill-rule="evenodd" d="M9 0L9 1L8 1L8 2L9 2L9 3L8 3L8 4L10 4L10 7L11 7L11 4L12 4L12 5L13 5L13 6L12 6L12 9L13 9L13 8L14 8L14 9L15 9L15 10L18 10L18 12L17 12L17 11L16 11L16 12L17 12L17 13L19 13L19 14L20 14L20 12L22 12L22 11L21 11L21 10L20 10L20 9L22 9L22 10L23 10L23 11L24 11L24 12L23 12L23 13L21 13L21 15L20 15L20 17L19 17L19 15L18 15L18 16L14 16L14 15L16 15L16 13L12 13L12 11L13 11L13 10L11 10L11 11L10 11L10 9L11 9L11 8L6 8L6 9L5 9L5 8L0 8L0 10L1 10L1 12L0 12L0 21L1 21L1 17L2 17L2 20L3 20L3 21L4 21L4 18L3 18L3 17L5 17L5 19L8 19L8 18L6 18L6 17L9 17L9 20L10 20L10 21L12 21L12 22L13 22L13 23L12 23L12 25L13 25L13 24L14 24L14 25L17 25L17 26L15 26L15 27L14 27L14 28L15 28L15 29L20 29L20 28L21 28L21 29L24 29L24 28L25 28L25 27L26 27L26 26L27 26L27 28L26 28L26 29L27 29L27 28L28 28L28 26L29 26L29 25L28 25L28 24L26 24L26 23L25 23L25 20L26 20L26 22L29 22L29 21L27 21L27 20L26 20L26 19L24 19L24 20L21 20L21 19L18 19L18 18L15 18L15 19L14 19L14 20L15 20L15 21L12 21L12 19L13 19L13 18L11 18L11 17L10 17L10 16L9 16L9 15L7 15L7 14L8 14L8 12L6 12L6 11L7 11L7 10L6 10L6 9L8 9L8 10L9 10L9 13L10 13L10 14L11 14L11 13L12 13L12 14L13 14L13 15L12 15L12 17L13 17L13 16L14 16L14 17L19 17L19 18L21 18L21 15L22 15L22 14L23 14L23 16L25 16L25 17L22 17L22 18L26 18L26 17L27 17L27 18L29 18L29 16L28 16L28 17L27 17L27 16L26 16L26 14L25 14L25 13L24 13L24 12L26 12L26 13L27 13L27 14L29 14L29 13L28 13L28 12L26 12L26 11L27 11L27 10L26 10L26 11L24 11L24 10L25 10L25 9L26 9L26 8L25 8L25 9L24 9L24 8L23 8L23 9L22 9L22 8L21 8L21 5L20 5L20 4L21 4L21 3L20 3L20 2L19 2L19 3L17 3L17 2L16 2L16 4L12 4L12 2L13 2L13 1L11 1L11 2L10 2L10 0ZM15 0L15 1L20 1L20 0ZM14 2L14 3L15 3L15 2ZM10 3L10 4L11 4L11 3ZM19 3L19 4L18 4L18 5L17 5L17 4L16 4L16 5L17 5L17 7L16 7L16 6L15 6L15 7L14 7L14 6L13 6L13 7L14 7L14 8L15 8L15 7L16 7L16 9L17 9L17 8L19 8L19 9L18 9L18 10L19 10L19 12L20 12L20 10L19 10L19 9L20 9L20 8L19 8L19 7L20 7L20 5L19 5L19 4L20 4L20 3ZM8 5L8 7L9 7L9 5ZM18 5L18 7L19 7L19 5ZM27 8L27 9L28 9L28 10L29 10L29 9L28 9L28 8ZM3 10L3 11L4 11L4 12L2 12L2 13L5 13L5 10ZM14 11L14 12L15 12L15 11ZM10 12L10 13L11 13L11 12ZM6 13L6 14L3 14L3 16L2 16L2 15L1 15L1 16L2 16L2 17L3 17L3 16L7 16L7 15L6 15L6 14L7 14L7 13ZM10 18L10 20L11 20L11 18ZM17 19L17 20L18 20L18 19ZM6 20L6 21L7 21L7 20ZM8 21L8 23L9 23L9 21ZM15 21L15 22L16 22L16 23L17 23L17 24L19 24L19 25L18 25L18 26L17 26L17 28L20 28L20 27L22 27L22 28L23 28L23 27L22 27L22 26L23 26L23 25L20 25L20 24L19 24L19 22L20 22L20 21ZM21 21L21 24L24 24L24 21ZM17 22L17 23L18 23L18 22ZM22 22L22 23L23 23L23 22ZM14 23L14 24L15 24L15 23ZM8 24L8 29L10 29L10 28L9 28L9 27L11 27L11 29L12 29L12 27L13 27L13 26L10 26L10 25L11 25L11 24ZM25 24L25 25L24 25L24 26L26 26L26 24ZM19 25L19 26L18 26L18 27L19 27L19 26L20 26L20 25ZM15 27L15 28L16 28L16 27ZM0 0L0 7L7 7L7 0ZM1 1L1 6L6 6L6 1ZM2 2L2 5L5 5L5 2ZM22 0L22 7L29 7L29 0ZM23 1L23 6L28 6L28 1ZM24 2L24 5L27 5L27 2ZM0 22L0 29L7 29L7 22ZM1 23L1 28L6 28L6 23ZM2 24L2 27L5 27L5 24Z" fill="#000000"/></g></g></svg>
