<?xml version="1.0" encoding="UTF-8"?>
<svg xmlns="http://www.w3.org/2000/svg" version="1.1" width="500" height="500" viewBox="0 0 500 500"><rect x="0" y="0" width="500" height="500" fill="#ffffff"/><g transform="scale(20)"><g transform="translate(0,0)"><path fill-rule="evenodd" d="M10 0L10 2L11 2L11 0ZM12 0L12 1L15 1L15 2L16 2L16 3L15 3L15 4L14 4L14 3L13 3L13 2L12 2L12 4L14 4L14 8L13 8L13 9L12 9L12 7L13 7L13 5L11 5L11 6L10 6L10 4L11 4L11 3L8 3L8 4L9 4L9 5L8 5L8 7L9 7L9 8L6 8L6 9L8 9L8 10L5 10L5 12L4 12L4 11L3 11L3 10L4 10L4 9L5 9L5 8L0 8L0 9L1 9L1 11L0 11L0 12L1 12L1 13L0 13L0 17L1 17L1 13L2 13L2 14L6 14L6 15L4 15L4 16L3 16L3 15L2 15L2 16L3 16L3 17L4 17L4 16L5 16L5 17L8 17L8 19L11 19L11 17L12 17L12 18L13 18L13 19L12 19L12 21L13 21L13 22L11 22L11 23L10 23L10 22L9 22L9 20L8 20L8 25L9 25L9 23L10 23L10 25L13 25L13 24L12 24L12 23L13 23L13 22L15 22L15 21L18 21L18 22L16 22L16 23L15 23L15 25L16 25L16 24L17 24L17 23L18 23L18 25L20 25L20 22L21 22L21 23L23 23L23 22L24 22L24 24L21 24L21 25L25 25L25 20L24 20L24 19L25 19L25 18L22 18L22 19L23 19L23 20L22 20L22 21L21 21L21 17L25 17L25 14L24 14L24 13L25 13L25 12L22 12L22 13L21 13L21 10L20 10L20 11L18 11L18 10L15 10L15 9L18 9L18 8L17 8L17 6L16 6L16 5L15 5L15 4L17 4L17 1L15 1L15 0ZM8 1L8 2L9 2L9 1ZM9 6L9 7L10 7L10 6ZM11 6L11 7L12 7L12 6ZM15 6L15 7L16 7L16 6ZM10 8L10 9L9 9L9 10L8 10L8 11L6 11L6 12L7 12L7 13L6 13L6 14L8 14L8 11L9 11L9 12L11 12L11 13L10 13L10 14L14 14L14 13L15 13L15 14L17 14L17 15L16 15L16 16L15 16L15 15L12 15L12 17L13 17L13 18L14 18L14 17L15 17L15 19L16 19L16 16L19 16L19 15L18 15L18 14L19 14L19 13L20 13L20 16L23 16L23 15L21 15L21 13L20 13L20 12L19 12L19 13L18 13L18 12L17 12L17 13L15 13L15 12L16 12L16 11L15 11L15 10L12 10L12 9L11 9L11 8ZM14 8L14 9L15 9L15 8ZM19 8L19 9L20 9L20 8ZM21 8L21 9L22 9L22 8ZM23 8L23 9L24 9L24 8ZM2 9L2 10L3 10L3 9ZM10 9L10 11L11 11L11 9ZM23 10L23 11L25 11L25 10ZM2 11L2 13L3 13L3 11ZM12 11L12 13L14 13L14 12L13 12L13 11ZM17 13L17 14L18 14L18 13ZM22 13L22 14L23 14L23 13ZM6 15L6 16L8 16L8 17L9 17L9 16L10 16L10 17L11 17L11 15ZM13 16L13 17L14 17L14 16ZM17 17L17 20L20 20L20 17ZM18 18L18 19L19 19L19 18ZM13 19L13 20L14 20L14 21L15 21L15 20L14 20L14 19ZM19 21L19 22L18 22L18 23L19 23L19 22L20 22L20 21ZM22 21L22 22L23 22L23 21ZM0 0L0 7L7 7L7 0ZM1 1L1 6L6 6L6 1ZM2 2L2 5L5 5L5 2ZM18 0L18 7L25 7L25 0ZM19 1L19 6L24 6L24 1ZM20 2L20 5L23 5L23 2ZM0 18L0 25L7 25L7 18ZM1 19L1 24L6 24L6 19ZM2 20L2 23L5 23L5 20Z" fill="#000000"/></g></g></svg>
