<?xml version="1.0" encoding="UTF-8"?>
<svg xmlns="http://www.w3.org/2000/svg" version="1.1" width="500" height="500" viewBox="0 0 500 500"><rect x="0" y="0" width="500" height="500" fill="#ffffff"/><g transform="scale(20)"><g transform="translate(0,0)"><path fill-rule="evenodd" d="M9 0L9 1L8 1L8 2L9 2L9 3L8 3L8 4L10 4L10 7L11 7L11 4L12 4L12 5L13 5L13 6L12 6L12 9L14 9L14 10L11 10L11 11L10 11L10 9L11 9L11 8L6 8L6 9L5 9L5 8L0 8L0 9L1 9L1 10L2 10L2 11L3 11L3 10L4 10L4 11L5 11L5 10L6 10L6 11L7 11L7 12L6 12L6 13L5 13L5 12L4 12L4 13L2 13L2 14L4 14L4 16L3 16L3 15L2 15L2 17L7 17L7 16L8 16L8 19L9 19L9 20L8 20L8 25L10 25L10 24L13 24L13 25L14 25L14 24L15 24L15 25L16 25L16 24L19 24L19 23L20 23L20 24L21 24L21 23L23 23L23 22L24 22L24 24L22 24L22 25L25 25L25 21L23 21L23 20L21 20L21 17L22 17L22 18L23 18L23 19L24 19L24 20L25 20L25 18L23 18L23 17L25 17L25 16L22 16L22 15L21 15L21 16L20 16L20 13L22 13L22 14L23 14L23 15L25 15L25 14L23 14L23 12L24 12L24 13L25 13L25 10L24 10L24 8L23 8L23 10L22 10L22 8L21 8L21 10L20 10L20 8L19 8L19 11L18 11L18 13L19 13L19 15L18 15L18 14L15 14L15 13L17 13L17 11L16 11L16 10L15 10L15 9L18 9L18 8L15 8L15 6L16 6L16 7L17 7L17 6L16 6L16 5L15 5L15 4L17 4L17 3L15 3L15 4L14 4L14 3L13 3L13 4L12 4L12 2L13 2L13 1L15 1L15 2L17 2L17 1L15 1L15 0L13 0L13 1L11 1L11 2L10 2L10 0ZM10 3L10 4L11 4L11 3ZM13 4L13 5L14 5L14 6L13 6L13 8L14 8L14 9L15 9L15 8L14 8L14 6L15 6L15 5L14 5L14 4ZM8 5L8 7L9 7L9 5ZM6 9L6 10L7 10L7 11L9 11L9 10L8 10L8 9ZM12 11L12 13L11 13L11 12L10 12L10 13L9 13L9 14L8 14L8 12L7 12L7 13L6 13L6 14L5 14L5 15L6 15L6 16L7 16L7 15L6 15L6 14L8 14L8 15L9 15L9 16L10 16L10 15L9 15L9 14L10 14L10 13L11 13L11 17L9 17L9 18L10 18L10 20L9 20L9 21L10 21L10 23L9 23L9 24L10 24L10 23L13 23L13 24L14 24L14 23L13 23L13 22L14 22L14 21L15 21L15 20L14 20L14 19L16 19L16 18L13 18L13 17L12 17L12 15L13 15L13 16L14 16L14 17L16 17L16 16L15 16L15 14L14 14L14 13L15 13L15 12L16 12L16 11L15 11L15 12L14 12L14 11ZM19 11L19 12L23 12L23 11ZM13 12L13 13L12 13L12 14L13 14L13 13L14 13L14 12ZM0 13L0 17L1 17L1 13ZM17 17L17 20L20 20L20 17ZM11 18L11 20L10 20L10 21L12 21L12 22L13 22L13 21L14 21L14 20L12 20L12 19L13 19L13 18ZM18 18L18 19L19 19L19 18ZM17 21L17 22L15 22L15 24L16 24L16 23L17 23L17 22L18 22L18 23L19 23L19 22L20 22L20 23L21 23L21 22L23 22L23 21L21 21L21 22L20 22L20 21L19 21L19 22L18 22L18 21ZM0 0L0 7L7 7L7 0ZM1 1L1 6L6 6L6 1ZM2 2L2 5L5 5L5 2ZM18 0L18 7L25 7L25 0ZM19 1L19 6L24 6L24 1ZM20 2L20 5L23 5L23 2ZM0 18L0 25L7 25L7 18ZM1 19L1 24L6 24L6 19ZM2 20L2 23L5 23L5 20Z" fill="#000000"/></g></g></svg>
