<?xml version="1.0" encoding="UTF-8"?>
<svg xmlns="http://www.w3.org/2000/svg" version="1.1" width="500" height="500" viewBox="0 0 500 500"><rect x="0" y="0" width="500" height="500" fill="#ffffff"/><g transform="scale(20)"><g transform="translate(0,0)"><path fill-rule="evenodd" d="M9 0L9 1L8 1L8 2L9 2L9 3L8 3L8 4L10 4L10 7L11 7L11 4L12 4L12 5L13 5L13 6L12 6L12 9L14 9L14 10L11 10L11 11L10 11L10 9L11 9L11 8L6 8L6 9L5 9L5 8L0 8L0 9L1 9L1 11L0 11L0 17L1 17L1 14L2 14L2 16L3 16L3 17L4 17L4 15L5 15L5 14L6 14L6 15L7 15L7 16L5 16L5 17L8 17L8 19L9 19L9 18L11 18L11 19L10 19L10 20L11 20L11 21L10 21L10 22L9 22L9 20L8 20L8 25L9 25L9 24L10 24L10 25L12 25L12 24L13 24L13 25L14 25L14 24L15 24L15 25L16 25L16 24L17 24L17 23L18 23L18 22L19 22L19 23L20 23L20 22L22 22L22 23L23 23L23 22L24 22L24 24L20 24L20 25L25 25L25 21L23 21L23 20L22 20L22 21L21 21L21 17L22 17L22 18L23 18L23 19L24 19L24 20L25 20L25 18L23 18L23 17L25 17L25 16L22 16L22 14L23 14L23 15L25 15L25 14L23 14L23 12L25 12L25 10L24 10L24 8L23 8L23 10L22 10L22 8L21 8L21 10L20 10L20 8L19 8L19 10L17 10L17 12L16 12L16 10L15 10L15 9L18 9L18 8L15 8L15 6L16 6L16 7L17 7L17 6L16 6L16 5L15 5L15 4L14 4L14 3L16 3L16 4L17 4L17 3L16 3L16 1L15 1L15 0L14 0L14 1L15 1L15 2L14 2L14 3L13 3L13 4L12 4L12 2L13 2L13 1L11 1L11 2L10 2L10 0ZM10 3L10 4L11 4L11 3ZM13 4L13 5L14 5L14 6L13 6L13 8L14 8L14 9L15 9L15 8L14 8L14 6L15 6L15 5L14 5L14 4ZM8 5L8 7L9 7L9 5ZM2 9L2 10L4 10L4 11L3 11L3 12L4 12L4 13L2 13L2 12L1 12L1 13L2 13L2 14L3 14L3 15L4 15L4 13L6 13L6 14L7 14L7 13L8 13L8 12L9 12L9 9L6 9L6 10L7 10L7 11L6 11L6 12L4 12L4 11L5 11L5 10L4 10L4 9ZM19 10L19 12L23 12L23 11L22 11L22 10L21 10L21 11L20 11L20 10ZM12 11L12 13L11 13L11 12L10 12L10 13L9 13L9 14L10 14L10 13L11 13L11 16L10 16L10 15L9 15L9 17L11 17L11 18L13 18L13 19L12 19L12 20L14 20L14 21L13 21L13 22L12 22L12 21L11 21L11 22L10 22L10 24L12 24L12 23L13 23L13 24L14 24L14 21L15 21L15 19L16 19L16 18L13 18L13 17L12 17L12 15L13 15L13 16L14 16L14 17L16 17L16 16L14 16L14 15L13 15L13 14L14 14L14 13L15 13L15 14L18 14L18 15L19 15L19 13L18 13L18 12L17 12L17 13L16 13L16 12L14 12L14 11ZM6 12L6 13L7 13L7 12ZM13 12L13 13L12 13L12 14L13 14L13 13L14 13L14 12ZM20 13L20 14L21 14L21 13ZM17 17L17 20L20 20L20 17ZM18 18L18 19L19 19L19 18ZM17 21L17 22L15 22L15 24L16 24L16 23L17 23L17 22L18 22L18 21ZM19 21L19 22L20 22L20 21ZM22 21L22 22L23 22L23 21ZM18 24L18 25L19 25L19 24ZM0 0L0 7L7 7L7 0ZM1 1L1 6L6 6L6 1ZM2 2L2 5L5 5L5 2ZM18 0L18 7L25 7L25 0ZM19 1L19 6L24 6L24 1ZM20 2L20 5L23 5L23 2ZM0 18L0 25L7 25L7 18ZM1 19L1 24L6 24L6 19ZM2 20L2 23L5 23L5 20Z" fill="#000000"/></g></g></svg>
