<?xml version="1.0" encoding="UTF-8"?>
<svg xmlns="http://www.w3.org/2000/svg" version="1.1" width="500" height="500" viewBox="0 0 500 500"><rect x="0" y="0" width="500" height="500" fill="#ffffff"/><g transform="scale(20)"><g transform="translate(0,0)"><path fill-rule="evenodd" d="M12 0L12 1L13 1L13 0ZM14 0L14 2L15 2L15 4L16 4L16 5L14 5L14 3L13 3L13 4L11 4L11 3L8 3L8 4L9 4L9 5L8 5L8 7L9 7L9 8L6 8L6 9L5 9L5 8L0 8L0 11L1 11L1 12L2 12L2 14L3 14L3 13L4 13L4 15L3 15L3 16L2 16L2 17L3 17L3 16L4 16L4 17L7 17L7 16L6 16L6 15L7 15L7 14L10 14L10 13L11 13L11 14L12 14L12 15L13 15L13 13L14 13L14 16L13 16L13 17L11 17L11 18L13 18L13 17L14 17L14 20L13 20L13 21L11 21L11 19L9 19L9 18L10 18L10 15L8 15L8 16L9 16L9 17L8 17L8 19L9 19L9 20L8 20L8 25L12 25L12 24L13 24L13 25L14 25L14 24L17 24L17 25L19 25L19 24L18 24L18 23L17 23L17 22L16 22L16 23L14 23L14 24L13 24L13 22L15 22L15 21L18 21L18 22L19 22L19 23L20 23L20 22L21 22L21 21L22 21L22 22L24 22L24 24L20 24L20 25L25 25L25 21L24 21L24 20L25 20L25 18L22 18L22 17L25 17L25 16L22 16L22 17L21 17L21 15L20 15L20 13L21 13L21 12L19 12L19 10L20 10L20 8L19 8L19 10L17 10L17 9L18 9L18 8L17 8L17 9L16 9L16 10L15 10L15 9L14 9L14 8L15 8L15 6L16 6L16 7L17 7L17 4L16 4L16 3L17 3L17 0L16 0L16 1L15 1L15 0ZM8 1L8 2L9 2L9 1ZM10 1L10 2L11 2L11 1ZM10 4L10 6L9 6L9 7L10 7L10 6L11 6L11 8L10 8L10 9L8 9L8 10L7 10L7 9L6 9L6 10L4 10L4 11L3 11L3 10L2 10L2 9L1 9L1 10L2 10L2 11L3 11L3 12L4 12L4 11L6 11L6 12L7 12L7 13L6 13L6 14L7 14L7 13L9 13L9 12L11 12L11 13L13 13L13 12L14 12L14 13L15 13L15 14L16 14L16 13L15 13L15 12L17 12L17 10L16 10L16 11L15 11L15 12L14 12L14 11L12 11L12 10L11 10L11 11L10 11L10 9L13 9L13 10L14 10L14 9L13 9L13 8L14 8L14 5L13 5L13 8L12 8L12 5L11 5L11 4ZM21 8L21 10L22 10L22 11L23 11L23 12L22 12L22 13L24 13L24 11L25 11L25 10L22 10L22 8ZM23 8L23 9L24 9L24 8ZM6 10L6 11L7 11L7 12L8 12L8 11L9 11L9 10L8 10L8 11L7 11L7 10ZM11 11L11 12L12 12L12 11ZM0 13L0 17L1 17L1 13ZM18 13L18 14L17 14L17 15L16 15L16 16L20 16L20 15L18 15L18 14L19 14L19 13ZM23 14L23 15L25 15L25 14ZM14 16L14 17L15 17L15 16ZM17 17L17 20L20 20L20 17ZM15 18L15 20L14 20L14 21L15 21L15 20L16 20L16 18ZM18 18L18 19L19 19L19 18ZM21 18L21 19L22 19L22 20L23 20L23 19L22 19L22 18ZM9 21L9 22L11 22L11 24L12 24L12 22L11 22L11 21ZM9 23L9 24L10 24L10 23ZM0 0L0 7L7 7L7 0ZM1 1L1 6L6 6L6 1ZM2 2L2 5L5 5L5 2ZM18 0L18 7L25 7L25 0ZM19 1L19 6L24 6L24 1ZM20 2L20 5L23 5L23 2ZM0 18L0 25L7 25L7 18ZM1 19L1 24L6 24L6 19ZM2 20L2 23L5 23L5 20Z" fill="#000000"/></g></g></svg>
