<?xml version="1.0" encoding="UTF-8"?>
<svg xmlns="http://www.w3.org/2000/svg" version="1.1" width="500" height="500" viewBox="0 0 500 500"><rect x="0" y="0" width="500" height="500" fill="#ffffff"/><g transform="scale(20)"><g transform="translate(0,0)"><path fill-rule="evenodd" d="M9 0L9 1L8 1L8 2L9 2L9 3L8 3L8 4L10 4L10 7L11 7L11 8L6 8L6 9L5 9L5 8L0 8L0 9L1 9L1 10L0 10L0 11L2 11L2 13L4 13L4 12L3 12L3 11L2 11L2 9L3 9L3 10L5 10L5 11L7 11L7 12L6 12L6 13L8 13L8 11L9 11L9 14L8 14L8 15L7 15L7 14L5 14L5 15L4 15L4 14L3 14L3 15L4 15L4 16L3 16L3 17L4 17L4 16L6 16L6 17L8 17L8 19L10 19L10 18L9 18L9 14L10 14L10 17L11 17L11 18L15 18L15 17L16 17L16 20L15 20L15 21L14 21L14 20L13 20L13 19L12 19L12 20L13 20L13 21L11 21L11 20L10 20L10 22L9 22L9 20L8 20L8 25L10 25L10 23L11 23L11 24L12 24L12 23L11 23L11 22L13 22L13 23L14 23L14 24L13 24L13 25L14 25L14 24L17 24L17 25L19 25L19 24L18 24L18 23L16 23L16 22L15 22L15 21L17 21L17 22L19 22L19 23L20 23L20 22L21 22L21 21L22 21L22 22L24 22L24 24L20 24L20 25L25 25L25 21L24 21L24 20L25 20L25 18L22 18L22 17L25 17L25 16L22 16L22 17L21 17L21 15L20 15L20 13L21 13L21 12L19 12L19 10L20 10L20 8L19 8L19 10L17 10L17 9L18 9L18 8L17 8L17 2L16 2L16 1L14 1L14 0L13 0L13 1L11 1L11 2L10 2L10 0ZM13 1L13 2L12 2L12 3L14 3L14 4L15 4L15 5L13 5L13 7L12 7L12 4L11 4L11 3L10 3L10 4L11 4L11 7L12 7L12 8L11 8L11 9L10 9L10 11L13 11L13 12L10 12L10 13L13 13L13 14L11 14L11 15L13 15L13 16L11 16L11 17L13 17L13 16L14 16L14 17L15 17L15 16L20 16L20 15L18 15L18 14L19 14L19 13L18 13L18 14L16 14L16 13L17 13L17 11L15 11L15 10L16 10L16 9L17 9L17 8L16 8L16 9L15 9L15 7L16 7L16 6L15 6L15 5L16 5L16 4L15 4L15 3L14 3L14 1ZM8 5L8 7L9 7L9 5ZM14 6L14 7L15 7L15 6ZM13 8L13 9L11 9L11 10L15 10L15 9L14 9L14 8ZM21 8L21 10L22 10L22 11L23 11L23 12L22 12L22 13L24 13L24 11L25 11L25 10L22 10L22 8ZM23 8L23 9L24 9L24 8ZM6 9L6 10L7 10L7 11L8 11L8 9ZM0 12L0 17L1 17L1 12ZM13 12L13 13L14 13L14 15L16 15L16 14L15 14L15 13L14 13L14 12ZM23 14L23 15L25 15L25 14ZM6 15L6 16L7 16L7 15ZM17 17L17 20L20 20L20 17ZM18 18L18 19L19 19L19 18ZM21 18L21 19L22 19L22 20L24 20L24 19L22 19L22 18ZM13 21L13 22L14 22L14 23L15 23L15 22L14 22L14 21ZM0 0L0 7L7 7L7 0ZM1 1L1 6L6 6L6 1ZM2 2L2 5L5 5L5 2ZM18 0L18 7L25 7L25 0ZM19 1L19 6L24 6L24 1ZM20 2L20 5L23 5L23 2ZM0 18L0 25L7 25L7 18ZM1 19L1 24L6 24L6 19ZM2 20L2 23L5 23L5 20Z" fill="#000000"/></g></g></svg>
