<?xml version="1.0" encoding="UTF-8"?>
<svg xmlns="http://www.w3.org/2000/svg" version="1.1" width="500" height="500" viewBox="0 0 500 500"><rect x="0" y="0" width="500" height="500" fill="#ffffff"/><g transform="scale(20)"><g transform="translate(0,0)"><path fill-rule="evenodd" d="M9 0L9 1L8 1L8 3L9 3L9 4L8 4L8 8L6 8L6 9L4 9L4 8L3 8L3 9L2 9L2 8L0 8L0 9L1 9L1 10L0 10L0 11L1 11L1 10L3 10L3 12L4 12L4 16L3 16L3 14L2 14L2 15L1 15L1 14L0 14L0 15L1 15L1 16L0 16L0 17L2 17L2 16L3 16L3 17L8 17L8 19L9 19L9 17L12 17L12 16L13 16L13 17L14 17L14 18L13 18L13 20L12 20L12 19L11 19L11 22L10 22L10 21L8 21L8 22L9 22L9 23L8 23L8 25L12 25L12 24L14 24L14 25L15 25L15 24L14 24L14 23L16 23L16 25L20 25L20 24L21 24L21 23L22 23L22 22L23 22L23 21L22 21L22 22L21 22L21 20L23 20L23 19L25 19L25 9L24 9L24 8L22 8L22 9L23 9L23 11L24 11L24 15L23 15L23 16L22 16L22 17L21 17L21 16L20 16L20 12L21 12L21 15L22 15L22 14L23 14L23 13L22 13L22 12L21 12L21 11L22 11L22 10L21 10L21 11L20 11L20 10L19 10L19 9L21 9L21 8L18 8L18 10L17 10L17 11L19 11L19 12L18 12L18 13L16 13L16 18L15 18L15 15L14 15L14 14L15 14L15 9L14 9L14 8L13 8L13 6L12 6L12 5L11 5L11 6L10 6L10 5L9 5L9 4L12 4L12 3L13 3L13 0L12 0L12 1L11 1L11 2L9 2L9 1L10 1L10 0ZM15 0L15 2L14 2L14 3L15 3L15 5L14 5L14 4L13 4L13 5L14 5L14 7L15 7L15 6L16 6L16 7L17 7L17 5L16 5L16 4L17 4L17 2L16 2L16 1L17 1L17 0ZM9 6L9 7L10 7L10 8L8 8L8 12L7 12L7 11L5 11L5 10L4 10L4 9L3 9L3 10L4 10L4 11L5 11L5 12L7 12L7 13L6 13L6 14L5 14L5 16L8 16L8 17L9 17L9 16L8 16L8 14L9 14L9 15L10 15L10 16L12 16L12 14L9 14L9 13L12 13L12 12L13 12L13 10L14 10L14 9L13 9L13 8L12 8L12 6L11 6L11 7L10 7L10 6ZM10 8L10 10L9 10L9 11L11 11L11 10L12 10L12 9L11 9L11 8ZM6 9L6 10L7 10L7 9ZM1 12L1 13L2 13L2 12ZM8 12L8 13L9 13L9 12ZM13 13L13 14L14 14L14 13ZM6 14L6 15L7 15L7 14ZM17 14L17 16L19 16L19 14ZM17 17L17 20L20 20L20 17ZM23 17L23 18L24 18L24 17ZM14 18L14 20L13 20L13 21L14 21L14 22L16 22L16 23L17 23L17 24L18 24L18 23L19 23L19 24L20 24L20 22L19 22L19 21L18 21L18 23L17 23L17 21L16 21L16 20L15 20L15 18ZM18 18L18 19L19 19L19 18ZM21 18L21 19L22 19L22 18ZM14 20L14 21L15 21L15 20ZM24 20L24 21L25 21L25 20ZM24 22L24 23L25 23L25 22ZM9 23L9 24L11 24L11 23ZM23 24L23 25L25 25L25 24ZM0 0L0 7L7 7L7 0ZM1 1L1 6L6 6L6 1ZM2 2L2 5L5 5L5 2ZM18 0L18 7L25 7L25 0ZM19 1L19 6L24 6L24 1ZM20 2L20 5L23 5L23 2ZM0 18L0 25L7 25L7 18ZM1 19L1 24L6 24L6 19ZM2 20L2 23L5 23L5 20Z" fill="#000000"/></g></g></svg>
