<?xml version="1.0" encoding="UTF-8"?>
<svg xmlns="http://www.w3.org/2000/svg" version="1.1" width="500" height="500" viewBox="0 0 500 500"><rect x="0" y="0" width="500" height="500" fill="#ffffff"/><g transform="scale(20)"><g transform="translate(0,0)"><path fill-rule="evenodd" d="M9 0L9 1L8 1L8 3L9 3L9 4L8 4L8 8L6 8L6 9L4 9L4 8L3 8L3 9L2 9L2 8L0 8L0 9L1 9L1 10L3 10L3 11L0 11L0 12L1 12L1 14L0 14L0 15L1 15L1 16L0 16L0 17L2 17L2 16L3 16L3 17L8 17L8 19L9 19L9 21L8 21L8 22L9 22L9 21L10 21L10 23L8 23L8 25L9 25L9 24L10 24L10 25L13 25L13 24L14 24L14 25L15 25L15 24L16 24L16 25L17 25L17 24L18 24L18 25L20 25L20 24L18 24L18 21L20 21L20 23L22 23L22 22L23 22L23 21L22 21L22 22L21 22L21 18L22 18L22 20L23 20L23 19L24 19L24 21L25 21L25 9L24 9L24 8L22 8L22 9L23 9L23 11L24 11L24 15L23 15L23 16L22 16L22 17L21 17L21 16L20 16L20 15L22 15L22 14L23 14L23 13L22 13L22 12L21 12L21 11L22 11L22 10L20 10L20 9L21 9L21 8L18 8L18 9L17 9L17 10L16 10L16 11L14 11L14 10L15 10L15 9L14 9L14 8L15 8L15 6L16 6L16 8L17 8L17 6L16 6L16 4L17 4L17 2L16 2L16 1L17 1L17 0L15 0L15 2L16 2L16 3L15 3L15 5L14 5L14 4L13 4L13 6L12 6L12 5L11 5L11 6L10 6L10 5L9 5L9 4L12 4L12 3L13 3L13 2L14 2L14 1L13 1L13 0L12 0L12 1L11 1L11 2L9 2L9 1L10 1L10 0ZM9 6L9 7L10 7L10 8L8 8L8 9L9 9L9 10L7 10L7 9L6 9L6 10L5 10L5 12L7 12L7 13L5 13L5 14L7 14L7 13L12 13L12 12L13 12L13 8L14 8L14 6L13 6L13 8L12 8L12 6L11 6L11 7L10 7L10 6ZM10 8L10 10L9 10L9 11L8 11L8 12L9 12L9 11L11 11L11 10L12 10L12 9L11 9L11 8ZM3 9L3 10L4 10L4 9ZM6 10L6 11L7 11L7 10ZM18 10L18 12L17 12L17 11L16 11L16 13L15 13L15 15L16 15L16 16L19 16L19 15L20 15L20 14L21 14L21 12L20 12L20 10ZM3 11L3 12L2 12L2 14L1 14L1 15L3 15L3 13L4 13L4 11ZM18 12L18 15L19 15L19 14L20 14L20 13L19 13L19 12ZM13 13L13 15L14 15L14 13ZM16 13L16 15L17 15L17 13ZM8 14L8 16L9 16L9 19L10 19L10 21L11 21L11 19L12 19L12 20L14 20L14 21L15 21L15 22L13 22L13 23L14 23L14 24L15 24L15 22L17 22L17 21L16 21L16 20L14 20L14 18L16 18L16 17L14 17L14 16L12 16L12 14L11 14L11 16L12 16L12 17L11 17L11 19L10 19L10 14ZM5 15L5 16L7 16L7 15ZM17 17L17 20L20 20L20 17ZM23 17L23 18L24 18L24 17ZM18 18L18 19L19 19L19 18ZM24 22L24 23L25 23L25 22ZM23 24L23 25L25 25L25 24ZM0 0L0 7L7 7L7 0ZM1 1L1 6L6 6L6 1ZM2 2L2 5L5 5L5 2ZM18 0L18 7L25 7L25 0ZM19 1L19 6L24 6L24 1ZM20 2L20 5L23 5L23 2ZM0 18L0 25L7 25L7 18ZM1 19L1 24L6 24L6 19ZM2 20L2 23L5 23L5 20Z" fill="#000000"/></g></g></svg>
