<?xml version="1.0" encoding="UTF-8"?>
<svg xmlns="http://www.w3.org/2000/svg" version="1.1" width="500" height="500" viewBox="0 0 500 500"><rect x="0" y="0" width="500" height="500" fill="#ffffff"/><g transform="scale(20)"><g transform="translate(0,0)"><path fill-rule="evenodd" d="M8 0L8 1L9 1L9 2L10 2L10 3L13 3L13 4L12 4L12 5L10 5L10 4L9 4L9 5L10 5L10 8L9 8L9 6L8 6L8 8L9 8L9 10L10 10L10 11L8 11L8 10L6 10L6 9L7 9L7 8L6 8L6 9L5 9L5 8L3 8L3 9L4 9L4 11L3 11L3 10L2 10L2 11L3 11L3 14L4 14L4 15L2 15L2 14L1 14L1 12L0 12L0 17L1 17L1 15L2 15L2 17L3 17L3 16L4 16L4 15L5 15L5 17L7 17L7 16L8 16L8 14L9 14L9 13L10 13L10 12L11 12L11 14L12 14L12 15L10 15L10 16L9 16L9 17L8 17L8 18L9 18L9 20L8 20L8 22L9 22L9 20L10 20L10 21L11 21L11 23L10 23L10 24L9 24L9 23L8 23L8 25L12 25L12 22L13 22L13 23L15 23L15 22L16 22L16 23L17 23L17 24L16 24L16 25L18 25L18 24L20 24L20 23L21 23L21 22L20 22L20 21L21 21L21 20L22 20L22 19L23 19L23 23L22 23L22 24L21 24L21 25L22 25L22 24L24 24L24 25L25 25L25 21L24 21L24 20L25 20L25 18L24 18L24 17L25 17L25 16L24 16L24 15L25 15L25 14L22 14L22 15L21 15L21 13L22 13L22 12L23 12L23 13L25 13L25 10L24 10L24 12L23 12L23 11L22 11L22 9L19 9L19 8L18 8L18 9L17 9L17 8L16 8L16 7L17 7L17 6L16 6L16 7L15 7L15 3L16 3L16 5L17 5L17 3L16 3L16 2L17 2L17 1L16 1L16 2L15 2L15 3L14 3L14 0L10 0L10 1L9 1L9 0ZM11 1L11 2L12 2L12 1ZM13 5L13 7L12 7L12 6L11 6L11 7L12 7L12 8L11 8L11 9L10 9L10 10L11 10L11 9L14 9L14 10L12 10L12 13L14 13L14 14L15 14L15 13L14 13L14 12L15 12L15 11L14 11L14 10L15 10L15 9L16 9L16 11L17 11L17 9L16 9L16 8L15 8L15 7L14 7L14 5ZM13 7L13 8L14 8L14 7ZM0 8L0 9L2 9L2 8ZM24 8L24 9L25 9L25 8ZM18 9L18 10L19 10L19 9ZM0 10L0 11L1 11L1 10ZM6 11L6 12L5 12L5 13L6 13L6 14L7 14L7 13L9 13L9 12L7 12L7 11ZM20 11L20 12L19 12L19 13L18 13L18 12L16 12L16 13L17 13L17 14L16 14L16 15L12 15L12 17L10 17L10 19L11 19L11 18L12 18L12 19L16 19L16 17L15 17L15 18L14 18L14 17L13 17L13 16L16 16L16 15L17 15L17 14L19 14L19 16L20 16L20 13L21 13L21 11ZM6 12L6 13L7 13L7 12ZM6 15L6 16L7 16L7 15ZM21 16L21 18L23 18L23 19L24 19L24 18L23 18L23 17L24 17L24 16L23 16L23 17L22 17L22 16ZM12 17L12 18L13 18L13 17ZM17 17L17 20L20 20L20 17ZM18 18L18 19L19 19L19 18ZM11 20L11 21L13 21L13 22L15 22L15 20ZM17 22L17 23L19 23L19 22ZM14 24L14 25L15 25L15 24ZM0 0L0 7L7 7L7 0ZM1 1L1 6L6 6L6 1ZM2 2L2 5L5 5L5 2ZM18 0L18 7L25 7L25 0ZM19 1L19 6L24 6L24 1ZM20 2L20 5L23 5L23 2ZM0 18L0 25L7 25L7 18ZM1 19L1 24L6 24L6 19ZM2 20L2 23L5 23L5 20Z" fill="#000000"/></g></g></svg>
