<?xml version="1.0" encoding="UTF-8"?>
<svg xmlns="http://www.w3.org/2000/svg" version="1.1" width="500" height="500" viewBox="0 0 500 500"><rect x="0" y="0" width="500" height="500" fill="#ffffff"/><g transform="scale(20)"><g transform="translate(0,0)"><path fill-rule="evenodd" d="M9 0L9 1L8 1L8 3L9 3L9 4L8 4L8 8L6 8L6 9L5 9L5 10L6 10L6 11L5 11L5 12L4 12L4 11L3 11L3 10L4 10L4 8L3 8L3 9L2 9L2 8L0 8L0 12L1 12L1 13L2 13L2 12L4 12L4 13L3 13L3 14L2 14L2 15L1 15L1 14L0 14L0 15L1 15L1 16L0 16L0 17L4 17L4 16L5 16L5 17L7 17L7 16L9 16L9 14L10 14L10 15L11 15L11 14L12 14L12 16L10 16L10 17L8 17L8 19L9 19L9 20L10 20L10 21L8 21L8 22L9 22L9 23L8 23L8 25L9 25L9 24L11 24L11 23L10 23L10 21L12 21L12 20L13 20L13 21L14 21L14 22L12 22L12 24L13 24L13 25L15 25L15 24L14 24L14 23L16 23L16 25L21 25L21 24L20 24L20 23L22 23L22 22L23 22L23 21L24 21L24 20L23 20L23 19L25 19L25 9L24 9L24 8L22 8L22 9L21 9L21 8L18 8L18 11L17 11L17 10L16 10L16 11L15 11L15 9L16 9L16 8L17 8L17 5L16 5L16 4L17 4L17 3L16 3L16 2L17 2L17 0L15 0L15 2L14 2L14 1L13 1L13 0L12 0L12 1L11 1L11 2L9 2L9 1L10 1L10 0ZM13 2L13 3L12 3L12 4L9 4L9 5L10 5L10 6L9 6L9 7L10 7L10 8L8 8L8 9L6 9L6 10L8 10L8 9L9 9L9 10L10 10L10 8L11 8L11 9L12 9L12 10L11 10L11 11L8 11L8 12L7 12L7 11L6 11L6 12L7 12L7 13L4 13L4 14L7 14L7 15L5 15L5 16L7 16L7 15L8 15L8 14L9 14L9 13L12 13L12 12L13 12L13 11L14 11L14 10L13 10L13 8L14 8L14 9L15 9L15 8L14 8L14 5L15 5L15 3L14 3L14 2ZM13 4L13 5L14 5L14 4ZM11 5L11 6L10 6L10 7L11 7L11 6L12 6L12 8L13 8L13 6L12 6L12 5ZM15 6L15 7L16 7L16 6ZM1 9L1 12L2 12L2 9ZM19 9L19 13L20 13L20 14L18 14L18 16L19 16L19 15L20 15L20 16L21 16L21 19L22 19L22 18L24 18L24 17L22 17L22 16L24 16L24 11L23 11L23 9L22 9L22 11L21 11L21 12L20 12L20 10L21 10L21 9ZM8 12L8 13L9 13L9 12ZM15 13L15 14L13 14L13 15L14 15L14 16L13 16L13 17L11 17L11 19L10 19L10 18L9 18L9 19L10 19L10 20L12 20L12 19L13 19L13 20L14 20L14 21L16 21L16 23L20 23L20 21L18 21L18 22L17 22L17 21L16 21L16 20L14 20L14 18L16 18L16 17L14 17L14 16L15 16L15 15L16 15L16 16L17 16L17 15L16 15L16 13ZM20 14L20 15L21 15L21 14ZM2 15L2 16L3 16L3 15ZM13 17L13 18L14 18L14 17ZM17 17L17 20L20 20L20 17ZM18 18L18 19L19 19L19 18ZM21 20L21 22L22 22L22 21L23 21L23 20ZM24 22L24 23L25 23L25 22ZM23 24L23 25L25 25L25 24ZM0 0L0 7L7 7L7 0ZM1 1L1 6L6 6L6 1ZM2 2L2 5L5 5L5 2ZM18 0L18 7L25 7L25 0ZM19 1L19 6L24 6L24 1ZM20 2L20 5L23 5L23 2ZM0 18L0 25L7 25L7 18ZM1 19L1 24L6 24L6 19ZM2 20L2 23L5 23L5 20Z" fill="#000000"/></g></g></svg>
