<?xml version="1.0" encoding="UTF-8"?>
<svg xmlns="http://www.w3.org/2000/svg" version="1.1" width="500" height="500" viewBox="0 0 500 500"><rect x="0" y="0" width="500" height="500" fill="#ffffff"/><g transform="scale(20)"><g transform="translate(0,0)"><path fill-rule="evenodd" d="M8 0L8 4L9 4L9 5L8 5L8 7L9 7L9 6L10 6L10 9L11 9L11 8L12 8L12 9L13 9L13 8L12 8L12 7L13 7L13 6L14 6L14 9L15 9L15 11L14 11L14 13L12 13L12 12L13 12L13 11L12 11L12 12L11 12L11 13L9 13L9 12L10 12L10 11L11 11L11 10L9 10L9 11L8 11L8 14L6 14L6 15L7 15L7 16L5 16L5 13L7 13L7 12L6 12L6 11L7 11L7 10L8 10L8 9L7 9L7 8L4 8L4 9L7 9L7 10L6 10L6 11L5 11L5 10L3 10L3 9L2 9L2 8L0 8L0 9L2 9L2 10L3 10L3 11L2 11L2 12L1 12L1 13L0 13L0 14L1 14L1 13L2 13L2 14L3 14L3 15L4 15L4 16L3 16L3 17L4 17L4 16L5 16L5 17L8 17L8 18L9 18L9 16L8 16L8 14L10 14L10 15L11 15L11 16L10 16L10 17L11 17L11 16L12 16L12 17L13 17L13 19L12 19L12 20L11 20L11 21L12 21L12 22L10 22L10 21L9 21L9 20L10 20L10 19L8 19L8 21L9 21L9 23L8 23L8 25L11 25L11 24L12 24L12 25L14 25L14 23L16 23L16 21L18 21L18 22L17 22L17 23L18 23L18 24L17 24L17 25L19 25L19 23L20 23L20 25L21 25L21 23L20 23L20 22L19 22L19 21L21 21L21 22L22 22L22 25L25 25L25 24L24 24L24 22L25 22L25 19L23 19L23 18L22 18L22 17L25 17L25 15L24 15L24 16L23 16L23 15L22 15L22 14L24 14L24 13L25 13L25 11L23 11L23 10L22 10L22 13L20 13L20 10L21 10L21 9L25 9L25 8L21 8L21 9L20 9L20 8L19 8L19 9L20 9L20 10L19 10L19 11L18 11L18 9L17 9L17 5L16 5L16 3L17 3L17 2L16 2L16 3L15 3L15 5L14 5L14 3L13 3L13 2L15 2L15 1L16 1L16 0L15 0L15 1L11 1L11 2L12 2L12 5L13 5L13 6L12 6L12 7L11 7L11 3L10 3L10 2L9 2L9 0ZM15 5L15 9L16 9L16 11L15 11L15 13L14 13L14 14L13 14L13 15L12 15L12 16L13 16L13 17L14 17L14 18L15 18L15 19L16 19L16 18L15 18L15 17L16 17L16 16L17 16L17 15L14 15L14 14L15 14L15 13L16 13L16 14L19 14L19 15L18 15L18 16L21 16L21 17L22 17L22 15L20 15L20 13L16 13L16 11L17 11L17 12L18 12L18 11L17 11L17 9L16 9L16 5ZM0 10L0 11L1 11L1 10ZM3 12L3 14L4 14L4 12ZM23 12L23 13L24 13L24 12ZM11 13L11 14L12 14L12 13ZM0 16L0 17L2 17L2 16ZM14 16L14 17L15 17L15 16ZM17 17L17 20L20 20L20 17ZM18 18L18 19L19 19L19 18ZM13 19L13 20L12 20L12 21L13 21L13 22L14 22L14 21L13 21L13 20L14 20L14 19ZM15 20L15 21L16 21L16 20ZM21 20L21 21L22 21L22 20ZM9 23L9 24L10 24L10 23ZM12 23L12 24L13 24L13 23ZM0 0L0 7L7 7L7 0ZM1 1L1 6L6 6L6 1ZM2 2L2 5L5 5L5 2ZM18 0L18 7L25 7L25 0ZM19 1L19 6L24 6L24 1ZM20 2L20 5L23 5L23 2ZM0 18L0 25L7 25L7 18ZM1 19L1 24L6 24L6 19ZM2 20L2 23L5 23L5 20Z" fill="#000000"/></g></g></svg>
