<?xml version="1.0" encoding="UTF-8"?>
<svg xmlns="http://www.w3.org/2000/svg" version="1.1" width="500" height="500" viewBox="0 0 500 500"><rect x="0" y="0" width="500" height="500" fill="#ffffff"/><g transform="scale(20)"><g transform="translate(0,0)"><path fill-rule="evenodd" d="M9 0L9 1L8 1L8 3L9 3L9 4L8 4L8 8L6 8L6 9L8 9L8 8L10 8L10 10L9 10L9 11L8 11L8 10L6 10L6 11L4 11L4 8L3 8L3 9L2 9L2 8L0 8L0 9L1 9L1 10L0 10L0 13L1 13L1 11L2 11L2 13L4 13L4 14L3 14L3 15L1 15L1 14L0 14L0 15L1 15L1 16L0 16L0 17L2 17L2 16L3 16L3 17L5 17L5 15L7 15L7 16L6 16L6 17L8 17L8 19L9 19L9 18L11 18L11 17L13 17L13 18L14 18L14 20L13 20L13 19L12 19L12 20L11 20L11 21L10 21L10 20L9 20L9 21L8 21L8 22L10 22L10 23L11 23L11 21L12 21L12 20L13 20L13 21L14 21L14 22L12 22L12 24L13 24L13 25L15 25L15 24L14 24L14 23L16 23L16 25L21 25L21 24L20 24L20 23L22 23L22 22L23 22L23 21L24 21L24 20L23 20L23 19L25 19L25 9L24 9L24 8L22 8L22 9L21 9L21 8L18 8L18 11L17 11L17 10L16 10L16 11L15 11L15 9L16 9L16 8L17 8L17 5L16 5L16 4L17 4L17 3L16 3L16 2L17 2L17 0L15 0L15 2L14 2L14 1L13 1L13 0L12 0L12 1L11 1L11 2L9 2L9 1L10 1L10 0ZM13 2L13 3L12 3L12 4L9 4L9 5L10 5L10 6L9 6L9 7L10 7L10 8L11 8L11 9L12 9L12 10L11 10L11 11L9 11L9 13L8 13L8 12L7 12L7 11L6 11L6 12L4 12L4 13L5 13L5 14L4 14L4 15L3 15L3 16L4 16L4 15L5 15L5 14L8 14L8 15L9 15L9 13L12 13L12 12L13 12L13 11L14 11L14 10L13 10L13 8L14 8L14 9L15 9L15 8L14 8L14 5L15 5L15 3L14 3L14 2ZM13 4L13 5L14 5L14 4ZM11 5L11 6L10 6L10 7L11 7L11 6L12 6L12 8L13 8L13 6L12 6L12 5ZM15 6L15 7L16 7L16 6ZM19 9L19 13L20 13L20 14L18 14L18 16L19 16L19 15L20 15L20 16L21 16L21 19L22 19L22 18L24 18L24 17L22 17L22 16L24 16L24 11L23 11L23 9L22 9L22 11L21 11L21 12L20 12L20 10L21 10L21 9ZM6 12L6 13L7 13L7 12ZM15 13L15 14L13 14L13 15L14 15L14 16L13 16L13 17L14 17L14 18L16 18L16 16L17 16L17 15L16 15L16 13ZM10 14L10 15L11 15L11 16L8 16L8 17L11 17L11 16L12 16L12 14ZM20 14L20 15L21 15L21 14ZM15 15L15 16L14 16L14 17L15 17L15 16L16 16L16 15ZM17 17L17 20L20 20L20 17ZM18 18L18 19L19 19L19 18ZM14 20L14 21L15 21L15 22L16 22L16 23L20 23L20 21L18 21L18 22L17 22L17 21L16 21L16 20ZM21 20L21 22L22 22L22 21L23 21L23 20ZM24 22L24 23L25 23L25 22ZM8 23L8 25L9 25L9 23ZM10 24L10 25L11 25L11 24ZM23 24L23 25L25 25L25 24ZM0 0L0 7L7 7L7 0ZM1 1L1 6L6 6L6 1ZM2 2L2 5L5 5L5 2ZM18 0L18 7L25 7L25 0ZM19 1L19 6L24 6L24 1ZM20 2L20 5L23 5L23 2ZM0 18L0 25L7 25L7 18ZM1 19L1 24L6 24L6 19ZM2 20L2 23L5 23L5 20Z" fill="#000000"/></g></g></svg>
