<?xml version="1.0" encoding="UTF-8"?>
<svg xmlns="http://www.w3.org/2000/svg" version="1.1" width="500" height="500" viewBox="0 0 500 500"><rect x="0" y="0" width="500" height="500" fill="#ffffff"/><g transform="scale(20)"><g transform="translate(0,0)"><path fill-rule="evenodd" d="M9 0L9 1L8 1L8 3L9 3L9 4L8 4L8 8L6 8L6 9L8 9L8 10L6 10L6 11L5 11L5 9L4 9L4 8L3 8L3 9L4 9L4 10L2 10L2 8L0 8L0 9L1 9L1 10L0 10L0 12L1 12L1 13L2 13L2 15L1 15L1 14L0 14L0 15L1 15L1 16L0 16L0 17L3 17L3 16L4 16L4 17L8 17L8 19L9 19L9 16L11 16L11 17L10 17L10 18L11 18L11 17L12 17L12 16L13 16L13 17L14 17L14 18L13 18L13 20L12 20L12 19L11 19L11 20L9 20L9 21L8 21L8 22L9 22L9 23L8 23L8 25L9 25L9 24L10 24L10 25L12 25L12 24L14 24L14 25L15 25L15 24L14 24L14 23L15 23L15 22L17 22L17 23L16 23L16 25L17 25L17 23L18 23L18 25L21 25L21 24L20 24L20 23L22 23L22 22L23 22L23 21L22 21L22 22L21 22L21 20L23 20L23 19L25 19L25 9L24 9L24 8L22 8L22 9L23 9L23 11L24 11L24 16L22 16L22 18L23 18L23 19L21 19L21 16L20 16L20 12L21 12L21 11L22 11L22 10L21 10L21 11L20 11L20 10L19 10L19 9L21 9L21 8L18 8L18 9L17 9L17 10L16 10L16 11L13 11L13 12L12 12L12 13L10 13L10 14L12 14L12 16L11 16L11 15L9 15L9 12L8 12L8 10L9 10L9 11L11 11L11 10L12 10L12 9L11 9L11 8L10 8L10 7L11 7L11 6L12 6L12 8L13 8L13 10L15 10L15 9L14 9L14 8L13 8L13 6L14 6L14 7L15 7L15 8L17 8L17 5L16 5L16 4L17 4L17 3L15 3L15 2L16 2L16 1L17 1L17 0L15 0L15 1L14 1L14 3L15 3L15 6L14 6L14 4L13 4L13 6L12 6L12 5L11 5L11 6L10 6L10 5L9 5L9 4L12 4L12 3L13 3L13 0L12 0L12 1L11 1L11 2L9 2L9 1L10 1L10 0ZM9 6L9 7L10 7L10 6ZM15 6L15 7L16 7L16 6ZM8 8L8 9L9 9L9 10L10 10L10 8ZM1 10L1 12L2 12L2 13L3 13L3 14L5 14L5 15L4 15L4 16L5 16L5 15L6 15L6 16L9 16L9 15L6 15L6 14L8 14L8 12L7 12L7 11L6 11L6 12L7 12L7 13L6 13L6 14L5 14L5 13L3 13L3 12L2 12L2 10ZM18 10L18 12L17 12L17 11L16 11L16 12L15 12L15 14L13 14L13 15L14 15L14 16L15 16L15 15L16 15L16 16L19 16L19 14L17 14L17 15L16 15L16 13L18 13L18 12L19 12L19 10ZM4 11L4 12L5 12L5 11ZM22 13L22 14L21 14L21 15L23 15L23 13ZM2 15L2 16L3 16L3 15ZM15 17L15 18L14 18L14 20L13 20L13 21L14 21L14 22L15 22L15 21L16 21L16 20L15 20L15 18L16 18L16 17ZM17 17L17 20L20 20L20 17ZM23 17L23 18L24 18L24 17ZM18 18L18 19L19 19L19 18ZM14 20L14 21L15 21L15 20ZM24 20L24 21L25 21L25 20ZM18 21L18 23L20 23L20 22L19 22L19 21ZM24 22L24 23L25 23L25 22ZM23 24L23 25L25 25L25 24ZM0 0L0 7L7 7L7 0ZM1 1L1 6L6 6L6 1ZM2 2L2 5L5 5L5 2ZM18 0L18 7L25 7L25 0ZM19 1L19 6L24 6L24 1ZM20 2L20 5L23 5L23 2ZM0 18L0 25L7 25L7 18ZM1 19L1 24L6 24L6 19ZM2 20L2 23L5 23L5 20Z" fill="#000000"/></g></g></svg>
