<?xml version="1.0" encoding="UTF-8"?>
<svg xmlns="http://www.w3.org/2000/svg" version="1.1" width="500" height="500" viewBox="0 0 500 500"><rect x="0" y="0" width="500" height="500" fill="#ffffff"/><g transform="scale(20)"><g transform="translate(0,0)"><path fill-rule="evenodd" d="M8 0L8 1L9 1L9 2L8 2L8 5L9 5L9 4L11 4L11 5L10 5L10 10L9 10L9 11L7 11L7 10L8 10L8 9L9 9L9 8L8 8L8 9L7 9L7 8L6 8L6 9L4 9L4 8L0 8L0 9L2 9L2 11L1 11L1 13L2 13L2 14L1 14L1 15L0 15L0 16L1 16L1 15L2 15L2 17L3 17L3 16L4 16L4 17L8 17L8 18L9 18L9 19L11 19L11 20L9 20L9 21L8 21L8 25L9 25L9 23L11 23L11 24L12 24L12 23L13 23L13 25L14 25L14 24L15 24L15 25L16 25L16 22L17 22L17 25L20 25L20 24L21 24L21 25L25 25L25 24L23 24L23 23L24 23L24 22L25 22L25 20L24 20L24 21L22 21L22 22L21 22L21 19L25 19L25 17L24 17L24 18L22 18L22 17L23 17L23 16L24 16L24 14L25 14L25 11L24 11L24 14L22 14L22 13L23 13L23 11L22 11L22 10L20 10L20 9L23 9L23 8L20 8L20 9L19 9L19 11L18 11L18 8L17 8L17 10L16 10L16 11L17 11L17 13L18 13L18 14L19 14L19 15L23 15L23 16L22 16L22 17L21 17L21 16L18 16L18 15L17 15L17 14L16 14L16 13L15 13L15 14L14 14L14 16L13 16L13 18L12 18L12 19L11 19L11 18L9 18L9 15L7 15L7 14L6 14L6 13L8 13L8 14L9 14L9 13L11 13L11 14L10 14L10 15L11 15L11 16L10 16L10 17L11 17L11 16L12 16L12 14L13 14L13 13L14 13L14 11L13 11L13 6L14 6L14 7L15 7L15 6L14 6L14 5L13 5L13 4L14 4L14 2L15 2L15 5L16 5L16 7L17 7L17 5L16 5L16 4L17 4L17 2L15 2L15 0L12 0L12 1L11 1L11 0L10 0L10 1L9 1L9 0ZM13 1L13 2L11 2L11 4L12 4L12 3L13 3L13 2L14 2L14 1ZM12 5L12 6L11 6L11 8L12 8L12 6L13 6L13 5ZM8 6L8 7L9 7L9 6ZM15 8L15 9L14 9L14 10L15 10L15 9L16 9L16 8ZM24 8L24 9L25 9L25 8ZM6 9L6 10L5 10L5 11L3 11L3 12L2 12L2 13L3 13L3 14L2 14L2 15L4 15L4 14L5 14L5 15L6 15L6 16L7 16L7 15L6 15L6 14L5 14L5 13L6 13L6 12L7 12L7 11L6 11L6 10L7 10L7 9ZM11 9L11 10L12 10L12 9ZM11 11L11 13L12 13L12 12L13 12L13 11ZM20 11L20 12L19 12L19 13L20 13L20 12L21 12L21 11ZM4 12L4 13L5 13L5 12ZM8 12L8 13L9 13L9 12ZM15 14L15 15L16 15L16 16L15 16L15 17L16 17L16 16L17 16L17 15L16 15L16 14ZM17 17L17 20L20 20L20 17ZM15 18L15 19L12 19L12 20L11 20L11 21L12 21L12 20L13 20L13 22L14 22L14 21L15 21L15 22L16 22L16 18ZM18 18L18 19L19 19L19 18ZM9 21L9 22L10 22L10 21ZM17 21L17 22L18 22L18 21ZM22 22L22 23L23 23L23 22ZM19 23L19 24L20 24L20 23ZM0 0L0 7L7 7L7 0ZM1 1L1 6L6 6L6 1ZM2 2L2 5L5 5L5 2ZM18 0L18 7L25 7L25 0ZM19 1L19 6L24 6L24 1ZM20 2L20 5L23 5L23 2ZM0 18L0 25L7 25L7 18ZM1 19L1 24L6 24L6 19ZM2 20L2 23L5 23L5 20Z" fill="#000000"/></g></g></svg>
