<?xml version="1.0" encoding="UTF-8"?>
<svg xmlns="http://www.w3.org/2000/svg" version="1.1" width="500" height="500" viewBox="0 0 500 500"><rect x="0" y="0" width="500" height="500" fill="#ffffff"/><g transform="scale(20)"><g transform="translate(0,0)"><path fill-rule="evenodd" d="M9 0L9 1L8 1L8 3L9 3L9 4L8 4L8 8L6 8L6 9L7 9L7 10L6 10L6 11L7 11L7 12L5 12L5 9L4 9L4 8L3 8L3 9L2 9L2 8L0 8L0 9L2 9L2 10L1 10L1 11L0 11L0 13L1 13L1 11L2 11L2 10L3 10L3 11L4 11L4 13L3 13L3 12L2 12L2 14L3 14L3 15L1 15L1 14L0 14L0 15L1 15L1 16L0 16L0 17L4 17L4 16L6 16L6 17L7 17L7 16L6 16L6 15L8 15L8 19L10 19L10 20L9 20L9 21L8 21L8 22L9 22L9 23L8 23L8 25L9 25L9 24L11 24L11 25L12 25L12 24L14 24L14 25L15 25L15 24L14 24L14 23L16 23L16 25L21 25L21 24L20 24L20 23L22 23L22 22L23 22L23 21L22 21L22 22L21 22L21 20L23 20L23 19L25 19L25 9L24 9L24 8L22 8L22 9L23 9L23 11L24 11L24 16L22 16L22 18L23 18L23 19L21 19L21 16L20 16L20 12L21 12L21 11L22 11L22 10L21 10L21 11L20 11L20 10L19 10L19 9L21 9L21 8L18 8L18 9L17 9L17 11L16 11L16 12L18 12L18 13L16 13L16 15L15 15L15 12L14 12L14 11L15 11L15 9L14 9L14 8L17 8L17 5L16 5L16 4L17 4L17 3L16 3L16 2L17 2L17 0L15 0L15 1L13 1L13 0L12 0L12 1L11 1L11 2L9 2L9 1L10 1L10 0ZM13 2L13 3L12 3L12 4L9 4L9 5L10 5L10 6L9 6L9 7L10 7L10 8L8 8L8 12L7 12L7 13L4 13L4 15L3 15L3 16L4 16L4 15L5 15L5 14L8 14L8 12L9 12L9 14L10 14L10 13L12 13L12 12L13 12L13 10L14 10L14 9L13 9L13 8L14 8L14 6L15 6L15 7L16 7L16 6L15 6L15 3L14 3L14 2ZM13 4L13 5L14 5L14 4ZM11 5L11 6L10 6L10 7L11 7L11 6L12 6L12 8L13 8L13 6L12 6L12 5ZM10 8L10 10L9 10L9 11L11 11L11 10L12 10L12 9L11 9L11 8ZM18 10L18 12L19 12L19 10ZM13 13L13 14L14 14L14 13ZM22 13L22 14L21 14L21 15L23 15L23 13ZM11 14L11 16L12 16L12 17L11 17L11 18L10 18L10 16L9 16L9 18L10 18L10 19L12 19L12 20L13 20L13 21L14 21L14 22L16 22L16 23L17 23L17 24L18 24L18 23L20 23L20 22L19 22L19 21L18 21L18 23L17 23L17 22L16 22L16 20L15 20L15 18L16 18L16 16L15 16L15 15L14 15L14 16L15 16L15 18L14 18L14 17L13 17L13 16L12 16L12 14ZM17 14L17 16L19 16L19 14ZM17 17L17 20L20 20L20 17ZM23 17L23 18L24 18L24 17ZM13 18L13 20L14 20L14 21L15 21L15 20L14 20L14 18ZM18 18L18 19L19 19L19 18ZM10 20L10 21L9 21L9 22L10 22L10 23L11 23L11 22L10 22L10 21L11 21L11 20ZM24 20L24 21L25 21L25 20ZM24 22L24 23L25 23L25 22ZM23 24L23 25L25 25L25 24ZM0 0L0 7L7 7L7 0ZM1 1L1 6L6 6L6 1ZM2 2L2 5L5 5L5 2ZM18 0L18 7L25 7L25 0ZM19 1L19 6L24 6L24 1ZM20 2L20 5L23 5L23 2ZM0 18L0 25L7 25L7 18ZM1 19L1 24L6 24L6 19ZM2 20L2 23L5 23L5 20Z" fill="#000000"/></g></g></svg>
