<?xml version="1.0" encoding="UTF-8"?>
<svg xmlns="http://www.w3.org/2000/svg" version="1.1" width="500" height="500" viewBox="0 0 500 500"><rect x="0" y="0" width="500" height="500" fill="#ffffff"/><g transform="scale(23.81)"><g transform="translate(0,0)"><path fill-rule="evenodd" d="M9 0L9 1L8 1L8 2L9 2L9 3L8 3L8 4L9 4L9 5L8 5L8 7L9 7L9 8L6 8L6 9L8 9L8 10L9 10L9 9L10 9L10 11L9 11L9 12L8 12L8 15L10 15L10 14L12 14L12 17L11 17L11 16L10 16L10 17L11 17L11 18L9 18L9 16L8 16L8 21L9 21L9 19L10 19L10 20L12 20L12 21L16 21L16 20L17 20L17 21L18 21L18 20L19 20L19 21L20 21L20 20L19 20L19 19L18 19L18 17L15 17L15 16L13 16L13 15L16 15L16 14L18 14L18 15L17 15L17 16L20 16L20 14L21 14L21 13L20 13L20 12L21 12L21 11L20 11L20 10L21 10L21 9L20 9L20 8L19 8L19 9L18 9L18 8L17 8L17 9L16 9L16 8L15 8L15 9L16 9L16 10L15 10L15 11L16 11L16 10L17 10L17 12L16 12L16 13L15 13L15 12L12 12L12 11L13 11L13 10L12 10L12 9L14 9L14 8L12 8L12 9L10 9L10 7L11 7L11 5L12 5L12 7L13 7L13 5L12 5L12 4L13 4L13 1L12 1L12 0L11 0L11 1L12 1L12 2L11 2L11 3L10 3L10 0ZM9 3L9 4L10 4L10 5L9 5L9 7L10 7L10 5L11 5L11 4L12 4L12 3L11 3L11 4L10 4L10 3ZM0 8L0 9L1 9L1 11L0 11L0 13L5 13L5 11L7 11L7 10L5 10L5 11L4 11L4 12L3 12L3 9L5 9L5 8ZM17 9L17 10L18 10L18 11L19 11L19 10L18 10L18 9ZM11 10L11 11L12 11L12 10ZM6 12L6 13L7 13L7 12ZM11 12L11 13L12 13L12 14L15 14L15 13L12 13L12 12ZM18 12L18 13L19 13L19 14L20 14L20 13L19 13L19 12ZM12 17L12 18L11 18L11 19L12 19L12 18L13 18L13 20L15 20L15 19L17 19L17 18L15 18L15 17ZM19 17L19 18L20 18L20 17ZM14 18L14 19L15 19L15 18ZM0 0L0 7L7 7L7 0ZM1 1L1 6L6 6L6 1ZM2 2L2 5L5 5L5 2ZM14 0L14 7L21 7L21 0ZM15 1L15 6L20 6L20 1ZM16 2L16 5L19 5L19 2ZM0 14L0 21L7 21L7 14ZM1 15L1 20L6 20L6 15ZM2 16L2 19L5 19L5 16Z" fill="#000000"/></g></g></svg>
