<?xml version="1.0" encoding="UTF-8"?>
<svg xmlns="http://www.w3.org/2000/svg" version="1.1" width="500" height="500" viewBox="0 0 500 500"><rect x="0" y="0" width="500" height="500" fill="#ffffff"/><g transform="scale(20)"><g transform="translate(0,0)"><path fill-rule="evenodd" d="M8 0L8 1L10 1L10 0ZM14 0L14 1L13 1L13 2L11 2L11 4L10 4L10 3L9 3L9 2L8 2L8 5L9 5L9 6L8 6L8 7L9 7L9 8L8 8L8 9L7 9L7 8L6 8L6 9L4 9L4 8L0 8L0 9L1 9L1 12L0 12L0 13L2 13L2 14L1 14L1 15L0 15L0 16L1 16L1 15L2 15L2 16L4 16L4 17L5 17L5 15L7 15L7 16L6 16L6 17L8 17L8 18L9 18L9 21L8 21L8 25L9 25L9 23L10 23L10 24L11 24L11 25L12 25L12 24L11 24L11 23L13 23L13 25L14 25L14 23L13 23L13 20L12 20L12 21L11 21L11 18L12 18L12 19L13 19L13 18L16 18L16 21L17 21L17 22L15 22L15 21L14 21L14 22L15 22L15 23L17 23L17 24L18 24L18 25L20 25L20 23L21 23L21 25L25 25L25 24L23 24L23 23L24 23L24 22L25 22L25 15L24 15L24 14L25 14L25 13L24 13L24 12L25 12L25 11L22 11L22 12L20 12L20 9L23 9L23 10L24 10L24 9L25 9L25 8L24 8L24 9L23 9L23 8L20 8L20 9L19 9L19 10L18 10L18 11L17 11L17 10L16 10L16 11L15 11L15 9L18 9L18 8L17 8L17 6L16 6L16 8L15 8L15 5L16 5L16 4L17 4L17 1L16 1L16 4L15 4L15 5L12 5L12 3L13 3L13 4L14 4L14 3L15 3L15 0ZM10 5L10 6L9 6L9 7L10 7L10 8L9 8L9 9L10 9L10 10L7 10L7 9L6 9L6 10L7 10L7 11L5 11L5 10L3 10L3 9L2 9L2 11L3 11L3 12L4 12L4 13L3 13L3 15L4 15L4 14L5 14L5 13L6 13L6 14L7 14L7 15L10 15L10 13L11 13L11 11L14 11L14 10L13 10L13 9L15 9L15 8L14 8L14 6L13 6L13 7L12 7L12 5ZM10 6L10 7L11 7L11 8L12 8L12 7L11 7L11 6ZM4 11L4 12L5 12L5 11ZM7 11L7 12L6 12L6 13L7 13L7 12L8 12L8 11ZM9 12L9 13L8 13L8 14L9 14L9 13L10 13L10 12ZM14 12L14 13L12 13L12 14L11 14L11 15L12 15L12 14L13 14L13 16L15 16L15 17L16 17L16 14L17 14L17 13L16 13L16 14L15 14L15 12ZM19 12L19 13L20 13L20 12ZM14 14L14 15L15 15L15 14ZM19 14L19 15L21 15L21 19L22 19L22 20L21 20L21 23L22 23L22 21L24 21L24 20L23 20L23 18L24 18L24 17L23 17L23 18L22 18L22 16L24 16L24 15L21 15L21 14ZM17 15L17 16L18 16L18 15ZM9 16L9 18L11 18L11 16ZM12 17L12 18L13 18L13 17ZM17 17L17 20L20 20L20 17ZM18 18L18 19L19 19L19 18ZM14 19L14 20L15 20L15 19ZM9 21L9 22L11 22L11 21ZM19 21L19 23L18 23L18 24L19 24L19 23L20 23L20 21ZM15 24L15 25L16 25L16 24ZM0 0L0 7L7 7L7 0ZM1 1L1 6L6 6L6 1ZM2 2L2 5L5 5L5 2ZM18 0L18 7L25 7L25 0ZM19 1L19 6L24 6L24 1ZM20 2L20 5L23 5L23 2ZM0 18L0 25L7 25L7 18ZM1 19L1 24L6 24L6 19ZM2 20L2 23L5 23L5 20Z" fill="#000000"/></g></g></svg>
