<?xml version="1.0" encoding="UTF-8"?>
<svg xmlns="http://www.w3.org/2000/svg" version="1.1" width="500" height="500" viewBox="0 0 500 500"><rect x="0" y="0" width="500" height="500" fill="#ffffff"/><g transform="scale(23.81)"><g transform="translate(0,0)"><path fill-rule="evenodd" d="M11 0L11 1L8 1L8 2L9 2L9 3L8 3L8 4L10 4L10 5L8 5L8 7L9 7L9 6L10 6L10 8L6 8L6 9L7 9L7 10L5 10L5 8L0 8L0 9L1 9L1 10L0 10L0 12L1 12L1 13L3 13L3 12L4 12L4 13L7 13L7 12L8 12L8 15L10 15L10 16L8 16L8 21L16 21L16 20L13 20L13 19L14 19L14 17L15 17L15 19L16 19L16 18L18 18L18 17L17 17L17 16L19 16L19 15L20 15L20 14L21 14L21 12L20 12L20 10L21 10L21 9L20 9L20 8L19 8L19 9L18 9L18 8L17 8L17 9L16 9L16 8L15 8L15 9L16 9L16 10L14 10L14 8L13 8L13 5L12 5L12 4L13 4L13 3L12 3L12 2L13 2L13 1L12 1L12 0ZM11 1L11 2L10 2L10 4L11 4L11 2L12 2L12 1ZM11 5L11 7L12 7L12 5ZM10 8L10 10L11 10L11 11L12 11L12 10L13 10L13 9L12 9L12 8ZM2 9L2 10L3 10L3 11L4 11L4 12L7 12L7 11L9 11L9 10L7 10L7 11L4 11L4 9ZM11 9L11 10L12 10L12 9ZM17 9L17 10L16 10L16 11L13 11L13 12L15 12L15 14L14 14L14 13L12 13L12 12L11 12L11 13L10 13L10 12L9 12L9 14L10 14L10 15L12 15L12 14L14 14L14 15L13 15L13 16L15 16L15 17L16 17L16 16L17 16L17 14L16 14L16 13L19 13L19 14L20 14L20 12L16 12L16 11L19 11L19 10L18 10L18 9ZM11 13L11 14L12 14L12 13ZM15 14L15 15L16 15L16 14ZM10 16L10 18L11 18L11 19L12 19L12 18L13 18L13 17L12 17L12 18L11 18L11 16ZM19 17L19 18L20 18L20 17ZM17 19L17 20L19 20L19 21L20 21L20 20L19 20L19 19ZM0 0L0 7L7 7L7 0ZM1 1L1 6L6 6L6 1ZM2 2L2 5L5 5L5 2ZM14 0L14 7L21 7L21 0ZM15 1L15 6L20 6L20 1ZM16 2L16 5L19 5L19 2ZM0 14L0 21L7 21L7 14ZM1 15L1 20L6 20L6 15ZM2 16L2 19L5 19L5 16Z" fill="#000000"/></g></g></svg>
