<?xml version="1.0" encoding="UTF-8"?>
<svg xmlns="http://www.w3.org/2000/svg" version="1.1" width="500" height="500" viewBox="0 0 500 500"><rect x="0" y="0" width="500" height="500" fill="#ffffff"/><g transform="scale(20)"><g transform="translate(0,0)"><path fill-rule="evenodd" d="M10 0L10 1L8 1L8 3L9 3L9 4L8 4L8 8L6 8L6 9L8 9L8 10L4 10L4 11L5 11L5 13L7 13L7 14L6 14L6 15L7 15L7 16L5 16L5 14L4 14L4 17L7 17L7 16L8 16L8 15L7 15L7 14L8 14L8 11L9 11L9 12L10 12L10 13L11 13L11 14L9 14L9 16L10 16L10 15L11 15L11 16L12 16L12 18L11 18L11 17L8 17L8 19L9 19L9 21L8 21L8 22L9 22L9 23L8 23L8 25L9 25L9 24L10 24L10 25L11 25L11 23L10 23L10 20L11 20L11 19L12 19L12 20L13 20L13 18L14 18L14 20L16 20L16 21L17 21L17 23L16 23L16 25L18 25L18 21L19 21L19 25L22 25L22 23L23 23L23 22L22 22L22 20L23 20L23 21L25 21L25 17L24 17L24 18L23 18L23 16L25 16L25 12L23 12L23 14L22 14L22 13L21 13L21 14L22 14L22 15L20 15L20 14L19 14L19 13L20 13L20 11L25 11L25 9L24 9L24 8L22 8L22 9L21 9L21 8L18 8L18 10L16 10L16 12L17 12L17 11L19 11L19 12L18 12L18 14L17 14L17 13L16 13L16 15L15 15L15 12L14 12L14 11L15 11L15 10L14 10L14 9L15 9L15 8L14 8L14 7L15 7L15 6L16 6L16 8L17 8L17 6L16 6L16 4L17 4L17 2L16 2L16 1L17 1L17 0L15 0L15 2L14 2L14 1L13 1L13 2L14 2L14 3L12 3L12 7L11 7L11 4L10 4L10 3L9 3L9 2L11 2L11 0ZM14 3L14 4L13 4L13 7L12 7L12 8L13 8L13 9L14 9L14 8L13 8L13 7L14 7L14 6L15 6L15 5L14 5L14 4L15 4L15 3ZM9 5L9 8L8 8L8 9L10 9L10 10L9 10L9 11L11 11L11 8L10 8L10 5ZM0 8L0 10L1 10L1 11L0 11L0 12L1 12L1 13L2 13L2 14L3 14L3 11L2 11L2 10L3 10L3 9L4 9L4 8L3 8L3 9L2 9L2 8ZM20 9L20 10L19 10L19 11L20 11L20 10L21 10L21 9ZM22 9L22 10L24 10L24 9ZM6 11L6 12L7 12L7 11ZM12 12L12 16L14 16L14 17L15 17L15 18L16 18L16 16L15 16L15 15L13 15L13 13L14 13L14 12ZM0 14L0 15L1 15L1 16L0 16L0 17L3 17L3 16L2 16L2 15L1 15L1 14ZM18 14L18 15L17 15L17 16L20 16L20 15L19 15L19 14ZM23 14L23 15L22 15L22 16L21 16L21 18L22 18L22 16L23 16L23 15L24 15L24 14ZM17 17L17 20L20 20L20 17ZM9 18L9 19L11 19L11 18ZM18 18L18 19L19 19L19 18ZM11 21L11 22L12 22L12 21ZM14 21L14 22L15 22L15 21ZM21 22L21 23L22 23L22 22ZM24 22L24 23L25 23L25 22ZM14 23L14 24L15 24L15 23ZM12 24L12 25L13 25L13 24ZM23 24L23 25L25 25L25 24ZM0 0L0 7L7 7L7 0ZM1 1L1 6L6 6L6 1ZM2 2L2 5L5 5L5 2ZM18 0L18 7L25 7L25 0ZM19 1L19 6L24 6L24 1ZM20 2L20 5L23 5L23 2ZM0 18L0 25L7 25L7 18ZM1 19L1 24L6 24L6 19ZM2 20L2 23L5 23L5 20Z" fill="#000000"/></g></g></svg>
