<?xml version="1.0" encoding="UTF-8"?>
<svg xmlns="http://www.w3.org/2000/svg" version="1.1" width="500" height="500" viewBox="0 0 500 500"><rect x="0" y="0" width="500" height="500" fill="#ffffff"/><g transform="scale(17.241)"><g transform="translate(0,0)"><path fill-rule="evenodd" d="M9 0L9 1L8 1L8 2L9 2L9 3L8 3L8 4L10 4L10 7L11 7L11 4L12 4L12 5L13 5L13 4L14 4L14 7L15 7L15 6L16 6L16 8L15 8L15 9L14 9L14 8L13 8L13 6L12 6L12 9L14 9L14 10L11 10L11 11L10 11L10 9L11 9L11 8L6 8L6 9L7 9L7 10L6 10L6 11L7 11L7 10L8 10L8 11L9 11L9 12L4 12L4 11L5 11L5 10L4 10L4 11L2 11L2 13L3 13L3 15L2 15L2 14L1 14L1 11L0 11L0 15L2 15L2 16L1 16L1 17L0 17L0 21L1 21L1 17L3 17L3 15L4 15L4 16L6 16L6 17L5 17L5 18L2 18L2 20L3 20L3 21L4 21L4 20L3 20L3 19L5 19L5 18L6 18L6 19L7 19L7 18L6 18L6 17L7 17L7 16L8 16L8 18L9 18L9 19L8 19L8 20L5 20L5 21L8 21L8 23L9 23L9 24L8 24L8 29L9 29L9 25L10 25L10 26L11 26L11 27L10 27L10 28L11 28L11 29L12 29L12 27L13 27L13 26L11 26L11 24L10 24L10 23L11 23L11 21L12 21L12 22L13 22L13 23L12 23L12 25L13 25L13 24L14 24L14 25L15 25L15 24L17 24L17 25L19 25L19 26L17 26L17 27L18 27L18 28L16 28L16 26L15 26L15 27L14 27L14 28L15 28L15 29L19 29L19 27L20 27L20 28L21 28L21 29L22 29L22 28L21 28L21 27L23 27L23 29L27 29L27 28L28 28L28 26L29 26L29 24L26 24L26 23L27 23L27 22L29 22L29 19L27 19L27 20L26 20L26 18L29 18L29 15L28 15L28 17L27 17L27 16L26 16L26 17L24 17L24 16L25 16L25 15L26 15L26 14L27 14L27 12L28 12L28 11L27 11L27 12L26 12L26 11L24 11L24 10L25 10L25 9L26 9L26 10L29 10L29 9L28 9L28 8L27 8L27 9L26 9L26 8L25 8L25 9L24 9L24 8L23 8L23 9L22 9L22 8L21 8L21 2L20 2L20 4L18 4L18 3L17 3L17 2L16 2L16 1L15 1L15 0L13 0L13 1L11 1L11 2L10 2L10 0ZM18 0L18 2L19 2L19 1L21 1L21 0ZM13 1L13 2L12 2L12 4L13 4L13 3L14 3L14 4L15 4L15 5L16 5L16 6L17 6L17 8L18 8L18 9L21 9L21 8L20 8L20 5L19 5L19 8L18 8L18 6L17 6L17 5L18 5L18 4L15 4L15 3L16 3L16 2L15 2L15 1ZM10 3L10 4L11 4L11 3ZM8 5L8 7L9 7L9 5ZM0 8L0 10L1 10L1 9L5 9L5 8ZM15 9L15 10L14 10L14 11L12 11L12 13L11 13L11 12L10 12L10 13L11 13L11 14L10 14L10 15L11 15L11 18L10 18L10 17L9 17L9 18L10 18L10 21L11 21L11 18L13 18L13 19L12 19L12 21L14 21L14 22L17 22L17 24L19 24L19 25L20 25L20 26L25 26L25 27L26 27L26 28L27 28L27 27L26 27L26 26L27 26L27 25L20 25L20 24L19 24L19 22L17 22L17 21L16 21L16 20L19 20L19 21L20 21L20 20L19 20L19 19L22 19L22 18L19 18L19 17L23 17L23 15L24 15L24 14L22 14L22 15L21 15L21 16L20 16L20 14L18 14L18 13L23 13L23 12L24 12L24 13L25 13L25 14L26 14L26 12L24 12L24 11L22 11L22 10L21 10L21 12L18 12L18 11L20 11L20 10L17 10L17 9ZM23 9L23 10L24 10L24 9ZM15 10L15 13L14 13L14 12L13 12L13 13L12 13L12 14L13 14L13 15L12 15L12 17L13 17L13 18L15 18L15 20L16 20L16 19L19 19L19 18L15 18L15 17L14 17L14 16L13 16L13 15L15 15L15 16L16 16L16 17L18 17L18 16L16 16L16 15L17 15L17 14L15 14L15 13L18 13L18 12L17 12L17 11L16 11L16 10ZM5 13L5 14L4 14L4 15L5 15L5 14L7 14L7 15L6 15L6 16L7 16L7 15L8 15L8 13ZM13 13L13 14L14 14L14 13ZM28 13L28 14L29 14L29 13ZM23 19L23 20L25 20L25 21L26 21L26 22L25 22L25 23L26 23L26 22L27 22L27 21L26 21L26 20L25 20L25 19ZM21 21L21 24L24 24L24 21ZM9 22L9 23L10 23L10 22ZM22 22L22 23L23 23L23 22ZM14 23L14 24L15 24L15 23ZM0 0L0 7L7 7L7 0ZM1 1L1 6L6 6L6 1ZM2 2L2 5L5 5L5 2ZM22 0L22 7L29 7L29 0ZM23 1L23 6L28 6L28 1ZM24 2L24 5L27 5L27 2ZM0 22L0 29L7 29L7 22ZM1 23L1 28L6 28L6 23ZM2 24L2 27L5 27L5 24Z" fill="#000000"/></g></g></svg>
