<?xml version="1.0" encoding="UTF-8"?>
<svg xmlns="http://www.w3.org/2000/svg" version="1.1" width="500" height="500" viewBox="0 0 500 500"><rect x="0" y="0" width="500" height="500" fill="#ffffff"/><g transform="scale(20)"><g transform="translate(0,0)"><path fill-rule="evenodd" d="M8 0L8 1L9 1L9 2L8 2L8 5L9 5L9 4L11 4L11 5L10 5L10 10L9 10L9 13L7 13L7 12L6 12L6 11L7 11L7 10L8 10L8 9L9 9L9 8L8 8L8 9L7 9L7 8L6 8L6 9L5 9L5 12L4 12L4 11L3 11L3 12L2 12L2 11L0 11L0 13L1 13L1 12L2 12L2 14L1 14L1 15L0 15L0 16L1 16L1 15L2 15L2 14L4 14L4 15L5 15L5 16L2 16L2 17L5 17L5 16L6 16L6 17L7 17L7 16L10 16L10 17L11 17L11 16L12 16L12 14L13 14L13 15L14 15L14 14L13 14L13 13L14 13L14 11L15 11L15 9L16 9L16 8L15 8L15 9L14 9L14 10L13 10L13 6L14 6L14 7L15 7L15 6L14 6L14 2L15 2L15 0L14 0L14 1L13 1L13 0L12 0L12 1L11 1L11 0L10 0L10 1L9 1L9 0ZM16 1L16 3L15 3L15 5L16 5L16 7L17 7L17 5L16 5L16 4L17 4L17 1ZM11 2L11 4L12 4L12 3L13 3L13 2ZM12 5L12 6L11 6L11 8L12 8L12 6L13 6L13 5ZM8 6L8 7L9 7L9 6ZM0 8L0 10L2 10L2 9L3 9L3 10L4 10L4 8ZM17 8L17 10L16 10L16 11L17 11L17 10L18 10L18 8ZM20 8L20 9L19 9L19 12L17 12L17 16L16 16L16 17L15 17L15 16L13 16L13 18L12 18L12 19L11 19L11 20L9 20L9 21L8 21L8 25L12 25L12 24L11 24L11 23L12 23L12 22L13 22L13 20L12 20L12 19L13 19L13 18L14 18L14 19L15 19L15 20L16 20L16 21L17 21L17 22L18 22L18 23L19 23L19 21L20 21L20 23L21 23L21 24L20 24L20 25L25 25L25 24L23 24L23 23L24 23L24 22L25 22L25 20L24 20L24 21L23 21L23 23L21 23L21 20L22 20L22 19L25 19L25 16L24 16L24 14L25 14L25 12L24 12L24 11L23 11L23 8ZM24 8L24 9L25 9L25 8ZM6 9L6 10L7 10L7 9ZM11 9L11 10L12 10L12 9ZM20 9L20 12L21 12L21 9ZM11 11L11 13L10 13L10 14L7 14L7 13L4 13L4 14L7 14L7 15L6 15L6 16L7 16L7 15L10 15L10 14L11 14L11 13L12 13L12 12L13 12L13 11ZM23 12L23 13L24 13L24 12ZM15 13L15 14L16 14L16 13ZM21 13L21 14L19 14L19 15L18 15L18 16L19 16L19 15L21 15L21 17L22 17L22 18L21 18L21 19L22 19L22 18L24 18L24 17L22 17L22 16L23 16L23 14L22 14L22 13ZM21 14L21 15L22 15L22 14ZM8 17L8 18L9 18L9 17ZM17 17L17 20L20 20L20 17ZM15 18L15 19L16 19L16 18ZM18 18L18 19L19 19L19 18ZM9 21L9 22L10 22L10 23L9 23L9 24L10 24L10 23L11 23L11 21ZM14 21L14 22L15 22L15 23L13 23L13 25L14 25L14 24L15 24L15 23L16 23L16 22L15 22L15 21ZM0 0L0 7L7 7L7 0ZM1 1L1 6L6 6L6 1ZM2 2L2 5L5 5L5 2ZM18 0L18 7L25 7L25 0ZM19 1L19 6L24 6L24 1ZM20 2L20 5L23 5L23 2ZM0 18L0 25L7 25L7 18ZM1 19L1 24L6 24L6 19ZM2 20L2 23L5 23L5 20Z" fill="#000000"/></g></g></svg>
