<?xml version="1.0" encoding="UTF-8"?>
<svg xmlns="http://www.w3.org/2000/svg" version="1.1" width="500" height="500" viewBox="0 0 500 500"><rect x="0" y="0" width="500" height="500" fill="#ffffff"/><g transform="scale(23.81)"><g transform="translate(0,0)"><path fill-rule="evenodd" d="M8 0L8 1L9 1L9 0ZM10 0L10 2L8 2L8 5L9 5L9 6L8 6L8 7L9 7L9 6L10 6L10 7L11 7L11 5L9 5L9 4L10 4L10 2L12 2L12 3L11 3L11 4L12 4L12 5L13 5L13 2L12 2L12 1L13 1L13 0L12 0L12 1L11 1L11 0ZM12 6L12 7L13 7L13 6ZM0 8L0 9L2 9L2 11L1 11L1 12L4 12L4 13L5 13L5 12L4 12L4 10L5 10L5 9L4 9L4 8ZM6 8L6 9L7 9L7 10L6 10L6 11L7 11L7 12L6 12L6 13L8 13L8 14L9 14L9 15L10 15L10 14L11 14L11 11L12 11L12 9L13 9L13 10L14 10L14 8L12 8L12 9L11 9L11 8L8 8L8 9L7 9L7 8ZM16 8L16 10L17 10L17 9L18 9L18 10L19 10L19 11L20 11L20 13L21 13L21 8L20 8L20 10L19 10L19 8ZM8 9L8 10L7 10L7 11L8 11L8 10L9 10L9 12L8 12L8 13L10 13L10 9ZM13 11L13 13L12 13L12 14L16 14L16 15L17 15L17 16L16 16L16 17L15 17L15 18L14 18L14 16L13 16L13 15L11 15L11 16L9 16L9 17L8 17L8 21L10 21L10 19L9 19L9 17L10 17L10 18L12 18L12 19L11 19L11 20L13 20L13 19L14 19L14 21L16 21L16 17L19 17L19 18L17 18L17 20L18 20L18 21L19 21L19 20L18 20L18 19L19 19L19 18L20 18L20 16L21 16L21 15L17 15L17 12L18 12L18 11L16 11L16 12L14 12L14 11ZM18 13L18 14L19 14L19 13ZM11 16L11 17L13 17L13 16ZM20 19L20 20L21 20L21 19ZM0 0L0 7L7 7L7 0ZM1 1L1 6L6 6L6 1ZM2 2L2 5L5 5L5 2ZM14 0L14 7L21 7L21 0ZM15 1L15 6L20 6L20 1ZM16 2L16 5L19 5L19 2ZM0 14L0 21L7 21L7 14ZM1 15L1 20L6 20L6 15ZM2 16L2 19L5 19L5 16Z" fill="#000000"/></g></g></svg>
