<?xml version="1.0" encoding="UTF-8"?>
<svg xmlns="http://www.w3.org/2000/svg" version="1.1" width="500" height="500" viewBox="0 0 500 500"><rect x="0" y="0" width="500" height="500" fill="#ffffff"/><g transform="scale(20)"><g transform="translate(0,0)"><path fill-rule="evenodd" d="M8 0L8 2L9 2L9 3L10 3L10 2L9 2L9 1L11 1L11 2L12 2L12 0ZM13 0L13 1L14 1L14 0ZM16 0L16 2L13 2L13 3L11 3L11 5L9 5L9 4L8 4L8 9L7 9L7 8L5 8L5 10L4 10L4 9L3 9L3 8L0 8L0 10L1 10L1 9L2 9L2 12L3 12L3 13L4 13L4 16L3 16L3 14L0 14L0 15L2 15L2 16L0 16L0 17L4 17L4 16L6 16L6 17L8 17L8 18L9 18L9 17L12 17L12 19L11 19L11 18L10 18L10 19L8 19L8 20L10 20L10 21L9 21L9 22L8 22L8 25L10 25L10 24L9 24L9 22L10 22L10 21L11 21L11 20L13 20L13 22L16 22L16 23L15 23L15 25L18 25L18 24L17 24L17 22L16 22L16 21L20 21L20 22L19 22L19 24L20 24L20 23L21 23L21 25L22 25L22 23L25 23L25 22L24 22L24 21L25 21L25 17L24 17L24 16L25 16L25 13L24 13L24 11L25 11L25 8L23 8L23 9L21 9L21 8L17 8L17 6L16 6L16 8L15 8L15 10L13 10L13 9L14 9L14 7L15 7L15 4L14 4L14 5L13 5L13 3L16 3L16 5L17 5L17 0ZM11 5L11 7L10 7L10 6L9 6L9 7L10 7L10 9L8 9L8 10L7 10L7 9L6 9L6 10L5 10L5 11L6 11L6 12L4 12L4 13L6 13L6 14L5 14L5 15L6 15L6 16L9 16L9 15L10 15L10 16L13 16L13 15L14 15L14 17L13 17L13 18L15 18L15 20L16 20L16 18L15 18L15 17L16 17L16 16L17 16L17 15L15 15L15 14L13 14L13 12L14 12L14 11L13 11L13 12L11 12L11 14L9 14L9 15L8 15L8 13L9 13L9 12L10 12L10 11L9 11L9 10L11 10L11 11L12 11L12 9L11 9L11 8L13 8L13 7L14 7L14 6L13 6L13 7L12 7L12 5ZM16 8L16 11L17 11L17 12L16 12L16 14L17 14L17 12L18 12L18 10L17 10L17 8ZM19 9L19 15L20 15L20 14L21 14L21 15L22 15L22 17L21 17L21 19L22 19L22 21L21 21L21 23L22 23L22 22L23 22L23 20L24 20L24 17L23 17L23 15L24 15L24 13L23 13L23 11L24 11L24 9L23 9L23 11L22 11L22 12L20 12L20 10L21 10L21 9ZM6 10L6 11L7 11L7 10ZM0 11L0 12L1 12L1 11ZM6 12L6 13L8 13L8 12ZM21 13L21 14L22 14L22 15L23 15L23 14L22 14L22 13ZM6 14L6 15L7 15L7 14ZM11 14L11 15L12 15L12 14ZM17 17L17 20L20 20L20 17ZM22 17L22 18L23 18L23 17ZM18 18L18 19L19 19L19 18ZM13 19L13 20L14 20L14 19ZM11 22L11 23L12 23L12 22ZM13 23L13 24L11 24L11 25L14 25L14 23ZM24 24L24 25L25 25L25 24ZM0 0L0 7L7 7L7 0ZM1 1L1 6L6 6L6 1ZM2 2L2 5L5 5L5 2ZM18 0L18 7L25 7L25 0ZM19 1L19 6L24 6L24 1ZM20 2L20 5L23 5L23 2ZM0 18L0 25L7 25L7 18ZM1 19L1 24L6 24L6 19ZM2 20L2 23L5 23L5 20Z" fill="#000000"/></g></g></svg>
