<?xml version="1.0" encoding="UTF-8"?>
<svg xmlns="http://www.w3.org/2000/svg" version="1.1" width="500" height="500" viewBox="0 0 500 500"><rect x="0" y="0" width="500" height="500" fill="#ffffff"/><g transform="scale(20)"><g transform="translate(0,0)"><path fill-rule="evenodd" d="M9 0L9 1L8 1L8 2L9 2L9 3L8 3L8 4L10 4L10 7L11 7L11 4L12 4L12 5L15 5L15 6L14 6L14 7L15 7L15 9L14 9L14 8L13 8L13 6L12 6L12 9L13 9L13 10L11 10L11 11L10 11L10 9L11 9L11 8L6 8L6 9L8 9L8 10L9 10L9 11L8 11L8 12L4 12L4 11L3 11L3 10L4 10L4 9L5 9L5 8L0 8L0 10L1 10L1 13L0 13L0 17L1 17L1 13L2 13L2 15L3 15L3 16L2 16L2 17L3 17L3 16L4 16L4 17L5 17L5 16L6 16L6 17L7 17L7 16L6 16L6 15L8 15L8 14L6 14L6 13L10 13L10 14L9 14L9 17L8 17L8 19L9 19L9 20L8 20L8 25L10 25L10 24L11 24L11 22L10 22L10 21L12 21L12 24L13 24L13 25L14 25L14 24L15 24L15 25L16 25L16 24L17 24L17 23L18 23L18 24L19 24L19 25L25 25L25 21L23 21L23 20L22 20L22 19L24 19L24 20L25 20L25 18L22 18L22 17L23 17L23 16L24 16L24 15L25 15L25 14L22 14L22 15L23 15L23 16L22 16L22 17L21 17L21 16L20 16L20 13L23 13L23 12L25 12L25 10L23 10L23 9L24 9L24 8L23 8L23 9L22 9L22 8L21 8L21 9L22 9L22 10L21 10L21 11L23 11L23 12L20 12L20 13L19 13L19 11L20 11L20 8L19 8L19 10L18 10L18 8L16 8L16 7L17 7L17 5L15 5L15 4L17 4L17 3L16 3L16 2L17 2L17 1L15 1L15 0L14 0L14 1L15 1L15 2L14 2L14 3L13 3L13 4L12 4L12 2L13 2L13 1L11 1L11 2L10 2L10 0ZM10 3L10 4L11 4L11 3ZM14 3L14 4L15 4L15 3ZM8 5L8 7L9 7L9 5ZM15 6L15 7L16 7L16 6ZM15 9L15 10L13 10L13 11L12 11L12 13L11 13L11 12L10 12L10 13L11 13L11 15L10 15L10 17L11 17L11 18L13 18L13 19L12 19L12 20L14 20L14 21L13 21L13 22L14 22L14 21L15 21L15 24L16 24L16 23L17 23L17 22L18 22L18 23L19 23L19 22L20 22L20 24L24 24L24 22L22 22L22 21L21 21L21 22L20 22L20 21L19 21L19 22L18 22L18 21L15 21L15 19L16 19L16 18L13 18L13 17L12 17L12 15L13 15L13 16L14 16L14 17L16 17L16 16L15 16L15 14L18 14L18 15L19 15L19 13L18 13L18 11L17 11L17 9ZM5 10L5 11L7 11L7 10ZM15 10L15 11L14 11L14 12L13 12L13 13L12 13L12 14L13 14L13 15L14 15L14 14L15 14L15 13L14 13L14 12L16 12L16 13L17 13L17 12L16 12L16 10ZM3 13L3 15L5 15L5 13ZM13 13L13 14L14 14L14 13ZM17 17L17 20L20 20L20 17ZM18 18L18 19L19 19L19 18ZM21 18L21 19L22 19L22 18ZM9 20L9 21L10 21L10 20ZM9 22L9 24L10 24L10 22ZM13 23L13 24L14 24L14 23ZM0 0L0 7L7 7L7 0ZM1 1L1 6L6 6L6 1ZM2 2L2 5L5 5L5 2ZM18 0L18 7L25 7L25 0ZM19 1L19 6L24 6L24 1ZM20 2L20 5L23 5L23 2ZM0 18L0 25L7 25L7 18ZM1 19L1 24L6 24L6 19ZM2 20L2 23L5 23L5 20Z" fill="#000000"/></g></g></svg>
