<?xml version="1.0" encoding="UTF-8"?>
<svg xmlns="http://www.w3.org/2000/svg" version="1.1" width="500" height="500" viewBox="0 0 500 500"><rect x="0" y="0" width="500" height="500" fill="#ffffff"/><g transform="scale(20)"><g transform="translate(0,0)"><path fill-rule="evenodd" d="M8 0L8 1L9 1L9 2L8 2L8 5L9 5L9 4L11 4L11 5L10 5L10 10L9 10L9 11L7 11L7 10L6 10L6 9L7 9L7 8L6 8L6 9L4 9L4 8L0 8L0 9L2 9L2 10L1 10L1 11L2 11L2 12L3 12L3 13L4 13L4 12L5 12L5 13L7 13L7 14L6 14L6 15L7 15L7 14L8 14L8 16L10 16L10 17L8 17L8 18L9 18L9 19L10 19L10 17L11 17L11 16L12 16L12 17L13 17L13 16L12 16L12 14L13 14L13 15L14 15L14 18L13 18L13 21L15 21L15 22L14 22L14 23L11 23L11 22L9 22L9 21L8 21L8 25L12 25L12 24L15 24L15 25L16 25L16 23L15 23L15 22L16 22L16 21L18 21L18 24L17 24L17 25L20 25L20 24L21 24L21 23L22 23L22 25L25 25L25 24L23 24L23 23L24 23L24 22L25 22L25 21L22 21L22 22L21 22L21 19L24 19L24 20L25 20L25 16L24 16L24 14L25 14L25 13L23 13L23 12L25 12L25 11L22 11L22 10L23 10L23 8L20 8L20 9L22 9L22 10L18 10L18 8L17 8L17 11L20 11L20 14L21 14L21 15L22 15L22 14L21 14L21 12L22 12L22 13L23 13L23 16L20 16L20 15L18 15L18 14L19 14L19 12L18 12L18 14L17 14L17 16L16 16L16 15L14 15L14 14L16 14L16 13L17 13L17 12L14 12L14 14L13 14L13 12L12 12L12 13L11 13L11 11L14 11L14 8L13 8L13 6L12 6L12 5L13 5L13 4L14 4L14 3L15 3L15 5L14 5L14 7L15 7L15 5L16 5L16 4L17 4L17 3L15 3L15 2L13 2L13 0L12 0L12 1L11 1L11 0L10 0L10 1L9 1L9 0ZM14 0L14 1L15 1L15 0ZM11 2L11 4L12 4L12 3L13 3L13 2ZM8 6L8 7L9 7L9 6ZM11 6L11 8L12 8L12 6ZM16 6L16 7L17 7L17 6ZM8 8L8 9L9 9L9 8ZM24 8L24 9L25 9L25 8ZM3 9L3 11L4 11L4 9ZM11 9L11 10L12 10L12 9ZM5 11L5 12L7 12L7 13L8 13L8 14L11 14L11 13L9 13L9 12L7 12L7 11ZM1 14L1 15L0 15L0 16L1 16L1 15L2 15L2 17L5 17L5 16L4 16L4 15L2 15L2 14ZM10 15L10 16L11 16L11 15ZM6 16L6 17L7 17L7 16ZM15 16L15 17L16 17L16 16ZM17 17L17 20L20 20L20 17ZM23 17L23 18L24 18L24 17ZM15 18L15 21L16 21L16 18ZM18 18L18 19L19 19L19 18ZM11 19L11 20L10 20L10 21L11 21L11 20L12 20L12 19ZM19 22L19 24L20 24L20 22ZM22 22L22 23L23 23L23 22ZM9 23L9 24L10 24L10 23ZM0 0L0 7L7 7L7 0ZM1 1L1 6L6 6L6 1ZM2 2L2 5L5 5L5 2ZM18 0L18 7L25 7L25 0ZM19 1L19 6L24 6L24 1ZM20 2L20 5L23 5L23 2ZM0 18L0 25L7 25L7 18ZM1 19L1 24L6 24L6 19ZM2 20L2 23L5 23L5 20Z" fill="#000000"/></g></g></svg>
