<?xml version="1.0" encoding="UTF-8"?>
<svg xmlns="http://www.w3.org/2000/svg" version="1.1" width="500" height="500" viewBox="0 0 500 500"><rect x="0" y="0" width="500" height="500" fill="#ffffff"/><g transform="scale(20)"><g transform="translate(0,0)"><path fill-rule="evenodd" d="M8 0L8 2L10 2L10 4L8 4L8 9L7 9L7 8L5 8L5 11L4 11L4 10L2 10L2 9L3 9L3 8L0 8L0 9L1 9L1 10L2 10L2 11L3 11L3 12L2 12L2 13L3 13L3 12L5 12L5 11L9 11L9 13L10 13L10 11L9 11L9 10L11 10L11 11L12 11L12 10L11 10L11 8L13 8L13 10L14 10L14 9L15 9L15 11L16 11L16 12L15 12L15 14L13 14L13 13L14 13L14 11L13 11L13 12L11 12L11 13L12 13L12 15L11 15L11 14L8 14L8 13L7 13L7 12L6 12L6 13L4 13L4 16L3 16L3 17L8 17L8 18L9 18L9 17L10 17L10 18L11 18L11 19L8 19L8 20L9 20L9 22L8 22L8 25L10 25L10 24L13 24L13 25L17 25L17 22L13 22L13 21L14 21L14 19L13 19L13 20L11 20L11 19L12 19L12 18L11 18L11 16L13 16L13 18L16 18L16 20L15 20L15 21L19 21L19 23L18 23L18 25L21 25L21 24L20 24L20 23L21 23L21 22L22 22L22 23L25 23L25 22L24 22L24 21L25 21L25 17L24 17L24 16L25 16L25 13L24 13L24 12L25 12L25 8L23 8L23 9L21 9L21 8L17 8L17 10L16 10L16 8L15 8L15 5L14 5L14 2L15 2L15 3L16 3L16 7L17 7L17 3L16 3L16 2L15 2L15 1L14 1L14 0L11 0L11 1L9 1L9 0ZM16 0L16 1L17 1L17 0ZM11 1L11 2L12 2L12 1ZM13 1L13 2L14 2L14 1ZM11 3L11 4L12 4L12 6L11 6L11 5L9 5L9 8L10 8L10 6L11 6L11 7L12 7L12 6L13 6L13 8L14 8L14 6L13 6L13 3ZM6 9L6 10L7 10L7 9ZM19 9L19 10L18 10L18 11L17 11L17 12L16 12L16 15L15 15L15 16L17 16L17 15L18 15L18 16L19 16L19 15L20 15L20 16L21 16L21 17L22 17L22 19L21 19L21 20L22 20L22 21L23 21L23 19L24 19L24 17L23 17L23 15L24 15L24 13L23 13L23 11L24 11L24 9L23 9L23 11L22 11L22 10L21 10L21 9ZM20 10L20 11L19 11L19 12L17 12L17 14L18 14L18 15L19 15L19 13L20 13L20 12L22 12L22 11L21 11L21 10ZM0 11L0 13L1 13L1 11ZM6 13L6 14L5 14L5 16L7 16L7 15L8 15L8 14L7 14L7 13ZM0 14L0 15L3 15L3 14ZM6 14L6 15L7 15L7 14ZM10 15L10 16L11 16L11 15ZM13 15L13 16L14 16L14 15ZM21 15L21 16L22 16L22 15ZM0 16L0 17L2 17L2 16ZM8 16L8 17L9 17L9 16ZM17 17L17 20L20 20L20 17ZM18 18L18 19L19 19L19 18ZM10 21L10 23L12 23L12 21ZM13 23L13 24L14 24L14 23ZM24 24L24 25L25 25L25 24ZM0 0L0 7L7 7L7 0ZM1 1L1 6L6 6L6 1ZM2 2L2 5L5 5L5 2ZM18 0L18 7L25 7L25 0ZM19 1L19 6L24 6L24 1ZM20 2L20 5L23 5L23 2ZM0 18L0 25L7 25L7 18ZM1 19L1 24L6 24L6 19ZM2 20L2 23L5 23L5 20Z" fill="#000000"/></g></g></svg>
