<?xml version="1.0" encoding="UTF-8"?>
<svg xmlns="http://www.w3.org/2000/svg" version="1.1" width="500" height="500" viewBox="0 0 500 500"><rect x="0" y="0" width="500" height="500" fill="#ffffff"/><g transform="scale(20)"><g transform="translate(0,0)"><path fill-rule="evenodd" d="M9 0L9 1L8 1L8 2L9 2L9 3L8 3L8 4L10 4L10 7L11 7L11 4L12 4L12 5L13 5L13 4L14 4L14 5L15 5L15 6L14 6L14 8L13 8L13 6L12 6L12 9L13 9L13 10L11 10L11 11L10 11L10 9L11 9L11 8L6 8L6 9L5 9L5 8L0 8L0 17L1 17L1 14L2 14L2 16L4 16L4 17L7 17L7 16L9 16L9 17L8 17L8 19L10 19L10 21L9 21L9 20L8 20L8 25L9 25L9 22L11 22L11 21L12 21L12 22L13 22L13 23L12 23L12 25L13 25L13 24L14 24L14 25L16 25L16 24L17 24L17 23L18 23L18 22L19 22L19 24L18 24L18 25L25 25L25 18L22 18L22 17L23 17L23 16L24 16L24 15L25 15L25 14L23 14L23 13L24 13L24 12L25 12L25 10L23 10L23 9L24 9L24 8L23 8L23 9L22 9L22 8L21 8L21 9L22 9L22 10L23 10L23 11L24 11L24 12L22 12L22 11L21 11L21 12L20 12L20 10L19 10L19 11L18 11L18 10L15 10L15 9L14 9L14 8L16 8L16 9L18 9L18 8L16 8L16 7L17 7L17 6L16 6L16 5L15 5L15 4L17 4L17 3L16 3L16 2L17 2L17 1L15 1L15 0L13 0L13 1L11 1L11 2L10 2L10 0ZM13 1L13 2L12 2L12 4L13 4L13 3L14 3L14 4L15 4L15 1ZM10 3L10 4L11 4L11 3ZM8 5L8 7L9 7L9 5ZM15 6L15 7L16 7L16 6ZM19 8L19 9L20 9L20 8ZM1 9L1 10L2 10L2 11L4 11L4 12L3 12L3 14L4 14L4 16L7 16L7 15L8 15L8 14L9 14L9 16L10 16L10 14L9 14L9 13L8 13L8 11L9 11L9 10L7 10L7 9L6 9L6 10L5 10L5 11L4 11L4 10L3 10L3 9ZM6 10L6 11L5 11L5 12L4 12L4 13L5 13L5 12L6 12L6 13L7 13L7 12L6 12L6 11L7 11L7 10ZM13 10L13 11L12 11L12 13L11 13L11 12L10 12L10 13L11 13L11 17L10 17L10 19L11 19L11 18L13 18L13 19L12 19L12 21L15 21L15 22L18 22L18 21L15 21L15 20L14 20L14 19L16 19L16 17L14 17L14 16L15 16L15 15L14 15L14 16L13 16L13 17L12 17L12 15L13 15L13 14L12 14L12 13L14 13L14 14L17 14L17 15L19 15L19 16L21 16L21 17L22 17L22 16L23 16L23 14L22 14L22 13L20 13L20 12L19 12L19 13L18 13L18 12L17 12L17 11L16 11L16 12L17 12L17 13L15 13L15 10ZM17 13L17 14L18 14L18 13ZM19 13L19 14L20 14L20 15L21 15L21 14L20 14L20 13ZM6 14L6 15L7 15L7 14ZM17 17L17 20L20 20L20 17ZM18 18L18 19L19 19L19 18ZM21 18L21 22L20 22L20 23L21 23L21 24L24 24L24 22L23 22L23 21L22 21L22 20L24 20L24 19L22 19L22 18ZM21 22L21 23L22 23L22 22ZM10 23L10 24L11 24L11 23ZM14 23L14 24L16 24L16 23ZM0 0L0 7L7 7L7 0ZM1 1L1 6L6 6L6 1ZM2 2L2 5L5 5L5 2ZM18 0L18 7L25 7L25 0ZM19 1L19 6L24 6L24 1ZM20 2L20 5L23 5L23 2ZM0 18L0 25L7 25L7 18ZM1 19L1 24L6 24L6 19ZM2 20L2 23L5 23L5 20Z" fill="#000000"/></g></g></svg>
