<?xml version="1.0" encoding="UTF-8"?>
<svg xmlns="http://www.w3.org/2000/svg" version="1.1" width="500" height="500" viewBox="0 0 500 500"><rect x="0" y="0" width="500" height="500" fill="#ffffff"/><g transform="scale(20)"><g transform="translate(0,0)"><path fill-rule="evenodd" d="M10 0L10 2L11 2L11 0ZM12 0L12 1L13 1L13 2L12 2L12 4L14 4L14 5L11 5L11 6L10 6L10 4L11 4L11 3L8 3L8 4L9 4L9 5L8 5L8 7L9 7L9 8L6 8L6 9L8 9L8 11L9 11L9 9L10 9L10 11L11 11L11 9L12 9L12 10L15 10L15 11L16 11L16 12L15 12L15 13L14 13L14 12L13 12L13 11L12 11L12 13L13 13L13 14L11 14L11 15L10 15L10 14L9 14L9 13L11 13L11 12L8 12L8 14L9 14L9 16L11 16L11 17L12 17L12 18L13 18L13 19L12 19L12 21L13 21L13 20L14 20L14 21L18 21L18 22L17 22L17 23L16 23L16 24L15 24L15 23L14 23L14 24L15 24L15 25L16 25L16 24L17 24L17 25L19 25L19 24L20 24L20 23L19 23L19 24L17 24L17 23L18 23L18 22L19 22L19 21L20 21L20 22L21 22L21 23L23 23L23 22L24 22L24 24L21 24L21 25L25 25L25 18L23 18L23 16L24 16L24 15L25 15L25 14L24 14L24 13L25 13L25 12L24 12L24 13L23 13L23 12L22 12L22 13L21 13L21 12L20 12L20 11L21 11L21 10L23 10L23 11L25 11L25 10L23 10L23 9L24 9L24 8L23 8L23 9L22 9L22 8L21 8L21 10L18 10L18 8L16 8L16 7L17 7L17 5L15 5L15 4L17 4L17 1L15 1L15 0L14 0L14 1L13 1L13 0ZM8 1L8 2L9 2L9 1ZM14 1L14 2L13 2L13 3L14 3L14 4L15 4L15 3L16 3L16 2L15 2L15 1ZM14 2L14 3L15 3L15 2ZM9 6L9 7L10 7L10 6ZM11 6L11 7L12 7L12 9L13 9L13 8L14 8L14 9L15 9L15 10L17 10L17 13L15 13L15 14L13 14L13 15L12 15L12 17L14 17L14 18L15 18L15 19L14 19L14 20L15 20L15 19L16 19L16 17L15 17L15 16L16 16L16 15L17 15L17 14L18 14L18 15L19 15L19 14L20 14L20 15L21 15L21 16L23 16L23 15L22 15L22 14L23 14L23 13L22 13L22 14L21 14L21 13L18 13L18 12L19 12L19 11L18 11L18 10L17 10L17 9L15 9L15 8L14 8L14 6L13 6L13 7L12 7L12 6ZM15 6L15 7L16 7L16 6ZM0 8L0 9L1 9L1 10L0 10L0 11L1 11L1 12L0 12L0 17L1 17L1 13L2 13L2 14L4 14L4 17L7 17L7 16L5 16L5 14L4 14L4 13L5 13L5 12L6 12L6 13L7 13L7 12L6 12L6 11L7 11L7 10L6 10L6 11L4 11L4 12L3 12L3 11L1 11L1 10L2 10L2 9L3 9L3 10L5 10L5 8ZM10 8L10 9L11 9L11 8ZM19 8L19 9L20 9L20 8ZM2 12L2 13L3 13L3 12ZM6 14L6 15L7 15L7 14ZM15 14L15 15L14 15L14 16L15 16L15 15L16 15L16 14ZM2 16L2 17L3 17L3 16ZM8 17L8 19L10 19L10 17ZM17 17L17 20L20 20L20 17ZM18 18L18 19L19 19L19 18ZM22 18L22 19L21 19L21 20L23 20L23 18ZM8 20L8 25L9 25L9 24L11 24L11 25L12 25L12 23L13 23L13 22L11 22L11 20ZM9 21L9 23L10 23L10 21ZM21 21L21 22L22 22L22 21ZM0 0L0 7L7 7L7 0ZM1 1L1 6L6 6L6 1ZM2 2L2 5L5 5L5 2ZM18 0L18 7L25 7L25 0ZM19 1L19 6L24 6L24 1ZM20 2L20 5L23 5L23 2ZM0 18L0 25L7 25L7 18ZM1 19L1 24L6 24L6 19ZM2 20L2 23L5 23L5 20Z" fill="#000000"/></g></g></svg>
