<?xml version="1.0" encoding="UTF-8"?>
<svg xmlns="http://www.w3.org/2000/svg" version="1.1" width="500" height="500" viewBox="0 0 500 500"><rect x="0" y="0" width="500" height="500" fill="#ffffff"/><g transform="scale(20)"><g transform="translate(0,0)"><path fill-rule="evenodd" d="M8 0L8 1L10 1L10 0ZM13 0L13 1L14 1L14 2L11 2L11 4L10 4L10 3L9 3L9 2L8 2L8 5L9 5L9 6L8 6L8 7L9 7L9 8L8 8L8 10L5 10L5 9L4 9L4 8L0 8L0 11L1 11L1 12L4 12L4 13L3 13L3 14L2 14L2 13L1 13L1 15L0 15L0 16L1 16L1 15L3 15L3 17L4 17L4 16L6 16L6 17L7 17L7 16L8 16L8 18L10 18L10 17L9 17L9 16L10 16L10 15L11 15L11 14L12 14L12 16L11 16L11 17L12 17L12 18L11 18L11 19L9 19L9 21L8 21L8 25L9 25L9 22L10 22L10 20L11 20L11 21L12 21L12 22L11 22L11 23L10 23L10 25L11 25L11 23L14 23L14 22L15 22L15 24L14 24L14 25L16 25L16 22L15 22L15 21L14 21L14 20L13 20L13 18L14 18L14 17L12 17L12 16L14 16L14 15L15 15L15 14L16 14L16 17L15 17L15 18L16 18L16 21L18 21L18 23L19 23L19 24L18 24L18 25L19 25L19 24L21 24L21 22L22 22L22 20L21 20L21 17L22 17L22 18L23 18L23 20L25 20L25 15L24 15L24 14L25 14L25 12L24 12L24 11L21 11L21 12L18 12L18 11L17 11L17 10L18 10L18 8L17 8L17 10L16 10L16 13L15 13L15 14L14 14L14 13L13 13L13 14L12 14L12 12L15 12L15 10L14 10L14 11L11 11L11 13L10 13L10 12L9 12L9 13L8 13L8 14L6 14L6 13L7 13L7 12L8 12L8 10L10 10L10 9L9 9L9 8L10 8L10 7L11 7L11 8L12 8L12 7L13 7L13 9L15 9L15 8L16 8L16 7L17 7L17 6L16 6L16 7L15 7L15 5L16 5L16 4L17 4L17 2L15 2L15 0ZM14 2L14 3L12 3L12 5L10 5L10 6L9 6L9 7L10 7L10 6L11 6L11 7L12 7L12 5L13 5L13 7L14 7L14 5L13 5L13 4L15 4L15 2ZM6 8L6 9L7 9L7 8ZM20 8L20 9L22 9L22 10L23 10L23 8ZM24 8L24 9L25 9L25 8ZM3 10L3 11L4 11L4 12L5 12L5 13L6 13L6 12L7 12L7 11L4 11L4 10ZM19 10L19 11L20 11L20 10ZM17 12L17 13L16 13L16 14L17 14L17 15L21 15L21 14L20 14L20 13L19 13L19 14L18 14L18 12ZM21 12L21 13L22 13L22 14L24 14L24 13L22 13L22 12ZM9 13L9 15L10 15L10 13ZM5 14L5 15L6 15L6 16L7 16L7 15L6 15L6 14ZM13 14L13 15L14 15L14 14ZM22 15L22 16L23 16L23 18L24 18L24 15ZM17 17L17 20L20 20L20 17ZM18 18L18 19L19 19L19 18ZM11 19L11 20L12 20L12 19ZM19 21L19 23L20 23L20 21ZM23 21L23 23L22 23L22 25L25 25L25 24L23 24L23 23L24 23L24 22L25 22L25 21ZM12 24L12 25L13 25L13 24ZM0 0L0 7L7 7L7 0ZM1 1L1 6L6 6L6 1ZM2 2L2 5L5 5L5 2ZM18 0L18 7L25 7L25 0ZM19 1L19 6L24 6L24 1ZM20 2L20 5L23 5L23 2ZM0 18L0 25L7 25L7 18ZM1 19L1 24L6 24L6 19ZM2 20L2 23L5 23L5 20Z" fill="#000000"/></g></g></svg>
