<?xml version="1.0" encoding="UTF-8"?>
<svg xmlns="http://www.w3.org/2000/svg" version="1.1" width="500" height="500" viewBox="0 0 500 500"><rect x="0" y="0" width="500" height="500" fill="#ffffff"/><g transform="scale(17.241)"><g transform="translate(0,0)"><path fill-rule="evenodd" d="M10 0L10 2L11 2L11 0ZM12 0L12 1L15 1L15 2L14 2L14 3L13 3L13 2L12 2L12 4L14 4L14 5L11 5L11 6L10 6L10 4L11 4L11 3L8 3L8 4L9 4L9 5L8 5L8 7L9 7L9 8L6 8L6 9L5 9L5 8L0 8L0 11L1 11L1 12L2 12L2 13L0 13L0 14L2 14L2 15L4 15L4 17L3 17L3 16L2 16L2 17L0 17L0 21L1 21L1 18L3 18L3 21L4 21L4 18L6 18L6 19L9 19L9 17L10 17L10 18L11 18L11 17L12 17L12 18L13 18L13 19L12 19L12 21L13 21L13 20L14 20L14 21L17 21L17 22L19 22L19 24L16 24L16 22L15 22L15 23L14 23L14 24L15 24L15 25L12 25L12 23L13 23L13 22L11 22L11 23L10 23L10 22L9 22L9 21L11 21L11 19L10 19L10 20L9 20L9 21L8 21L8 20L5 20L5 21L8 21L8 23L9 23L9 24L8 24L8 29L9 29L9 27L10 27L10 29L11 29L11 25L12 25L12 26L13 26L13 27L12 27L12 29L13 29L13 28L14 28L14 29L20 29L20 28L22 28L22 29L23 29L23 28L22 28L22 27L25 27L25 28L24 28L24 29L27 29L27 28L28 28L28 26L29 26L29 25L27 25L27 24L29 24L29 23L27 23L27 22L29 22L29 20L28 20L28 21L27 21L27 20L26 20L26 18L25 18L25 17L24 17L24 18L23 18L23 17L22 17L22 15L21 15L21 14L23 14L23 16L24 16L24 15L25 15L25 16L26 16L26 17L27 17L27 19L28 19L28 18L29 18L29 16L28 16L28 17L27 17L27 16L26 16L26 15L27 15L27 14L26 14L26 15L25 15L25 13L21 13L21 14L20 14L20 12L23 12L23 11L24 11L24 12L26 12L26 13L28 13L28 14L29 14L29 13L28 13L28 12L29 12L29 11L28 11L28 10L29 10L29 9L28 9L28 8L27 8L27 9L26 9L26 8L25 8L25 9L24 9L24 8L23 8L23 9L22 9L22 8L20 8L20 7L21 7L21 4L20 4L20 3L19 3L19 5L18 5L18 8L16 8L16 7L17 7L17 5L15 5L15 4L14 4L14 3L16 3L16 4L18 4L18 3L16 3L16 2L18 2L18 1L21 1L21 0L17 0L17 1L15 1L15 0ZM8 1L8 2L9 2L9 1ZM14 5L14 6L13 6L13 7L12 7L12 6L11 6L11 7L12 7L12 9L11 9L11 8L10 8L10 9L6 9L6 10L9 10L9 12L11 12L11 13L9 13L9 14L8 14L8 11L5 11L5 10L4 10L4 11L3 11L3 13L2 13L2 14L3 14L3 13L4 13L4 14L5 14L5 15L6 15L6 16L7 16L7 15L6 15L6 14L8 14L8 16L10 16L10 17L11 17L11 16L10 16L10 14L13 14L13 15L12 15L12 17L15 17L15 18L16 18L16 19L14 19L14 20L16 20L16 19L17 19L17 20L19 20L19 19L20 19L20 20L25 20L25 22L26 22L26 20L25 20L25 19L22 19L22 18L21 18L21 19L20 19L20 18L19 18L19 17L21 17L21 16L20 16L20 14L19 14L19 13L16 13L16 12L20 12L20 10L17 10L17 9L15 9L15 7L16 7L16 6L15 6L15 5ZM19 5L19 7L20 7L20 5ZM9 6L9 7L10 7L10 6ZM14 6L14 7L15 7L15 6ZM19 8L19 9L20 9L20 8ZM2 9L2 10L1 10L1 11L2 11L2 10L3 10L3 9ZM10 9L10 11L11 11L11 9ZM12 9L12 10L13 10L13 11L12 11L12 13L13 13L13 12L14 12L14 13L15 13L15 12L16 12L16 11L17 11L17 10L14 10L14 9ZM21 10L21 11L22 11L22 10ZM26 10L26 12L27 12L27 10ZM14 11L14 12L15 12L15 11ZM5 12L5 14L6 14L6 13L7 13L7 12ZM15 14L15 15L14 15L14 16L15 16L15 17L17 17L17 18L18 18L18 19L19 19L19 18L18 18L18 17L19 17L19 15L18 15L18 14ZM0 15L0 16L1 16L1 15ZM15 15L15 16L18 16L18 15ZM6 17L6 18L8 18L8 17ZM19 21L19 22L20 22L20 21ZM21 21L21 24L24 24L24 21ZM22 22L22 23L23 23L23 22ZM26 23L26 24L25 24L25 25L24 25L24 26L25 26L25 25L26 25L26 28L27 28L27 25L26 25L26 24L27 24L27 23ZM10 24L10 25L9 25L9 26L10 26L10 25L11 25L11 24ZM19 24L19 25L15 25L15 26L18 26L18 27L14 27L14 28L20 28L20 27L21 27L21 26L23 26L23 25L20 25L20 24ZM19 25L19 26L20 26L20 25ZM0 0L0 7L7 7L7 0ZM1 1L1 6L6 6L6 1ZM2 2L2 5L5 5L5 2ZM22 0L22 7L29 7L29 0ZM23 1L23 6L28 6L28 1ZM24 2L24 5L27 5L27 2ZM0 22L0 29L7 29L7 22ZM1 23L1 28L6 28L6 23ZM2 24L2 27L5 27L5 24Z" fill="#000000"/></g></g></svg>
