<?xml version="1.0" encoding="UTF-8"?>
<svg xmlns="http://www.w3.org/2000/svg" version="1.1" width="500" height="500" viewBox="0 0 500 500"><rect x="0" y="0" width="500" height="500" fill="#ffffff"/><g transform="scale(20)"><g transform="translate(0,0)"><path fill-rule="evenodd" d="M9 0L9 1L8 1L8 2L9 2L9 3L8 3L8 4L10 4L10 7L11 7L11 4L12 4L12 5L13 5L13 6L12 6L12 9L13 9L13 10L11 10L11 11L10 11L10 9L11 9L11 8L6 8L6 9L9 9L9 17L8 17L8 19L11 19L11 21L12 21L12 23L11 23L11 22L9 22L9 21L10 21L10 20L8 20L8 25L9 25L9 24L10 24L10 23L11 23L11 24L13 24L13 25L14 25L14 24L15 24L15 25L16 25L16 24L17 24L17 25L19 25L19 24L20 24L20 25L25 25L25 21L23 21L23 20L21 20L21 19L24 19L24 20L25 20L25 18L22 18L22 17L24 17L24 16L25 16L25 14L24 14L24 15L23 15L23 16L20 16L20 13L22 13L22 14L23 14L23 13L24 13L24 12L25 12L25 10L24 10L24 8L23 8L23 10L22 10L22 8L21 8L21 10L20 10L20 8L19 8L19 10L20 10L20 11L21 11L21 12L19 12L19 11L17 11L17 10L18 10L18 8L15 8L15 6L16 6L16 7L17 7L17 5L15 5L15 4L17 4L17 3L16 3L16 1L15 1L15 0L14 0L14 1L11 1L11 2L10 2L10 0ZM12 2L12 4L13 4L13 5L14 5L14 6L13 6L13 8L14 8L14 9L15 9L15 10L13 10L13 11L12 11L12 13L11 13L11 12L10 12L10 13L11 13L11 16L10 16L10 18L13 18L13 19L12 19L12 20L14 20L14 21L15 21L15 22L13 22L13 24L14 24L14 23L15 23L15 24L16 24L16 23L17 23L17 24L18 24L18 23L19 23L19 22L20 22L20 23L21 23L21 24L24 24L24 22L23 22L23 21L22 21L22 22L20 22L20 21L19 21L19 22L18 22L18 21L17 21L17 22L16 22L16 21L15 21L15 20L14 20L14 19L16 19L16 18L13 18L13 17L12 17L12 15L13 15L13 16L14 16L14 17L16 17L16 16L14 16L14 15L15 15L15 14L18 14L18 15L19 15L19 13L18 13L18 12L17 12L17 13L15 13L15 12L16 12L16 11L15 11L15 10L17 10L17 9L15 9L15 8L14 8L14 6L15 6L15 5L14 5L14 4L15 4L15 2ZM10 3L10 4L11 4L11 3ZM13 3L13 4L14 4L14 3ZM8 5L8 7L9 7L9 5ZM0 8L0 9L4 9L4 10L5 10L5 11L3 11L3 10L1 10L1 11L0 11L0 12L1 12L1 11L3 11L3 12L2 12L2 13L0 13L0 17L1 17L1 14L2 14L2 13L4 13L4 14L5 14L5 16L6 16L6 17L7 17L7 16L6 16L6 15L8 15L8 14L6 14L6 13L8 13L8 12L6 12L6 13L4 13L4 12L5 12L5 11L7 11L7 10L5 10L5 8ZM14 11L14 12L13 12L13 13L12 13L12 14L13 14L13 13L14 13L14 14L15 14L15 13L14 13L14 12L15 12L15 11ZM22 11L22 12L23 12L23 11ZM2 15L2 17L4 17L4 15ZM17 17L17 20L20 20L20 17ZM18 18L18 19L19 19L19 18ZM17 22L17 23L18 23L18 22ZM0 0L0 7L7 7L7 0ZM1 1L1 6L6 6L6 1ZM2 2L2 5L5 5L5 2ZM18 0L18 7L25 7L25 0ZM19 1L19 6L24 6L24 1ZM20 2L20 5L23 5L23 2ZM0 18L0 25L7 25L7 18ZM1 19L1 24L6 24L6 19ZM2 20L2 23L5 23L5 20Z" fill="#000000"/></g></g></svg>
