<?xml version="1.0" encoding="UTF-8"?>
<svg xmlns="http://www.w3.org/2000/svg" version="1.1" width="500" height="500" viewBox="0 0 500 500"><rect x="0" y="0" width="500" height="500" fill="#ffffff"/><g transform="scale(20)"><g transform="translate(0,0)"><path fill-rule="evenodd" d="M9 0L9 1L8 1L8 2L9 2L9 3L8 3L8 4L10 4L10 7L11 7L11 4L12 4L12 5L13 5L13 6L12 6L12 9L14 9L14 10L11 10L11 11L10 11L10 9L11 9L11 8L6 8L6 9L5 9L5 8L0 8L0 9L1 9L1 11L0 11L0 12L1 12L1 11L2 11L2 9L3 9L3 12L2 12L2 13L3 13L3 12L4 12L4 13L8 13L8 12L9 12L9 14L5 14L5 15L7 15L7 16L4 16L4 15L3 15L3 14L2 14L2 15L3 15L3 17L8 17L8 19L10 19L10 20L8 20L8 25L10 25L10 24L9 24L9 23L10 23L10 21L12 21L12 22L13 22L13 23L11 23L11 24L13 24L13 25L14 25L14 24L17 24L17 23L18 23L18 24L20 24L20 23L18 23L18 22L19 22L19 21L20 21L20 22L21 22L21 23L23 23L23 22L24 22L24 24L21 24L21 25L25 25L25 21L23 21L23 20L22 20L22 21L23 21L23 22L21 22L21 18L22 18L22 17L24 17L24 16L25 16L25 14L23 14L23 12L24 12L24 13L25 13L25 10L23 10L23 12L19 12L19 11L22 11L22 10L20 10L20 8L19 8L19 10L18 10L18 8L15 8L15 6L16 6L16 7L17 7L17 6L16 6L16 5L15 5L15 4L17 4L17 3L15 3L15 4L14 4L14 3L13 3L13 4L12 4L12 2L13 2L13 1L15 1L15 2L17 2L17 1L15 1L15 0L13 0L13 1L11 1L11 2L10 2L10 0ZM10 3L10 4L11 4L11 3ZM13 4L13 5L14 5L14 6L13 6L13 8L14 8L14 9L15 9L15 10L16 10L16 11L15 11L15 12L14 12L14 11L12 11L12 13L11 13L11 12L10 12L10 13L11 13L11 15L8 15L8 16L10 16L10 17L11 17L11 18L10 18L10 19L11 19L11 18L13 18L13 19L12 19L12 20L14 20L14 21L13 21L13 22L14 22L14 21L15 21L15 23L17 23L17 21L15 21L15 20L14 20L14 19L16 19L16 18L13 18L13 17L12 17L12 15L13 15L13 16L14 16L14 17L16 17L16 16L15 16L15 14L18 14L18 16L19 16L19 13L15 13L15 12L16 12L16 11L17 11L17 12L18 12L18 11L17 11L17 9L15 9L15 8L14 8L14 6L15 6L15 5L14 5L14 4ZM8 5L8 7L9 7L9 5ZM21 8L21 9L22 9L22 8ZM23 8L23 9L24 9L24 8ZM4 9L4 10L5 10L5 11L6 11L6 12L8 12L8 10L9 10L9 9L8 9L8 10L7 10L7 9L6 9L6 10L5 10L5 9ZM6 10L6 11L7 11L7 10ZM13 12L13 13L12 13L12 14L13 14L13 13L14 13L14 14L15 14L15 13L14 13L14 12ZM0 13L0 17L1 17L1 13ZM20 13L20 15L21 15L21 16L23 16L23 14L22 14L22 15L21 15L21 13ZM17 17L17 20L20 20L20 17ZM18 18L18 19L19 19L19 18ZM23 18L23 19L24 19L24 20L25 20L25 18ZM13 23L13 24L14 24L14 23ZM0 0L0 7L7 7L7 0ZM1 1L1 6L6 6L6 1ZM2 2L2 5L5 5L5 2ZM18 0L18 7L25 7L25 0ZM19 1L19 6L24 6L24 1ZM20 2L20 5L23 5L23 2ZM0 18L0 25L7 25L7 18ZM1 19L1 24L6 24L6 19ZM2 20L2 23L5 23L5 20Z" fill="#000000"/></g></g></svg>
