<?xml version="1.0" encoding="UTF-8"?>
<svg xmlns="http://www.w3.org/2000/svg" version="1.1" width="500" height="500" viewBox="0 0 500 500"><rect x="0" y="0" width="500" height="500" fill="#ffffff"/><g transform="scale(20)"><g transform="translate(0,0)"><path fill-rule="evenodd" d="M10 0L10 1L8 1L8 3L9 3L9 4L8 4L8 8L6 8L6 9L5 9L5 10L3 10L3 9L4 9L4 8L3 8L3 9L2 9L2 8L0 8L0 10L3 10L3 11L7 11L7 12L6 12L6 13L4 13L4 12L3 12L3 13L1 13L1 14L0 14L0 15L1 15L1 16L0 16L0 17L2 17L2 15L3 15L3 17L4 17L4 15L5 15L5 17L7 17L7 16L6 16L6 15L8 15L8 19L9 19L9 18L11 18L11 19L10 19L10 21L11 21L11 22L9 22L9 21L8 21L8 22L9 22L9 23L8 23L8 25L9 25L9 24L10 24L10 25L11 25L11 24L12 24L12 23L11 23L11 22L12 22L12 21L13 21L13 22L15 22L15 21L14 21L14 20L16 20L16 21L17 21L17 23L16 23L16 25L18 25L18 24L17 24L17 23L18 23L18 21L20 21L20 23L22 23L22 22L23 22L23 21L24 21L24 19L25 19L25 17L24 17L24 16L22 16L22 17L21 17L21 16L17 16L17 15L15 15L15 16L14 16L14 15L13 15L13 16L12 16L12 12L13 12L13 13L14 13L14 14L15 14L15 12L14 12L14 11L13 11L13 10L15 10L15 9L14 9L14 8L15 8L15 6L16 6L16 8L17 8L17 6L16 6L16 4L17 4L17 2L16 2L16 1L17 1L17 0L15 0L15 5L14 5L14 4L13 4L13 3L12 3L12 7L11 7L11 4L10 4L10 3L9 3L9 2L11 2L11 0ZM13 0L13 1L14 1L14 0ZM9 5L9 8L8 8L8 10L9 10L9 11L11 11L11 8L10 8L10 5ZM13 5L13 7L12 7L12 8L14 8L14 5ZM18 8L18 9L17 9L17 11L16 11L16 12L17 12L17 11L18 11L18 13L16 13L16 14L20 14L20 15L23 15L23 14L24 14L24 15L25 15L25 12L24 12L24 11L25 11L25 9L24 9L24 8L22 8L22 9L23 9L23 10L20 10L20 12L21 12L21 11L23 11L23 12L24 12L24 13L23 13L23 14L22 14L22 13L21 13L21 14L20 14L20 13L19 13L19 11L18 11L18 10L19 10L19 9L21 9L21 8ZM6 9L6 10L7 10L7 9ZM9 9L9 10L10 10L10 9ZM0 11L0 12L2 12L2 11ZM9 12L9 13L10 13L10 14L8 14L8 13L6 13L6 14L5 14L5 15L6 15L6 14L8 14L8 15L9 15L9 17L11 17L11 18L12 18L12 16L11 16L11 15L10 15L10 14L11 14L11 13L10 13L10 12ZM1 14L1 15L2 15L2 14ZM13 16L13 20L14 20L14 18L15 18L15 17L14 17L14 16ZM17 17L17 20L20 20L20 17ZM22 17L22 19L23 19L23 18L24 18L24 17ZM18 18L18 19L19 19L19 18ZM11 19L11 21L12 21L12 19ZM21 20L21 22L22 22L22 21L23 21L23 20ZM24 22L24 23L25 23L25 22ZM10 23L10 24L11 24L11 23ZM13 23L13 25L15 25L15 24L14 24L14 23ZM19 24L19 25L20 25L20 24ZM23 24L23 25L25 25L25 24ZM0 0L0 7L7 7L7 0ZM1 1L1 6L6 6L6 1ZM2 2L2 5L5 5L5 2ZM18 0L18 7L25 7L25 0ZM19 1L19 6L24 6L24 1ZM20 2L20 5L23 5L23 2ZM0 18L0 25L7 25L7 18ZM1 19L1 24L6 24L6 19ZM2 20L2 23L5 23L5 20Z" fill="#000000"/></g></g></svg>
