<?xml version="1.0" encoding="UTF-8"?>
<svg xmlns="http://www.w3.org/2000/svg" version="1.1" width="500" height="500" viewBox="0 0 500 500"><rect x="0" y="0" width="500" height="500" fill="#ffffff"/><g transform="scale(20)"><g transform="translate(0,0)"><path fill-rule="evenodd" d="M9 0L9 1L8 1L8 2L9 2L9 3L8 3L8 4L10 4L10 7L11 7L11 4L12 4L12 5L15 5L15 6L14 6L14 8L13 8L13 6L12 6L12 9L14 9L14 10L11 10L11 11L10 11L10 9L11 9L11 8L6 8L6 9L8 9L8 10L9 10L9 11L7 11L7 10L6 10L6 11L5 11L5 10L2 10L2 11L4 11L4 13L3 13L3 14L2 14L2 12L1 12L1 9L5 9L5 8L0 8L0 17L1 17L1 14L2 14L2 17L3 17L3 16L6 16L6 17L8 17L8 19L10 19L10 22L13 22L13 21L14 21L14 24L13 24L13 23L11 23L11 24L9 24L9 20L8 20L8 25L11 25L11 24L13 24L13 25L14 25L14 24L15 24L15 23L16 23L16 24L17 24L17 25L18 25L18 23L16 23L16 22L19 22L19 23L20 23L20 22L21 22L21 23L22 23L22 22L21 22L21 18L22 18L22 17L24 17L24 16L25 16L25 14L23 14L23 16L19 16L19 15L20 15L20 14L18 14L18 13L19 13L19 12L20 12L20 13L21 13L21 15L22 15L22 13L23 13L23 12L24 12L24 13L25 13L25 10L23 10L23 9L24 9L24 8L23 8L23 9L22 9L22 8L21 8L21 9L22 9L22 10L23 10L23 12L22 12L22 13L21 13L21 11L20 11L20 8L19 8L19 10L18 10L18 8L17 8L17 5L15 5L15 4L14 4L14 3L13 3L13 4L12 4L12 2L13 2L13 1L11 1L11 2L10 2L10 0ZM14 0L14 2L15 2L15 3L16 3L16 4L17 4L17 3L16 3L16 2L17 2L17 1L15 1L15 0ZM10 3L10 4L11 4L11 3ZM8 5L8 7L9 7L9 5ZM15 6L15 7L16 7L16 6ZM14 8L14 9L15 9L15 10L17 10L17 11L12 11L12 12L14 12L14 13L13 13L13 14L12 14L12 13L11 13L11 12L10 12L10 13L11 13L11 15L9 15L9 12L8 12L8 13L6 13L6 14L5 14L5 13L4 13L4 15L6 15L6 16L8 16L8 17L9 17L9 16L11 16L11 17L10 17L10 19L11 19L11 20L12 20L12 21L13 21L13 20L14 20L14 21L15 21L15 20L16 20L16 18L15 18L15 19L14 19L14 17L15 17L15 16L14 16L14 15L15 15L15 14L16 14L16 13L15 13L15 12L17 12L17 11L18 11L18 12L19 12L19 11L18 11L18 10L17 10L17 8ZM6 11L6 12L7 12L7 11ZM14 13L14 14L13 14L13 15L14 15L14 14L15 14L15 13ZM6 14L6 15L7 15L7 14ZM8 15L8 16L9 16L9 15ZM11 15L11 16L12 16L12 15ZM17 15L17 16L18 16L18 15ZM13 16L13 17L11 17L11 18L13 18L13 17L14 17L14 16ZM17 17L17 20L20 20L20 17ZM18 18L18 19L19 19L19 18ZM23 18L23 19L25 19L25 18ZM12 19L12 20L13 20L13 19ZM22 20L22 21L23 21L23 22L24 22L24 24L22 24L22 25L25 25L25 21L23 21L23 20ZM19 21L19 22L20 22L20 21ZM19 24L19 25L20 25L20 24ZM0 0L0 7L7 7L7 0ZM1 1L1 6L6 6L6 1ZM2 2L2 5L5 5L5 2ZM18 0L18 7L25 7L25 0ZM19 1L19 6L24 6L24 1ZM20 2L20 5L23 5L23 2ZM0 18L0 25L7 25L7 18ZM1 19L1 24L6 24L6 19ZM2 20L2 23L5 23L5 20Z" fill="#000000"/></g></g></svg>
