<?xml version="1.0" encoding="UTF-8"?>
<svg xmlns="http://www.w3.org/2000/svg" version="1.1" width="500" height="500" viewBox="0 0 500 500"><rect x="0" y="0" width="500" height="500" fill="#ffffff"/><g transform="scale(20)"><g transform="translate(0,0)"><path fill-rule="evenodd" d="M8 0L8 1L10 1L10 0ZM14 0L14 1L13 1L13 2L11 2L11 4L10 4L10 3L9 3L9 2L8 2L8 5L9 5L9 6L8 6L8 7L9 7L9 8L8 8L8 9L9 9L9 10L10 10L10 9L9 9L9 8L10 8L10 7L11 7L11 8L12 8L12 7L13 7L13 6L14 6L14 7L15 7L15 8L16 8L16 7L17 7L17 5L16 5L16 4L17 4L17 3L16 3L16 2L17 2L17 1L16 1L16 2L15 2L15 0ZM12 3L12 5L10 5L10 6L9 6L9 7L10 7L10 6L11 6L11 7L12 7L12 5L14 5L14 6L15 6L15 7L16 7L16 5L15 5L15 3L14 3L14 4L13 4L13 3ZM0 8L0 9L2 9L2 11L1 11L1 10L0 10L0 12L1 12L1 15L0 15L0 16L1 16L1 15L4 15L4 17L8 17L8 18L11 18L11 19L9 19L9 20L10 20L10 21L12 21L12 22L11 22L11 23L10 23L10 25L11 25L11 23L14 23L14 20L13 20L13 19L14 19L14 18L16 18L16 21L18 21L18 22L16 22L16 23L15 23L15 24L14 24L14 25L16 25L16 23L17 23L17 25L25 25L25 24L23 24L23 23L24 23L24 22L25 22L25 21L24 21L24 20L25 20L25 15L24 15L24 14L25 14L25 12L24 12L24 11L23 11L23 10L24 10L24 9L25 9L25 8L24 8L24 9L23 9L23 8L20 8L20 9L19 9L19 11L18 11L18 8L17 8L17 11L18 11L18 12L16 12L16 11L15 11L15 9L14 9L14 10L13 10L13 11L11 11L11 13L10 13L10 12L9 12L9 11L8 11L8 12L6 12L6 11L7 11L7 10L6 10L6 9L7 9L7 8L6 8L6 9L5 9L5 10L4 10L4 8ZM20 9L20 10L21 10L21 11L20 11L20 12L19 12L19 13L20 13L20 12L21 12L21 11L22 11L22 10L23 10L23 9L22 9L22 10L21 10L21 9ZM3 10L3 11L2 11L2 12L3 12L3 13L2 13L2 14L4 14L4 15L5 15L5 16L7 16L7 15L8 15L8 16L9 16L9 17L11 17L11 18L12 18L12 17L13 17L13 16L15 16L15 17L16 17L16 16L15 16L15 15L17 15L17 16L18 16L18 15L21 15L21 19L22 19L22 20L21 20L21 23L19 23L19 24L22 24L22 21L23 21L23 18L24 18L24 16L23 16L23 13L24 13L24 12L23 12L23 13L22 13L22 15L21 15L21 14L18 14L18 13L16 13L16 14L15 14L15 11L14 11L14 15L13 15L13 16L12 16L12 14L13 14L13 12L12 12L12 14L11 14L11 15L10 15L10 13L9 13L9 15L8 15L8 14L7 14L7 13L5 13L5 12L4 12L4 10ZM5 10L5 11L6 11L6 10ZM4 13L4 14L5 14L5 13ZM6 14L6 15L7 15L7 14ZM17 14L17 15L18 15L18 14ZM9 15L9 16L10 16L10 15ZM2 16L2 17L3 17L3 16ZM11 16L11 17L12 17L12 16ZM22 16L22 17L23 17L23 16ZM17 17L17 20L20 20L20 17ZM18 18L18 19L19 19L19 18ZM11 19L11 20L12 20L12 19ZM8 21L8 25L9 25L9 21ZM19 21L19 22L20 22L20 21ZM12 24L12 25L13 25L13 24ZM0 0L0 7L7 7L7 0ZM1 1L1 6L6 6L6 1ZM2 2L2 5L5 5L5 2ZM18 0L18 7L25 7L25 0ZM19 1L19 6L24 6L24 1ZM20 2L20 5L23 5L23 2ZM0 18L0 25L7 25L7 18ZM1 19L1 24L6 24L6 19ZM2 20L2 23L5 23L5 20Z" fill="#000000"/></g></g></svg>
