<?xml version="1.0" encoding="UTF-8"?>
<svg xmlns="http://www.w3.org/2000/svg" version="1.1" width="500" height="500" viewBox="0 0 500 500"><rect x="0" y="0" width="500" height="500" fill="#ffffff"/><g transform="scale(20)"><g transform="translate(0,0)"><path fill-rule="evenodd" d="M8 0L8 1L10 1L10 0ZM14 0L14 2L11 2L11 4L10 4L10 3L9 3L9 2L8 2L8 5L9 5L9 6L8 6L8 7L9 7L9 8L8 8L8 10L6 10L6 9L7 9L7 8L6 8L6 9L4 9L4 8L0 8L0 10L1 10L1 13L2 13L2 12L3 12L3 10L4 10L4 11L5 11L5 12L4 12L4 13L5 13L5 14L3 14L3 16L4 16L4 15L5 15L5 16L6 16L6 17L8 17L8 18L9 18L9 21L8 21L8 25L9 25L9 22L10 22L10 23L14 23L14 22L16 22L16 21L18 21L18 23L17 23L17 24L18 24L18 25L25 25L25 24L23 24L23 23L24 23L24 22L25 22L25 21L22 21L22 22L23 22L23 23L21 23L21 20L22 20L22 19L21 19L21 18L23 18L23 20L25 20L25 15L24 15L24 14L25 14L25 12L24 12L24 11L21 11L21 10L24 10L24 9L25 9L25 8L24 8L24 9L23 9L23 8L20 8L20 9L21 9L21 10L20 10L20 11L18 11L18 8L17 8L17 5L16 5L16 4L17 4L17 3L16 3L16 2L15 2L15 0ZM14 2L14 3L12 3L12 5L10 5L10 6L9 6L9 7L10 7L10 8L9 8L9 9L10 9L10 10L9 10L9 11L6 11L6 10L5 10L5 11L6 11L6 12L5 12L5 13L6 13L6 14L5 14L5 15L6 15L6 16L8 16L8 14L7 14L7 13L8 13L8 12L10 12L10 13L11 13L11 11L14 11L14 10L15 10L15 12L12 12L12 14L11 14L11 16L12 16L12 17L11 17L11 18L10 18L10 21L11 21L11 22L12 22L12 21L11 21L11 20L12 20L12 19L11 19L11 18L12 18L12 17L14 17L14 18L13 18L13 20L14 20L14 21L16 21L16 18L15 18L15 17L16 17L16 16L15 16L15 15L16 15L16 14L17 14L17 16L18 16L18 15L21 15L21 17L22 17L22 16L23 16L23 18L24 18L24 16L23 16L23 13L24 13L24 12L23 12L23 13L22 13L22 12L21 12L21 13L22 13L22 15L21 15L21 14L20 14L20 13L19 13L19 14L18 14L18 12L17 12L17 13L16 13L16 14L15 14L15 12L16 12L16 10L17 10L17 8L16 8L16 5L15 5L15 9L13 9L13 7L14 7L14 5L13 5L13 4L15 4L15 2ZM12 5L12 7L11 7L11 6L10 6L10 7L11 7L11 8L12 8L12 7L13 7L13 5ZM1 9L1 10L3 10L3 9ZM6 12L6 13L7 13L7 12ZM13 13L13 14L12 14L12 16L14 16L14 15L15 15L15 14L14 14L14 13ZM1 14L1 15L0 15L0 16L1 16L1 15L2 15L2 14ZM6 14L6 15L7 15L7 14ZM9 14L9 17L10 17L10 14ZM13 14L13 15L14 15L14 14ZM17 17L17 20L20 20L20 17ZM18 18L18 19L19 19L19 18ZM19 21L19 23L18 23L18 24L19 24L19 23L20 23L20 24L21 24L21 23L20 23L20 21ZM15 23L15 24L14 24L14 25L16 25L16 23ZM10 24L10 25L11 25L11 24ZM12 24L12 25L13 25L13 24ZM0 0L0 7L7 7L7 0ZM1 1L1 6L6 6L6 1ZM2 2L2 5L5 5L5 2ZM18 0L18 7L25 7L25 0ZM19 1L19 6L24 6L24 1ZM20 2L20 5L23 5L23 2ZM0 18L0 25L7 25L7 18ZM1 19L1 24L6 24L6 19ZM2 20L2 23L5 23L5 20Z" fill="#000000"/></g></g></svg>
