<?xml version="1.0" encoding="UTF-8"?>
<svg xmlns="http://www.w3.org/2000/svg" version="1.1" width="500" height="500" viewBox="0 0 500 500"><rect x="0" y="0" width="500" height="500" fill="#ffffff"/><g transform="scale(20)"><g transform="translate(0,0)"><path fill-rule="evenodd" d="M8 0L8 1L9 1L9 2L8 2L8 5L9 5L9 4L11 4L11 5L10 5L10 10L8 10L8 9L9 9L9 8L8 8L8 9L7 9L7 8L6 8L6 9L7 9L7 10L6 10L6 11L5 11L5 10L2 10L2 9L4 9L4 8L0 8L0 10L1 10L1 11L3 11L3 12L4 12L4 11L5 11L5 12L6 12L6 13L7 13L7 14L5 14L5 13L1 13L1 15L0 15L0 16L1 16L1 15L3 15L3 14L4 14L4 15L5 15L5 16L6 16L6 17L8 17L8 18L9 18L9 19L10 19L10 20L9 20L9 21L8 21L8 25L9 25L9 23L11 23L11 25L13 25L13 24L14 24L14 23L17 23L17 22L15 22L15 21L14 21L14 22L13 22L13 23L11 23L11 22L10 22L10 21L11 21L11 20L12 20L12 19L10 19L10 18L11 18L11 17L8 17L8 16L10 16L10 14L9 14L9 13L11 13L11 16L12 16L12 17L13 17L13 19L14 19L14 20L15 20L15 19L14 19L14 18L16 18L16 21L18 21L18 23L21 23L21 25L25 25L25 24L23 24L23 23L24 23L24 22L25 22L25 21L24 21L24 20L25 20L25 15L24 15L24 14L25 14L25 13L23 13L23 12L24 12L24 11L23 11L23 8L20 8L20 9L22 9L22 11L21 11L21 10L20 10L20 11L21 11L21 12L18 12L18 11L19 11L19 10L18 10L18 11L16 11L16 12L15 12L15 14L16 14L16 13L17 13L17 12L18 12L18 15L16 15L16 17L15 17L15 16L12 16L12 14L13 14L13 15L14 15L14 14L13 14L13 13L14 13L14 10L15 10L15 9L14 9L14 10L13 10L13 6L14 6L14 7L15 7L15 8L16 8L16 7L17 7L17 5L16 5L16 4L17 4L17 3L15 3L15 0L14 0L14 2L13 2L13 0L12 0L12 1L11 1L11 0L10 0L10 1L9 1L9 0ZM16 1L16 2L17 2L17 1ZM11 2L11 4L12 4L12 3L13 3L13 2ZM14 3L14 6L15 6L15 7L16 7L16 5L15 5L15 3ZM12 5L12 6L11 6L11 8L12 8L12 6L13 6L13 5ZM8 6L8 7L9 7L9 6ZM17 8L17 9L18 9L18 8ZM24 8L24 9L25 9L25 8ZM11 9L11 10L12 10L12 9ZM6 11L6 12L7 12L7 13L8 13L8 11ZM11 11L11 13L12 13L12 12L13 12L13 11ZM21 13L21 14L22 14L22 13ZM8 14L8 15L6 15L6 16L8 16L8 15L9 15L9 14ZM19 15L19 16L21 16L21 17L22 17L22 18L21 18L21 19L22 19L22 20L21 20L21 22L22 22L22 23L23 23L23 22L22 22L22 21L23 21L23 20L24 20L24 19L23 19L23 18L24 18L24 16L23 16L23 15L22 15L22 16L21 16L21 15ZM2 16L2 17L4 17L4 16ZM22 16L22 17L23 17L23 16ZM17 17L17 20L20 20L20 17ZM18 18L18 19L19 19L19 18ZM15 24L15 25L16 25L16 24ZM0 0L0 7L7 7L7 0ZM1 1L1 6L6 6L6 1ZM2 2L2 5L5 5L5 2ZM18 0L18 7L25 7L25 0ZM19 1L19 6L24 6L24 1ZM20 2L20 5L23 5L23 2ZM0 18L0 25L7 25L7 18ZM1 19L1 24L6 24L6 19ZM2 20L2 23L5 23L5 20Z" fill="#000000"/></g></g></svg>
