<?xml version="1.0" encoding="UTF-8"?>
<svg xmlns="http://www.w3.org/2000/svg" version="1.1" width="500" height="500" viewBox="0 0 500 500"><rect x="0" y="0" width="500" height="500" fill="#ffffff"/><g transform="scale(20)"><g transform="translate(0,0)"><path fill-rule="evenodd" d="M9 0L9 1L8 1L8 2L9 2L9 3L8 3L8 4L10 4L10 7L11 7L11 4L12 4L12 5L13 5L13 4L14 4L14 5L15 5L15 6L14 6L14 8L13 8L13 6L12 6L12 9L14 9L14 10L11 10L11 11L10 11L10 9L11 9L11 8L6 8L6 9L7 9L7 10L6 10L6 11L5 11L5 10L3 10L3 11L1 11L1 12L2 12L2 15L4 15L4 16L2 16L2 17L4 17L4 16L6 16L6 17L7 17L7 16L6 16L6 15L7 15L7 14L9 14L9 13L10 13L10 15L9 15L9 16L8 16L8 19L9 19L9 16L11 16L11 13L12 13L12 14L13 14L13 15L12 15L12 17L13 17L13 16L14 16L14 17L16 17L16 19L14 19L14 20L15 20L15 21L12 21L12 19L13 19L13 18L11 18L11 19L10 19L10 20L11 20L11 21L9 21L9 20L8 20L8 25L9 25L9 24L10 24L10 25L11 25L11 24L10 24L10 23L11 23L11 21L12 21L12 22L13 22L13 23L12 23L12 25L13 25L13 24L14 24L14 25L16 25L16 24L17 24L17 23L18 23L18 22L19 22L19 24L18 24L18 25L25 25L25 18L22 18L22 17L24 17L24 16L25 16L25 14L23 14L23 12L24 12L24 11L25 11L25 10L23 10L23 9L24 9L24 8L23 8L23 9L22 9L22 8L21 8L21 9L22 9L22 10L23 10L23 12L22 12L22 11L21 11L21 12L20 12L20 10L19 10L19 11L18 11L18 10L15 10L15 9L18 9L18 8L15 8L15 6L16 6L16 7L17 7L17 6L16 6L16 5L15 5L15 4L17 4L17 3L16 3L16 2L17 2L17 1L15 1L15 0L14 0L14 1L11 1L11 2L10 2L10 0ZM14 1L14 2L12 2L12 4L13 4L13 3L14 3L14 4L15 4L15 1ZM10 3L10 4L11 4L11 3ZM8 5L8 7L9 7L9 5ZM0 8L0 9L5 9L5 8ZM14 8L14 9L15 9L15 8ZM19 8L19 9L20 9L20 8ZM8 9L8 10L9 10L9 9ZM14 10L14 11L12 11L12 13L14 13L14 14L17 14L17 15L19 15L19 16L21 16L21 17L22 17L22 16L23 16L23 14L22 14L22 13L20 13L20 12L19 12L19 13L18 13L18 12L17 12L17 11L16 11L16 12L17 12L17 13L15 13L15 10ZM3 11L3 14L4 14L4 15L6 15L6 14L7 14L7 13L6 13L6 12L7 12L7 11L6 11L6 12L5 12L5 13L6 13L6 14L4 14L4 11ZM8 11L8 13L9 13L9 11ZM10 12L10 13L11 13L11 12ZM0 13L0 17L1 17L1 13ZM17 13L17 14L18 14L18 13ZM19 13L19 14L20 14L20 15L21 15L21 14L20 14L20 13ZM14 15L14 16L15 16L15 15ZM17 17L17 20L20 20L20 17ZM18 18L18 19L19 19L19 18ZM21 18L21 22L20 22L20 23L21 23L21 24L24 24L24 22L23 22L23 21L22 21L22 20L24 20L24 19L22 19L22 18ZM15 21L15 22L18 22L18 21ZM9 22L9 23L10 23L10 22ZM21 22L21 23L22 23L22 22ZM14 23L14 24L16 24L16 23ZM0 0L0 7L7 7L7 0ZM1 1L1 6L6 6L6 1ZM2 2L2 5L5 5L5 2ZM18 0L18 7L25 7L25 0ZM19 1L19 6L24 6L24 1ZM20 2L20 5L23 5L23 2ZM0 18L0 25L7 25L7 18ZM1 19L1 24L6 24L6 19ZM2 20L2 23L5 23L5 20Z" fill="#000000"/></g></g></svg>
