<?xml version="1.0" encoding="UTF-8"?>
<svg xmlns="http://www.w3.org/2000/svg" version="1.1" width="500" height="500" viewBox="0 0 500 500"><rect x="0" y="0" width="500" height="500" fill="#ffffff"/><g transform="scale(20)"><g transform="translate(0,0)"><path fill-rule="evenodd" d="M8 0L8 1L9 1L9 2L8 2L8 5L9 5L9 4L11 4L11 5L10 5L10 10L9 10L9 8L8 8L8 11L9 11L9 13L8 13L8 12L5 12L5 10L6 10L6 11L7 11L7 10L6 10L6 9L7 9L7 8L6 8L6 9L5 9L5 10L3 10L3 11L1 11L1 13L3 13L3 14L4 14L4 15L2 15L2 14L1 14L1 15L0 15L0 16L1 16L1 15L2 15L2 16L3 16L3 17L4 17L4 16L5 16L5 17L7 17L7 16L6 16L6 15L7 15L7 14L6 14L6 13L8 13L8 15L11 15L11 16L9 16L9 17L8 17L8 18L9 18L9 17L11 17L11 16L12 16L12 17L13 17L13 19L14 19L14 20L15 20L15 19L14 19L14 18L16 18L16 21L18 21L18 23L17 23L17 22L15 22L15 21L13 21L13 22L14 22L14 23L11 23L11 24L10 24L10 23L9 23L9 22L10 22L10 21L11 21L11 20L12 20L12 19L11 19L11 18L10 18L10 19L11 19L11 20L10 20L10 21L8 21L8 25L9 25L9 24L10 24L10 25L13 25L13 24L15 24L15 25L16 25L16 24L15 24L15 23L17 23L17 24L18 24L18 25L25 25L25 24L23 24L23 23L24 23L24 22L25 22L25 21L24 21L24 20L25 20L25 15L24 15L24 14L25 14L25 11L24 11L24 14L23 14L23 10L22 10L22 12L20 12L20 13L19 13L19 12L18 12L18 11L21 11L21 10L18 10L18 11L17 11L17 10L16 10L16 11L17 11L17 12L15 12L15 14L16 14L16 13L17 13L17 12L18 12L18 14L17 14L17 15L18 15L18 16L16 16L16 15L14 15L14 11L15 11L15 9L16 9L16 8L15 8L15 6L14 6L14 5L13 5L13 4L14 4L14 2L15 2L15 5L16 5L16 4L17 4L17 3L16 3L16 2L17 2L17 1L16 1L16 2L15 2L15 0L12 0L12 1L11 1L11 0L10 0L10 1L9 1L9 0ZM13 1L13 2L11 2L11 4L12 4L12 3L13 3L13 2L14 2L14 1ZM12 5L12 6L11 6L11 8L12 8L12 6L13 6L13 10L14 10L14 9L15 9L15 8L14 8L14 6L13 6L13 5ZM8 6L8 7L9 7L9 6ZM16 6L16 7L17 7L17 6ZM0 8L0 9L1 9L1 10L2 10L2 9L4 9L4 8ZM17 8L17 9L18 9L18 8ZM20 8L20 9L23 9L23 8ZM24 8L24 9L25 9L25 8ZM11 9L11 10L12 10L12 9ZM3 11L3 12L4 12L4 11ZM11 11L11 13L9 13L9 14L11 14L11 13L12 13L12 12L13 12L13 11ZM12 14L12 16L14 16L14 15L13 15L13 14ZM18 14L18 15L19 15L19 16L23 16L23 18L24 18L24 16L23 16L23 15L19 15L19 14ZM17 17L17 20L20 20L20 17ZM21 17L21 19L22 19L22 21L21 21L21 23L23 23L23 20L24 20L24 19L22 19L22 17ZM18 18L18 19L19 19L19 18ZM18 23L18 24L20 24L20 23ZM0 0L0 7L7 7L7 0ZM1 1L1 6L6 6L6 1ZM2 2L2 5L5 5L5 2ZM18 0L18 7L25 7L25 0ZM19 1L19 6L24 6L24 1ZM20 2L20 5L23 5L23 2ZM0 18L0 25L7 25L7 18ZM1 19L1 24L6 24L6 19ZM2 20L2 23L5 23L5 20Z" fill="#000000"/></g></g></svg>
