<?xml version="1.0" encoding="UTF-8"?>
<svg xmlns="http://www.w3.org/2000/svg" version="1.1" width="500" height="500" viewBox="0 0 500 500"><rect x="0" y="0" width="500" height="500" fill="#ffffff"/><g transform="scale(20)"><g transform="translate(0,0)"><path fill-rule="evenodd" d="M9 0L9 1L8 1L8 2L9 2L9 3L8 3L8 4L9 4L9 3L10 3L10 2L9 2L9 1L14 1L14 3L13 3L13 2L12 2L12 3L11 3L11 4L10 4L10 5L8 5L8 7L9 7L9 8L6 8L6 9L5 9L5 8L0 8L0 12L1 12L1 13L0 13L0 17L1 17L1 13L3 13L3 10L6 10L6 11L4 11L4 14L5 14L5 15L2 15L2 16L3 16L3 17L5 17L5 16L6 16L6 17L7 17L7 16L8 16L8 19L10 19L10 22L9 22L9 20L8 20L8 25L9 25L9 24L10 24L10 25L12 25L12 24L13 24L13 25L14 25L14 24L15 24L15 21L17 21L17 22L19 22L19 23L18 23L18 24L17 24L17 23L16 23L16 24L17 24L17 25L25 25L25 21L24 21L24 19L25 19L25 18L23 18L23 17L24 17L24 16L25 16L25 14L24 14L24 13L25 13L25 10L23 10L23 9L24 9L24 8L23 8L23 9L22 9L22 8L21 8L21 9L22 9L22 10L21 10L21 11L23 11L23 12L20 12L20 8L19 8L19 10L18 10L18 8L17 8L17 6L16 6L16 5L17 5L17 2L16 2L16 1L14 1L14 0ZM12 3L12 4L13 4L13 3ZM14 3L14 4L15 4L15 5L13 5L13 8L10 8L10 9L9 9L9 10L8 10L8 9L6 9L6 10L7 10L7 11L6 11L6 12L7 12L7 13L5 13L5 14L8 14L8 12L7 12L7 11L9 11L9 12L11 12L11 13L9 13L9 15L10 15L10 17L9 17L9 18L11 18L11 19L12 19L12 20L11 20L11 21L13 21L13 22L10 22L10 23L11 23L11 24L12 24L12 23L13 23L13 24L14 24L14 21L15 21L15 20L16 20L16 17L15 17L15 16L18 16L18 15L17 15L17 14L16 14L16 13L17 13L17 11L18 11L18 12L19 12L19 13L18 13L18 14L19 14L19 16L23 16L23 15L22 15L22 14L23 14L23 13L20 13L20 12L19 12L19 11L18 11L18 10L17 10L17 11L16 11L16 13L15 13L15 12L14 12L14 9L15 9L15 10L16 10L16 9L17 9L17 8L16 8L16 6L15 6L15 5L16 5L16 4L15 4L15 3ZM10 5L10 6L9 6L9 7L10 7L10 6L11 6L11 7L12 7L12 5ZM14 6L14 7L15 7L15 6ZM13 8L13 9L11 9L11 10L10 10L10 11L11 11L11 10L12 10L12 12L13 12L13 13L11 13L11 14L12 14L12 16L11 16L11 18L15 18L15 17L14 17L14 16L15 16L15 15L16 15L16 14L14 14L14 12L13 12L13 9L14 9L14 8ZM2 9L2 10L1 10L1 11L2 11L2 10L3 10L3 9ZM19 13L19 14L20 14L20 15L21 15L21 14L20 14L20 13ZM13 14L13 16L12 16L12 17L13 17L13 16L14 16L14 14ZM6 15L6 16L7 16L7 15ZM17 17L17 20L20 20L20 17ZM18 18L18 19L19 19L19 18ZM21 18L21 20L23 20L23 18ZM14 19L14 20L13 20L13 21L14 21L14 20L15 20L15 19ZM21 21L21 22L20 22L20 24L21 24L21 22L22 22L22 24L24 24L24 22L22 22L22 21ZM0 0L0 7L7 7L7 0ZM1 1L1 6L6 6L6 1ZM2 2L2 5L5 5L5 2ZM18 0L18 7L25 7L25 0ZM19 1L19 6L24 6L24 1ZM20 2L20 5L23 5L23 2ZM0 18L0 25L7 25L7 18ZM1 19L1 24L6 24L6 19ZM2 20L2 23L5 23L5 20Z" fill="#000000"/></g></g></svg>
