<?xml version="1.0" encoding="UTF-8"?>
<svg xmlns="http://www.w3.org/2000/svg" version="1.1" width="500" height="500" viewBox="0 0 500 500"><rect x="0" y="0" width="500" height="500" fill="#ffffff"/><g transform="scale(20)"><g transform="translate(0,0)"><path fill-rule="evenodd" d="M9 0L9 1L8 1L8 2L9 2L9 3L8 3L8 4L10 4L10 7L11 7L11 4L12 4L12 5L13 5L13 4L14 4L14 5L15 5L15 6L14 6L14 8L13 8L13 6L12 6L12 9L13 9L13 10L11 10L11 11L10 11L10 9L11 9L11 8L6 8L6 9L7 9L7 10L4 10L4 9L5 9L5 8L0 8L0 10L1 10L1 9L2 9L2 10L3 10L3 11L5 11L5 12L4 12L4 13L2 13L2 11L1 11L1 12L0 12L0 17L1 17L1 13L2 13L2 14L3 14L3 15L2 15L2 17L3 17L3 15L4 15L4 16L5 16L5 15L7 15L7 16L6 16L6 17L7 17L7 16L8 16L8 19L9 19L9 20L8 20L8 25L11 25L11 23L10 23L10 22L11 22L11 21L12 21L12 22L13 22L13 23L12 23L12 25L13 25L13 24L14 24L14 25L16 25L16 24L17 24L17 25L19 25L19 24L18 24L18 23L16 23L16 24L14 24L14 23L15 23L15 22L17 22L17 21L18 21L18 22L19 22L19 23L20 23L20 24L21 24L21 23L20 23L20 22L21 22L21 21L22 21L22 23L23 23L23 22L24 22L24 24L22 24L22 25L25 25L25 20L21 20L21 19L22 19L22 18L21 18L21 16L20 16L20 14L18 14L18 13L19 13L19 12L20 12L20 13L21 13L21 14L22 14L22 15L23 15L23 16L22 16L22 17L24 17L24 16L25 16L25 14L24 14L24 13L23 13L23 12L22 12L22 13L21 13L21 11L20 11L20 10L18 10L18 8L16 8L16 7L17 7L17 6L16 6L16 5L15 5L15 4L17 4L17 1L15 1L15 0L13 0L13 1L11 1L11 2L10 2L10 0ZM13 1L13 2L12 2L12 4L13 4L13 3L14 3L14 4L15 4L15 3L14 3L14 2L15 2L15 1ZM10 3L10 4L11 4L11 3ZM8 5L8 7L9 7L9 5ZM15 6L15 7L16 7L16 6ZM14 8L14 9L15 9L15 10L13 10L13 11L12 11L12 13L11 13L11 12L10 12L10 13L6 13L6 12L8 12L8 10L7 10L7 11L6 11L6 12L5 12L5 13L4 13L4 14L5 14L5 13L6 13L6 14L7 14L7 15L8 15L8 14L10 14L10 13L11 13L11 15L9 15L9 16L10 16L10 17L9 17L9 19L11 19L11 18L14 18L14 19L12 19L12 21L14 21L14 22L15 22L15 20L14 20L14 19L16 19L16 17L15 17L15 16L17 16L17 15L18 15L18 14L17 14L17 13L18 13L18 11L15 11L15 10L17 10L17 9L16 9L16 8ZM19 8L19 9L20 9L20 8ZM21 8L21 9L22 9L22 10L23 10L23 9L24 9L24 8L23 8L23 9L22 9L22 8ZM24 10L24 11L25 11L25 10ZM14 11L14 12L13 12L13 13L12 13L12 14L13 14L13 13L14 13L14 14L15 14L15 15L14 15L14 16L13 16L13 15L12 15L12 17L14 17L14 18L15 18L15 17L14 17L14 16L15 16L15 15L16 15L16 14L15 14L15 13L17 13L17 12L15 12L15 11ZM14 12L14 13L15 13L15 12ZM22 13L22 14L23 14L23 13ZM17 17L17 20L20 20L20 17ZM18 18L18 19L19 19L19 18ZM23 18L23 19L25 19L25 18ZM19 21L19 22L20 22L20 21ZM0 0L0 7L7 7L7 0ZM1 1L1 6L6 6L6 1ZM2 2L2 5L5 5L5 2ZM18 0L18 7L25 7L25 0ZM19 1L19 6L24 6L24 1ZM20 2L20 5L23 5L23 2ZM0 18L0 25L7 25L7 18ZM1 19L1 24L6 24L6 19ZM2 20L2 23L5 23L5 20Z" fill="#000000"/></g></g></svg>
