<?xml version="1.0" encoding="UTF-8"?>
<svg xmlns="http://www.w3.org/2000/svg" version="1.1" width="500" height="500" viewBox="0 0 500 500"><rect x="0" y="0" width="500" height="500" fill="#ffffff"/><g transform="scale(17.241)"><g transform="translate(0,0)"><path fill-rule="evenodd" d="M8 0L8 1L11 1L11 3L10 3L10 2L9 2L9 3L10 3L10 5L9 5L9 6L8 6L8 8L9 8L9 9L10 9L10 10L9 10L9 11L8 11L8 13L7 13L7 12L6 12L6 11L7 11L7 10L8 10L8 9L7 9L7 8L6 8L6 9L7 9L7 10L6 10L6 11L3 11L3 12L2 12L2 11L1 11L1 10L4 10L4 9L5 9L5 8L3 8L3 9L2 9L2 8L0 8L0 11L1 11L1 13L0 13L0 15L3 15L3 16L2 16L2 17L3 17L3 18L1 18L1 17L0 17L0 21L2 21L2 19L3 19L3 21L5 21L5 20L4 20L4 19L5 19L5 18L4 18L4 17L3 17L3 16L4 16L4 15L3 15L3 14L2 14L2 13L3 13L3 12L4 12L4 14L6 14L6 15L5 15L5 16L6 16L6 17L7 17L7 18L6 18L6 19L7 19L7 18L8 18L8 17L10 17L10 19L8 19L8 22L9 22L9 24L8 24L8 26L9 26L9 27L8 27L8 29L9 29L9 27L10 27L10 28L12 28L12 27L14 27L14 26L15 26L15 27L16 27L16 28L14 28L14 29L17 29L17 27L18 27L18 26L17 26L17 27L16 27L16 23L17 23L17 24L18 24L18 25L20 25L20 27L21 27L21 28L18 28L18 29L21 29L21 28L22 28L22 26L21 26L21 25L26 25L26 26L24 26L24 27L23 27L23 29L25 29L25 28L27 28L27 27L28 27L28 28L29 28L29 23L27 23L27 19L26 19L26 18L25 18L25 17L26 17L26 16L29 16L29 12L28 12L28 10L26 10L26 9L23 9L23 8L22 8L22 9L21 9L21 11L22 11L22 15L20 15L20 14L19 14L19 15L18 15L18 17L17 17L17 14L14 14L14 15L12 15L12 16L11 16L11 15L9 15L9 14L8 14L8 13L10 13L10 14L11 14L11 12L9 12L9 11L10 11L10 10L11 10L11 9L10 9L10 7L11 7L11 6L12 6L12 9L14 9L14 12L13 12L13 13L12 13L12 14L13 14L13 13L15 13L15 12L16 12L16 13L17 13L17 12L18 12L18 13L19 13L19 12L20 12L20 13L21 13L21 12L20 12L20 11L19 11L19 10L20 10L20 7L21 7L21 5L20 5L20 4L19 4L19 3L21 3L21 0L20 0L20 1L19 1L19 0L18 0L18 1L19 1L19 3L17 3L17 4L19 4L19 5L17 5L17 6L16 6L16 7L17 7L17 6L18 6L18 7L19 7L19 8L15 8L15 5L16 5L16 3L15 3L15 2L16 2L16 0L13 0L13 1L12 1L12 0ZM12 2L12 4L14 4L14 5L15 5L15 4L14 4L14 3L13 3L13 2ZM10 5L10 6L9 6L9 7L10 7L10 6L11 6L11 5ZM12 5L12 6L13 6L13 8L14 8L14 6L13 6L13 5ZM19 5L19 7L20 7L20 5ZM28 8L28 9L29 9L29 8ZM15 9L15 11L16 11L16 12L17 12L17 9ZM18 9L18 10L19 10L19 9ZM22 9L22 11L23 11L23 13L25 13L25 12L24 12L24 10L23 10L23 9ZM12 10L12 11L13 11L13 10ZM18 11L18 12L19 12L19 11ZM26 11L26 13L28 13L28 12L27 12L27 11ZM6 13L6 14L7 14L7 15L6 15L6 16L7 16L7 17L8 17L8 16L9 16L9 15L8 15L8 14L7 14L7 13ZM24 14L24 15L23 15L23 16L19 16L19 17L18 17L18 18L16 18L16 19L14 19L14 25L15 25L15 20L16 20L16 21L17 21L17 22L18 22L18 23L19 23L19 22L20 22L20 21L17 21L17 20L19 20L19 17L22 17L22 18L23 18L23 19L24 19L24 20L26 20L26 19L24 19L24 17L25 17L25 16L24 16L24 15L28 15L28 14ZM7 15L7 16L8 16L8 15ZM15 15L15 16L13 16L13 17L12 17L12 18L11 18L11 19L10 19L10 20L11 20L11 19L12 19L12 21L10 21L10 25L9 25L9 26L10 26L10 25L11 25L11 26L13 26L13 25L11 25L11 22L12 22L12 23L13 23L13 22L12 22L12 21L13 21L13 19L12 19L12 18L15 18L15 17L16 17L16 15ZM20 18L20 19L21 19L21 20L22 20L22 19L21 19L21 18ZM28 18L28 20L29 20L29 18ZM16 19L16 20L17 20L17 19ZM6 20L6 21L7 21L7 20ZM21 21L21 24L24 24L24 21ZM25 21L25 22L26 22L26 21ZM22 22L22 23L23 23L23 22ZM26 23L26 25L27 25L27 26L28 26L28 25L27 25L27 23ZM0 0L0 7L7 7L7 0ZM1 1L1 6L6 6L6 1ZM2 2L2 5L5 5L5 2ZM22 0L22 7L29 7L29 0ZM23 1L23 6L28 6L28 1ZM24 2L24 5L27 5L27 2ZM0 22L0 29L7 29L7 22ZM1 23L1 28L6 28L6 23ZM2 24L2 27L5 27L5 24Z" fill="#000000"/></g></g></svg>
