<?xml version="1.0" encoding="UTF-8"?>
<svg xmlns="http://www.w3.org/2000/svg" version="1.1" width="500" height="500" viewBox="0 0 500 500"><rect x="0" y="0" width="500" height="500" fill="#ffffff"/><g transform="scale(17.241)"><g transform="translate(0,0)"><path fill-rule="evenodd" d="M8 0L8 1L9 1L9 2L8 2L8 5L9 5L9 4L11 4L11 5L10 5L10 10L9 10L9 8L8 8L8 11L9 11L9 13L11 13L11 15L10 15L10 14L8 14L8 13L7 13L7 12L6 12L6 11L7 11L7 10L5 10L5 11L4 11L4 8L0 8L0 9L2 9L2 10L0 10L0 11L1 11L1 13L2 13L2 14L0 14L0 15L2 15L2 16L1 16L1 17L2 17L2 20L1 20L1 21L2 21L2 20L4 20L4 21L5 21L5 20L6 20L6 21L7 21L7 20L6 20L6 19L9 19L9 21L8 21L8 22L9 22L9 21L10 21L10 20L12 20L12 19L11 19L11 17L10 17L10 19L9 19L9 16L12 16L12 17L13 17L13 16L12 16L12 14L13 14L13 15L14 15L14 18L13 18L13 21L15 21L15 19L16 19L16 20L17 20L17 21L18 21L18 18L19 18L19 17L18 17L18 18L17 18L17 16L16 16L16 15L14 15L14 14L16 14L16 13L19 13L19 14L18 14L18 15L19 15L19 16L20 16L20 12L17 12L17 10L16 10L16 13L15 13L15 12L14 12L14 14L13 14L13 12L12 12L12 13L11 13L11 11L14 11L14 10L15 10L15 9L14 9L14 8L13 8L13 6L14 6L14 7L15 7L15 8L16 8L16 7L17 7L17 9L18 9L18 7L19 7L19 6L20 6L20 7L21 7L21 5L20 5L20 4L21 4L21 1L20 1L20 0L17 0L17 2L15 2L15 3L14 3L14 5L13 5L13 3L12 3L12 4L11 4L11 2L14 2L14 0L12 0L12 1L11 1L11 0L10 0L10 1L9 1L9 0ZM15 0L15 1L16 1L16 0ZM19 1L19 2L20 2L20 1ZM17 2L17 3L18 3L18 2ZM19 3L19 4L20 4L20 3ZM16 4L16 5L14 5L14 6L15 6L15 7L16 7L16 5L17 5L17 7L18 7L18 5L17 5L17 4ZM12 5L12 6L11 6L11 8L12 8L12 6L13 6L13 5ZM8 6L8 7L9 7L9 6ZM6 8L6 9L7 9L7 8ZM19 8L19 10L18 10L18 11L19 11L19 10L21 10L21 9L22 9L22 10L25 10L25 11L27 11L27 12L26 12L26 14L27 14L27 15L29 15L29 13L27 13L27 12L28 12L28 11L27 11L27 10L29 10L29 8L28 8L28 9L27 9L27 8L24 8L24 9L22 9L22 8L21 8L21 9L20 9L20 8ZM11 9L11 10L12 10L12 9ZM2 11L2 12L3 12L3 13L4 13L4 14L5 14L5 13L4 13L4 12L3 12L3 11ZM22 11L22 12L23 12L23 13L22 13L22 14L21 14L21 15L24 15L24 17L23 17L23 19L22 19L22 16L21 16L21 17L20 17L20 20L19 20L19 21L20 21L20 22L19 22L19 23L18 23L18 24L17 24L17 23L16 23L16 24L15 24L15 22L14 22L14 23L11 23L11 24L10 24L10 23L9 23L9 24L10 24L10 25L11 25L11 26L12 26L12 28L10 28L10 29L12 29L12 28L14 28L14 27L15 27L15 26L16 26L16 27L17 27L17 26L16 26L16 25L18 25L18 26L20 26L20 28L19 28L19 27L18 27L18 28L19 28L19 29L22 29L22 28L23 28L23 29L24 29L24 28L26 28L26 27L27 27L27 29L28 29L28 27L29 27L29 25L28 25L28 27L27 27L27 24L26 24L26 25L25 25L25 23L28 23L28 24L29 24L29 23L28 23L28 22L29 22L29 21L28 21L28 20L29 20L29 19L28 19L28 20L27 20L27 18L26 18L26 15L25 15L25 14L23 14L23 13L24 13L24 11ZM6 13L6 14L7 14L7 15L6 15L6 16L5 16L5 15L4 15L4 16L2 16L2 17L4 17L4 16L5 16L5 18L4 18L4 20L5 20L5 18L8 18L8 17L6 17L6 16L9 16L9 15L8 15L8 14L7 14L7 13ZM2 14L2 15L3 15L3 14ZM27 16L27 17L28 17L28 16ZM24 17L24 18L25 18L25 19L26 19L26 18L25 18L25 17ZM0 18L0 19L1 19L1 18ZM21 19L21 20L22 20L22 19ZM23 19L23 20L24 20L24 19ZM21 21L21 24L24 24L24 21ZM25 21L25 22L27 22L27 21ZM22 22L22 23L23 23L23 22ZM19 23L19 25L20 25L20 23ZM12 24L12 26L13 26L13 27L14 27L14 26L15 26L15 24ZM8 25L8 29L9 29L9 27L10 27L10 26L9 26L9 25ZM13 25L13 26L14 26L14 25ZM21 25L21 28L22 28L22 27L25 27L25 26L23 26L23 25ZM16 28L16 29L17 29L17 28ZM0 0L0 7L7 7L7 0ZM1 1L1 6L6 6L6 1ZM2 2L2 5L5 5L5 2ZM22 0L22 7L29 7L29 0ZM23 1L23 6L28 6L28 1ZM24 2L24 5L27 5L27 2ZM0 22L0 29L7 29L7 22ZM1 23L1 28L6 28L6 23ZM2 24L2 27L5 27L5 24Z" fill="#000000"/></g></g></svg>
