<?xml version="1.0" encoding="UTF-8"?>
<svg xmlns="http://www.w3.org/2000/svg" version="1.1" width="500" height="500" viewBox="0 0 500 500"><rect x="0" y="0" width="500" height="500" fill="#ffffff"/><g transform="scale(17.241)"><g transform="translate(0,0)"><path fill-rule="evenodd" d="M9 0L9 1L8 1L8 2L9 2L9 3L8 3L8 4L10 4L10 7L11 7L11 4L12 4L12 5L13 5L13 6L12 6L12 9L13 9L13 8L14 8L14 9L17 9L17 10L20 10L20 11L19 11L19 12L15 12L15 11L16 11L16 10L15 10L15 11L14 11L14 12L15 12L15 13L12 13L12 11L13 11L13 10L11 10L11 11L10 11L10 9L11 9L11 8L6 8L6 9L5 9L5 8L0 8L0 9L2 9L2 10L1 10L1 11L0 11L0 21L1 21L1 16L2 16L2 20L3 20L3 21L4 21L4 20L3 20L3 19L4 19L4 17L5 17L5 15L8 15L8 14L5 14L5 13L7 13L7 12L5 12L5 11L7 11L7 10L8 10L8 9L9 9L9 11L8 11L8 12L9 12L9 13L10 13L10 14L9 14L9 16L11 16L11 13L12 13L12 14L13 14L13 15L12 15L12 17L13 17L13 16L14 16L14 17L15 17L15 16L16 16L16 17L19 17L19 18L15 18L15 19L14 19L14 20L16 20L16 21L17 21L17 22L15 22L15 21L12 21L12 19L13 19L13 18L10 18L10 17L9 17L9 18L10 18L10 19L9 19L9 20L8 20L8 16L6 16L6 17L7 17L7 18L5 18L5 19L7 19L7 20L5 20L5 21L8 21L8 23L9 23L9 24L8 24L8 29L9 29L9 27L10 27L10 29L12 29L12 27L13 27L13 26L11 26L11 25L10 25L10 23L9 23L9 20L10 20L10 22L11 22L11 21L12 21L12 22L13 22L13 23L12 23L12 25L13 25L13 24L14 24L14 25L19 25L19 26L17 26L17 27L18 27L18 28L16 28L16 26L15 26L15 27L14 27L14 28L15 28L15 29L20 29L20 28L21 28L21 27L22 27L22 28L24 28L24 29L25 29L25 28L26 28L26 29L27 29L27 28L28 28L28 26L29 26L29 25L28 25L28 24L29 24L29 23L28 23L28 24L26 24L26 22L25 22L25 20L26 20L26 21L27 21L27 22L29 22L29 19L27 19L27 18L29 18L29 17L27 17L27 16L26 16L26 14L25 14L25 13L24 13L24 12L26 12L26 13L27 13L27 12L26 12L26 10L27 10L27 11L28 11L28 12L29 12L29 11L28 11L28 10L29 10L29 9L28 9L28 8L27 8L27 9L26 9L26 8L25 8L25 9L24 9L24 8L23 8L23 9L22 9L22 8L21 8L21 2L20 2L20 4L19 4L19 3L17 3L17 2L16 2L16 3L17 3L17 4L19 4L19 5L18 5L18 7L19 7L19 5L20 5L20 8L21 8L21 9L19 9L19 8L16 8L16 7L17 7L17 5L16 5L16 4L12 4L12 2L13 2L13 1L11 1L11 2L10 2L10 0ZM15 0L15 1L20 1L20 0ZM14 2L14 3L15 3L15 2ZM10 3L10 4L11 4L11 3ZM8 5L8 7L9 7L9 5ZM13 6L13 7L14 7L14 8L15 8L15 7L16 7L16 6L15 6L15 7L14 7L14 6ZM4 9L4 10L3 10L3 11L2 11L2 15L3 15L3 16L4 16L4 15L5 15L5 14L4 14L4 13L5 13L5 12L3 12L3 11L5 11L5 9ZM6 9L6 10L7 10L7 9ZM21 9L21 10L22 10L22 12L21 12L21 11L20 11L20 13L23 13L23 10L22 10L22 9ZM10 12L10 13L11 13L11 12ZM15 13L15 14L18 14L18 15L16 15L16 16L18 16L18 15L20 15L20 16L19 16L19 17L20 17L20 16L21 16L21 18L22 18L22 19L23 19L23 18L22 18L22 17L23 17L23 16L24 16L24 17L25 17L25 19L24 19L24 20L25 20L25 19L26 19L26 20L27 20L27 21L28 21L28 20L27 20L27 19L26 19L26 18L27 18L27 17L25 17L25 16L24 16L24 15L25 15L25 14L24 14L24 15L23 15L23 14L19 14L19 13ZM28 13L28 14L29 14L29 13ZM14 15L14 16L15 16L15 15ZM19 18L19 19L16 19L16 20L19 20L19 21L18 21L18 22L17 22L17 24L18 24L18 22L20 22L20 20L21 20L21 19L20 19L20 18ZM21 21L21 24L24 24L24 21ZM22 22L22 23L23 23L23 22ZM14 23L14 24L15 24L15 23ZM19 24L19 25L20 25L20 26L21 26L21 25L20 25L20 24ZM25 24L25 25L22 25L22 26L23 26L23 27L24 27L24 26L25 26L25 27L26 27L26 28L27 28L27 27L26 27L26 26L27 26L27 25L26 25L26 24ZM9 25L9 26L10 26L10 27L11 27L11 26L10 26L10 25ZM25 25L25 26L26 26L26 25ZM19 27L19 28L20 28L20 27ZM0 0L0 7L7 7L7 0ZM1 1L1 6L6 6L6 1ZM2 2L2 5L5 5L5 2ZM22 0L22 7L29 7L29 0ZM23 1L23 6L28 6L28 1ZM24 2L24 5L27 5L27 2ZM0 22L0 29L7 29L7 22ZM1 23L1 28L6 28L6 23ZM2 24L2 27L5 27L5 24Z" fill="#000000"/></g></g></svg>
