<?xml version="1.0" encoding="UTF-8"?>
<svg xmlns="http://www.w3.org/2000/svg" version="1.1" width="500" height="500" viewBox="0 0 500 500"><rect x="0" y="0" width="500" height="500" fill="#ffffff"/><g transform="scale(20)"><g transform="translate(0,0)"><path fill-rule="evenodd" d="M9 0L9 1L8 1L8 2L9 2L9 3L8 3L8 4L10 4L10 7L11 7L11 4L12 4L12 5L13 5L13 6L12 6L12 9L14 9L14 10L15 10L15 11L16 11L16 10L15 10L15 9L17 9L17 10L18 10L18 11L17 11L17 12L15 12L15 13L14 13L14 12L13 12L13 13L12 13L12 11L13 11L13 10L11 10L11 11L10 11L10 9L11 9L11 8L6 8L6 9L9 9L9 10L8 10L8 11L7 11L7 10L6 10L6 11L7 11L7 12L6 12L6 13L8 13L8 11L9 11L9 14L8 14L8 19L9 19L9 20L8 20L8 25L9 25L9 23L10 23L10 22L9 22L9 21L10 21L10 19L11 19L11 21L12 21L12 22L13 22L13 23L12 23L12 25L13 25L13 24L14 24L14 25L16 25L16 24L17 24L17 25L19 25L19 24L18 24L18 23L16 23L16 24L14 24L14 23L15 23L15 22L14 22L14 21L12 21L12 19L14 19L14 18L15 18L15 17L16 17L16 19L15 19L15 21L16 21L16 22L17 22L17 21L18 21L18 22L19 22L19 23L20 23L20 24L21 24L21 23L20 23L20 22L22 22L22 21L23 21L23 22L24 22L24 24L22 24L22 25L25 25L25 20L21 20L21 17L22 17L22 18L23 18L23 19L25 19L25 18L23 18L23 17L24 17L24 16L20 16L20 15L19 15L19 14L18 14L18 13L19 13L19 12L20 12L20 13L22 13L22 14L23 14L23 15L25 15L25 14L23 14L23 13L25 13L25 10L24 10L24 8L23 8L23 10L22 10L22 11L20 11L20 10L18 10L18 8L17 8L17 5L15 5L15 4L17 4L17 3L16 3L16 2L17 2L17 1L15 1L15 0L13 0L13 1L11 1L11 2L10 2L10 0ZM13 1L13 2L12 2L12 4L13 4L13 5L14 5L14 4L15 4L15 3L14 3L14 2L15 2L15 1ZM10 3L10 4L11 4L11 3ZM13 3L13 4L14 4L14 3ZM8 5L8 7L9 7L9 5ZM13 6L13 8L14 8L14 9L15 9L15 7L16 7L16 6L15 6L15 7L14 7L14 6ZM0 8L0 9L1 9L1 10L0 10L0 17L1 17L1 13L2 13L2 16L3 16L3 17L4 17L4 16L3 16L3 14L4 14L4 13L5 13L5 11L3 11L3 13L2 13L2 11L1 11L1 10L2 10L2 9L3 9L3 10L4 10L4 9L5 9L5 8ZM19 8L19 9L20 9L20 8ZM21 8L21 9L22 9L22 8ZM22 11L22 12L23 12L23 11ZM10 12L10 13L11 13L11 15L10 15L10 14L9 14L9 15L10 15L10 16L9 16L9 17L11 17L11 18L14 18L14 17L15 17L15 14L16 14L16 16L17 16L17 15L18 15L18 14L17 14L17 13L18 13L18 12L17 12L17 13L15 13L15 14L14 14L14 13L13 13L13 14L12 14L12 13L11 13L11 12ZM6 14L6 15L5 15L5 17L7 17L7 16L6 16L6 15L7 15L7 14ZM13 14L13 15L12 15L12 17L14 17L14 16L13 16L13 15L14 15L14 14ZM17 17L17 20L20 20L20 17ZM9 18L9 19L10 19L10 18ZM18 18L18 19L19 19L19 18ZM0 0L0 7L7 7L7 0ZM1 1L1 6L6 6L6 1ZM2 2L2 5L5 5L5 2ZM18 0L18 7L25 7L25 0ZM19 1L19 6L24 6L24 1ZM20 2L20 5L23 5L23 2ZM0 18L0 25L7 25L7 18ZM1 19L1 24L6 24L6 19ZM2 20L2 23L5 23L5 20Z" fill="#000000"/></g></g></svg>
