<?xml version="1.0" encoding="UTF-8"?>
<svg xmlns="http://www.w3.org/2000/svg" version="1.1" width="500" height="500" viewBox="0 0 500 500"><rect x="0" y="0" width="500" height="500" fill="#ffffff"/><g transform="scale(17.241)"><g transform="translate(0,0)"><path fill-rule="evenodd" d="M8 0L8 1L10 1L10 0ZM15 0L15 1L14 1L14 2L11 2L11 4L10 4L10 3L9 3L9 2L8 2L8 5L9 5L9 6L8 6L8 7L9 7L9 8L8 8L8 9L7 9L7 8L6 8L6 9L7 9L7 10L4 10L4 8L0 8L0 9L1 9L1 10L0 10L0 16L1 16L1 18L0 18L0 19L1 19L1 18L2 18L2 15L3 15L3 14L1 14L1 11L2 11L2 10L3 10L3 12L2 12L2 13L5 13L5 12L6 12L6 13L8 13L8 14L9 14L9 13L10 13L10 15L9 15L9 16L10 16L10 15L11 15L11 14L12 14L12 16L11 16L11 17L10 17L10 18L9 18L9 19L8 19L8 16L6 16L6 15L7 15L7 14L5 14L5 15L4 15L4 16L3 16L3 18L4 18L4 19L2 19L2 20L1 20L1 21L2 21L2 20L3 20L3 21L8 21L8 22L10 22L10 21L12 21L12 22L11 22L11 23L10 23L10 24L11 24L11 23L14 23L14 22L15 22L15 21L16 21L16 20L15 20L15 21L14 21L14 20L13 20L13 18L14 18L14 17L12 17L12 16L14 16L14 15L15 15L15 19L17 19L17 22L16 22L16 23L18 23L18 20L19 20L19 21L20 21L20 22L19 22L19 23L20 23L20 25L19 25L19 24L14 24L14 26L13 26L13 24L12 24L12 25L11 25L11 26L10 26L10 25L8 25L8 29L11 29L11 28L12 28L12 29L13 29L13 28L12 28L12 26L13 26L13 27L14 27L14 29L15 29L15 28L16 28L16 29L17 29L17 28L16 28L16 27L18 27L18 28L19 28L19 29L22 29L22 28L23 28L23 29L24 29L24 28L26 28L26 27L27 27L27 29L28 29L28 27L29 27L29 25L28 25L28 22L29 22L29 21L28 21L28 20L29 20L29 19L28 19L28 20L27 20L27 18L26 18L26 15L25 15L25 14L23 14L23 13L24 13L24 11L22 11L22 12L23 12L23 13L22 13L22 14L21 14L21 15L24 15L24 17L23 17L23 19L22 19L22 16L21 16L21 17L20 17L20 20L19 20L19 17L18 17L18 18L17 18L17 16L16 16L16 15L15 15L15 14L16 14L16 13L17 13L17 15L18 15L18 16L20 16L20 12L19 12L19 10L21 10L21 9L22 9L22 10L25 10L25 11L27 11L27 12L26 12L26 14L27 14L27 15L29 15L29 13L27 13L27 12L28 12L28 11L27 11L27 10L29 10L29 8L28 8L28 9L27 9L27 8L24 8L24 9L22 9L22 8L21 8L21 9L20 9L20 8L19 8L19 9L18 9L18 7L19 7L19 6L20 6L20 7L21 7L21 5L20 5L20 4L21 4L21 1L20 1L20 0ZM16 1L16 3L12 3L12 5L10 5L10 6L9 6L9 7L10 7L10 8L9 8L9 9L8 9L8 10L7 10L7 11L6 11L6 12L7 12L7 11L8 11L8 12L10 12L10 13L11 13L11 11L14 11L14 10L15 10L15 11L17 11L17 12L18 12L18 11L17 11L17 7L18 7L18 6L19 6L19 5L18 5L18 6L17 6L17 7L16 7L16 5L17 5L17 3L18 3L18 2L17 2L17 1ZM19 1L19 2L20 2L20 1ZM19 3L19 4L20 4L20 3ZM13 4L13 5L12 5L12 7L11 7L11 6L10 6L10 7L11 7L11 8L12 8L12 7L13 7L13 9L15 9L15 5L14 5L14 4ZM13 5L13 7L14 7L14 5ZM9 9L9 10L8 10L8 11L9 11L9 10L10 10L10 9ZM4 11L4 12L5 12L5 11ZM12 12L12 14L13 14L13 15L14 15L14 14L15 14L15 12ZM13 13L13 14L14 14L14 13ZM4 16L4 18L5 18L5 19L6 19L6 20L8 20L8 21L10 21L10 20L12 20L12 19L9 19L9 20L8 20L8 19L6 19L6 18L7 18L7 17L5 17L5 16ZM27 16L27 17L28 17L28 16ZM11 17L11 18L12 18L12 17ZM24 17L24 18L25 18L25 19L26 19L26 18L25 18L25 17ZM21 19L21 20L22 20L22 19ZM23 19L23 20L24 20L24 19ZM21 21L21 24L24 24L24 21ZM25 21L25 22L27 22L27 21ZM22 22L22 23L23 23L23 22ZM25 23L25 25L26 25L26 24L27 24L27 23ZM16 25L16 26L14 26L14 27L16 27L16 26L17 26L17 25ZM21 25L21 28L22 28L22 27L25 27L25 26L23 26L23 25ZM27 25L27 27L28 27L28 25ZM9 26L9 28L10 28L10 26ZM18 26L18 27L19 27L19 28L20 28L20 26ZM0 0L0 7L7 7L7 0ZM1 1L1 6L6 6L6 1ZM2 2L2 5L5 5L5 2ZM22 0L22 7L29 7L29 0ZM23 1L23 6L28 6L28 1ZM24 2L24 5L27 5L27 2ZM0 22L0 29L7 29L7 22ZM1 23L1 28L6 28L6 23ZM2 24L2 27L5 27L5 24Z" fill="#000000"/></g></g></svg>
