<?xml version="1.0" encoding="UTF-8"?>
<svg xmlns="http://www.w3.org/2000/svg" version="1.1" width="500" height="500" viewBox="0 0 500 500"><rect x="0" y="0" width="500" height="500" fill="#ffffff"/><g transform="scale(20)"><g transform="translate(0,0)"><path fill-rule="evenodd" d="M9 0L9 1L8 1L8 2L9 2L9 3L8 3L8 4L10 4L10 7L11 7L11 4L12 4L12 5L13 5L13 6L12 6L12 9L13 9L13 10L11 10L11 11L10 11L10 9L11 9L11 8L6 8L6 9L7 9L7 10L6 10L6 11L7 11L7 10L8 10L8 14L3 14L3 15L2 15L2 17L4 17L4 15L8 15L8 14L9 14L9 16L5 16L5 17L8 17L8 19L9 19L9 20L8 20L8 25L11 25L11 23L10 23L10 21L9 21L9 20L10 20L10 19L11 19L11 21L12 21L12 22L13 22L13 23L12 23L12 25L13 25L13 24L14 24L14 25L16 25L16 24L17 24L17 25L19 25L19 24L18 24L18 23L17 23L17 22L16 22L16 21L18 21L18 22L19 22L19 23L20 23L20 24L21 24L21 23L20 23L20 22L21 22L21 21L22 21L22 23L23 23L23 22L24 22L24 24L22 24L22 25L25 25L25 20L21 20L21 19L22 19L22 18L21 18L21 16L20 16L20 14L18 14L18 13L19 13L19 12L20 12L20 13L21 13L21 14L22 14L22 15L25 15L25 14L22 14L22 13L23 13L23 12L24 12L24 11L25 11L25 10L24 10L24 11L23 11L23 12L22 12L22 13L21 13L21 11L20 11L20 10L18 10L18 8L16 8L16 7L17 7L17 5L15 5L15 4L14 4L14 3L16 3L16 4L17 4L17 3L16 3L16 1L15 1L15 0L13 0L13 1L11 1L11 2L10 2L10 0ZM13 1L13 2L12 2L12 4L13 4L13 5L14 5L14 6L13 6L13 8L14 8L14 9L15 9L15 10L13 10L13 11L12 11L12 13L11 13L11 12L10 12L10 13L11 13L11 14L10 14L10 16L9 16L9 17L10 17L10 16L11 16L11 18L13 18L13 19L12 19L12 21L14 21L14 22L15 22L15 19L16 19L16 17L15 17L15 16L14 16L14 15L13 15L13 14L14 14L14 13L15 13L15 14L17 14L17 13L18 13L18 12L17 12L17 11L16 11L16 12L17 12L17 13L15 13L15 10L17 10L17 9L15 9L15 7L16 7L16 6L15 6L15 5L14 5L14 4L13 4L13 3L14 3L14 2L15 2L15 1ZM10 3L10 4L11 4L11 3ZM8 5L8 7L9 7L9 5ZM14 6L14 7L15 7L15 6ZM0 8L0 10L1 10L1 11L0 11L0 12L2 12L2 11L5 11L5 8ZM19 8L19 9L20 9L20 8ZM21 8L21 9L22 9L22 10L23 10L23 9L24 9L24 8L23 8L23 9L22 9L22 8ZM1 9L1 10L3 10L3 9ZM6 12L6 13L7 13L7 12ZM13 12L13 13L12 13L12 14L13 14L13 13L14 13L14 12ZM0 13L0 17L1 17L1 14L2 14L2 13ZM12 15L12 17L14 17L14 18L15 18L15 17L14 17L14 16L13 16L13 15ZM16 15L16 16L17 16L17 15ZM22 16L22 17L24 17L24 16ZM17 17L17 20L20 20L20 17ZM9 18L9 19L10 19L10 18ZM18 18L18 19L19 19L19 18ZM23 18L23 19L25 19L25 18ZM19 21L19 22L20 22L20 21ZM9 23L9 24L10 24L10 23ZM14 23L14 24L16 24L16 23ZM0 0L0 7L7 7L7 0ZM1 1L1 6L6 6L6 1ZM2 2L2 5L5 5L5 2ZM18 0L18 7L25 7L25 0ZM19 1L19 6L24 6L24 1ZM20 2L20 5L23 5L23 2ZM0 18L0 25L7 25L7 18ZM1 19L1 24L6 24L6 19ZM2 20L2 23L5 23L5 20Z" fill="#000000"/></g></g></svg>
