<?xml version="1.0" encoding="UTF-8"?>
<svg xmlns="http://www.w3.org/2000/svg" version="1.1" width="500" height="500" viewBox="0 0 500 500"><rect x="0" y="0" width="500" height="500" fill="#ffffff"/><g transform="scale(20)"><g transform="translate(0,0)"><path fill-rule="evenodd" d="M9 0L9 1L8 1L8 2L9 2L9 3L8 3L8 4L10 4L10 7L11 7L11 4L12 4L12 5L15 5L15 6L14 6L14 8L13 8L13 6L12 6L12 9L13 9L13 10L11 10L11 11L10 11L10 9L11 9L11 8L6 8L6 9L8 9L8 10L6 10L6 11L8 11L8 10L9 10L9 13L10 13L10 14L11 14L11 13L12 13L12 14L13 14L13 15L12 15L12 17L14 17L14 18L11 18L11 17L10 17L10 20L8 20L8 25L9 25L9 21L12 21L12 24L11 24L11 25L12 25L12 24L13 24L13 25L14 25L14 24L15 24L15 25L16 25L16 24L18 24L18 25L19 25L19 24L21 24L21 23L20 23L20 22L21 22L21 21L22 21L22 22L24 22L24 24L22 24L22 25L25 25L25 21L23 21L23 20L22 20L22 19L21 19L21 18L22 18L22 17L24 17L24 16L21 16L21 15L22 15L22 14L23 14L23 15L25 15L25 14L23 14L23 13L24 13L24 11L25 11L25 10L23 10L23 9L24 9L24 8L23 8L23 9L22 9L22 8L21 8L21 9L22 9L22 11L23 11L23 12L20 12L20 13L19 13L19 12L18 12L18 11L20 11L20 8L19 8L19 10L18 10L18 8L17 8L17 5L15 5L15 4L17 4L17 2L16 2L16 1L15 1L15 0L14 0L14 1L11 1L11 2L10 2L10 0ZM12 2L12 4L13 4L13 3L14 3L14 4L15 4L15 2ZM10 3L10 4L11 4L11 3ZM8 5L8 7L9 7L9 5ZM15 6L15 8L14 8L14 9L15 9L15 10L13 10L13 11L12 11L12 13L13 13L13 14L14 14L14 13L15 13L15 14L18 14L18 15L19 15L19 16L20 16L20 15L21 15L21 13L20 13L20 14L19 14L19 13L18 13L18 12L17 12L17 11L18 11L18 10L17 10L17 9L15 9L15 8L16 8L16 6ZM0 8L0 11L1 11L1 10L2 10L2 11L3 11L3 12L5 12L5 11L4 11L4 10L5 10L5 8ZM2 9L2 10L4 10L4 9ZM15 10L15 12L16 12L16 13L17 13L17 12L16 12L16 11L17 11L17 10ZM0 12L0 17L1 17L1 14L3 14L3 15L2 15L2 16L3 16L3 15L4 15L4 17L5 17L5 16L6 16L6 17L8 17L8 19L9 19L9 16L10 16L10 15L9 15L9 14L6 14L6 13L7 13L7 12L6 12L6 13L4 13L4 14L3 14L3 13L2 13L2 12ZM10 12L10 13L11 13L11 12ZM13 12L13 13L14 13L14 12ZM5 14L5 15L6 15L6 16L7 16L7 15L6 15L6 14ZM8 15L8 16L9 16L9 15ZM13 15L13 16L14 16L14 17L16 17L16 16L15 16L15 15ZM17 17L17 20L20 20L20 17ZM15 18L15 19L16 19L16 18ZM18 18L18 19L19 19L19 18ZM23 18L23 19L24 19L24 20L25 20L25 18ZM12 19L12 20L14 20L14 21L13 21L13 22L14 22L14 21L15 21L15 22L18 22L18 23L19 23L19 22L20 22L20 21L19 21L19 22L18 22L18 21L15 21L15 20L14 20L14 19ZM13 23L13 24L14 24L14 23ZM15 23L15 24L16 24L16 23ZM0 0L0 7L7 7L7 0ZM1 1L1 6L6 6L6 1ZM2 2L2 5L5 5L5 2ZM18 0L18 7L25 7L25 0ZM19 1L19 6L24 6L24 1ZM20 2L20 5L23 5L23 2ZM0 18L0 25L7 25L7 18ZM1 19L1 24L6 24L6 19ZM2 20L2 23L5 23L5 20Z" fill="#000000"/></g></g></svg>
