<?xml version="1.0" encoding="UTF-8"?>
<svg xmlns="http://www.w3.org/2000/svg" version="1.1" width="500" height="500" viewBox="0 0 500 500"><rect x="0" y="0" width="500" height="500" fill="#ffffff"/><g transform="scale(20)"><g transform="translate(0,0)"><path fill-rule="evenodd" d="M10 0L10 2L11 2L11 0ZM12 0L12 1L15 1L15 2L14 2L14 3L13 3L13 2L12 2L12 4L13 4L13 5L11 5L11 6L10 6L10 4L11 4L11 3L8 3L8 4L9 4L9 5L8 5L8 7L9 7L9 8L6 8L6 9L8 9L8 10L6 10L6 11L5 11L5 12L6 12L6 13L4 13L4 14L5 14L5 15L4 15L4 17L8 17L8 19L9 19L9 20L8 20L8 25L9 25L9 23L10 23L10 24L11 24L11 25L13 25L13 24L12 24L12 23L13 23L13 22L15 22L15 21L18 21L18 22L16 22L16 23L15 23L15 25L16 25L16 24L17 24L17 23L18 23L18 25L19 25L19 23L20 23L20 22L22 22L22 23L23 23L23 22L24 22L24 24L20 24L20 25L25 25L25 20L24 20L24 19L25 19L25 18L23 18L23 20L22 20L22 21L21 21L21 18L22 18L22 17L24 17L24 16L19 16L19 15L20 15L20 13L21 13L21 15L22 15L22 14L23 14L23 15L25 15L25 14L23 14L23 13L24 13L24 11L25 11L25 10L23 10L23 9L24 9L24 8L23 8L23 9L22 9L22 8L21 8L21 9L22 9L22 11L23 11L23 12L19 12L19 11L21 11L21 10L19 10L19 11L18 11L18 10L15 10L15 9L18 9L18 8L17 8L17 6L16 6L16 5L15 5L15 4L17 4L17 2L16 2L16 1L15 1L15 0ZM8 1L8 2L9 2L9 1ZM15 2L15 3L14 3L14 4L15 4L15 3L16 3L16 2ZM13 5L13 7L12 7L12 6L11 6L11 7L12 7L12 9L11 9L11 8L10 8L10 9L9 9L9 12L11 12L11 13L10 13L10 14L14 14L14 13L15 13L15 14L17 14L17 13L18 13L18 14L19 14L19 13L18 13L18 12L17 12L17 13L15 13L15 12L16 12L16 11L13 11L13 10L14 10L14 9L15 9L15 7L16 7L16 6L15 6L15 5ZM9 6L9 7L10 7L10 6ZM14 6L14 7L15 7L15 6ZM0 8L0 9L3 9L3 10L1 10L1 12L0 12L0 17L1 17L1 12L4 12L4 11L3 11L3 10L5 10L5 8ZM13 8L13 9L12 9L12 10L13 10L13 9L14 9L14 8ZM19 8L19 9L20 9L20 8ZM10 9L10 11L11 11L11 9ZM6 11L6 12L8 12L8 11ZM12 11L12 13L14 13L14 12L13 12L13 11ZM6 13L6 14L8 14L8 17L9 17L9 16L10 16L10 17L11 17L11 19L10 19L10 18L9 18L9 19L10 19L10 20L9 20L9 21L10 21L10 22L13 22L13 21L12 21L12 19L13 19L13 20L14 20L14 21L15 21L15 20L14 20L14 19L13 19L13 18L14 18L14 17L15 17L15 19L16 19L16 16L17 16L17 15L16 15L16 16L14 16L14 15L12 15L12 17L11 17L11 15L9 15L9 14L8 14L8 13ZM6 15L6 16L7 16L7 15ZM2 16L2 17L3 17L3 16ZM13 16L13 17L12 17L12 18L13 18L13 17L14 17L14 16ZM17 17L17 20L20 20L20 17ZM18 18L18 19L19 19L19 18ZM19 21L19 22L18 22L18 23L19 23L19 22L20 22L20 21ZM22 21L22 22L23 22L23 21ZM0 0L0 7L7 7L7 0ZM1 1L1 6L6 6L6 1ZM2 2L2 5L5 5L5 2ZM18 0L18 7L25 7L25 0ZM19 1L19 6L24 6L24 1ZM20 2L20 5L23 5L23 2ZM0 18L0 25L7 25L7 18ZM1 19L1 24L6 24L6 19ZM2 20L2 23L5 23L5 20Z" fill="#000000"/></g></g></svg>
