<?xml version="1.0" encoding="UTF-8"?>
<svg xmlns="http://www.w3.org/2000/svg" version="1.1" width="500" height="500" viewBox="0 0 500 500"><rect x="0" y="0" width="500" height="500" fill="#ffffff"/><g transform="scale(20)"><g transform="translate(0,0)"><path fill-rule="evenodd" d="M8 0L8 4L10 4L10 3L11 3L11 4L12 4L12 2L11 2L11 0ZM12 0L12 1L13 1L13 2L15 2L15 3L16 3L16 4L15 4L15 5L14 5L14 3L13 3L13 5L11 5L11 6L10 6L10 7L9 7L9 5L8 5L8 7L9 7L9 8L10 8L10 7L11 7L11 6L12 6L12 8L11 8L11 9L7 9L7 8L4 8L4 9L3 9L3 10L5 10L5 11L8 11L8 12L5 12L5 14L4 14L4 13L3 13L3 12L4 12L4 11L3 11L3 12L2 12L2 14L4 14L4 15L3 15L3 17L4 17L4 16L5 16L5 17L8 17L8 18L10 18L10 19L11 19L11 20L13 20L13 19L12 19L12 18L14 18L14 17L16 17L16 22L14 22L14 21L15 21L15 20L14 20L14 21L10 21L10 20L9 20L9 19L8 19L8 21L10 21L10 22L9 22L9 23L8 23L8 25L10 25L10 23L11 23L11 24L12 24L12 23L13 23L13 22L14 22L14 23L17 23L17 25L19 25L19 24L20 24L20 25L25 25L25 24L24 24L24 22L25 22L25 21L23 21L23 17L24 17L24 16L25 16L25 15L24 15L24 16L23 16L23 15L22 15L22 14L23 14L23 12L25 12L25 11L23 11L23 9L25 9L25 8L21 8L21 9L20 9L20 8L19 8L19 9L20 9L20 10L19 10L19 11L18 11L18 9L17 9L17 8L16 8L16 7L17 7L17 6L16 6L16 7L15 7L15 5L16 5L16 4L17 4L17 3L16 3L16 2L17 2L17 1L16 1L16 0L15 0L15 1L13 1L13 0ZM15 1L15 2L16 2L16 1ZM9 2L9 3L10 3L10 2ZM13 5L13 9L14 9L14 10L12 10L12 9L11 9L11 10L8 10L8 11L9 11L9 13L6 13L6 14L5 14L5 16L7 16L7 15L6 15L6 14L8 14L8 17L10 17L10 18L11 18L11 17L14 17L14 16L16 16L16 15L17 15L17 16L21 16L21 17L22 17L22 16L21 16L21 14L20 14L20 13L22 13L22 9L21 9L21 10L20 10L20 13L17 13L17 10L16 10L16 12L15 12L15 9L16 9L16 8L15 8L15 9L14 9L14 5ZM0 8L0 10L1 10L1 11L2 11L2 10L1 10L1 9L2 9L2 8ZM6 9L6 10L7 10L7 9ZM11 10L11 11L10 11L10 13L11 13L11 14L9 14L9 15L10 15L10 16L11 16L11 15L12 15L12 16L13 16L13 15L12 15L12 14L14 14L14 15L16 15L16 14L17 14L17 13L15 13L15 12L14 12L14 13L11 13L11 12L12 12L12 10ZM0 13L0 14L1 14L1 13ZM14 13L14 14L15 14L15 13ZM18 14L18 15L19 15L19 14ZM0 16L0 17L2 17L2 16ZM17 17L17 20L20 20L20 17ZM18 18L18 19L19 19L19 18ZM21 18L21 20L22 20L22 18ZM24 19L24 20L25 20L25 19ZM19 21L19 22L20 22L20 24L22 24L22 23L23 23L23 21ZM18 23L18 24L19 24L19 23ZM14 24L14 25L16 25L16 24ZM0 0L0 7L7 7L7 0ZM1 1L1 6L6 6L6 1ZM2 2L2 5L5 5L5 2ZM18 0L18 7L25 7L25 0ZM19 1L19 6L24 6L24 1ZM20 2L20 5L23 5L23 2ZM0 18L0 25L7 25L7 18ZM1 19L1 24L6 24L6 19ZM2 20L2 23L5 23L5 20Z" fill="#000000"/></g></g></svg>
