<?xml version="1.0" encoding="UTF-8"?>
<svg xmlns="http://www.w3.org/2000/svg" version="1.1" width="500" height="500" viewBox="0 0 500 500"><rect x="0" y="0" width="500" height="500" fill="#ffffff"/><g transform="scale(17.241)"><g transform="translate(0,0)"><path fill-rule="evenodd" d="M9 0L9 1L8 1L8 2L9 2L9 3L8 3L8 4L10 4L10 7L11 7L11 4L12 4L12 5L13 5L13 6L12 6L12 9L13 9L13 8L14 8L14 9L17 9L17 10L15 10L15 11L14 11L14 12L15 12L15 13L12 13L12 11L13 11L13 10L11 10L11 11L10 11L10 9L11 9L11 8L6 8L6 9L7 9L7 10L5 10L5 8L0 8L0 9L4 9L4 10L5 10L5 12L6 12L6 13L3 13L3 12L4 12L4 11L3 11L3 10L0 10L0 11L2 11L2 13L3 13L3 15L2 15L2 17L3 17L3 15L4 15L4 16L5 16L5 15L7 15L7 16L6 16L6 17L4 17L4 18L3 18L3 19L2 19L2 20L3 20L3 21L7 21L7 20L6 20L6 19L8 19L8 23L11 23L11 21L12 21L12 22L13 22L13 23L12 23L12 25L13 25L13 24L14 24L14 25L19 25L19 27L18 27L18 26L15 26L15 27L14 27L14 28L15 28L15 29L20 29L20 28L21 28L21 29L22 29L22 27L25 27L25 28L24 28L24 29L27 29L27 28L28 28L28 26L29 26L29 25L28 25L28 24L29 24L29 23L28 23L28 24L26 24L26 22L29 22L29 19L28 19L28 21L27 21L27 20L26 20L26 21L25 21L25 19L26 19L26 17L28 17L28 18L29 18L29 17L28 17L28 16L29 16L29 15L27 15L27 14L29 14L29 13L28 13L28 12L26 12L26 11L27 11L27 10L29 10L29 9L28 9L28 8L27 8L27 9L26 9L26 8L25 8L25 9L24 9L24 8L23 8L23 9L22 9L22 8L20 8L20 7L21 7L21 6L20 6L20 7L19 7L19 6L18 6L18 8L17 8L17 6L16 6L16 4L12 4L12 2L13 2L13 1L11 1L11 2L10 2L10 0ZM15 0L15 1L17 1L17 0ZM18 0L18 1L20 1L20 2L19 2L19 5L21 5L21 4L20 4L20 2L21 2L21 0ZM14 2L14 3L15 3L15 2ZM16 2L16 3L17 3L17 4L18 4L18 3L17 3L17 2ZM10 3L10 4L11 4L11 3ZM8 5L8 7L9 7L9 5ZM13 6L13 7L14 7L14 8L16 8L16 6L15 6L15 7L14 7L14 6ZM19 8L19 9L20 9L20 8ZM8 9L8 10L7 10L7 11L6 11L6 12L7 12L7 11L8 11L8 14L10 14L10 13L11 13L11 15L8 15L8 16L7 16L7 17L6 17L6 18L8 18L8 17L11 17L11 18L13 18L13 19L12 19L12 21L15 21L15 22L16 22L16 23L17 23L17 24L19 24L19 25L20 25L20 27L19 27L19 28L20 28L20 27L22 27L22 26L25 26L25 27L26 27L26 28L27 28L27 27L26 27L26 26L27 26L27 25L26 25L26 24L25 24L25 25L20 25L20 24L19 24L19 23L18 23L18 22L19 22L19 21L20 21L20 20L23 20L23 18L22 18L22 17L23 17L23 16L24 16L24 17L26 17L26 16L27 16L27 15L26 15L26 16L24 16L24 15L25 15L25 14L24 14L24 15L23 15L23 14L22 14L22 13L26 13L26 14L27 14L27 13L26 13L26 12L25 12L25 11L26 11L26 10L25 10L25 11L24 11L24 9L23 9L23 11L22 11L22 10L21 10L21 11L20 11L20 10L17 10L17 11L16 11L16 12L19 12L19 13L18 13L18 14L17 14L17 13L15 13L15 14L16 14L16 15L14 15L14 16L13 16L13 17L12 17L12 15L13 15L13 14L12 14L12 13L11 13L11 12L10 12L10 13L9 13L9 9ZM6 13L6 14L7 14L7 13ZM19 13L19 14L18 14L18 15L19 15L19 14L20 14L20 16L17 16L17 15L16 15L16 16L14 16L14 17L19 17L19 18L21 18L21 17L20 17L20 16L21 16L21 15L22 15L22 16L23 16L23 15L22 15L22 14L21 14L21 13ZM0 14L0 21L1 21L1 14ZM4 14L4 15L5 15L5 14ZM4 18L4 19L3 19L3 20L4 20L4 19L5 19L5 18ZM15 18L15 19L14 19L14 20L15 20L15 21L17 21L17 22L18 22L18 21L19 21L19 20L20 20L20 19L18 19L18 20L17 20L17 19L16 19L16 18ZM9 20L9 21L10 21L10 20ZM21 21L21 24L24 24L24 21ZM22 22L22 23L23 23L23 22ZM14 23L14 24L15 24L15 23ZM8 24L8 29L9 29L9 27L10 27L10 26L11 26L11 28L10 28L10 29L12 29L12 27L13 27L13 26L11 26L11 24L10 24L10 25L9 25L9 24ZM25 25L25 26L26 26L26 25ZM15 27L15 28L18 28L18 27ZM0 0L0 7L7 7L7 0ZM1 1L1 6L6 6L6 1ZM2 2L2 5L5 5L5 2ZM22 0L22 7L29 7L29 0ZM23 1L23 6L28 6L28 1ZM24 2L24 5L27 5L27 2ZM0 22L0 29L7 29L7 22ZM1 23L1 28L6 28L6 23ZM2 24L2 27L5 27L5 24Z" fill="#000000"/></g></g></svg>
