<?xml version="1.0" encoding="UTF-8"?>
<svg xmlns="http://www.w3.org/2000/svg" version="1.1" width="500" height="500" viewBox="0 0 500 500"><rect x="0" y="0" width="500" height="500" fill="#ffffff"/><g transform="scale(20)"><g transform="translate(0,0)"><path fill-rule="evenodd" d="M9 0L9 1L11 1L11 2L9 2L9 3L8 3L8 5L9 5L9 6L8 6L8 7L9 7L9 9L10 9L10 10L9 10L9 11L10 11L10 12L9 12L9 13L8 13L8 14L6 14L6 15L4 15L4 16L2 16L2 17L4 17L4 16L5 16L5 17L7 17L7 16L6 16L6 15L8 15L8 14L9 14L9 15L10 15L10 16L11 16L11 15L10 15L10 14L11 14L11 12L12 12L12 11L13 11L13 10L14 10L14 8L15 8L15 11L14 11L14 14L15 14L15 15L17 15L17 16L16 16L16 20L15 20L15 17L14 17L14 16L13 16L13 15L12 15L12 17L13 17L13 18L12 18L12 19L11 19L11 17L9 17L9 16L8 16L8 20L10 20L10 19L11 19L11 21L10 21L10 22L9 22L9 23L8 23L8 25L12 25L12 24L13 24L13 22L14 22L14 20L15 20L15 22L17 22L17 23L14 23L14 25L17 25L17 24L18 24L18 25L20 25L20 24L21 24L21 25L22 25L22 23L20 23L20 22L19 22L19 21L22 21L22 22L24 22L24 25L25 25L25 21L23 21L23 20L22 20L22 18L21 18L21 17L23 17L23 18L24 18L24 20L25 20L25 18L24 18L24 17L25 17L25 14L24 14L24 17L23 17L23 15L20 15L20 13L19 13L19 11L17 11L17 10L18 10L18 9L17 9L17 8L16 8L16 7L17 7L17 5L16 5L16 7L15 7L15 6L14 6L14 5L15 5L15 3L16 3L16 2L15 2L15 1L14 1L14 0L13 0L13 1L12 1L12 0ZM16 0L16 1L17 1L17 0ZM12 2L12 4L11 4L11 7L10 7L10 6L9 6L9 7L10 7L10 8L11 8L11 10L10 10L10 11L11 11L11 10L13 10L13 9L12 9L12 6L13 6L13 8L14 8L14 6L13 6L13 5L14 5L14 4L13 4L13 3L15 3L15 2ZM9 3L9 5L10 5L10 3ZM12 4L12 5L13 5L13 4ZM0 8L0 9L2 9L2 8ZM5 8L5 9L3 9L3 10L2 10L2 11L1 11L1 10L0 10L0 17L1 17L1 12L3 12L3 13L2 13L2 14L3 14L3 13L4 13L4 12L5 12L5 11L4 11L4 10L6 10L6 11L7 11L7 10L8 10L8 8ZM20 8L20 9L19 9L19 10L20 10L20 11L21 11L21 9L22 9L22 8ZM6 9L6 10L7 10L7 9ZM22 10L22 11L23 11L23 12L25 12L25 10ZM3 11L3 12L4 12L4 11ZM6 12L6 13L7 13L7 12ZM16 12L16 14L18 14L18 15L19 15L19 13L17 13L17 12ZM21 12L21 14L23 14L23 13L22 13L22 12ZM9 13L9 14L10 14L10 13ZM12 13L12 14L13 14L13 13ZM17 17L17 20L20 20L20 17ZM9 18L9 19L10 19L10 18ZM18 18L18 19L19 19L19 18ZM12 19L12 20L14 20L14 19ZM11 21L11 23L12 23L12 21ZM17 21L17 22L18 22L18 23L19 23L19 22L18 22L18 21ZM9 23L9 24L10 24L10 23ZM0 0L0 7L7 7L7 0ZM1 1L1 6L6 6L6 1ZM2 2L2 5L5 5L5 2ZM18 0L18 7L25 7L25 0ZM19 1L19 6L24 6L24 1ZM20 2L20 5L23 5L23 2ZM0 18L0 25L7 25L7 18ZM1 19L1 24L6 24L6 19ZM2 20L2 23L5 23L5 20Z" fill="#000000"/></g></g></svg>
