<?xml version="1.0" encoding="UTF-8"?>
<svg xmlns="http://www.w3.org/2000/svg" version="1.1" width="500" height="500" viewBox="0 0 500 500"><rect x="0" y="0" width="500" height="500" fill="#ffffff"/><g transform="scale(17.241)"><g transform="translate(0,0)"><path fill-rule="evenodd" d="M8 0L8 1L11 1L11 3L10 3L10 2L9 2L9 3L10 3L10 5L9 5L9 6L8 6L8 8L9 8L9 9L7 9L7 8L6 8L6 9L5 9L5 8L3 8L3 9L4 9L4 10L6 10L6 11L3 11L3 10L1 10L1 9L2 9L2 8L0 8L0 10L1 10L1 11L0 11L0 14L1 14L1 11L3 11L3 12L2 12L2 13L3 13L3 14L2 14L2 15L3 15L3 14L4 14L4 12L5 12L5 13L8 13L8 12L6 12L6 11L7 11L7 10L9 10L9 11L10 11L10 10L11 10L11 9L10 9L10 7L11 7L11 6L12 6L12 9L14 9L14 12L13 12L13 13L12 13L12 14L13 14L13 13L15 13L15 14L14 14L14 15L12 15L12 16L9 16L9 15L10 15L10 14L11 14L11 12L9 12L9 13L10 13L10 14L8 14L8 17L7 17L7 16L6 16L6 17L7 17L7 18L5 18L5 17L3 17L3 18L2 18L2 17L0 17L0 21L2 21L2 19L3 19L3 21L4 21L4 19L7 19L7 20L6 20L6 21L7 21L7 20L9 20L9 17L10 17L10 18L12 18L12 19L10 19L10 20L11 20L11 21L8 21L8 22L9 22L9 23L11 23L11 24L10 24L10 26L9 26L9 24L8 24L8 26L9 26L9 27L8 27L8 29L11 29L11 28L12 28L12 27L14 27L14 26L15 26L15 28L14 28L14 29L17 29L17 27L18 27L18 29L21 29L21 28L22 28L22 25L26 25L26 21L27 21L27 22L28 22L28 21L29 21L29 20L27 20L27 17L28 17L28 16L29 16L29 13L28 13L28 15L26 15L26 14L27 14L27 13L26 13L26 14L25 14L25 13L23 13L23 11L22 11L22 9L23 9L23 10L24 10L24 12L26 12L26 11L27 11L27 9L26 9L26 10L25 10L25 9L23 9L23 8L22 8L22 9L21 9L21 8L20 8L20 7L21 7L21 6L20 6L20 7L19 7L19 5L21 5L21 2L20 2L20 1L21 1L21 0L20 0L20 1L18 1L18 3L15 3L15 2L16 2L16 0L13 0L13 1L12 1L12 0ZM12 2L12 4L14 4L14 5L15 5L15 8L16 8L16 9L17 9L17 8L19 8L19 7L18 7L18 5L19 5L19 4L18 4L18 5L17 5L17 4L16 4L16 5L15 5L15 4L14 4L14 3L13 3L13 2ZM10 5L10 6L9 6L9 7L10 7L10 6L11 6L11 5ZM12 5L12 6L13 6L13 8L14 8L14 6L13 6L13 5ZM16 6L16 8L17 8L17 6ZM28 8L28 9L29 9L29 8ZM6 9L6 10L7 10L7 9ZM9 9L9 10L10 10L10 9ZM20 9L20 10L18 10L18 12L17 12L17 10L16 10L16 15L15 15L15 16L13 16L13 17L12 17L12 18L15 18L15 16L17 16L17 17L18 17L18 18L16 18L16 21L17 21L17 22L18 22L18 23L19 23L19 21L17 21L17 20L20 20L20 19L19 19L19 17L18 17L18 16L19 16L19 15L18 15L18 14L21 14L21 15L22 15L22 11L21 11L21 9ZM12 10L12 11L13 11L13 10ZM20 11L20 12L18 12L18 13L17 13L17 14L18 14L18 13L21 13L21 11ZM28 11L28 12L29 12L29 11ZM6 14L6 15L7 15L7 14ZM24 14L24 15L23 15L23 16L21 16L21 17L22 17L22 18L23 18L23 19L24 19L24 20L26 20L26 19L24 19L24 17L25 17L25 18L26 18L26 17L27 17L27 16L24 16L24 15L25 15L25 14ZM0 15L0 16L1 16L1 15ZM4 15L4 16L5 16L5 15ZM3 18L3 19L4 19L4 18ZM7 18L7 19L8 19L8 18ZM28 18L28 19L29 19L29 18ZM12 19L12 21L11 21L11 22L12 22L12 23L13 23L13 22L12 22L12 21L13 21L13 19ZM14 19L14 25L15 25L15 24L16 24L16 26L18 26L18 27L19 27L19 28L21 28L21 26L20 26L20 25L18 25L18 24L16 24L16 23L15 23L15 19ZM21 19L21 20L22 20L22 19ZM21 21L21 24L24 24L24 21ZM22 22L22 23L23 23L23 22ZM27 23L27 25L28 25L28 26L24 26L24 27L23 27L23 29L24 29L24 28L27 28L27 27L28 27L28 28L29 28L29 24L28 24L28 23ZM11 25L11 26L13 26L13 25ZM19 26L19 27L20 27L20 26ZM9 27L9 28L11 28L11 27ZM0 0L0 7L7 7L7 0ZM1 1L1 6L6 6L6 1ZM2 2L2 5L5 5L5 2ZM22 0L22 7L29 7L29 0ZM23 1L23 6L28 6L28 1ZM24 2L24 5L27 5L27 2ZM0 22L0 29L7 29L7 22ZM1 23L1 28L6 28L6 23ZM2 24L2 27L5 27L5 24Z" fill="#000000"/></g></g></svg>
