<?xml version="1.0" encoding="UTF-8"?>
<svg xmlns="http://www.w3.org/2000/svg" version="1.1" width="500" height="500" viewBox="0 0 500 500"><rect x="0" y="0" width="500" height="500" fill="#ffffff"/><g transform="scale(20)"><g transform="translate(0,0)"><path fill-rule="evenodd" d="M8 0L8 1L9 1L9 2L8 2L8 5L9 5L9 4L12 4L12 3L11 3L11 2L12 2L12 1L13 1L13 5L12 5L12 9L11 9L11 5L10 5L10 10L9 10L9 8L8 8L8 9L7 9L7 8L6 8L6 9L5 9L5 10L3 10L3 9L4 9L4 8L0 8L0 9L2 9L2 10L0 10L0 12L1 12L1 15L0 15L0 16L1 16L1 15L2 15L2 16L3 16L3 17L7 17L7 16L11 16L11 14L9 14L9 13L11 13L11 12L13 12L13 13L14 13L14 12L15 12L15 9L18 9L18 8L17 8L17 6L16 6L16 8L15 8L15 9L13 9L13 6L14 6L14 7L15 7L15 5L16 5L16 4L17 4L17 2L16 2L16 4L14 4L14 3L15 3L15 2L14 2L14 1L15 1L15 0L14 0L14 1L13 1L13 0L12 0L12 1L9 1L9 0ZM8 6L8 7L9 7L9 6ZM20 8L20 9L19 9L19 11L18 11L18 10L16 10L16 13L15 13L15 14L14 14L14 16L13 16L13 15L12 15L12 17L10 17L10 18L9 18L9 17L8 17L8 18L9 18L9 19L10 19L10 20L9 20L9 21L8 21L8 25L10 25L10 24L11 24L11 25L12 25L12 24L11 24L11 23L12 23L12 22L13 22L13 25L14 25L14 24L15 24L15 23L16 23L16 22L15 22L15 21L14 21L14 22L13 22L13 19L11 19L11 18L12 18L12 17L13 17L13 18L14 18L14 20L16 20L16 21L17 21L17 23L18 23L18 24L17 24L17 25L18 25L18 24L19 24L19 23L21 23L21 25L25 25L25 24L23 24L23 23L24 23L24 22L25 22L25 20L23 20L23 21L21 21L21 20L22 20L22 19L21 19L21 15L20 15L20 14L22 14L22 15L24 15L24 16L22 16L22 18L23 18L23 19L25 19L25 17L24 17L24 16L25 16L25 15L24 15L24 14L25 14L25 12L24 12L24 11L21 11L21 10L20 10L20 9L22 9L22 10L23 10L23 8ZM24 8L24 9L25 9L25 8ZM6 9L6 10L5 10L5 12L3 12L3 11L1 11L1 12L3 12L3 13L2 13L2 15L3 15L3 16L4 16L4 15L3 15L3 13L5 13L5 12L7 12L7 13L6 13L6 14L5 14L5 16L7 16L7 15L8 15L8 14L7 14L7 13L9 13L9 12L7 12L7 11L6 11L6 10L7 10L7 9ZM8 10L8 11L9 11L9 10ZM12 10L12 11L14 11L14 10ZM17 11L17 12L18 12L18 11ZM19 11L19 14L17 14L17 15L16 15L16 14L15 14L15 17L16 17L16 16L17 16L17 15L19 15L19 14L20 14L20 11ZM23 12L23 13L24 13L24 12ZM6 14L6 15L7 15L7 14ZM17 17L17 20L20 20L20 17ZM15 18L15 19L16 19L16 18ZM18 18L18 19L19 19L19 18ZM10 20L10 21L9 21L9 24L10 24L10 22L11 22L11 21L12 21L12 20ZM19 21L19 22L20 22L20 21ZM14 22L14 23L15 23L15 22ZM0 0L0 7L7 7L7 0ZM1 1L1 6L6 6L6 1ZM2 2L2 5L5 5L5 2ZM18 0L18 7L25 7L25 0ZM19 1L19 6L24 6L24 1ZM20 2L20 5L23 5L23 2ZM0 18L0 25L7 25L7 18ZM1 19L1 24L6 24L6 19ZM2 20L2 23L5 23L5 20Z" fill="#000000"/></g></g></svg>
