<?xml version="1.0" encoding="UTF-8"?>
<svg xmlns="http://www.w3.org/2000/svg" version="1.1" width="500" height="500" viewBox="0 0 500 500"><rect x="0" y="0" width="500" height="500" fill="#ffffff"/><g transform="scale(20)"><g transform="translate(0,0)"><path fill-rule="evenodd" d="M9 0L9 1L11 1L11 2L9 2L9 3L8 3L8 5L9 5L9 6L8 6L8 7L9 7L9 9L10 9L10 10L9 10L9 11L8 11L8 8L5 8L5 9L7 9L7 10L4 10L4 9L3 9L3 10L4 10L4 11L0 11L0 12L1 12L1 13L0 13L0 17L1 17L1 13L2 13L2 14L3 14L3 13L4 13L4 12L5 12L5 14L4 14L4 15L8 15L8 16L6 16L6 17L8 17L8 20L9 20L9 21L10 21L10 22L13 22L13 21L14 21L14 20L15 20L15 21L17 21L17 22L19 22L19 23L20 23L20 22L19 22L19 21L21 21L21 25L22 25L22 22L24 22L24 25L25 25L25 21L24 21L24 20L25 20L25 18L24 18L24 17L25 17L25 14L22 14L22 13L21 13L21 16L19 16L19 15L20 15L20 14L18 14L18 13L20 13L20 12L22 12L22 11L23 11L23 13L25 13L25 10L24 10L24 9L22 9L22 8L20 8L20 9L19 9L19 10L18 10L18 9L17 9L17 6L16 6L16 7L15 7L15 0L14 0L14 3L12 3L12 2L13 2L13 1L12 1L12 0ZM16 0L16 2L17 2L17 0ZM9 3L9 5L10 5L10 3ZM11 4L11 7L10 7L10 6L9 6L9 7L10 7L10 8L11 8L11 9L13 9L13 12L12 12L12 10L10 10L10 11L9 11L9 12L8 12L8 11L5 11L5 12L8 12L8 13L6 13L6 14L8 14L8 13L9 13L9 12L10 12L10 11L11 11L11 13L14 13L14 10L15 10L15 8L14 8L14 6L13 6L13 5L14 5L14 4L13 4L13 5L12 5L12 4ZM12 6L12 7L13 7L13 6ZM0 8L0 9L2 9L2 8ZM13 8L13 9L14 9L14 8ZM21 9L21 10L20 10L20 11L21 11L21 10L22 10L22 9ZM17 10L17 11L18 11L18 12L17 12L17 13L16 13L16 11L15 11L15 13L16 13L16 14L17 14L17 13L18 13L18 12L19 12L19 11L18 11L18 10ZM10 14L10 15L9 15L9 17L13 17L13 20L12 20L12 19L10 19L10 18L9 18L9 20L12 20L12 21L13 21L13 20L14 20L14 17L15 17L15 19L16 19L16 17L15 17L15 16L18 16L18 15L15 15L15 14ZM2 15L2 17L4 17L4 16L3 16L3 15ZM10 15L10 16L13 16L13 17L14 17L14 16L13 16L13 15ZM23 15L23 17L21 17L21 19L22 19L22 20L21 20L21 21L22 21L22 20L24 20L24 18L23 18L23 17L24 17L24 15ZM17 17L17 20L20 20L20 17ZM18 18L18 19L19 19L19 18ZM22 18L22 19L23 19L23 18ZM15 22L15 24L14 24L14 25L15 25L15 24L16 24L16 25L17 25L17 24L18 24L18 23L16 23L16 22ZM8 23L8 25L10 25L10 24L11 24L11 25L12 25L12 24L13 24L13 23L12 23L12 24L11 24L11 23L10 23L10 24L9 24L9 23ZM19 24L19 25L20 25L20 24ZM0 0L0 7L7 7L7 0ZM1 1L1 6L6 6L6 1ZM2 2L2 5L5 5L5 2ZM18 0L18 7L25 7L25 0ZM19 1L19 6L24 6L24 1ZM20 2L20 5L23 5L23 2ZM0 18L0 25L7 25L7 18ZM1 19L1 24L6 24L6 19ZM2 20L2 23L5 23L5 20Z" fill="#000000"/></g></g></svg>
