<?xml version="1.0" encoding="UTF-8"?>
<svg xmlns="http://www.w3.org/2000/svg" version="1.1" width="500" height="500" viewBox="0 0 500 500"><rect x="0" y="0" width="500" height="500" fill="#ffffff"/><g transform="scale(20)"><g transform="translate(0,0)"><path fill-rule="evenodd" d="M10 0L10 2L11 2L11 0ZM12 0L12 1L13 1L13 0ZM14 0L14 1L15 1L15 2L14 2L14 3L13 3L13 2L12 2L12 4L13 4L13 5L11 5L11 6L10 6L10 4L11 4L11 3L8 3L8 4L9 4L9 5L8 5L8 7L9 7L9 8L6 8L6 9L5 9L5 8L0 8L0 11L1 11L1 13L0 13L0 17L1 17L1 13L2 13L2 12L3 12L3 10L4 10L4 9L5 9L5 11L7 11L7 12L6 12L6 13L8 13L8 14L6 14L6 15L7 15L7 16L6 16L6 17L7 17L7 16L11 16L11 17L10 17L10 18L9 18L9 17L8 17L8 19L9 19L9 20L8 20L8 25L10 25L10 23L11 23L11 24L13 24L13 25L14 25L14 24L15 24L15 25L16 25L16 24L17 24L17 25L19 25L19 24L21 24L21 23L20 23L20 22L21 22L21 21L22 21L22 22L24 22L24 24L22 24L22 25L25 25L25 21L23 21L23 20L25 20L25 18L24 18L24 17L25 17L25 14L23 14L23 12L25 12L25 10L23 10L23 9L24 9L24 8L23 8L23 9L22 9L22 8L21 8L21 9L22 9L22 10L20 10L20 8L19 8L19 10L18 10L18 8L16 8L16 7L17 7L17 6L16 6L16 5L15 5L15 4L14 4L14 3L16 3L16 4L17 4L17 3L16 3L16 1L15 1L15 0ZM8 1L8 2L9 2L9 1ZM13 5L13 7L12 7L12 6L11 6L11 7L12 7L12 9L11 9L11 8L10 8L10 9L8 9L8 10L7 10L7 9L6 9L6 10L7 10L7 11L8 11L8 10L9 10L9 12L11 12L11 13L9 13L9 14L8 14L8 15L10 15L10 14L14 14L14 13L15 13L15 14L16 14L16 16L14 16L14 15L12 15L12 16L14 16L14 17L13 17L13 19L12 19L12 17L11 17L11 19L12 19L12 20L11 20L11 21L13 21L13 22L11 22L11 23L13 23L13 24L14 24L14 23L15 23L15 24L16 24L16 23L18 23L18 24L19 24L19 22L18 22L18 21L17 21L17 22L14 22L14 21L15 21L15 20L14 20L14 19L16 19L16 16L17 16L17 14L19 14L19 15L20 15L20 16L21 16L21 17L22 17L22 16L23 16L23 17L24 17L24 15L22 15L22 14L21 14L21 13L20 13L20 12L19 12L19 11L18 11L18 10L17 10L17 9L16 9L16 8L15 8L15 7L16 7L16 6L15 6L15 5ZM9 6L9 7L10 7L10 6ZM14 6L14 7L15 7L15 6ZM13 8L13 9L12 9L12 10L13 10L13 11L12 11L12 13L14 13L14 12L17 12L17 13L19 13L19 14L20 14L20 13L19 13L19 12L17 12L17 10L15 10L15 9L14 9L14 8ZM1 9L1 10L2 10L2 9ZM10 9L10 11L11 11L11 9ZM13 9L13 10L14 10L14 11L13 11L13 12L14 12L14 11L15 11L15 10L14 10L14 9ZM21 11L21 12L23 12L23 11ZM4 12L4 14L2 14L2 15L5 15L5 12ZM3 16L3 17L5 17L5 16ZM14 17L14 18L15 18L15 17ZM17 17L17 20L20 20L20 17ZM18 18L18 19L19 19L19 18ZM21 18L21 19L22 19L22 20L23 20L23 18ZM9 20L9 22L10 22L10 20ZM13 20L13 21L14 21L14 20ZM13 22L13 23L14 23L14 22ZM0 0L0 7L7 7L7 0ZM1 1L1 6L6 6L6 1ZM2 2L2 5L5 5L5 2ZM18 0L18 7L25 7L25 0ZM19 1L19 6L24 6L24 1ZM20 2L20 5L23 5L23 2ZM0 18L0 25L7 25L7 18ZM1 19L1 24L6 24L6 19ZM2 20L2 23L5 23L5 20Z" fill="#000000"/></g></g></svg>
