<?xml version="1.0" encoding="UTF-8"?>
<svg xmlns="http://www.w3.org/2000/svg" version="1.1" width="500" height="500" viewBox="0 0 500 500"><rect x="0" y="0" width="500" height="500" fill="#ffffff"/><g transform="scale(20)"><g transform="translate(0,0)"><path fill-rule="evenodd" d="M9 0L9 1L11 1L11 2L9 2L9 3L8 3L8 5L9 5L9 6L8 6L8 7L9 7L9 9L8 9L8 8L5 8L5 9L2 9L2 8L0 8L0 11L2 11L2 12L3 12L3 11L2 11L2 10L4 10L4 11L7 11L7 12L5 12L5 13L4 13L4 14L6 14L6 15L7 15L7 16L6 16L6 17L7 17L7 16L8 16L8 15L9 15L9 16L11 16L11 12L12 12L12 11L13 11L13 10L11 10L11 8L10 8L10 7L11 7L11 4L12 4L12 5L13 5L13 6L12 6L12 9L14 9L14 8L13 8L13 6L14 6L14 7L15 7L15 10L14 10L14 12L13 12L13 13L12 13L12 14L13 14L13 15L12 15L12 17L13 17L13 16L14 16L14 17L15 17L15 18L12 18L12 19L11 19L11 17L10 17L10 18L9 18L9 17L8 17L8 20L9 20L9 21L10 21L10 23L8 23L8 25L14 25L14 23L15 23L15 25L17 25L17 23L18 23L18 22L19 22L19 24L18 24L18 25L19 25L19 24L21 24L21 25L22 25L22 22L24 22L24 25L25 25L25 18L24 18L24 17L25 17L25 14L24 14L24 13L25 13L25 10L24 10L24 9L22 9L22 8L20 8L20 10L19 10L19 11L18 11L18 10L17 10L17 8L16 8L16 7L17 7L17 6L16 6L16 7L15 7L15 6L14 6L14 5L15 5L15 3L17 3L17 0L16 0L16 2L14 2L14 3L13 3L13 4L12 4L12 2L13 2L13 1L14 1L14 0L13 0L13 1L12 1L12 0ZM9 3L9 5L10 5L10 3ZM13 4L13 5L14 5L14 4ZM9 6L9 7L10 7L10 6ZM5 9L5 10L7 10L7 9ZM9 9L9 10L10 10L10 11L8 11L8 12L10 12L10 11L11 11L11 10L10 10L10 9ZM20 10L20 14L19 14L19 13L18 13L18 14L17 14L17 11L15 11L15 12L16 12L16 16L17 16L17 15L19 15L19 16L20 16L20 14L21 14L21 15L23 15L23 17L22 17L22 16L21 16L21 19L22 19L22 20L21 20L21 21L20 21L20 23L21 23L21 21L22 21L22 20L24 20L24 18L23 18L23 17L24 17L24 15L23 15L23 14L21 14L21 12L22 12L22 13L23 13L23 12L24 12L24 11L23 11L23 10L22 10L22 11L21 11L21 10ZM0 12L0 17L1 17L1 12ZM2 13L2 15L3 15L3 16L2 16L2 17L3 17L3 16L5 16L5 15L3 15L3 13ZM6 13L6 14L7 14L7 15L8 15L8 13ZM9 13L9 15L10 15L10 13ZM14 13L14 14L15 14L15 13ZM17 17L17 20L20 20L20 17ZM15 18L15 20L14 20L14 19L12 19L12 21L11 21L11 24L12 24L12 23L13 23L13 22L12 22L12 21L14 21L14 22L15 22L15 23L17 23L17 22L18 22L18 21L15 21L15 20L16 20L16 18ZM18 18L18 19L19 19L19 18ZM10 19L10 20L11 20L11 19ZM0 0L0 7L7 7L7 0ZM1 1L1 6L6 6L6 1ZM2 2L2 5L5 5L5 2ZM18 0L18 7L25 7L25 0ZM19 1L19 6L24 6L24 1ZM20 2L20 5L23 5L23 2ZM0 18L0 25L7 25L7 18ZM1 19L1 24L6 24L6 19ZM2 20L2 23L5 23L5 20Z" fill="#000000"/></g></g></svg>
