<?xml version="1.0" encoding="UTF-8"?>
<svg xmlns="http://www.w3.org/2000/svg" version="1.1" width="500" height="500" viewBox="0 0 500 500"><rect x="0" y="0" width="500" height="500" fill="#ffffff"/><g transform="scale(20)"><g transform="translate(0,0)"><path fill-rule="evenodd" d="M10 0L10 2L11 2L11 0ZM12 0L12 1L13 1L13 0ZM14 0L14 1L15 1L15 3L16 3L16 4L17 4L17 3L16 3L16 1L15 1L15 0ZM8 1L8 2L9 2L9 1ZM12 2L12 4L14 4L14 5L15 5L15 6L14 6L14 8L13 8L13 9L12 9L12 7L13 7L13 5L11 5L11 6L10 6L10 4L11 4L11 3L8 3L8 4L9 4L9 5L8 5L8 7L9 7L9 8L6 8L6 9L8 9L8 10L6 10L6 11L5 11L5 13L8 13L8 14L10 14L10 13L11 13L11 12L9 12L9 13L8 13L8 12L6 12L6 11L8 11L8 10L9 10L9 9L10 9L10 11L11 11L11 9L12 9L12 10L13 10L13 9L14 9L14 10L15 10L15 11L16 11L16 12L15 12L15 13L14 13L14 12L13 12L13 11L12 11L12 13L13 13L13 14L11 14L11 15L10 15L10 16L11 16L11 17L12 17L12 18L15 18L15 17L14 17L14 16L13 16L13 17L12 17L12 15L13 15L13 14L15 14L15 16L16 16L16 19L15 19L15 21L14 21L14 20L13 20L13 19L12 19L12 21L14 21L14 24L15 24L15 25L16 25L16 24L17 24L17 25L25 25L25 20L24 20L24 19L25 19L25 18L24 18L24 17L25 17L25 16L24 16L24 17L23 17L23 16L22 16L22 17L21 17L21 16L19 16L19 14L20 14L20 15L21 15L21 14L20 14L20 13L21 13L21 12L20 12L20 10L19 10L19 11L18 11L18 10L15 10L15 9L18 9L18 8L15 8L15 6L16 6L16 7L17 7L17 5L15 5L15 4L14 4L14 3L13 3L13 2ZM9 6L9 7L10 7L10 6ZM11 6L11 7L12 7L12 6ZM0 8L0 9L1 9L1 10L3 10L3 9L4 9L4 10L5 10L5 8ZM10 8L10 9L11 9L11 8ZM14 8L14 9L15 9L15 8ZM19 8L19 9L20 9L20 8ZM21 8L21 11L23 11L23 12L22 12L22 13L23 13L23 12L24 12L24 13L25 13L25 10L23 10L23 9L24 9L24 8L23 8L23 9L22 9L22 8ZM0 12L0 17L1 17L1 14L2 14L2 15L3 15L3 14L4 14L4 15L5 15L5 16L2 16L2 17L5 17L5 16L6 16L6 17L8 17L8 19L9 19L9 18L10 18L10 17L9 17L9 15L8 15L8 16L6 16L6 15L7 15L7 14L4 14L4 13L3 13L3 12L2 12L2 13L1 13L1 12ZM17 12L17 13L15 13L15 14L17 14L17 13L18 13L18 14L19 14L19 13L20 13L20 12L19 12L19 13L18 13L18 12ZM2 13L2 14L3 14L3 13ZM23 14L23 15L25 15L25 14ZM16 15L16 16L17 16L17 15ZM17 17L17 20L20 20L20 17ZM22 17L22 18L21 18L21 22L20 22L20 23L21 23L21 24L24 24L24 22L23 22L23 21L22 21L22 20L23 20L23 19L22 19L22 18L23 18L23 17ZM18 18L18 19L19 19L19 18ZM8 20L8 25L9 25L9 24L10 24L10 25L13 25L13 24L12 24L12 23L13 23L13 22L11 22L11 24L10 24L10 23L9 23L9 20ZM10 20L10 21L11 21L11 20ZM15 21L15 23L16 23L16 22L18 22L18 23L17 23L17 24L18 24L18 23L19 23L19 22L18 22L18 21ZM21 22L21 23L22 23L22 22ZM0 0L0 7L7 7L7 0ZM1 1L1 6L6 6L6 1ZM2 2L2 5L5 5L5 2ZM18 0L18 7L25 7L25 0ZM19 1L19 6L24 6L24 1ZM20 2L20 5L23 5L23 2ZM0 18L0 25L7 25L7 18ZM1 19L1 24L6 24L6 19ZM2 20L2 23L5 23L5 20Z" fill="#000000"/></g></g></svg>
