<?xml version="1.0" encoding="UTF-8"?>
<svg xmlns="http://www.w3.org/2000/svg" version="1.1" width="500" height="500" viewBox="0 0 500 500"><rect x="0" y="0" width="500" height="500" fill="#ffffff"/><g transform="scale(17.241)"><g transform="translate(0,0)"><path fill-rule="evenodd" d="M10 0L10 2L11 2L11 0ZM12 0L12 1L13 1L13 2L12 2L12 4L13 4L13 3L14 3L14 4L15 4L15 5L20 5L20 8L17 8L17 6L16 6L16 8L17 8L17 9L19 9L19 10L20 10L20 12L25 12L25 13L22 13L22 14L21 14L21 13L19 13L19 11L18 11L18 10L17 10L17 11L18 11L18 12L14 12L14 11L16 11L16 9L12 9L12 7L13 7L13 5L11 5L11 6L10 6L10 4L11 4L11 3L8 3L8 4L9 4L9 5L8 5L8 7L9 7L9 8L6 8L6 9L7 9L7 10L5 10L5 8L0 8L0 9L1 9L1 11L0 11L0 13L1 13L1 12L2 12L2 14L0 14L0 15L1 15L1 16L0 16L0 21L1 21L1 18L2 18L2 19L3 19L3 20L2 20L2 21L3 21L3 20L5 20L5 21L8 21L8 23L9 23L9 21L8 21L8 19L9 19L9 18L8 18L8 17L9 17L9 15L8 15L8 14L10 14L10 15L11 15L11 17L10 17L10 18L11 18L11 17L12 17L12 18L13 18L13 19L12 19L12 21L13 21L13 20L14 20L14 21L15 21L15 20L16 20L16 21L20 21L20 22L15 22L15 23L14 23L14 24L16 24L16 25L19 25L19 24L20 24L20 25L25 25L25 26L22 26L22 27L20 27L20 26L18 26L18 28L17 28L17 26L15 26L15 25L12 25L12 23L13 23L13 22L10 22L10 24L11 24L11 25L12 25L12 26L13 26L13 27L12 27L12 29L13 29L13 28L14 28L14 29L20 29L20 28L22 28L22 29L23 29L23 28L22 28L22 27L25 27L25 28L24 28L24 29L27 29L27 28L28 28L28 26L29 26L29 25L28 25L28 24L29 24L29 23L27 23L27 24L26 24L26 22L27 22L27 21L28 21L28 22L29 22L29 21L28 21L28 20L29 20L29 19L27 19L27 18L29 18L29 16L26 16L26 15L27 15L27 14L29 14L29 11L27 11L27 12L26 12L26 8L25 8L25 9L24 9L24 8L23 8L23 9L22 9L22 8L21 8L21 5L20 5L20 4L21 4L21 1L20 1L20 0L19 0L19 1L20 1L20 2L19 2L19 3L17 3L17 4L16 4L16 2L17 2L17 1L16 1L16 0ZM8 1L8 2L9 2L9 1ZM14 2L14 3L15 3L15 2ZM19 3L19 4L20 4L20 3ZM9 6L9 7L10 7L10 6ZM11 6L11 7L12 7L12 6ZM14 6L14 8L15 8L15 6ZM18 6L18 7L19 7L19 6ZM10 8L10 9L8 9L8 10L9 10L9 12L7 12L7 11L6 11L6 12L5 12L5 13L4 13L4 11L5 11L5 10L4 10L4 9L2 9L2 10L3 10L3 11L2 11L2 12L3 12L3 13L4 13L4 14L3 14L3 16L1 16L1 17L2 17L2 18L3 18L3 19L5 19L5 20L7 20L7 19L8 19L8 18L7 18L7 17L6 17L6 18L5 18L5 15L6 15L6 16L7 16L7 15L6 15L6 14L7 14L7 13L9 13L9 12L11 12L11 13L10 13L10 14L13 14L13 15L12 15L12 17L15 17L15 18L17 18L17 19L16 19L16 20L18 20L18 18L19 18L19 19L20 19L20 18L19 18L19 17L20 17L20 16L22 16L22 17L25 17L25 18L24 18L24 20L25 20L25 21L26 21L26 20L27 20L27 19L25 19L25 18L27 18L27 17L25 17L25 16L24 16L24 15L25 15L25 14L27 14L27 13L28 13L28 12L27 12L27 13L25 13L25 14L24 14L24 15L21 15L21 14L19 14L19 13L14 13L14 12L13 12L13 13L12 13L12 11L13 11L13 10L12 10L12 9L11 9L11 8ZM20 8L20 10L22 10L22 11L23 11L23 10L22 10L22 9L21 9L21 8ZM27 8L27 9L28 9L28 10L29 10L29 9L28 9L28 8ZM10 9L10 11L11 11L11 9ZM6 12L6 13L7 13L7 12ZM4 14L4 15L5 15L5 14ZM15 14L15 15L14 15L14 16L15 16L15 17L17 17L17 18L18 18L18 17L19 17L19 16L20 16L20 15L19 15L19 14L17 14L17 15L19 15L19 16L15 16L15 15L16 15L16 14ZM3 16L3 17L4 17L4 16ZM6 18L6 19L7 19L7 18ZM21 18L21 20L23 20L23 19L22 19L22 18ZM14 19L14 20L15 20L15 19ZM21 21L21 24L24 24L24 21ZM22 22L22 23L23 23L23 22ZM16 23L16 24L18 24L18 23ZM8 24L8 29L9 29L9 27L10 27L10 29L11 29L11 27L10 27L10 26L9 26L9 24ZM25 24L25 25L26 25L26 26L27 26L27 25L26 25L26 24ZM14 27L14 28L15 28L15 27ZM26 27L26 28L27 28L27 27ZM0 0L0 7L7 7L7 0ZM1 1L1 6L6 6L6 1ZM2 2L2 5L5 5L5 2ZM22 0L22 7L29 7L29 0ZM23 1L23 6L28 6L28 1ZM24 2L24 5L27 5L27 2ZM0 22L0 29L7 29L7 22ZM1 23L1 28L6 28L6 23ZM2 24L2 27L5 27L5 24Z" fill="#000000"/></g></g></svg>
