<?xml version="1.0" encoding="UTF-8"?>
<svg xmlns="http://www.w3.org/2000/svg" version="1.1" width="500" height="500" viewBox="0 0 500 500"><rect x="0" y="0" width="500" height="500" fill="#ffffff"/><g transform="scale(20)"><g transform="translate(0,0)"><path fill-rule="evenodd" d="M10 0L10 2L11 2L11 0ZM12 0L12 1L13 1L13 2L12 2L12 4L14 4L14 5L11 5L11 6L10 6L10 4L11 4L11 3L8 3L8 4L9 4L9 5L8 5L8 7L9 7L9 8L6 8L6 9L7 9L7 10L3 10L3 9L5 9L5 8L0 8L0 9L1 9L1 10L0 10L0 17L1 17L1 12L2 12L2 10L3 10L3 11L4 11L4 14L3 14L3 13L2 13L2 17L4 17L4 16L3 16L3 15L4 15L4 14L5 14L5 17L7 17L7 16L8 16L8 15L7 15L7 14L8 14L8 13L7 13L7 12L8 12L8 10L9 10L9 9L10 9L10 11L11 11L11 9L12 9L12 10L13 10L13 9L14 9L14 11L15 11L15 13L14 13L14 12L13 12L13 11L12 11L12 13L14 13L14 16L15 16L15 17L16 17L16 19L15 19L15 18L14 18L14 17L12 17L12 15L13 15L13 14L9 14L9 17L8 17L8 19L10 19L10 20L8 20L8 25L10 25L10 23L11 23L11 25L12 25L12 23L13 23L13 22L10 22L10 20L11 20L11 19L10 19L10 18L9 18L9 17L10 17L10 16L11 16L11 17L12 17L12 18L13 18L13 19L12 19L12 21L13 21L13 20L14 20L14 21L15 21L15 23L14 23L14 24L15 24L15 25L16 25L16 24L17 24L17 25L20 25L20 24L19 24L19 23L20 23L20 22L22 22L22 23L23 23L23 22L24 22L24 24L22 24L22 25L25 25L25 18L24 18L24 17L25 17L25 16L24 16L24 17L23 17L23 16L22 16L22 15L21 15L21 14L20 14L20 13L21 13L21 12L19 12L19 10L20 10L20 11L23 11L23 12L22 12L22 13L23 13L23 12L25 12L25 10L23 10L23 9L24 9L24 8L23 8L23 9L22 9L22 8L21 8L21 9L22 9L22 10L20 10L20 8L19 8L19 10L17 10L17 11L16 11L16 10L15 10L15 9L18 9L18 8L17 8L17 5L15 5L15 4L17 4L17 3L16 3L16 2L17 2L17 1L15 1L15 0L14 0L14 1L13 1L13 0ZM8 1L8 2L9 2L9 1ZM14 1L14 2L13 2L13 3L14 3L14 4L15 4L15 1ZM14 5L14 6L13 6L13 7L12 7L12 6L11 6L11 7L12 7L12 9L13 9L13 8L14 8L14 9L15 9L15 8L14 8L14 6L15 6L15 7L16 7L16 6L15 6L15 5ZM9 6L9 7L10 7L10 6ZM10 8L10 9L11 9L11 8ZM6 11L6 12L7 12L7 11ZM9 12L9 13L11 13L11 12ZM17 12L17 13L15 13L15 14L18 14L18 15L19 15L19 13L18 13L18 12ZM6 13L6 14L7 14L7 13ZM23 14L23 15L25 15L25 14ZM6 15L6 16L7 16L7 15ZM15 15L15 16L17 16L17 15ZM17 17L17 20L20 20L20 17ZM21 17L21 21L22 21L22 22L23 22L23 21L22 21L22 20L23 20L23 18L22 18L22 17ZM18 18L18 19L19 19L19 18ZM14 19L14 20L15 20L15 19ZM17 21L17 22L16 22L16 23L15 23L15 24L16 24L16 23L17 23L17 24L18 24L18 23L19 23L19 22L20 22L20 21L19 21L19 22L18 22L18 21ZM9 22L9 23L10 23L10 22ZM17 22L17 23L18 23L18 22ZM0 0L0 7L7 7L7 0ZM1 1L1 6L6 6L6 1ZM2 2L2 5L5 5L5 2ZM18 0L18 7L25 7L25 0ZM19 1L19 6L24 6L24 1ZM20 2L20 5L23 5L23 2ZM0 18L0 25L7 25L7 18ZM1 19L1 24L6 24L6 19ZM2 20L2 23L5 23L5 20Z" fill="#000000"/></g></g></svg>
