<?xml version="1.0" encoding="UTF-8"?>
<svg xmlns="http://www.w3.org/2000/svg" version="1.1" width="500" height="500" viewBox="0 0 500 500"><rect x="0" y="0" width="500" height="500" fill="#ffffff"/><g transform="scale(20)"><g transform="translate(0,0)"><path fill-rule="evenodd" d="M9 0L9 1L8 1L8 2L9 2L9 3L8 3L8 4L10 4L10 7L11 7L11 4L12 4L12 5L13 5L13 6L12 6L12 9L14 9L14 12L13 12L13 13L12 13L12 11L13 11L13 10L11 10L11 11L10 11L10 9L11 9L11 8L6 8L6 9L8 9L8 10L6 10L6 11L5 11L5 12L3 12L3 10L4 10L4 9L5 9L5 8L0 8L0 12L1 12L1 13L0 13L0 17L1 17L1 13L2 13L2 15L3 15L3 16L2 16L2 17L8 17L8 19L9 19L9 20L8 20L8 25L11 25L11 24L9 24L9 20L10 20L10 19L9 19L9 18L10 18L10 16L9 16L9 15L10 15L10 14L11 14L11 13L12 13L12 14L13 14L13 15L12 15L12 17L14 17L14 18L15 18L15 17L16 17L16 19L15 19L15 21L18 21L18 22L19 22L19 24L18 24L18 23L17 23L17 22L14 22L14 21L12 21L12 19L13 19L13 18L11 18L11 21L10 21L10 23L11 23L11 21L12 21L12 22L13 22L13 23L12 23L12 25L13 25L13 24L14 24L14 25L16 25L16 24L17 24L17 25L25 25L25 20L21 20L21 19L22 19L22 18L23 18L23 19L25 19L25 18L24 18L24 17L25 17L25 16L24 16L24 17L23 17L23 16L21 16L21 15L22 15L22 13L23 13L23 12L25 12L25 10L24 10L24 8L23 8L23 12L22 12L22 13L21 13L21 12L20 12L20 13L19 13L19 12L17 12L17 11L16 11L16 10L15 10L15 9L17 9L17 10L18 10L18 11L20 11L20 8L19 8L19 10L18 10L18 8L17 8L17 6L16 6L16 5L15 5L15 4L17 4L17 3L16 3L16 2L17 2L17 1L15 1L15 0L14 0L14 2L15 2L15 4L14 4L14 3L13 3L13 4L12 4L12 2L13 2L13 1L11 1L11 2L10 2L10 0ZM10 3L10 4L11 4L11 3ZM13 4L13 5L14 5L14 6L13 6L13 8L14 8L14 9L15 9L15 8L16 8L16 6L15 6L15 5L14 5L14 4ZM8 5L8 7L9 7L9 5ZM14 6L14 8L15 8L15 6ZM21 8L21 11L22 11L22 8ZM1 9L1 12L2 12L2 9ZM8 10L8 13L6 13L6 12L7 12L7 11L6 11L6 12L5 12L5 13L6 13L6 14L8 14L8 15L9 15L9 14L10 14L10 13L11 13L11 12L10 12L10 13L9 13L9 10ZM14 12L14 13L13 13L13 14L14 14L14 15L13 15L13 16L14 16L14 17L15 17L15 16L14 16L14 15L15 15L15 14L16 14L16 15L17 15L17 16L18 16L18 15L17 15L17 13L15 13L15 12ZM8 13L8 14L9 14L9 13ZM14 13L14 14L15 14L15 13ZM18 13L18 14L19 14L19 13ZM20 13L20 15L21 15L21 13ZM3 14L3 15L5 15L5 14ZM23 14L23 15L25 15L25 14ZM6 15L6 16L7 16L7 15ZM17 17L17 20L20 20L20 17ZM21 17L21 18L22 18L22 17ZM18 18L18 19L19 19L19 18ZM19 21L19 22L20 22L20 24L21 24L21 23L22 23L22 24L24 24L24 22L23 22L23 21L21 21L21 22L20 22L20 21ZM14 23L14 24L16 24L16 23ZM0 0L0 7L7 7L7 0ZM1 1L1 6L6 6L6 1ZM2 2L2 5L5 5L5 2ZM18 0L18 7L25 7L25 0ZM19 1L19 6L24 6L24 1ZM20 2L20 5L23 5L23 2ZM0 18L0 25L7 25L7 18ZM1 19L1 24L6 24L6 19ZM2 20L2 23L5 23L5 20Z" fill="#000000"/></g></g></svg>
