<?xml version="1.0" encoding="UTF-8"?>
<svg xmlns="http://www.w3.org/2000/svg" version="1.1" width="500" height="500" viewBox="0 0 500 500"><rect x="0" y="0" width="500" height="500" fill="#ffffff"/><g transform="scale(23.81)"><g transform="translate(0,0)"><path fill-rule="evenodd" d="M10 0L10 1L9 1L9 2L8 2L8 3L9 3L9 6L8 6L8 8L4 8L4 9L3 9L3 8L0 8L0 10L2 10L2 11L3 11L3 13L8 13L8 17L9 17L9 18L8 18L8 21L11 21L11 20L12 20L12 21L14 21L14 19L15 19L15 18L16 18L16 21L18 21L18 20L17 20L17 17L16 17L16 16L15 16L15 17L14 17L14 15L15 15L15 14L14 14L14 15L13 15L13 13L14 13L14 11L15 11L15 12L16 12L16 11L20 11L20 14L19 14L19 13L18 13L18 14L19 14L19 16L20 16L20 17L21 17L21 16L20 16L20 15L21 15L21 9L19 9L19 8L18 8L18 9L16 9L16 11L15 11L15 8L12 8L12 7L13 7L13 6L12 6L12 4L13 4L13 2L12 2L12 0ZM9 2L9 3L10 3L10 5L11 5L11 3L10 3L10 2ZM9 6L9 11L8 11L8 10L7 10L7 9L5 9L5 12L9 12L9 14L11 14L11 15L12 15L12 16L13 16L13 15L12 15L12 13L10 13L10 12L11 12L11 11L12 11L12 12L13 12L13 11L14 11L14 10L13 10L13 11L12 11L12 8L11 8L11 9L10 9L10 6ZM11 6L11 7L12 7L12 6ZM18 9L18 10L19 10L19 9ZM6 10L6 11L7 11L7 10ZM10 10L10 11L9 11L9 12L10 12L10 11L11 11L11 10ZM0 11L0 13L1 13L1 11ZM16 13L16 15L17 15L17 13ZM9 15L9 16L10 16L10 15ZM11 17L11 19L12 19L12 17ZM9 18L9 20L10 20L10 18ZM13 18L13 19L14 19L14 18ZM18 18L18 19L19 19L19 21L21 21L21 20L20 20L20 19L21 19L21 18L20 18L20 19L19 19L19 18ZM0 0L0 7L7 7L7 0ZM1 1L1 6L6 6L6 1ZM2 2L2 5L5 5L5 2ZM14 0L14 7L21 7L21 0ZM15 1L15 6L20 6L20 1ZM16 2L16 5L19 5L19 2ZM0 14L0 21L7 21L7 14ZM1 15L1 20L6 20L6 15ZM2 16L2 19L5 19L5 16Z" fill="#000000"/></g></g></svg>
