<?xml version="1.0" encoding="UTF-8"?>
<svg xmlns="http://www.w3.org/2000/svg" version="1.1" width="500" height="500" viewBox="0 0 500 500"><rect x="0" y="0" width="500" height="500" fill="#ffffff"/><g transform="scale(20)"><g transform="translate(0,0)"><path fill-rule="evenodd" d="M10 0L10 2L11 2L11 0ZM12 0L12 1L13 1L13 2L12 2L12 4L14 4L14 5L11 5L11 6L10 6L10 4L11 4L11 3L8 3L8 4L9 4L9 5L8 5L8 7L9 7L9 8L6 8L6 9L5 9L5 8L0 8L0 9L3 9L3 10L2 10L2 12L1 12L1 10L0 10L0 17L1 17L1 14L3 14L3 16L2 16L2 17L3 17L3 16L4 16L4 15L5 15L5 17L7 17L7 16L8 16L8 19L10 19L10 20L11 20L11 19L10 19L10 18L11 18L11 17L12 17L12 18L13 18L13 19L12 19L12 21L14 21L14 22L11 22L11 23L9 23L9 22L10 22L10 21L9 21L9 20L8 20L8 25L9 25L9 24L11 24L11 25L13 25L13 24L12 24L12 23L14 23L14 24L15 24L15 25L16 25L16 24L17 24L17 25L18 25L18 24L21 24L21 23L20 23L20 22L21 22L21 21L22 21L22 22L24 22L24 24L22 24L22 25L25 25L25 20L24 20L24 19L25 19L25 18L24 18L24 17L25 17L25 16L24 16L24 15L25 15L25 14L21 14L21 15L23 15L23 16L20 16L20 15L19 15L19 14L20 14L20 13L21 13L21 11L23 11L23 12L22 12L22 13L23 13L23 12L24 12L24 13L25 13L25 10L23 10L23 9L24 9L24 8L23 8L23 9L22 9L22 8L21 8L21 9L22 9L22 10L20 10L20 8L19 8L19 10L18 10L18 8L15 8L15 6L16 6L16 7L17 7L17 5L15 5L15 4L14 4L14 3L16 3L16 4L17 4L17 3L16 3L16 1L15 1L15 0L14 0L14 1L13 1L13 0ZM8 1L8 2L9 2L9 1ZM14 1L14 2L13 2L13 3L14 3L14 2L15 2L15 1ZM9 6L9 7L10 7L10 6ZM11 6L11 7L12 7L12 9L11 9L11 8L10 8L10 9L8 9L8 11L9 11L9 12L11 12L11 13L9 13L9 15L8 15L8 16L9 16L9 17L10 17L10 16L11 16L11 15L10 15L10 14L13 14L13 15L12 15L12 17L13 17L13 18L14 18L14 17L15 17L15 19L16 19L16 17L15 17L15 16L16 16L16 15L17 15L17 14L19 14L19 13L20 13L20 12L19 12L19 11L18 11L18 10L17 10L17 9L15 9L15 8L14 8L14 6L13 6L13 7L12 7L12 6ZM13 8L13 9L12 9L12 10L13 10L13 9L14 9L14 10L15 10L15 11L16 11L16 10L15 10L15 9L14 9L14 8ZM6 9L6 10L4 10L4 11L3 11L3 12L2 12L2 13L3 13L3 14L5 14L5 15L6 15L6 16L7 16L7 15L6 15L6 14L7 14L7 13L8 13L8 12L7 12L7 11L6 11L6 10L7 10L7 9ZM10 9L10 11L11 11L11 9ZM4 11L4 12L3 12L3 13L5 13L5 14L6 14L6 13L7 13L7 12L5 12L5 11ZM12 11L12 13L13 13L13 14L15 14L15 15L14 15L14 16L13 16L13 17L14 17L14 16L15 16L15 15L16 15L16 14L15 14L15 13L19 13L19 12L15 12L15 13L14 13L14 12L13 12L13 11ZM9 15L9 16L10 16L10 15ZM23 16L23 17L24 17L24 16ZM17 17L17 20L20 20L20 17ZM18 18L18 19L19 19L19 18ZM21 18L21 19L22 19L22 20L23 20L23 18ZM13 19L13 20L14 20L14 21L15 21L15 22L14 22L14 23L16 23L16 22L17 22L17 21L15 21L15 20L14 20L14 19ZM18 22L18 23L17 23L17 24L18 24L18 23L19 23L19 22ZM0 0L0 7L7 7L7 0ZM1 1L1 6L6 6L6 1ZM2 2L2 5L5 5L5 2ZM18 0L18 7L25 7L25 0ZM19 1L19 6L24 6L24 1ZM20 2L20 5L23 5L23 2ZM0 18L0 25L7 25L7 18ZM1 19L1 24L6 24L6 19ZM2 20L2 23L5 23L5 20Z" fill="#000000"/></g></g></svg>
