<?xml version="1.0" encoding="UTF-8"?>
<svg xmlns="http://www.w3.org/2000/svg" version="1.1" width="500" height="500" viewBox="0 0 500 500"><rect x="0" y="0" width="500" height="500" fill="#ffffff"/><g transform="scale(20)"><g transform="translate(0,0)"><path fill-rule="evenodd" d="M10 0L10 2L11 2L11 0ZM12 0L12 1L13 1L13 2L12 2L12 4L14 4L14 5L15 5L15 6L14 6L14 8L13 8L13 9L12 9L12 7L13 7L13 5L11 5L11 6L10 6L10 4L11 4L11 3L8 3L8 4L9 4L9 5L8 5L8 7L9 7L9 8L6 8L6 9L5 9L5 8L0 8L0 9L4 9L4 10L0 10L0 12L1 12L1 11L2 11L2 13L0 13L0 17L1 17L1 14L2 14L2 15L3 15L3 17L7 17L7 16L4 16L4 15L8 15L8 16L10 16L10 17L12 17L12 18L13 18L13 17L14 17L14 18L15 18L15 17L14 17L14 16L16 16L16 19L14 19L14 20L13 20L13 19L12 19L12 21L14 21L14 22L15 22L15 21L18 21L18 22L16 22L16 23L14 23L14 24L15 24L15 25L16 25L16 24L17 24L17 25L18 25L18 24L19 24L19 25L25 25L25 20L24 20L24 19L25 19L25 18L24 18L24 17L25 17L25 16L24 16L24 15L25 15L25 14L23 14L23 12L24 12L24 13L25 13L25 10L24 10L24 8L23 8L23 10L22 10L22 8L21 8L21 10L22 10L22 11L23 11L23 12L20 12L20 10L19 10L19 11L18 11L18 10L17 10L17 11L16 11L16 10L15 10L15 9L14 9L14 8L16 8L16 9L18 9L18 8L16 8L16 7L17 7L17 5L15 5L15 4L17 4L17 1L15 1L15 0L14 0L14 1L13 1L13 0ZM8 1L8 2L9 2L9 1ZM13 2L13 3L14 3L14 4L15 4L15 3L14 3L14 2ZM9 6L9 7L10 7L10 6ZM11 6L11 7L12 7L12 6ZM15 6L15 7L16 7L16 6ZM10 8L10 9L6 9L6 10L4 10L4 11L6 11L6 12L3 12L3 13L4 13L4 14L5 14L5 13L6 13L6 14L7 14L7 13L6 13L6 12L7 12L7 11L6 11L6 10L9 10L9 12L8 12L8 13L9 13L9 15L11 15L11 14L13 14L13 15L12 15L12 17L13 17L13 16L14 16L14 15L15 15L15 14L17 14L17 15L16 15L16 16L17 16L17 15L19 15L19 16L21 16L21 17L22 17L22 18L21 18L21 22L20 22L20 23L21 23L21 24L24 24L24 22L23 22L23 21L22 21L22 20L23 20L23 19L22 19L22 18L23 18L23 17L24 17L24 16L23 16L23 14L21 14L21 13L20 13L20 12L19 12L19 13L18 13L18 12L17 12L17 13L15 13L15 12L14 12L14 11L15 11L15 10L12 10L12 9L11 9L11 8ZM19 8L19 9L20 9L20 8ZM10 9L10 11L11 11L11 9ZM12 11L12 13L13 13L13 14L15 14L15 13L14 13L14 12L13 12L13 11ZM9 12L9 13L11 13L11 12ZM17 13L17 14L18 14L18 13ZM19 13L19 14L20 14L20 15L21 15L21 14L20 14L20 13ZM22 16L22 17L23 17L23 16ZM8 17L8 19L9 19L9 20L8 20L8 25L9 25L9 24L10 24L10 23L11 23L11 25L13 25L13 24L12 24L12 23L13 23L13 22L10 22L10 21L9 21L9 20L11 20L11 19L9 19L9 17ZM17 17L17 20L20 20L20 17ZM18 18L18 19L19 19L19 18ZM14 20L14 21L15 21L15 20ZM18 22L18 23L17 23L17 24L18 24L18 23L19 23L19 22ZM21 22L21 23L22 23L22 22ZM0 0L0 7L7 7L7 0ZM1 1L1 6L6 6L6 1ZM2 2L2 5L5 5L5 2ZM18 0L18 7L25 7L25 0ZM19 1L19 6L24 6L24 1ZM20 2L20 5L23 5L23 2ZM0 18L0 25L7 25L7 18ZM1 19L1 24L6 24L6 19ZM2 20L2 23L5 23L5 20Z" fill="#000000"/></g></g></svg>
