<?xml version="1.0" encoding="UTF-8"?>
<svg xmlns="http://www.w3.org/2000/svg" version="1.1" width="500" height="500" viewBox="0 0 500 500"><rect x="0" y="0" width="500" height="500" fill="#ffffff"/><g transform="scale(20)"><g transform="translate(0,0)"><path fill-rule="evenodd" d="M8 0L8 1L9 1L9 2L8 2L8 5L9 5L9 4L11 4L11 5L10 5L10 10L9 10L9 8L8 8L8 11L7 11L7 10L6 10L6 9L7 9L7 8L6 8L6 9L4 9L4 8L0 8L0 9L4 9L4 11L5 11L5 13L4 13L4 12L3 12L3 16L2 16L2 17L3 17L3 16L4 16L4 17L8 17L8 18L9 18L9 21L8 21L8 25L9 25L9 24L10 24L10 25L12 25L12 24L15 24L15 25L16 25L16 22L17 22L17 21L18 21L18 24L17 24L17 25L20 25L20 23L21 23L21 24L22 24L22 25L25 25L25 24L23 24L23 23L24 23L24 22L25 22L25 21L24 21L24 20L23 20L23 21L21 21L21 20L22 20L22 19L25 19L25 17L24 17L24 14L25 14L25 13L23 13L23 11L22 11L22 9L23 9L23 8L20 8L20 9L21 9L21 10L17 10L17 12L16 12L16 11L15 11L15 9L14 9L14 10L13 10L13 6L14 6L14 7L15 7L15 8L17 8L17 9L18 9L18 8L17 8L17 5L16 5L16 4L17 4L17 2L16 2L16 3L15 3L15 5L16 5L16 7L15 7L15 6L14 6L14 2L15 2L15 0L14 0L14 2L13 2L13 0L12 0L12 1L11 1L11 0L10 0L10 1L9 1L9 0ZM11 2L11 4L12 4L12 3L13 3L13 2ZM12 5L12 6L11 6L11 8L12 8L12 6L13 6L13 5ZM8 6L8 7L9 7L9 6ZM24 8L24 9L25 9L25 8ZM11 9L11 10L12 10L12 9ZM0 10L0 11L1 11L1 12L0 12L0 13L1 13L1 12L2 12L2 10ZM6 11L6 12L7 12L7 11ZM8 11L8 13L6 13L6 14L4 14L4 15L5 15L5 16L7 16L7 15L6 15L6 14L8 14L8 15L9 15L9 16L8 16L8 17L9 17L9 18L10 18L10 19L12 19L12 20L11 20L11 23L10 23L10 24L11 24L11 23L14 23L14 22L16 22L16 18L15 18L15 17L16 17L16 16L15 16L15 17L14 17L14 15L16 15L16 14L17 14L17 15L19 15L19 16L20 16L20 15L21 15L21 18L23 18L23 17L22 17L22 16L23 16L23 15L21 15L21 14L20 14L20 11L19 11L19 14L18 14L18 12L17 12L17 13L16 13L16 14L15 14L15 12L14 12L14 15L13 15L13 14L12 14L12 16L11 16L11 15L10 15L10 14L11 14L11 13L12 13L12 12L13 12L13 11L11 11L11 13L10 13L10 14L8 14L8 13L9 13L9 11ZM1 14L1 15L0 15L0 16L1 16L1 15L2 15L2 14ZM19 14L19 15L20 15L20 14ZM9 16L9 17L10 17L10 18L11 18L11 16ZM12 16L12 17L13 17L13 16ZM17 17L17 20L20 20L20 17ZM13 18L13 21L15 21L15 18ZM18 18L18 19L19 19L19 18ZM19 21L19 22L20 22L20 21ZM22 22L22 23L23 23L23 22ZM0 0L0 7L7 7L7 0ZM1 1L1 6L6 6L6 1ZM2 2L2 5L5 5L5 2ZM18 0L18 7L25 7L25 0ZM19 1L19 6L24 6L24 1ZM20 2L20 5L23 5L23 2ZM0 18L0 25L7 25L7 18ZM1 19L1 24L6 24L6 19ZM2 20L2 23L5 23L5 20Z" fill="#000000"/></g></g></svg>
