<?xml version="1.0" encoding="UTF-8"?>
<svg xmlns="http://www.w3.org/2000/svg" version="1.1" width="500" height="500" viewBox="0 0 500 500"><rect x="0" y="0" width="500" height="500" fill="#ffffff"/><g transform="scale(20)"><g transform="translate(0,0)"><path fill-rule="evenodd" d="M8 0L8 1L10 1L10 0ZM13 0L13 1L14 1L14 2L11 2L11 4L10 4L10 3L9 3L9 2L8 2L8 5L9 5L9 6L8 6L8 7L9 7L9 8L8 8L8 9L7 9L7 8L6 8L6 9L7 9L7 10L3 10L3 9L4 9L4 8L0 8L0 9L2 9L2 10L3 10L3 11L4 11L4 14L3 14L3 15L2 15L2 11L1 11L1 10L0 10L0 11L1 11L1 12L0 12L0 13L1 13L1 15L0 15L0 16L1 16L1 15L2 15L2 17L3 17L3 16L4 16L4 15L7 15L7 16L6 16L6 17L7 17L7 16L8 16L8 15L10 15L10 14L12 14L12 16L11 16L11 17L12 17L12 18L9 18L9 17L8 17L8 18L9 18L9 19L12 19L12 20L10 20L10 21L8 21L8 25L9 25L9 22L10 22L10 23L14 23L14 20L15 20L15 19L14 19L14 20L13 20L13 17L14 17L14 18L16 18L16 21L18 21L18 22L16 22L16 23L15 23L15 24L14 24L14 25L16 25L16 23L17 23L17 25L20 25L20 24L19 24L19 23L21 23L21 25L25 25L25 24L23 24L23 23L24 23L24 22L25 22L25 21L24 21L24 20L25 20L25 17L24 17L24 14L25 14L25 13L23 13L23 11L22 11L22 9L23 9L23 8L20 8L20 9L21 9L21 10L19 10L19 11L18 11L18 14L17 14L17 15L16 15L16 17L15 17L15 14L16 14L16 13L17 13L17 12L15 12L15 11L14 11L14 10L15 10L15 9L14 9L14 10L13 10L13 11L11 11L11 13L10 13L10 12L9 12L9 10L10 10L10 9L9 9L9 8L10 8L10 7L11 7L11 8L12 8L12 7L13 7L13 5L12 5L12 3L13 3L13 4L14 4L14 2L15 2L15 0ZM16 1L16 4L15 4L15 5L14 5L14 8L17 8L17 10L18 10L18 8L17 8L17 5L16 5L16 4L17 4L17 1ZM10 5L10 6L9 6L9 7L10 7L10 6L11 6L11 7L12 7L12 5ZM15 5L15 7L16 7L16 5ZM24 8L24 9L25 9L25 8ZM7 10L7 11L5 11L5 13L6 13L6 14L7 14L7 15L8 15L8 14L7 14L7 13L8 13L8 12L7 12L7 11L8 11L8 10ZM19 11L19 14L18 14L18 15L17 15L17 16L19 16L19 15L20 15L20 16L21 16L21 17L22 17L22 18L21 18L21 19L22 19L22 20L21 20L21 23L22 23L22 21L23 21L23 17L22 17L22 16L23 16L23 13L22 13L22 12L21 12L21 14L22 14L22 16L21 16L21 15L20 15L20 11ZM6 12L6 13L7 13L7 12ZM12 12L12 14L13 14L13 16L12 16L12 17L13 17L13 16L14 16L14 14L15 14L15 12L14 12L14 13L13 13L13 12ZM9 13L9 14L10 14L10 13ZM17 17L17 20L20 20L20 17ZM18 18L18 19L19 19L19 18ZM10 21L10 22L12 22L12 21ZM12 24L12 25L13 25L13 24ZM0 0L0 7L7 7L7 0ZM1 1L1 6L6 6L6 1ZM2 2L2 5L5 5L5 2ZM18 0L18 7L25 7L25 0ZM19 1L19 6L24 6L24 1ZM20 2L20 5L23 5L23 2ZM0 18L0 25L7 25L7 18ZM1 19L1 24L6 24L6 19ZM2 20L2 23L5 23L5 20Z" fill="#000000"/></g></g></svg>
