<?xml version="1.0" encoding="UTF-8"?>
<svg xmlns="http://www.w3.org/2000/svg" version="1.1" width="500" height="500" viewBox="0 0 500 500"><rect x="0" y="0" width="500" height="500" fill="#ffffff"/><g transform="scale(20)"><g transform="translate(0,0)"><path fill-rule="evenodd" d="M8 0L8 1L9 1L9 6L8 6L8 8L9 8L9 9L7 9L7 8L6 8L6 9L5 9L5 8L3 8L3 9L2 9L2 8L0 8L0 11L1 11L1 12L0 12L0 17L1 17L1 15L2 15L2 17L3 17L3 16L4 16L4 17L5 17L5 16L6 16L6 17L7 17L7 16L6 16L6 15L7 15L7 14L6 14L6 13L8 13L8 16L9 16L9 15L11 15L11 14L13 14L13 15L16 15L16 16L13 16L13 17L12 17L12 16L10 16L10 17L12 17L12 18L11 18L11 20L12 20L12 18L13 18L13 17L14 17L14 18L15 18L15 17L16 17L16 19L15 19L15 22L14 22L14 21L10 21L10 20L8 20L8 22L10 22L10 23L11 23L11 25L12 25L12 24L13 24L13 22L14 22L14 25L15 25L15 23L17 23L17 24L16 24L16 25L17 25L17 24L20 24L20 23L22 23L22 24L21 24L21 25L22 25L22 24L24 24L24 25L25 25L25 21L24 21L24 19L25 19L25 18L24 18L24 19L23 19L23 17L25 17L25 16L24 16L24 15L25 15L25 14L23 14L23 13L24 13L24 12L25 12L25 10L24 10L24 11L21 11L21 13L20 13L20 14L21 14L21 13L22 13L22 14L23 14L23 15L20 15L20 16L18 16L18 14L17 14L17 13L16 13L16 12L14 12L14 14L13 14L13 13L11 13L11 14L9 14L9 13L10 13L10 12L13 12L13 11L16 11L16 9L17 9L17 11L20 11L20 10L23 10L23 9L19 9L19 8L18 8L18 9L17 9L17 6L16 6L16 8L15 8L15 10L13 10L13 9L11 9L11 8L12 8L12 7L13 7L13 8L14 8L14 7L15 7L15 6L14 6L14 5L13 5L13 4L15 4L15 2L14 2L14 1L15 1L15 0L14 0L14 1L13 1L13 0L12 0L12 1L13 1L13 2L12 2L12 3L11 3L11 2L10 2L10 0ZM16 0L16 3L17 3L17 0ZM12 3L12 4L11 4L11 5L12 5L12 4L13 4L13 3ZM16 4L16 5L17 5L17 4ZM9 6L9 8L10 8L10 6ZM11 6L11 7L12 7L12 6ZM13 6L13 7L14 7L14 6ZM24 8L24 9L25 9L25 8ZM4 9L4 10L3 10L3 11L4 11L4 12L3 12L3 13L2 13L2 12L1 12L1 13L2 13L2 14L3 14L3 15L4 15L4 14L5 14L5 15L6 15L6 14L5 14L5 12L9 12L9 11L10 11L10 10L8 10L8 11L6 11L6 10L7 10L7 9L6 9L6 10L5 10L5 9ZM18 9L18 10L19 10L19 9ZM1 10L1 11L2 11L2 10ZM4 10L4 11L5 11L5 10ZM12 10L12 11L13 11L13 10ZM18 12L18 13L19 13L19 12ZM22 12L22 13L23 13L23 12ZM3 13L3 14L4 14L4 13ZM16 14L16 15L17 15L17 14ZM8 17L8 18L9 18L9 19L10 19L10 18L9 18L9 17ZM17 17L17 20L20 20L20 17ZM18 18L18 19L19 19L19 18ZM21 18L21 19L22 19L22 20L21 20L21 21L19 21L19 22L18 22L18 23L19 23L19 22L22 22L22 21L23 21L23 19L22 19L22 18ZM13 19L13 20L14 20L14 19ZM8 23L8 25L9 25L9 23ZM0 0L0 7L7 7L7 0ZM1 1L1 6L6 6L6 1ZM2 2L2 5L5 5L5 2ZM18 0L18 7L25 7L25 0ZM19 1L19 6L24 6L24 1ZM20 2L20 5L23 5L23 2ZM0 18L0 25L7 25L7 18ZM1 19L1 24L6 24L6 19ZM2 20L2 23L5 23L5 20Z" fill="#000000"/></g></g></svg>
