<?xml version="1.0" encoding="UTF-8"?>
<svg xmlns="http://www.w3.org/2000/svg" version="1.1" width="500" height="500" viewBox="0 0 500 500"><rect x="0" y="0" width="500" height="500" fill="#ffffff"/><g transform="scale(20)"><g transform="translate(0,0)"><path fill-rule="evenodd" d="M8 0L8 4L9 4L9 5L8 5L8 7L9 7L9 6L10 6L10 9L11 9L11 8L12 8L12 9L13 9L13 10L15 10L15 11L14 11L14 12L13 12L13 11L12 11L12 12L11 12L11 13L8 13L8 12L10 12L10 11L11 11L11 10L9 10L9 9L8 9L8 10L6 10L6 9L7 9L7 8L4 8L4 9L2 9L2 8L0 8L0 10L1 10L1 9L2 9L2 11L1 11L1 13L0 13L0 14L1 14L1 13L2 13L2 14L4 14L4 16L0 16L0 17L8 17L8 18L9 18L9 19L8 19L8 21L10 21L10 20L11 20L11 21L12 21L12 22L10 22L10 23L11 23L11 24L10 24L10 25L11 25L11 24L12 24L12 25L14 25L14 23L17 23L17 21L18 21L18 23L19 23L19 22L20 22L20 21L22 21L22 22L21 22L21 23L20 23L20 25L25 25L25 24L24 24L24 22L25 22L25 19L23 19L23 18L24 18L24 17L25 17L25 15L24 15L24 17L23 17L23 15L20 15L20 14L21 14L21 13L24 13L24 12L23 12L23 11L22 11L22 9L23 9L23 10L24 10L24 9L25 9L25 8L21 8L21 9L20 9L20 8L19 8L19 11L18 11L18 13L17 13L17 11L16 11L16 9L17 9L17 10L18 10L18 9L17 9L17 8L16 8L16 7L17 7L17 5L16 5L16 3L15 3L15 2L14 2L14 0L13 0L13 1L11 1L11 2L12 2L12 5L13 5L13 2L14 2L14 3L15 3L15 4L14 4L14 5L16 5L16 7L15 7L15 6L14 6L14 7L13 7L13 6L12 6L12 7L11 7L11 3L10 3L10 2L9 2L9 0ZM15 0L15 1L16 1L16 0ZM12 7L12 8L13 8L13 7ZM14 7L14 9L16 9L16 8L15 8L15 7ZM4 9L4 10L3 10L3 11L4 11L4 13L5 13L5 16L7 16L7 15L8 15L8 13L5 13L5 11L4 11L4 10L5 10L5 9ZM20 10L20 11L19 11L19 13L18 13L18 14L17 14L17 13L16 13L16 11L15 11L15 13L13 13L13 12L12 12L12 13L11 13L11 14L12 14L12 13L13 13L13 14L15 14L15 13L16 13L16 15L18 15L18 16L19 16L19 13L21 13L21 12L22 12L22 11L21 11L21 10ZM6 11L6 12L7 12L7 11ZM20 11L20 12L21 12L21 11ZM6 14L6 15L7 15L7 14ZM9 14L9 15L10 15L10 17L9 17L9 18L10 18L10 19L9 19L9 20L10 20L10 19L11 19L11 20L12 20L12 21L13 21L13 22L16 22L16 20L15 20L15 21L13 21L13 20L14 20L14 19L16 19L16 18L13 18L13 17L12 17L12 16L13 16L13 15L12 15L12 16L11 16L11 15L10 15L10 14ZM14 15L14 17L16 17L16 16L15 16L15 15ZM21 16L21 17L22 17L22 16ZM10 17L10 18L11 18L11 17ZM17 17L17 20L20 20L20 17ZM18 18L18 19L19 19L19 18ZM21 18L21 19L22 19L22 18ZM12 19L12 20L13 20L13 19ZM23 20L23 21L24 21L24 20ZM8 23L8 25L9 25L9 23ZM12 23L12 24L13 24L13 23ZM0 0L0 7L7 7L7 0ZM1 1L1 6L6 6L6 1ZM2 2L2 5L5 5L5 2ZM18 0L18 7L25 7L25 0ZM19 1L19 6L24 6L24 1ZM20 2L20 5L23 5L23 2ZM0 18L0 25L7 25L7 18ZM1 19L1 24L6 24L6 19ZM2 20L2 23L5 23L5 20Z" fill="#000000"/></g></g></svg>
