<?xml version="1.0" encoding="UTF-8"?>
<svg xmlns="http://www.w3.org/2000/svg" version="1.1" width="500" height="500" viewBox="0 0 500 500"><rect x="0" y="0" width="500" height="500" fill="#ffffff"/><g transform="scale(20)"><g transform="translate(0,0)"><path fill-rule="evenodd" d="M9 0L9 1L8 1L8 2L9 2L9 3L8 3L8 4L9 4L9 5L8 5L8 7L9 7L9 8L6 8L6 9L5 9L5 8L0 8L0 9L5 9L5 10L2 10L2 11L1 11L1 10L0 10L0 12L2 12L2 11L5 11L5 10L6 10L6 11L7 11L7 12L6 12L6 13L7 13L7 14L5 14L5 15L3 15L3 14L2 14L2 13L0 13L0 17L1 17L1 14L2 14L2 15L3 15L3 16L2 16L2 17L3 17L3 16L4 16L4 17L5 17L5 15L7 15L7 14L8 14L8 15L9 15L9 16L8 16L8 19L9 19L9 20L8 20L8 25L11 25L11 22L15 22L15 21L17 21L17 22L16 22L16 23L15 23L15 25L16 25L16 24L17 24L17 22L19 22L19 21L20 21L20 22L21 22L21 23L23 23L23 20L21 20L21 18L23 18L23 19L24 19L24 21L25 21L25 18L24 18L24 17L25 17L25 16L24 16L24 15L25 15L25 14L23 14L23 13L24 13L24 11L25 11L25 10L24 10L24 8L23 8L23 10L22 10L22 11L23 11L23 12L20 12L20 11L21 11L21 10L20 10L20 8L19 8L19 10L20 10L20 11L16 11L16 10L17 10L17 9L18 9L18 8L17 8L17 9L16 9L16 7L17 7L17 4L16 4L16 5L14 5L14 3L13 3L13 2L12 2L12 3L13 3L13 4L9 4L9 3L10 3L10 2L11 2L11 1L14 1L14 2L15 2L15 3L17 3L17 2L16 2L16 1L17 1L17 0L16 0L16 1L14 1L14 0ZM11 5L11 8L9 8L9 9L6 9L6 10L7 10L7 11L10 11L10 10L9 10L9 9L13 9L13 10L11 10L11 12L10 12L10 13L9 13L9 15L10 15L10 17L9 17L9 19L10 19L10 17L13 17L13 16L14 16L14 18L11 18L11 20L9 20L9 21L10 21L10 22L9 22L9 24L10 24L10 22L11 22L11 20L12 20L12 21L13 21L13 20L14 20L14 21L15 21L15 20L16 20L16 17L15 17L15 16L17 16L17 15L18 15L18 16L19 16L19 15L18 15L18 14L19 14L19 13L20 13L20 15L21 15L21 16L23 16L23 17L24 17L24 16L23 16L23 14L22 14L22 13L20 13L20 12L19 12L19 13L18 13L18 14L17 14L17 15L14 15L14 13L15 13L15 14L16 14L16 13L15 13L15 12L14 12L14 11L15 11L15 10L16 10L16 9L15 9L15 8L14 8L14 5L13 5L13 7L12 7L12 5ZM9 6L9 7L10 7L10 6ZM15 6L15 7L16 7L16 6ZM13 8L13 9L14 9L14 10L13 10L13 11L12 11L12 12L13 12L13 13L11 13L11 14L12 14L12 16L13 16L13 13L14 13L14 12L13 12L13 11L14 11L14 10L15 10L15 9L14 9L14 8ZM21 8L21 9L22 9L22 8ZM4 12L4 13L5 13L5 12ZM6 16L6 17L7 17L7 16ZM17 17L17 20L20 20L20 17ZM14 18L14 20L15 20L15 18ZM18 18L18 19L19 19L19 18ZM12 19L12 20L13 20L13 19ZM21 21L21 22L22 22L22 21ZM24 22L24 24L20 24L20 23L19 23L19 24L18 24L18 25L19 25L19 24L20 24L20 25L25 25L25 22ZM13 24L13 25L14 25L14 24ZM0 0L0 7L7 7L7 0ZM1 1L1 6L6 6L6 1ZM2 2L2 5L5 5L5 2ZM18 0L18 7L25 7L25 0ZM19 1L19 6L24 6L24 1ZM20 2L20 5L23 5L23 2ZM0 18L0 25L7 25L7 18ZM1 19L1 24L6 24L6 19ZM2 20L2 23L5 23L5 20Z" fill="#000000"/></g></g></svg>
