<?xml version="1.0" encoding="UTF-8"?>
<svg xmlns="http://www.w3.org/2000/svg" version="1.1" width="500" height="500" viewBox="0 0 500 500"><rect x="0" y="0" width="500" height="500" fill="#ffffff"/><g transform="scale(20)"><g transform="translate(0,0)"><path fill-rule="evenodd" d="M10 0L10 2L11 2L11 0ZM12 0L12 1L13 1L13 0ZM14 0L14 1L15 1L15 2L14 2L14 3L13 3L13 2L12 2L12 4L14 4L14 5L11 5L11 6L10 6L10 4L11 4L11 3L8 3L8 4L9 4L9 5L8 5L8 7L9 7L9 8L6 8L6 9L5 9L5 8L0 8L0 9L5 9L5 10L4 10L4 12L5 12L5 10L6 10L6 11L7 11L7 12L6 12L6 13L3 13L3 14L4 14L4 17L8 17L8 19L9 19L9 18L10 18L10 17L12 17L12 18L15 18L15 17L14 17L14 16L16 16L16 19L14 19L14 20L13 20L13 19L12 19L12 21L14 21L14 22L11 22L11 23L10 23L10 20L11 20L11 19L10 19L10 20L8 20L8 25L9 25L9 24L11 24L11 25L13 25L13 24L12 24L12 23L15 23L15 25L16 25L16 24L17 24L17 25L25 25L25 20L24 20L24 19L25 19L25 18L24 18L24 17L25 17L25 16L24 16L24 15L25 15L25 14L24 14L24 13L25 13L25 12L24 12L24 13L23 13L23 12L22 12L22 13L21 13L21 12L20 12L20 11L19 11L19 12L18 12L18 10L15 10L15 9L18 9L18 8L17 8L17 6L16 6L16 5L15 5L15 4L17 4L17 2L16 2L16 1L15 1L15 0ZM8 1L8 2L9 2L9 1ZM15 2L15 3L14 3L14 4L15 4L15 3L16 3L16 2ZM9 6L9 7L10 7L10 6ZM11 6L11 7L12 7L12 9L11 9L11 8L10 8L10 9L6 9L6 10L9 10L9 11L8 11L8 12L11 12L11 13L9 13L9 14L8 14L8 15L6 15L6 14L7 14L7 13L6 13L6 14L5 14L5 15L6 15L6 16L8 16L8 15L9 15L9 17L10 17L10 16L11 16L11 14L14 14L14 13L15 13L15 14L17 14L17 15L16 15L16 16L23 16L23 17L22 17L22 18L21 18L21 20L23 20L23 17L24 17L24 16L23 16L23 15L18 15L18 14L19 14L19 13L18 13L18 14L17 14L17 13L15 13L15 12L16 12L16 11L15 11L15 12L14 12L14 11L13 11L13 10L14 10L14 9L15 9L15 7L16 7L16 6L15 6L15 7L14 7L14 6L13 6L13 7L12 7L12 6ZM13 8L13 9L12 9L12 10L13 10L13 9L14 9L14 8ZM19 8L19 10L20 10L20 8ZM21 8L21 10L23 10L23 11L25 11L25 10L23 10L23 9L24 9L24 8L23 8L23 9L22 9L22 8ZM10 9L10 11L11 11L11 9ZM0 10L0 12L3 12L3 10L2 10L2 11L1 11L1 10ZM12 11L12 13L14 13L14 12L13 12L13 11ZM0 13L0 17L1 17L1 14L2 14L2 13ZM20 13L20 14L21 14L21 13ZM22 13L22 14L23 14L23 13ZM9 14L9 15L10 15L10 14ZM12 15L12 17L13 17L13 16L14 16L14 15ZM2 16L2 17L3 17L3 16ZM17 17L17 20L20 20L20 17ZM18 18L18 19L19 19L19 18ZM14 20L14 21L15 21L15 23L16 23L16 22L17 22L17 23L19 23L19 22L17 22L17 21L15 21L15 20ZM20 22L20 24L21 24L21 22ZM23 22L23 23L22 23L22 24L24 24L24 22ZM0 0L0 7L7 7L7 0ZM1 1L1 6L6 6L6 1ZM2 2L2 5L5 5L5 2ZM18 0L18 7L25 7L25 0ZM19 1L19 6L24 6L24 1ZM20 2L20 5L23 5L23 2ZM0 18L0 25L7 25L7 18ZM1 19L1 24L6 24L6 19ZM2 20L2 23L5 23L5 20Z" fill="#000000"/></g></g></svg>
