<?xml version="1.0" encoding="UTF-8"?>
<svg xmlns="http://www.w3.org/2000/svg" version="1.1" width="500" height="500" viewBox="0 0 500 500"><rect x="0" y="0" width="500" height="500" fill="#ffffff"/><g transform="scale(20)"><g transform="translate(0,0)"><path fill-rule="evenodd" d="M9 0L9 1L8 1L8 2L9 2L9 3L8 3L8 4L10 4L10 7L11 7L11 4L12 4L12 5L15 5L15 6L14 6L14 7L15 7L15 9L14 9L14 8L13 8L13 6L12 6L12 9L14 9L14 10L15 10L15 12L16 12L16 13L17 13L17 12L18 12L18 13L19 13L19 14L20 14L20 15L21 15L21 14L20 14L20 13L22 13L22 14L23 14L23 16L22 16L22 17L21 17L21 16L19 16L19 15L18 15L18 14L15 14L15 13L14 13L14 12L13 12L13 13L12 13L12 11L13 11L13 10L11 10L11 11L10 11L10 9L11 9L11 8L6 8L6 9L5 9L5 8L0 8L0 9L5 9L5 10L3 10L3 11L2 11L2 10L1 10L1 11L0 11L0 17L1 17L1 14L2 14L2 17L3 17L3 13L1 13L1 11L2 11L2 12L3 12L3 11L5 11L5 12L6 12L6 13L7 13L7 14L4 14L4 15L5 15L5 17L7 17L7 16L8 16L8 19L9 19L9 20L8 20L8 25L9 25L9 24L11 24L11 25L12 25L12 24L13 24L13 25L14 25L14 24L13 24L13 23L14 23L14 22L15 22L15 23L16 23L16 24L15 24L15 25L16 25L16 24L17 24L17 25L25 25L25 21L23 21L23 20L22 20L22 21L23 21L23 22L24 22L24 24L21 24L21 23L22 23L22 22L21 22L21 18L22 18L22 19L24 19L24 20L25 20L25 18L24 18L24 17L25 17L25 16L24 16L24 15L25 15L25 14L24 14L24 13L25 13L25 12L24 12L24 13L23 13L23 12L22 12L22 11L21 11L21 12L20 12L20 8L19 8L19 10L18 10L18 8L17 8L17 5L15 5L15 4L14 4L14 3L16 3L16 4L17 4L17 3L16 3L16 2L17 2L17 1L15 1L15 0L14 0L14 1L11 1L11 2L10 2L10 0ZM12 2L12 4L13 4L13 3L14 3L14 2ZM10 3L10 4L11 4L11 3ZM8 5L8 7L9 7L9 5ZM15 6L15 7L16 7L16 6ZM21 8L21 9L22 9L22 10L23 10L23 11L25 11L25 10L23 10L23 9L24 9L24 8L23 8L23 9L22 9L22 8ZM6 9L6 10L7 10L7 9ZM8 9L8 11L6 11L6 12L8 12L8 11L9 11L9 9ZM15 9L15 10L17 10L17 11L16 11L16 12L17 12L17 11L18 11L18 12L19 12L19 13L20 13L20 12L19 12L19 11L18 11L18 10L17 10L17 9ZM10 12L10 13L8 13L8 14L7 14L7 15L6 15L6 16L7 16L7 15L11 15L11 16L10 16L10 17L9 17L9 19L10 19L10 21L11 21L11 24L12 24L12 23L13 23L13 22L14 22L14 21L15 21L15 22L16 22L16 23L17 23L17 22L18 22L18 23L19 23L19 22L18 22L18 21L17 21L17 22L16 22L16 21L15 21L15 20L14 20L14 19L16 19L16 18L13 18L13 17L12 17L12 15L13 15L13 16L14 16L14 17L16 17L16 16L15 16L15 14L14 14L14 13L13 13L13 14L12 14L12 13L11 13L11 12ZM10 13L10 14L11 14L11 13ZM13 14L13 15L14 15L14 14ZM23 16L23 17L22 17L22 18L23 18L23 17L24 17L24 16ZM17 17L17 20L20 20L20 17ZM10 18L10 19L11 19L11 21L12 21L12 22L13 22L13 21L14 21L14 20L12 20L12 19L13 19L13 18ZM18 18L18 19L19 19L19 18ZM20 22L20 23L21 23L21 22ZM0 0L0 7L7 7L7 0ZM1 1L1 6L6 6L6 1ZM2 2L2 5L5 5L5 2ZM18 0L18 7L25 7L25 0ZM19 1L19 6L24 6L24 1ZM20 2L20 5L23 5L23 2ZM0 18L0 25L7 25L7 18ZM1 19L1 24L6 24L6 19ZM2 20L2 23L5 23L5 20Z" fill="#000000"/></g></g></svg>
