<?xml version="1.0" encoding="UTF-8"?>
<svg xmlns="http://www.w3.org/2000/svg" version="1.1" width="500" height="500" viewBox="0 0 500 500"><rect x="0" y="0" width="500" height="500" fill="#ffffff"/><g transform="scale(20)"><g transform="translate(0,0)"><path fill-rule="evenodd" d="M9 0L9 1L8 1L8 2L9 2L9 3L8 3L8 4L10 4L10 7L11 7L11 4L12 4L12 5L15 5L15 6L14 6L14 7L15 7L15 6L16 6L16 7L17 7L17 5L15 5L15 4L17 4L17 3L16 3L16 1L15 1L15 0L14 0L14 1L15 1L15 2L14 2L14 3L13 3L13 4L12 4L12 2L13 2L13 1L11 1L11 2L10 2L10 0ZM10 3L10 4L11 4L11 3ZM14 3L14 4L15 4L15 3ZM8 5L8 7L9 7L9 5ZM12 6L12 9L14 9L14 10L11 10L11 11L10 11L10 9L11 9L11 8L6 8L6 9L5 9L5 8L0 8L0 10L1 10L1 9L5 9L5 10L4 10L4 11L3 11L3 12L2 12L2 11L1 11L1 13L0 13L0 17L1 17L1 14L2 14L2 13L3 13L3 15L5 15L5 14L6 14L6 15L7 15L7 16L5 16L5 17L8 17L8 19L10 19L10 18L11 18L11 21L12 21L12 22L13 22L13 23L12 23L12 25L13 25L13 24L14 24L14 25L16 25L16 24L17 24L17 25L19 25L19 24L18 24L18 23L16 23L16 24L14 24L14 23L15 23L15 22L14 22L14 21L12 21L12 19L13 19L13 18L11 18L11 13L12 13L12 14L15 14L15 17L14 17L14 16L13 16L13 15L12 15L12 17L14 17L14 20L15 20L15 21L16 21L16 22L17 22L17 21L18 21L18 22L19 22L19 23L20 23L20 24L21 24L21 23L20 23L20 22L21 22L21 21L22 21L22 23L23 23L23 22L24 22L24 24L22 24L22 25L25 25L25 20L21 20L21 19L22 19L22 18L21 18L21 16L20 16L20 14L19 14L19 15L18 15L18 16L17 16L17 14L18 14L18 13L19 13L19 12L20 12L20 13L21 13L21 14L22 14L22 15L23 15L23 16L22 16L22 17L23 17L23 19L25 19L25 18L24 18L24 17L25 17L25 16L24 16L24 15L25 15L25 14L24 14L24 13L25 13L25 12L24 12L24 11L25 11L25 10L24 10L24 11L23 11L23 12L22 12L22 13L21 13L21 11L20 11L20 10L18 10L18 8L15 8L15 9L14 9L14 8L13 8L13 6ZM19 8L19 9L20 9L20 8ZM21 8L21 9L22 9L22 10L23 10L23 9L24 9L24 8L23 8L23 9L22 9L22 8ZM6 9L6 10L5 10L5 12L7 12L7 13L6 13L6 14L7 14L7 15L9 15L9 16L8 16L8 17L9 17L9 18L10 18L10 14L8 14L8 12L7 12L7 11L9 11L9 9ZM15 9L15 10L14 10L14 11L12 11L12 13L13 13L13 12L14 12L14 13L15 13L15 14L17 14L17 13L18 13L18 12L19 12L19 11L16 11L16 12L14 12L14 11L15 11L15 10L17 10L17 9ZM6 10L6 11L7 11L7 10ZM10 12L10 13L11 13L11 12ZM16 12L16 13L17 13L17 12ZM23 12L23 13L22 13L22 14L23 14L23 13L24 13L24 12ZM3 16L3 17L4 17L4 16ZM23 16L23 17L24 17L24 16ZM15 17L15 19L16 19L16 17ZM17 17L17 20L20 20L20 17ZM18 18L18 19L19 19L19 18ZM8 20L8 25L9 25L9 21L10 21L10 20ZM19 21L19 22L20 22L20 21ZM10 22L10 24L11 24L11 22ZM0 0L0 7L7 7L7 0ZM1 1L1 6L6 6L6 1ZM2 2L2 5L5 5L5 2ZM18 0L18 7L25 7L25 0ZM19 1L19 6L24 6L24 1ZM20 2L20 5L23 5L23 2ZM0 18L0 25L7 25L7 18ZM1 19L1 24L6 24L6 19ZM2 20L2 23L5 23L5 20Z" fill="#000000"/></g></g></svg>
