<?xml version="1.0" encoding="UTF-8"?>
<svg xmlns="http://www.w3.org/2000/svg" version="1.1" width="500" height="500" viewBox="0 0 500 500"><rect x="0" y="0" width="500" height="500" fill="#ffffff"/><g transform="scale(20)"><g transform="translate(0,0)"><path fill-rule="evenodd" d="M8 0L8 4L10 4L10 3L11 3L11 4L12 4L12 2L11 2L11 0ZM12 0L12 1L14 1L14 2L15 2L15 1L16 1L16 3L15 3L15 5L11 5L11 6L10 6L10 7L9 7L9 5L8 5L8 7L9 7L9 8L10 8L10 7L11 7L11 6L12 6L12 8L11 8L11 9L7 9L7 8L4 8L4 9L2 9L2 8L0 8L0 10L2 10L2 11L1 11L1 12L0 12L0 14L2 14L2 15L3 15L3 17L5 17L5 15L7 15L7 16L6 16L6 17L7 17L7 16L8 16L8 13L9 13L9 14L10 14L10 15L11 15L11 14L10 14L10 13L11 13L11 12L12 12L12 13L13 13L13 14L15 14L15 15L14 15L14 16L13 16L13 15L12 15L12 16L10 16L10 18L11 18L11 20L10 20L10 21L11 21L11 20L12 20L12 21L13 21L13 22L15 22L15 23L14 23L14 24L13 24L13 23L12 23L12 24L11 24L11 25L12 25L12 24L13 24L13 25L15 25L15 23L17 23L17 25L19 25L19 24L21 24L21 23L20 23L20 21L21 21L21 22L23 22L23 23L22 23L22 25L25 25L25 24L24 24L24 22L25 22L25 19L24 19L24 21L23 21L23 19L22 19L22 21L21 21L21 15L22 15L22 17L23 17L23 18L24 18L24 17L25 17L25 15L24 15L24 17L23 17L23 15L22 15L22 14L21 14L21 13L23 13L23 14L24 14L24 13L25 13L25 12L24 12L24 11L23 11L23 10L22 10L22 12L21 12L21 11L20 11L20 10L21 10L21 9L25 9L25 8L21 8L21 9L20 9L20 8L19 8L19 11L18 11L18 13L17 13L17 12L16 12L16 13L14 13L14 11L17 11L17 10L18 10L18 9L17 9L17 5L16 5L16 3L17 3L17 1L16 1L16 0L15 0L15 1L14 1L14 0ZM9 2L9 3L10 3L10 2ZM13 3L13 4L14 4L14 3ZM15 5L15 7L14 7L14 6L13 6L13 8L12 8L12 9L11 9L11 10L8 10L8 11L9 11L9 13L10 13L10 11L11 11L11 10L12 10L12 9L13 9L13 10L14 10L14 9L13 9L13 8L15 8L15 7L16 7L16 5ZM6 9L6 10L5 10L5 11L3 11L3 12L2 12L2 14L3 14L3 15L5 15L5 14L7 14L7 13L8 13L8 12L7 12L7 11L6 11L6 10L7 10L7 9ZM16 9L16 10L17 10L17 9ZM12 11L12 12L13 12L13 11ZM5 12L5 13L4 13L4 14L5 14L5 13L7 13L7 12ZM20 12L20 13L21 13L21 12ZM16 13L16 16L15 16L15 17L13 17L13 16L12 16L12 17L11 17L11 18L12 18L12 17L13 17L13 18L15 18L15 19L14 19L14 21L15 21L15 22L17 22L17 23L18 23L18 24L19 24L19 23L18 23L18 21L16 21L16 20L15 20L15 19L16 19L16 18L15 18L15 17L16 17L16 16L19 16L19 15L21 15L21 14L19 14L19 13L18 13L18 14L17 14L17 13ZM0 16L0 17L2 17L2 16ZM8 17L8 18L9 18L9 17ZM17 17L17 20L20 20L20 17ZM18 18L18 19L19 19L19 18ZM8 19L8 21L9 21L9 19ZM12 19L12 20L13 20L13 19ZM8 23L8 25L10 25L10 23ZM0 0L0 7L7 7L7 0ZM1 1L1 6L6 6L6 1ZM2 2L2 5L5 5L5 2ZM18 0L18 7L25 7L25 0ZM19 1L19 6L24 6L24 1ZM20 2L20 5L23 5L23 2ZM0 18L0 25L7 25L7 18ZM1 19L1 24L6 24L6 19ZM2 20L2 23L5 23L5 20Z" fill="#000000"/></g></g></svg>
