<?xml version="1.0" encoding="UTF-8"?>
<svg xmlns="http://www.w3.org/2000/svg" version="1.1" width="500" height="500" viewBox="0 0 500 500"><rect x="0" y="0" width="500" height="500" fill="#ffffff"/><g transform="scale(20)"><g transform="translate(0,0)"><path fill-rule="evenodd" d="M8 0L8 1L9 1L9 2L10 2L10 3L11 3L11 1L13 1L13 2L12 2L12 4L11 4L11 5L10 5L10 4L9 4L9 5L10 5L10 8L9 8L9 6L8 6L8 8L9 8L9 9L7 9L7 8L6 8L6 9L7 9L7 10L6 10L6 11L5 11L5 10L3 10L3 9L5 9L5 8L3 8L3 9L2 9L2 8L0 8L0 9L1 9L1 10L0 10L0 17L1 17L1 15L2 15L2 16L3 16L3 17L8 17L8 18L10 18L10 19L12 19L12 20L11 20L11 22L9 22L9 21L10 21L10 20L8 20L8 22L9 22L9 23L8 23L8 25L9 25L9 24L10 24L10 25L12 25L12 24L13 24L13 21L12 21L12 20L15 20L15 23L14 23L14 25L15 25L15 24L16 24L16 25L18 25L18 24L19 24L19 25L21 25L21 24L24 24L24 25L25 25L25 21L23 21L23 23L21 23L21 22L22 22L22 20L21 20L21 19L22 19L22 18L23 18L23 17L25 17L25 16L24 16L24 15L25 15L25 14L24 14L24 13L25 13L25 10L24 10L24 13L23 13L23 14L22 14L22 15L21 15L21 16L19 16L19 14L17 14L17 16L16 16L16 20L15 20L15 19L12 19L12 18L13 18L13 17L14 17L14 18L15 18L15 15L16 15L16 11L17 11L17 12L18 12L18 13L19 13L19 11L20 11L20 10L22 10L22 11L21 11L21 13L20 13L20 14L21 14L21 13L22 13L22 12L23 12L23 9L19 9L19 8L18 8L18 9L15 9L15 12L14 12L14 13L15 13L15 15L14 15L14 14L13 14L13 13L12 13L12 12L13 12L13 8L15 8L15 6L14 6L14 7L13 7L13 5L14 5L14 4L17 4L17 3L16 3L16 2L17 2L17 0L16 0L16 2L15 2L15 1L13 1L13 0L11 0L11 1L9 1L9 0ZM14 2L14 3L15 3L15 2ZM12 4L12 5L11 5L11 7L12 7L12 8L13 8L13 7L12 7L12 5L13 5L13 4ZM16 6L16 7L17 7L17 6ZM24 8L24 9L25 9L25 8ZM10 9L10 10L9 10L9 11L8 11L8 10L7 10L7 11L6 11L6 12L7 12L7 13L6 13L6 14L7 14L7 15L3 15L3 14L4 14L4 12L5 12L5 11L3 11L3 14L2 14L2 15L3 15L3 16L7 16L7 15L10 15L10 14L11 14L11 16L9 16L9 17L11 17L11 18L12 18L12 17L13 17L13 16L14 16L14 15L13 15L13 14L11 14L11 12L10 12L10 13L9 13L9 11L10 11L10 10L12 10L12 9ZM18 9L18 10L17 10L17 11L18 11L18 10L19 10L19 9ZM1 10L1 11L2 11L2 10ZM8 13L8 14L9 14L9 13ZM12 15L12 16L11 16L11 17L12 17L12 16L13 16L13 15ZM21 16L21 18L22 18L22 16ZM17 17L17 20L20 20L20 17ZM18 18L18 19L19 19L19 18ZM24 18L24 19L23 19L23 20L24 20L24 19L25 19L25 18ZM16 21L16 24L17 24L17 23L19 23L19 22L21 22L21 21L19 21L19 22L17 22L17 21ZM10 23L10 24L11 24L11 23ZM0 0L0 7L7 7L7 0ZM1 1L1 6L6 6L6 1ZM2 2L2 5L5 5L5 2ZM18 0L18 7L25 7L25 0ZM19 1L19 6L24 6L24 1ZM20 2L20 5L23 5L23 2ZM0 18L0 25L7 25L7 18ZM1 19L1 24L6 24L6 19ZM2 20L2 23L5 23L5 20Z" fill="#000000"/></g></g></svg>
