<?xml version="1.0" encoding="UTF-8"?>
<svg xmlns="http://www.w3.org/2000/svg" version="1.1" width="500" height="500" viewBox="0 0 500 500"><rect x="0" y="0" width="500" height="500" fill="#ffffff"/><g transform="scale(20)"><g transform="translate(0,0)"><path fill-rule="evenodd" d="M8 0L8 4L9 4L9 5L8 5L8 7L9 7L9 6L10 6L10 9L11 9L11 8L12 8L12 9L13 9L13 11L12 11L12 12L11 12L11 13L10 13L10 14L9 14L9 15L11 15L11 16L12 16L12 17L13 17L13 16L12 16L12 15L13 15L13 14L14 14L14 15L17 15L17 16L16 16L16 17L15 17L15 16L14 16L14 17L15 17L15 18L16 18L16 19L14 19L14 20L13 20L13 19L12 19L12 20L11 20L11 18L10 18L10 16L9 16L9 17L8 17L8 16L6 16L6 17L8 17L8 18L10 18L10 20L11 20L11 21L9 21L9 19L8 19L8 21L9 21L9 23L8 23L8 25L11 25L11 24L12 24L12 25L14 25L14 23L16 23L16 21L18 21L18 22L17 22L17 23L18 23L18 24L17 24L17 25L21 25L21 24L20 24L20 22L19 22L19 21L21 21L21 22L22 22L22 25L25 25L25 24L24 24L24 22L25 22L25 19L22 19L22 18L21 18L21 17L23 17L23 18L24 18L24 17L25 17L25 15L24 15L24 17L23 17L23 14L24 14L24 13L25 13L25 12L23 12L23 10L24 10L24 9L25 9L25 8L21 8L21 9L20 9L20 8L19 8L19 9L20 9L20 10L19 10L19 11L20 11L20 12L16 12L16 9L17 9L17 8L16 8L16 9L15 9L15 8L14 8L14 9L13 9L13 8L12 8L12 7L13 7L13 6L14 6L14 7L15 7L15 5L16 5L16 3L17 3L17 1L16 1L16 0L15 0L15 1L16 1L16 2L15 2L15 5L13 5L13 4L14 4L14 3L13 3L13 2L14 2L14 0L13 0L13 1L11 1L11 2L12 2L12 5L13 5L13 6L12 6L12 7L11 7L11 3L10 3L10 2L9 2L9 0ZM16 6L16 7L17 7L17 6ZM0 8L0 9L1 9L1 10L0 10L0 11L1 11L1 10L3 10L3 11L2 11L2 12L0 12L0 14L3 14L3 15L2 15L2 16L0 16L0 17L3 17L3 15L4 15L4 16L5 16L5 15L8 15L8 14L6 14L6 13L9 13L9 12L10 12L10 11L11 11L11 10L9 10L9 9L8 9L8 12L6 12L6 11L7 11L7 10L6 10L6 11L4 11L4 10L5 10L5 9L7 9L7 8L4 8L4 9L2 9L2 8ZM14 9L14 10L15 10L15 9ZM21 9L21 10L23 10L23 9ZM13 11L13 12L12 12L12 13L11 13L11 14L12 14L12 13L14 13L14 14L15 14L15 13L16 13L16 14L17 14L17 15L18 15L18 16L22 16L22 14L23 14L23 13L22 13L22 11L21 11L21 12L20 12L20 13L18 13L18 14L17 14L17 13L16 13L16 12L15 12L15 13L14 13L14 11ZM4 12L4 13L3 13L3 14L4 14L4 13L5 13L5 12ZM20 13L20 15L21 15L21 14L22 14L22 13ZM17 17L17 20L20 20L20 17ZM18 18L18 19L19 19L19 18ZM21 19L21 21L22 21L22 19ZM12 20L12 21L11 21L11 22L12 22L12 21L13 21L13 22L14 22L14 21L13 21L13 20ZM15 20L15 21L16 21L16 20ZM10 23L10 24L11 24L11 23ZM12 23L12 24L13 24L13 23ZM0 0L0 7L7 7L7 0ZM1 1L1 6L6 6L6 1ZM2 2L2 5L5 5L5 2ZM18 0L18 7L25 7L25 0ZM19 1L19 6L24 6L24 1ZM20 2L20 5L23 5L23 2ZM0 18L0 25L7 25L7 18ZM1 19L1 24L6 24L6 19ZM2 20L2 23L5 23L5 20Z" fill="#000000"/></g></g></svg>
