<?xml version="1.0" encoding="UTF-8"?>
<svg xmlns="http://www.w3.org/2000/svg" version="1.1" width="500" height="500" viewBox="0 0 500 500"><rect x="0" y="0" width="500" height="500" fill="#ffffff"/><g transform="scale(20)"><g transform="translate(0,0)"><path fill-rule="evenodd" d="M8 0L8 4L9 4L9 5L8 5L8 7L9 7L9 6L10 6L10 9L11 9L11 8L12 8L12 9L13 9L13 10L14 10L14 13L15 13L15 16L14 16L14 17L13 17L13 16L12 16L12 15L13 15L13 13L12 13L12 12L13 12L13 11L12 11L12 12L11 12L11 13L10 13L10 14L9 14L9 15L8 15L8 14L3 14L3 13L5 13L5 11L7 11L7 10L9 10L9 12L8 12L8 13L9 13L9 12L10 12L10 11L11 11L11 10L9 10L9 9L7 9L7 8L4 8L4 9L2 9L2 8L0 8L0 9L1 9L1 10L3 10L3 12L2 12L2 11L0 11L0 12L1 12L1 13L0 13L0 14L1 14L1 13L2 13L2 14L3 14L3 15L2 15L2 16L0 16L0 17L2 17L2 16L4 16L4 17L5 17L5 16L4 16L4 15L8 15L8 16L6 16L6 17L8 17L8 18L9 18L9 19L8 19L8 21L9 21L9 19L10 19L10 18L11 18L11 17L8 17L8 16L9 16L9 15L10 15L10 16L12 16L12 17L13 17L13 19L12 19L12 20L10 20L10 21L12 21L12 22L10 22L10 24L13 24L13 22L14 22L14 21L15 21L15 20L16 20L16 21L18 21L18 23L17 23L17 22L16 22L16 23L17 23L17 25L18 25L18 23L20 23L20 24L19 24L19 25L21 25L21 23L20 23L20 21L21 21L21 22L22 22L22 25L25 25L25 24L24 24L24 22L25 22L25 21L23 21L23 20L24 20L24 19L23 19L23 18L24 18L24 17L25 17L25 15L24 15L24 17L23 17L23 14L24 14L24 13L25 13L25 11L24 11L24 12L23 12L23 10L22 10L22 9L25 9L25 8L21 8L21 9L20 9L20 8L19 8L19 9L20 9L20 10L19 10L19 11L18 11L18 9L17 9L17 5L16 5L16 3L17 3L17 2L16 2L16 3L15 3L15 1L16 1L16 0L15 0L15 1L11 1L11 2L12 2L12 5L13 5L13 6L12 6L12 7L11 7L11 3L10 3L10 2L9 2L9 0ZM13 2L13 3L14 3L14 5L15 5L15 7L16 7L16 5L15 5L15 3L14 3L14 2ZM13 6L13 7L12 7L12 8L13 8L13 9L14 9L14 10L15 10L15 9L16 9L16 10L17 10L17 9L16 9L16 8L15 8L15 9L14 9L14 6ZM6 9L6 10L7 10L7 9ZM4 10L4 11L5 11L5 10ZM20 10L20 13L18 13L18 11L17 11L17 13L16 13L16 16L19 16L19 15L18 15L18 14L20 14L20 16L22 16L22 14L23 14L23 13L22 13L22 10ZM6 12L6 13L7 13L7 12ZM11 13L11 14L12 14L12 13ZM20 13L20 14L22 14L22 13ZM14 17L14 18L15 18L15 19L13 19L13 21L14 21L14 20L15 20L15 19L16 19L16 17ZM17 17L17 20L20 20L20 17ZM22 17L22 18L23 18L23 17ZM18 18L18 19L19 19L19 18ZM21 20L21 21L22 21L22 20ZM8 23L8 25L9 25L9 23ZM14 24L14 25L15 25L15 24ZM0 0L0 7L7 7L7 0ZM1 1L1 6L6 6L6 1ZM2 2L2 5L5 5L5 2ZM18 0L18 7L25 7L25 0ZM19 1L19 6L24 6L24 1ZM20 2L20 5L23 5L23 2ZM0 18L0 25L7 25L7 18ZM1 19L1 24L6 24L6 19ZM2 20L2 23L5 23L5 20Z" fill="#000000"/></g></g></svg>
