<?xml version="1.0" encoding="UTF-8"?>
<svg xmlns="http://www.w3.org/2000/svg" version="1.1" width="500" height="500" viewBox="0 0 500 500"><rect x="0" y="0" width="500" height="500" fill="#ffffff"/><g transform="scale(20)"><g transform="translate(0,0)"><path fill-rule="evenodd" d="M9 0L9 1L8 1L8 3L9 3L9 4L8 4L8 8L6 8L6 9L8 9L8 11L7 11L7 10L5 10L5 9L4 9L4 8L3 8L3 9L4 9L4 10L2 10L2 8L0 8L0 10L1 10L1 12L0 12L0 13L1 13L1 14L0 14L0 15L1 15L1 16L0 16L0 17L4 17L4 16L2 16L2 15L1 15L1 14L3 14L3 15L5 15L5 14L6 14L6 15L8 15L8 16L5 16L5 17L8 17L8 19L10 19L10 22L9 22L9 21L8 21L8 22L9 22L9 23L8 23L8 25L10 25L10 24L9 24L9 23L11 23L11 24L13 24L13 25L17 25L17 23L18 23L18 22L17 22L17 23L16 23L16 22L15 22L15 21L14 21L14 20L15 20L15 19L16 19L16 21L19 21L19 25L20 25L20 24L21 24L21 23L22 23L22 22L23 22L23 21L24 21L24 20L23 20L23 19L25 19L25 16L24 16L24 15L25 15L25 13L23 13L23 14L22 14L22 12L21 12L21 11L22 11L22 9L23 9L23 11L25 11L25 9L24 9L24 8L22 8L22 9L21 9L21 8L18 8L18 10L16 10L16 11L15 11L15 9L16 9L16 8L17 8L17 6L16 6L16 4L17 4L17 2L16 2L16 1L17 1L17 0L15 0L15 2L16 2L16 3L15 3L15 5L13 5L13 6L12 6L12 5L11 5L11 6L10 6L10 5L9 5L9 4L12 4L12 3L13 3L13 2L14 2L14 1L13 1L13 0L12 0L12 1L11 1L11 2L9 2L9 1L10 1L10 0ZM9 6L9 7L10 7L10 8L8 8L8 9L9 9L9 10L10 10L10 8L11 8L11 9L12 9L12 10L11 10L11 11L8 11L8 12L7 12L7 11L5 11L5 10L4 10L4 11L5 11L5 12L7 12L7 13L6 13L6 14L8 14L8 15L9 15L9 16L8 16L8 17L11 17L11 20L12 20L12 21L11 21L11 23L13 23L13 20L14 20L14 19L15 19L15 18L16 18L16 16L18 16L18 15L19 15L19 16L20 16L20 15L21 15L21 16L23 16L23 15L24 15L24 14L23 14L23 15L21 15L21 12L20 12L20 15L19 15L19 14L16 14L16 13L15 13L15 14L14 14L14 13L13 13L13 15L14 15L14 16L13 16L13 17L11 17L11 16L12 16L12 14L11 14L11 16L10 16L10 14L8 14L8 12L9 12L9 13L12 13L12 12L13 12L13 11L14 11L14 10L13 10L13 8L14 8L14 9L15 9L15 8L14 8L14 6L13 6L13 8L12 8L12 6L11 6L11 7L10 7L10 6ZM15 6L15 7L16 7L16 6ZM19 9L19 11L17 11L17 12L19 12L19 11L21 11L21 9ZM14 16L14 17L13 17L13 18L14 18L14 17L15 17L15 16ZM17 17L17 20L20 20L20 17ZM18 18L18 19L19 19L19 18ZM12 19L12 20L13 20L13 19ZM21 19L21 21L23 21L23 20L22 20L22 19ZM14 22L14 24L15 24L15 22ZM24 22L24 23L25 23L25 22ZM23 24L23 25L25 25L25 24ZM0 0L0 7L7 7L7 0ZM1 1L1 6L6 6L6 1ZM2 2L2 5L5 5L5 2ZM18 0L18 7L25 7L25 0ZM19 1L19 6L24 6L24 1ZM20 2L20 5L23 5L23 2ZM0 18L0 25L7 25L7 18ZM1 19L1 24L6 24L6 19ZM2 20L2 23L5 23L5 20Z" fill="#000000"/></g></g></svg>
