<?xml version="1.0" encoding="UTF-8"?>
<svg xmlns="http://www.w3.org/2000/svg" version="1.1" width="500" height="500" viewBox="0 0 500 500"><rect x="0" y="0" width="500" height="500" fill="#ffffff"/><g transform="scale(20)"><g transform="translate(0,0)"><path fill-rule="evenodd" d="M9 0L9 1L8 1L8 3L9 3L9 4L8 4L8 8L6 8L6 9L7 9L7 10L5 10L5 9L4 9L4 8L3 8L3 9L4 9L4 10L1 10L1 11L2 11L2 12L1 12L1 14L0 14L0 15L1 15L1 16L0 16L0 17L2 17L2 15L3 15L3 17L4 17L4 16L5 16L5 17L7 17L7 16L6 16L6 15L7 15L7 14L12 14L12 16L11 16L11 15L10 15L10 16L11 16L11 17L13 17L13 19L11 19L11 18L9 18L9 15L8 15L8 19L11 19L11 20L9 20L9 21L8 21L8 22L9 22L9 23L8 23L8 25L10 25L10 24L9 24L9 23L10 23L10 22L11 22L11 21L12 21L12 20L13 20L13 22L15 22L15 23L12 23L12 24L13 24L13 25L17 25L17 23L18 23L18 22L17 22L17 23L16 23L16 22L15 22L15 21L14 21L14 20L13 20L13 19L14 19L14 17L15 17L15 13L16 13L16 14L19 14L19 15L18 15L18 16L16 16L16 18L15 18L15 19L16 19L16 21L19 21L19 25L20 25L20 24L21 24L21 23L22 23L22 22L23 22L23 21L24 21L24 20L23 20L23 19L25 19L25 16L24 16L24 15L25 15L25 13L23 13L23 14L22 14L22 12L21 12L21 11L22 11L22 9L23 9L23 11L25 11L25 9L24 9L24 8L22 8L22 9L21 9L21 8L18 8L18 10L16 10L16 11L15 11L15 12L14 12L14 11L13 11L13 12L12 12L12 13L8 13L8 12L6 12L6 13L5 13L5 15L3 15L3 14L4 14L4 12L5 12L5 11L11 11L11 10L12 10L12 9L11 9L11 8L10 8L10 7L11 7L11 6L12 6L12 8L13 8L13 10L15 10L15 9L16 9L16 8L17 8L17 5L16 5L16 4L17 4L17 2L16 2L16 1L17 1L17 0L15 0L15 2L16 2L16 4L15 4L15 5L13 5L13 6L12 6L12 5L11 5L11 6L10 6L10 5L9 5L9 4L12 4L12 3L13 3L13 1L14 1L14 0L12 0L12 1L11 1L11 2L9 2L9 1L10 1L10 0ZM9 6L9 7L10 7L10 6ZM13 6L13 8L14 8L14 9L15 9L15 7L16 7L16 6L15 6L15 7L14 7L14 6ZM0 8L0 9L2 9L2 8ZM8 8L8 10L10 10L10 8ZM19 9L19 11L17 11L17 12L19 12L19 11L21 11L21 9ZM4 10L4 11L5 11L5 10ZM20 12L20 15L19 15L19 16L20 16L20 15L21 15L21 16L23 16L23 15L24 15L24 14L23 14L23 15L21 15L21 12ZM2 13L2 14L1 14L1 15L2 15L2 14L3 14L3 13ZM6 13L6 14L7 14L7 13ZM13 13L13 14L14 14L14 13ZM13 16L13 17L14 17L14 16ZM17 17L17 20L20 20L20 17ZM18 18L18 19L19 19L19 18ZM21 19L21 21L23 21L23 20L22 20L22 19ZM9 21L9 22L10 22L10 21ZM24 22L24 23L25 23L25 22ZM23 24L23 25L25 25L25 24ZM0 0L0 7L7 7L7 0ZM1 1L1 6L6 6L6 1ZM2 2L2 5L5 5L5 2ZM18 0L18 7L25 7L25 0ZM19 1L19 6L24 6L24 1ZM20 2L20 5L23 5L23 2ZM0 18L0 25L7 25L7 18ZM1 19L1 24L6 24L6 19ZM2 20L2 23L5 23L5 20Z" fill="#000000"/></g></g></svg>
