<?xml version="1.0" encoding="UTF-8"?>
<svg xmlns="http://www.w3.org/2000/svg" version="1.1" width="500" height="500" viewBox="0 0 500 500"><rect x="0" y="0" width="500" height="500" fill="#ffffff"/><g transform="scale(20)"><g transform="translate(0,0)"><path fill-rule="evenodd" d="M9 0L9 1L8 1L8 3L9 3L9 4L8 4L8 8L6 8L6 9L8 9L8 12L5 12L5 11L7 11L7 10L5 10L5 11L2 11L2 10L3 10L3 9L4 9L4 8L3 8L3 9L2 9L2 8L0 8L0 11L2 11L2 13L1 13L1 12L0 12L0 13L1 13L1 14L0 14L0 15L1 15L1 16L0 16L0 17L3 17L3 16L2 16L2 15L3 15L3 14L2 14L2 13L5 13L5 14L4 14L4 15L8 15L8 19L9 19L9 20L10 20L10 22L9 22L9 21L8 21L8 22L9 22L9 23L8 23L8 25L9 25L9 23L10 23L10 22L11 22L11 21L12 21L12 20L13 20L13 22L12 22L12 23L13 23L13 25L18 25L18 24L19 24L19 23L16 23L16 21L19 21L19 22L20 22L20 25L21 25L21 22L22 22L22 23L23 23L23 22L22 22L22 20L23 20L23 19L25 19L25 16L24 16L24 15L25 15L25 13L23 13L23 14L20 14L20 13L19 13L19 12L18 12L18 10L19 10L19 11L20 11L20 12L22 12L22 10L20 10L20 9L21 9L21 8L18 8L18 9L17 9L17 8L16 8L16 7L17 7L17 5L16 5L16 4L17 4L17 2L16 2L16 1L17 1L17 0L15 0L15 1L13 1L13 0L12 0L12 1L11 1L11 0ZM9 1L9 2L11 2L11 1ZM12 1L12 2L13 2L13 5L14 5L14 6L13 6L13 8L12 8L12 5L11 5L11 4L12 4L12 3L11 3L11 4L9 4L9 5L10 5L10 6L9 6L9 7L10 7L10 8L8 8L8 9L9 9L9 10L10 10L10 8L12 8L12 9L11 9L11 11L9 11L9 12L8 12L8 13L6 13L6 14L9 14L9 15L10 15L10 16L11 16L11 14L14 14L14 13L13 13L13 12L11 12L11 11L12 11L12 10L14 10L14 9L15 9L15 11L14 11L14 12L15 12L15 11L17 11L17 9L15 9L15 8L14 8L14 6L15 6L15 7L16 7L16 6L15 6L15 5L14 5L14 4L15 4L15 3L14 3L14 2L13 2L13 1ZM10 6L10 7L11 7L11 6ZM13 8L13 9L14 9L14 8ZM22 8L22 9L23 9L23 11L25 11L25 9L24 9L24 8ZM1 9L1 10L2 10L2 9ZM9 13L9 14L11 14L11 13ZM15 13L15 15L17 15L17 13ZM1 14L1 15L2 15L2 14ZM18 14L18 16L20 16L20 14ZM23 14L23 15L21 15L21 18L22 18L22 19L21 19L21 20L22 20L22 19L23 19L23 17L22 17L22 16L23 16L23 15L24 15L24 14ZM12 15L12 18L11 18L11 19L10 19L10 20L11 20L11 19L13 19L13 20L14 20L14 21L16 21L16 19L15 19L15 17L16 17L16 16L15 16L15 17L14 17L14 16L13 16L13 15ZM5 16L5 17L7 17L7 16ZM9 17L9 18L10 18L10 17ZM13 17L13 18L14 18L14 17ZM17 17L17 20L20 20L20 17ZM18 18L18 19L19 19L19 18ZM13 22L13 23L14 23L14 24L16 24L16 23L15 23L15 22ZM24 22L24 23L25 23L25 22ZM11 24L11 25L12 25L12 24ZM23 24L23 25L25 25L25 24ZM0 0L0 7L7 7L7 0ZM1 1L1 6L6 6L6 1ZM2 2L2 5L5 5L5 2ZM18 0L18 7L25 7L25 0ZM19 1L19 6L24 6L24 1ZM20 2L20 5L23 5L23 2ZM0 18L0 25L7 25L7 18ZM1 19L1 24L6 24L6 19ZM2 20L2 23L5 23L5 20Z" fill="#000000"/></g></g></svg>
