<?xml version="1.0" encoding="UTF-8"?>
<svg xmlns="http://www.w3.org/2000/svg" version="1.1" width="500" height="500" viewBox="0 0 500 500"><rect x="0" y="0" width="500" height="500" fill="#ffffff"/><g transform="scale(20)"><g transform="translate(0,0)"><path fill-rule="evenodd" d="M8 0L8 1L9 1L9 2L10 2L10 3L13 3L13 4L12 4L12 5L10 5L10 4L9 4L9 5L10 5L10 8L9 8L9 6L8 6L8 8L9 8L9 10L8 10L8 9L7 9L7 8L6 8L6 9L7 9L7 10L6 10L6 11L3 11L3 10L5 10L5 8L3 8L3 9L2 9L2 8L0 8L0 9L1 9L1 10L0 10L0 17L1 17L1 15L2 15L2 16L4 16L4 17L5 17L5 16L4 16L4 15L7 15L7 16L6 16L6 17L7 17L7 16L8 16L8 15L7 15L7 14L9 14L9 13L10 13L10 12L11 12L11 14L10 14L10 16L9 16L9 17L8 17L8 18L9 18L9 19L10 19L10 20L8 20L8 22L9 22L9 21L10 21L10 22L11 22L11 24L10 24L10 23L8 23L8 25L9 25L9 24L10 24L10 25L11 25L11 24L13 24L13 23L12 23L12 22L14 22L14 25L15 25L15 24L16 24L16 25L17 25L17 24L16 24L16 23L15 23L15 22L14 22L14 21L10 21L10 20L15 20L15 21L16 21L16 22L17 22L17 23L18 23L18 22L19 22L19 25L22 25L22 24L24 24L24 25L25 25L25 21L24 21L24 20L25 20L25 18L24 18L24 19L23 19L23 21L22 21L22 22L19 22L19 21L21 21L21 20L22 20L22 19L21 19L21 18L23 18L23 15L24 15L24 17L25 17L25 14L23 14L23 13L24 13L24 12L25 12L25 10L24 10L24 11L22 11L22 12L21 12L21 13L20 13L20 11L21 11L21 10L23 10L23 9L20 9L20 11L18 11L18 13L20 13L20 14L19 14L19 15L18 15L18 16L15 16L15 15L16 15L16 14L17 14L17 12L16 12L16 13L15 13L15 12L14 12L14 13L12 13L12 10L14 10L14 11L16 11L16 10L17 10L17 6L16 6L16 9L15 9L15 10L14 10L14 9L11 9L11 8L14 8L14 7L15 7L15 3L14 3L14 2L11 2L11 1L14 1L14 0L10 0L10 1L9 1L9 0ZM16 0L16 3L17 3L17 0ZM12 5L12 6L11 6L11 7L12 7L12 6L13 6L13 7L14 7L14 5ZM18 8L18 9L19 9L19 8ZM24 8L24 9L25 9L25 8ZM10 9L10 10L9 10L9 11L10 11L10 10L11 10L11 9ZM1 10L1 12L2 12L2 10ZM7 10L7 11L6 11L6 12L7 12L7 13L5 13L5 12L4 12L4 13L1 13L1 14L7 14L7 13L8 13L8 10ZM22 12L22 13L23 13L23 12ZM14 13L14 14L13 14L13 15L12 15L12 14L11 14L11 16L12 16L12 17L10 17L10 18L12 18L12 17L13 17L13 16L14 16L14 15L15 15L15 13ZM21 14L21 15L20 15L20 16L21 16L21 15L22 15L22 14ZM15 17L15 19L16 19L16 17ZM17 17L17 20L20 20L20 17ZM18 18L18 19L19 19L19 18ZM20 23L20 24L21 24L21 23ZM0 0L0 7L7 7L7 0ZM1 1L1 6L6 6L6 1ZM2 2L2 5L5 5L5 2ZM18 0L18 7L25 7L25 0ZM19 1L19 6L24 6L24 1ZM20 2L20 5L23 5L23 2ZM0 18L0 25L7 25L7 18ZM1 19L1 24L6 24L6 19ZM2 20L2 23L5 23L5 20Z" fill="#000000"/></g></g></svg>
