<?xml version="1.0" encoding="UTF-8"?>
<svg xmlns="http://www.w3.org/2000/svg" version="1.1" width="500" height="500" viewBox="0 0 500 500"><rect x="0" y="0" width="500" height="500" fill="#ffffff"/><g transform="scale(20)"><g transform="translate(0,0)"><path fill-rule="evenodd" d="M10 0L10 2L11 2L11 0ZM12 0L12 1L13 1L13 0ZM14 0L14 2L15 2L15 4L14 4L14 3L13 3L13 2L12 2L12 4L14 4L14 5L11 5L11 6L10 6L10 4L11 4L11 3L8 3L8 4L9 4L9 5L8 5L8 7L9 7L9 8L6 8L6 9L10 9L10 11L11 11L11 9L12 9L12 10L13 10L13 9L14 9L14 10L15 10L15 12L16 12L16 13L17 13L17 12L18 12L18 13L22 13L22 14L23 14L23 16L21 16L21 15L20 15L20 14L19 14L19 15L18 15L18 14L15 14L15 13L14 13L14 12L13 12L13 11L12 11L12 13L14 13L14 16L15 16L15 17L16 17L16 19L15 19L15 18L14 18L14 17L12 17L12 15L13 15L13 14L10 14L10 15L11 15L11 17L10 17L10 16L9 16L9 15L8 15L8 16L6 16L6 17L8 17L8 19L9 19L9 18L11 18L11 17L12 17L12 18L13 18L13 19L12 19L12 21L13 21L13 20L14 20L14 21L18 21L18 22L17 22L17 23L16 23L16 24L15 24L15 23L14 23L14 24L15 24L15 25L16 25L16 24L17 24L17 25L18 25L18 24L19 24L19 25L20 25L20 24L19 24L19 23L18 23L18 22L19 22L19 21L20 21L20 22L21 22L21 23L23 23L23 22L24 22L24 24L22 24L22 25L25 25L25 18L24 18L24 17L25 17L25 16L24 16L24 15L25 15L25 14L23 14L23 12L24 12L24 13L25 13L25 10L23 10L23 9L24 9L24 8L23 8L23 9L22 9L22 8L21 8L21 9L22 9L22 10L18 10L18 8L16 8L16 7L17 7L17 6L16 6L16 5L15 5L15 4L17 4L17 1L15 1L15 0ZM8 1L8 2L9 2L9 1ZM9 6L9 7L10 7L10 6ZM11 6L11 7L12 7L12 9L13 9L13 8L14 8L14 9L15 9L15 10L17 10L17 9L16 9L16 8L15 8L15 7L16 7L16 6L15 6L15 7L14 7L14 6L13 6L13 7L12 7L12 6ZM0 8L0 9L2 9L2 11L3 11L3 12L2 12L2 13L3 13L3 12L5 12L5 13L7 13L7 14L3 14L3 15L2 15L2 17L4 17L4 16L3 16L3 15L7 15L7 14L8 14L8 13L11 13L11 12L8 12L8 13L7 13L7 12L5 12L5 11L9 11L9 10L5 10L5 8ZM10 8L10 9L11 9L11 8ZM19 8L19 9L20 9L20 8ZM3 9L3 11L5 11L5 10L4 10L4 9ZM22 10L22 11L20 11L20 12L23 12L23 10ZM0 11L0 12L1 12L1 11ZM16 11L16 12L17 12L17 11ZM18 11L18 12L19 12L19 11ZM0 13L0 17L1 17L1 13ZM8 16L8 17L9 17L9 16ZM17 17L17 20L20 20L20 17ZM22 17L22 18L21 18L21 21L22 21L22 22L23 22L23 21L22 21L22 20L23 20L23 17ZM18 18L18 19L19 19L19 18ZM14 19L14 20L15 20L15 19ZM8 20L8 25L9 25L9 22L10 22L10 21L9 21L9 20ZM11 22L11 25L12 25L12 23L13 23L13 22ZM0 0L0 7L7 7L7 0ZM1 1L1 6L6 6L6 1ZM2 2L2 5L5 5L5 2ZM18 0L18 7L25 7L25 0ZM19 1L19 6L24 6L24 1ZM20 2L20 5L23 5L23 2ZM0 18L0 25L7 25L7 18ZM1 19L1 24L6 24L6 19ZM2 20L2 23L5 23L5 20Z" fill="#000000"/></g></g></svg>
