<?xml version="1.0" encoding="UTF-8"?>
<svg xmlns="http://www.w3.org/2000/svg" version="1.1" width="500" height="500" viewBox="0 0 500 500"><rect x="0" y="0" width="500" height="500" fill="#ffffff"/><g transform="scale(20)"><g transform="translate(0,0)"><path fill-rule="evenodd" d="M8 0L8 1L10 1L10 0ZM14 0L14 1L15 1L15 0ZM8 2L8 5L9 5L9 6L8 6L8 7L9 7L9 8L8 8L8 9L7 9L7 8L6 8L6 9L7 9L7 10L6 10L6 11L5 11L5 12L6 12L6 13L7 13L7 14L6 14L6 15L7 15L7 14L8 14L8 15L9 15L9 14L12 14L12 16L11 16L11 15L10 15L10 16L11 16L11 17L12 17L12 18L11 18L11 19L12 19L12 20L10 20L10 18L9 18L9 17L8 17L8 16L6 16L6 17L8 17L8 18L9 18L9 20L10 20L10 21L8 21L8 25L10 25L10 21L12 21L12 22L11 22L11 23L14 23L14 22L15 22L15 24L14 24L14 25L16 25L16 22L15 22L15 21L14 21L14 20L13 20L13 18L14 18L14 17L12 17L12 16L14 16L14 15L15 15L15 16L16 16L16 17L15 17L15 18L16 18L16 21L18 21L18 23L17 23L17 24L18 24L18 25L20 25L20 23L21 23L21 24L22 24L22 25L25 25L25 24L23 24L23 23L24 23L24 22L25 22L25 21L23 21L23 22L22 22L22 19L21 19L21 15L23 15L23 16L22 16L22 18L23 18L23 20L25 20L25 17L23 17L23 16L24 16L24 14L25 14L25 12L24 12L24 10L23 10L23 8L20 8L20 9L22 9L22 10L19 10L19 11L18 11L18 8L17 8L17 11L15 11L15 10L14 10L14 11L11 11L11 13L10 13L10 12L9 12L9 11L7 11L7 10L8 10L8 9L9 9L9 10L10 10L10 9L9 9L9 8L10 8L10 7L11 7L11 8L12 8L12 7L13 7L13 9L15 9L15 8L16 8L16 7L17 7L17 6L16 6L16 7L15 7L15 5L16 5L16 4L17 4L17 3L15 3L15 2L11 2L11 4L10 4L10 3L9 3L9 2ZM12 3L12 5L10 5L10 6L9 6L9 7L10 7L10 6L11 6L11 7L12 7L12 5L13 5L13 7L14 7L14 5L13 5L13 4L15 4L15 3ZM0 8L0 11L1 11L1 13L2 13L2 14L1 14L1 15L0 15L0 16L1 16L1 15L2 15L2 14L3 14L3 16L2 16L2 17L3 17L3 16L4 16L4 17L5 17L5 14L4 14L4 13L2 13L2 11L1 11L1 9L3 9L3 12L4 12L4 8ZM24 8L24 9L25 9L25 8ZM22 10L22 11L23 11L23 10ZM6 11L6 12L7 12L7 13L8 13L8 12L7 12L7 11ZM17 11L17 13L16 13L16 14L15 14L15 12L12 12L12 14L13 14L13 15L14 15L14 14L15 14L15 15L16 15L16 16L17 16L17 15L18 15L18 16L19 16L19 15L21 15L21 14L20 14L20 13L19 13L19 14L18 14L18 11ZM20 11L20 12L21 12L21 11ZM13 13L13 14L14 14L14 13ZM17 17L17 20L20 20L20 17ZM18 18L18 19L19 19L19 18ZM19 21L19 23L18 23L18 24L19 24L19 23L20 23L20 21ZM21 22L21 23L22 23L22 22ZM12 24L12 25L13 25L13 24ZM0 0L0 7L7 7L7 0ZM1 1L1 6L6 6L6 1ZM2 2L2 5L5 5L5 2ZM18 0L18 7L25 7L25 0ZM19 1L19 6L24 6L24 1ZM20 2L20 5L23 5L23 2ZM0 18L0 25L7 25L7 18ZM1 19L1 24L6 24L6 19ZM2 20L2 23L5 23L5 20Z" fill="#000000"/></g></g></svg>
