<?xml version="1.0" encoding="UTF-8"?>
<svg xmlns="http://www.w3.org/2000/svg" version="1.1" width="500" height="500" viewBox="0 0 500 500"><rect x="0" y="0" width="500" height="500" fill="#ffffff"/><g transform="scale(20)"><g transform="translate(0,0)"><path fill-rule="evenodd" d="M9 0L9 1L8 1L8 2L9 2L9 3L8 3L8 4L10 4L10 7L11 7L11 4L12 4L12 5L13 5L13 6L12 6L12 9L14 9L14 10L11 10L11 11L10 11L10 9L11 9L11 8L6 8L6 9L9 9L9 12L8 12L8 11L7 11L7 10L5 10L5 8L0 8L0 10L2 10L2 9L3 9L3 10L4 10L4 11L0 11L0 12L4 12L4 14L3 14L3 13L2 13L2 15L3 15L3 16L2 16L2 17L3 17L3 16L4 16L4 15L5 15L5 17L7 17L7 16L6 16L6 15L9 15L9 14L11 14L11 13L12 13L12 15L11 15L11 16L10 16L10 17L11 17L11 18L10 18L10 20L8 20L8 25L11 25L11 22L15 22L15 21L17 21L17 22L16 22L16 23L15 23L15 25L16 25L16 24L18 24L18 25L25 25L25 21L23 21L23 20L22 20L22 21L21 21L21 17L23 17L23 19L25 19L25 18L24 18L24 17L25 17L25 16L24 16L24 15L25 15L25 14L23 14L23 16L20 16L20 15L22 15L22 14L20 14L20 13L24 13L24 11L25 11L25 10L23 10L23 9L24 9L24 8L23 8L23 9L22 9L22 8L21 8L21 9L22 9L22 10L20 10L20 8L19 8L19 10L18 10L18 8L17 8L17 5L15 5L15 4L14 4L14 3L13 3L13 4L12 4L12 2L13 2L13 1L11 1L11 2L10 2L10 0ZM14 0L14 1L15 1L15 3L16 3L16 4L17 4L17 3L16 3L16 2L17 2L17 1L15 1L15 0ZM10 3L10 4L11 4L11 3ZM13 4L13 5L14 5L14 6L13 6L13 8L14 8L14 9L15 9L15 10L16 10L16 12L19 12L19 13L15 13L15 12L14 12L14 11L12 11L12 12L14 12L14 13L13 13L13 15L12 15L12 16L11 16L11 17L13 17L13 18L11 18L11 20L10 20L10 21L9 21L9 23L10 23L10 21L13 21L13 20L14 20L14 21L15 21L15 20L14 20L14 17L15 17L15 19L16 19L16 16L18 16L18 15L19 15L19 13L20 13L20 12L19 12L19 11L18 11L18 10L17 10L17 8L14 8L14 6L15 6L15 7L16 7L16 6L15 6L15 5L14 5L14 4ZM8 5L8 7L9 7L9 5ZM6 11L6 12L7 12L7 11ZM21 11L21 12L23 12L23 11ZM10 12L10 13L11 13L11 12ZM0 13L0 17L1 17L1 13ZM5 13L5 14L8 14L8 13ZM14 13L14 15L15 15L15 16L16 16L16 14L15 14L15 13ZM17 14L17 15L18 15L18 14ZM8 16L8 19L9 19L9 16ZM13 16L13 17L14 17L14 16ZM17 17L17 20L20 20L20 17ZM18 18L18 19L19 19L19 18ZM22 21L22 22L23 22L23 23L22 23L22 24L24 24L24 22L23 22L23 21ZM17 22L17 23L19 23L19 22ZM20 22L20 24L21 24L21 22ZM13 24L13 25L14 25L14 24ZM0 0L0 7L7 7L7 0ZM1 1L1 6L6 6L6 1ZM2 2L2 5L5 5L5 2ZM18 0L18 7L25 7L25 0ZM19 1L19 6L24 6L24 1ZM20 2L20 5L23 5L23 2ZM0 18L0 25L7 25L7 18ZM1 19L1 24L6 24L6 19ZM2 20L2 23L5 23L5 20Z" fill="#000000"/></g></g></svg>
