<?xml version="1.0" encoding="UTF-8"?>
<svg xmlns="http://www.w3.org/2000/svg" version="1.1" width="500" height="500" viewBox="0 0 500 500"><rect x="0" y="0" width="500" height="500" fill="#ffffff"/><g transform="scale(20)"><g transform="translate(0,0)"><path fill-rule="evenodd" d="M9 0L9 1L8 1L8 2L9 2L9 3L8 3L8 4L10 4L10 7L11 7L11 4L12 4L12 5L13 5L13 6L12 6L12 9L14 9L14 10L11 10L11 11L10 11L10 9L11 9L11 8L6 8L6 9L5 9L5 8L0 8L0 9L2 9L2 10L0 10L0 17L1 17L1 14L2 14L2 16L5 16L5 17L8 17L8 19L9 19L9 20L8 20L8 25L9 25L9 23L10 23L10 20L11 20L11 21L12 21L12 23L11 23L11 24L10 24L10 25L11 25L11 24L12 24L12 23L13 23L13 21L14 21L14 24L13 24L13 25L14 25L14 24L15 24L15 25L16 25L16 24L17 24L17 25L25 25L25 21L23 21L23 20L21 20L21 17L23 17L23 19L24 19L24 20L25 20L25 18L24 18L24 17L25 17L25 16L24 16L24 15L25 15L25 14L23 14L23 16L19 16L19 15L18 15L18 14L15 14L15 13L14 13L14 12L16 12L16 13L17 13L17 12L16 12L16 11L17 11L17 10L18 10L18 8L16 8L16 7L17 7L17 5L15 5L15 4L17 4L17 3L15 3L15 2L17 2L17 1L15 1L15 0L14 0L14 1L11 1L11 2L10 2L10 0ZM12 2L12 4L13 4L13 5L14 5L14 6L13 6L13 8L14 8L14 9L15 9L15 10L14 10L14 11L12 11L12 13L11 13L11 12L10 12L10 13L9 13L9 10L8 10L8 9L6 9L6 10L5 10L5 9L3 9L3 10L5 10L5 11L3 11L3 12L1 12L1 13L3 13L3 15L4 15L4 13L3 13L3 12L5 12L5 14L8 14L8 15L5 15L5 16L8 16L8 17L9 17L9 16L10 16L10 18L14 18L14 19L12 19L12 20L14 20L14 21L15 21L15 22L18 22L18 23L17 23L17 24L19 24L19 22L20 22L20 24L21 24L21 22L22 22L22 21L21 21L21 22L20 22L20 21L19 21L19 22L18 22L18 21L15 21L15 20L14 20L14 19L16 19L16 18L14 18L14 17L16 17L16 16L15 16L15 15L13 15L13 14L14 14L14 13L13 13L13 12L14 12L14 11L15 11L15 10L17 10L17 9L15 9L15 8L14 8L14 6L15 6L15 7L16 7L16 6L15 6L15 5L14 5L14 4L15 4L15 3L14 3L14 2ZM10 3L10 4L11 4L11 3ZM13 3L13 4L14 4L14 3ZM8 5L8 7L9 7L9 5ZM19 8L19 11L18 11L18 13L19 13L19 14L20 14L20 15L22 15L22 14L20 14L20 13L24 13L24 11L25 11L25 10L23 10L23 9L24 9L24 8L23 8L23 9L22 9L22 8L21 8L21 9L22 9L22 11L23 11L23 12L21 12L21 10L20 10L20 8ZM6 10L6 11L7 11L7 10ZM6 12L6 13L7 13L7 12ZM19 12L19 13L20 13L20 12ZM10 13L10 16L11 16L11 13ZM12 13L12 14L13 14L13 13ZM12 15L12 17L14 17L14 16L13 16L13 15ZM17 17L17 20L20 20L20 17ZM18 18L18 19L19 19L19 18ZM23 22L23 23L22 23L22 24L24 24L24 22ZM15 23L15 24L16 24L16 23ZM0 0L0 7L7 7L7 0ZM1 1L1 6L6 6L6 1ZM2 2L2 5L5 5L5 2ZM18 0L18 7L25 7L25 0ZM19 1L19 6L24 6L24 1ZM20 2L20 5L23 5L23 2ZM0 18L0 25L7 25L7 18ZM1 19L1 24L6 24L6 19ZM2 20L2 23L5 23L5 20Z" fill="#000000"/></g></g></svg>
