<?xml version="1.0" encoding="UTF-8"?>
<svg xmlns="http://www.w3.org/2000/svg" version="1.1" width="500" height="500" viewBox="0 0 500 500"><rect x="0" y="0" width="500" height="500" fill="#ffffff"/><g transform="scale(23.81)"><g transform="translate(0,0)"><path fill-rule="evenodd" d="M10 0L10 1L8 1L8 2L10 2L10 3L8 3L8 4L9 4L9 5L8 5L8 7L9 7L9 8L6 8L6 9L9 9L9 8L10 8L10 7L11 7L11 8L12 8L12 9L10 9L10 10L8 10L8 11L11 11L11 10L12 10L12 11L14 11L14 10L12 10L12 9L14 9L14 8L13 8L13 5L12 5L12 4L13 4L13 3L12 3L12 4L11 4L11 5L12 5L12 7L11 7L11 6L10 6L10 7L9 7L9 5L10 5L10 3L11 3L11 0ZM12 0L12 2L13 2L13 0ZM0 8L0 9L1 9L1 10L2 10L2 13L5 13L5 12L6 12L6 13L8 13L8 15L9 15L9 16L8 16L8 21L10 21L10 20L9 20L9 19L11 19L11 18L12 18L12 21L15 21L15 20L13 20L13 19L14 19L14 18L12 18L12 17L16 17L16 18L15 18L15 19L16 19L16 18L17 18L17 19L18 19L18 20L19 20L19 21L20 21L20 20L19 20L19 17L21 17L21 15L20 15L20 14L21 14L21 13L20 13L20 12L21 12L21 11L20 11L20 10L21 10L21 9L20 9L20 8L19 8L19 9L18 9L18 8L17 8L17 9L16 9L16 8L15 8L15 9L16 9L16 10L15 10L15 12L12 12L12 13L11 13L11 14L10 14L10 13L8 13L8 12L6 12L6 11L7 11L7 10L5 10L5 11L4 11L4 10L2 10L2 9L5 9L5 8ZM16 10L16 13L12 13L12 14L11 14L11 15L12 15L12 14L13 14L13 16L16 16L16 17L19 17L19 16L17 16L17 14L16 14L16 13L17 13L17 10ZM18 10L18 11L19 11L19 10ZM3 11L3 12L4 12L4 11ZM0 12L0 13L1 13L1 12ZM18 12L18 13L19 13L19 12ZM15 14L15 15L16 15L16 14ZM18 14L18 15L19 15L19 14ZM10 16L10 17L12 17L12 16ZM16 20L16 21L17 21L17 20ZM0 0L0 7L7 7L7 0ZM1 1L1 6L6 6L6 1ZM2 2L2 5L5 5L5 2ZM14 0L14 7L21 7L21 0ZM15 1L15 6L20 6L20 1ZM16 2L16 5L19 5L19 2ZM0 14L0 21L7 21L7 14ZM1 15L1 20L6 20L6 15ZM2 16L2 19L5 19L5 16Z" fill="#000000"/></g></g></svg>
