<?xml version="1.0" encoding="UTF-8"?>
<svg xmlns="http://www.w3.org/2000/svg" version="1.1" width="500" height="500" viewBox="0 0 500 500"><rect x="0" y="0" width="500" height="500" fill="#ffffff"/><g transform="scale(20)"><g transform="translate(0,0)"><path fill-rule="evenodd" d="M10 0L10 2L11 2L11 0ZM12 0L12 1L15 1L15 3L17 3L17 1L15 1L15 0ZM8 1L8 2L9 2L9 1ZM12 2L12 4L13 4L13 5L11 5L11 6L10 6L10 4L11 4L11 3L8 3L8 4L9 4L9 5L8 5L8 7L9 7L9 8L6 8L6 9L7 9L7 10L5 10L5 11L9 11L9 9L10 9L10 11L11 11L11 12L6 12L6 13L5 13L5 12L4 12L4 10L3 10L3 9L5 9L5 8L0 8L0 9L2 9L2 10L3 10L3 12L1 12L1 11L0 11L0 17L1 17L1 14L2 14L2 15L4 15L4 16L2 16L2 17L5 17L5 16L6 16L6 17L8 17L8 19L9 19L9 20L8 20L8 25L11 25L11 24L13 24L13 25L14 25L14 24L17 24L17 23L18 23L18 24L19 24L19 25L20 25L20 24L21 24L21 23L18 23L18 22L19 22L19 21L20 21L20 22L21 22L21 21L23 21L23 22L24 22L24 24L22 24L22 25L25 25L25 21L23 21L23 20L24 20L24 19L25 19L25 18L24 18L24 17L23 17L23 16L21 16L21 15L20 15L20 13L22 13L22 14L23 14L23 15L24 15L24 16L25 16L25 14L24 14L24 13L23 13L23 12L25 12L25 10L24 10L24 8L23 8L23 9L22 9L22 8L21 8L21 10L20 10L20 8L19 8L19 10L18 10L18 8L16 8L16 7L17 7L17 5L15 5L15 4L14 4L14 3L13 3L13 2ZM13 5L13 7L12 7L12 6L11 6L11 7L12 7L12 8L14 8L14 9L13 9L13 10L12 10L12 9L11 9L11 8L10 8L10 9L11 9L11 11L13 11L13 12L11 12L11 13L10 13L10 17L13 17L13 16L14 16L14 17L16 17L16 16L15 16L15 14L18 14L18 16L19 16L19 13L16 13L16 12L18 12L18 11L17 11L17 9L15 9L15 7L16 7L16 6L15 6L15 5ZM9 6L9 7L10 7L10 6ZM14 6L14 7L15 7L15 6ZM14 9L14 11L15 11L15 12L16 12L16 10L15 10L15 9ZM19 11L19 12L21 12L21 11ZM22 11L22 12L23 12L23 11ZM13 12L13 13L11 13L11 14L15 14L15 13L14 13L14 12ZM2 13L2 14L4 14L4 13ZM6 13L6 14L5 14L5 15L6 15L6 16L8 16L8 17L9 17L9 16L8 16L8 15L6 15L6 14L8 14L8 13ZM11 15L11 16L12 16L12 15ZM17 17L17 20L20 20L20 17ZM21 17L21 18L22 18L22 17ZM11 18L11 20L9 20L9 21L10 21L10 23L9 23L9 24L11 24L11 23L12 23L12 22L11 22L11 21L13 21L13 22L14 22L14 23L13 23L13 24L14 24L14 23L17 23L17 21L15 21L15 19L16 19L16 18ZM18 18L18 19L19 19L19 18ZM12 19L12 20L13 20L13 21L14 21L14 22L15 22L15 21L14 21L14 20L13 20L13 19ZM21 19L21 20L23 20L23 19ZM0 0L0 7L7 7L7 0ZM1 1L1 6L6 6L6 1ZM2 2L2 5L5 5L5 2ZM18 0L18 7L25 7L25 0ZM19 1L19 6L24 6L24 1ZM20 2L20 5L23 5L23 2ZM0 18L0 25L7 25L7 18ZM1 19L1 24L6 24L6 19ZM2 20L2 23L5 23L5 20Z" fill="#000000"/></g></g></svg>
