<?xml version="1.0" encoding="UTF-8"?>
<svg xmlns="http://www.w3.org/2000/svg" version="1.1" width="500" height="500" viewBox="0 0 500 500"><rect x="0" y="0" width="500" height="500" fill="#ffffff"/><g transform="scale(20)"><g transform="translate(0,0)"><path fill-rule="evenodd" d="M9 0L9 1L8 1L8 2L9 2L9 3L8 3L8 4L10 4L10 7L11 7L11 4L12 4L12 5L13 5L13 6L12 6L12 9L14 9L14 11L15 11L15 13L17 13L17 14L18 14L18 13L19 13L19 14L20 14L20 15L21 15L21 14L20 14L20 13L22 13L22 14L23 14L23 15L24 15L24 16L25 16L25 14L24 14L24 13L23 13L23 12L25 12L25 10L24 10L24 8L23 8L23 9L22 9L22 8L21 8L21 12L20 12L20 10L19 10L19 11L18 11L18 10L15 10L15 9L18 9L18 8L15 8L15 9L14 9L14 8L13 8L13 6L14 6L14 7L15 7L15 6L16 6L16 7L17 7L17 6L16 6L16 5L15 5L15 4L17 4L17 2L16 2L16 1L15 1L15 0L14 0L14 1L15 1L15 2L14 2L14 3L13 3L13 4L12 4L12 2L13 2L13 1L11 1L11 2L10 2L10 0ZM10 3L10 4L11 4L11 3ZM14 3L14 4L13 4L13 5L14 5L14 6L15 6L15 5L14 5L14 4L15 4L15 3ZM8 5L8 7L9 7L9 5ZM0 8L0 9L1 9L1 10L0 10L0 12L1 12L1 11L2 11L2 12L3 12L3 13L4 13L4 14L2 14L2 15L5 15L5 17L8 17L8 19L11 19L11 20L8 20L8 25L9 25L9 23L11 23L11 21L12 21L12 22L13 22L13 23L12 23L12 25L13 25L13 24L14 24L14 25L16 25L16 24L17 24L17 25L25 25L25 18L24 18L24 17L23 17L23 16L22 16L22 17L21 17L21 16L19 16L19 15L16 15L16 14L14 14L14 13L12 13L12 11L13 11L13 10L11 10L11 11L10 11L10 9L11 9L11 8L6 8L6 9L7 9L7 10L6 10L6 11L5 11L5 10L4 10L4 9L5 9L5 8ZM19 8L19 9L20 9L20 8ZM8 9L8 12L7 12L7 11L6 11L6 12L5 12L5 11L4 11L4 13L6 13L6 14L7 14L7 13L8 13L8 12L9 12L9 9ZM2 10L2 11L3 11L3 10ZM16 11L16 12L17 12L17 13L18 13L18 12L17 12L17 11ZM22 11L22 12L23 12L23 11ZM6 12L6 13L7 13L7 12ZM10 12L10 13L11 13L11 14L8 14L8 16L9 16L9 18L10 18L10 16L11 16L11 18L13 18L13 19L12 19L12 21L15 21L15 20L14 20L14 19L16 19L16 17L14 17L14 16L16 16L16 15L14 15L14 16L13 16L13 17L12 17L12 15L13 15L13 14L12 14L12 13L11 13L11 12ZM19 12L19 13L20 13L20 12ZM0 13L0 17L1 17L1 13ZM6 15L6 16L7 16L7 15ZM17 17L17 20L20 20L20 17ZM22 17L22 18L21 18L21 22L20 22L20 23L21 23L21 24L24 24L24 22L23 22L23 21L22 21L22 20L24 20L24 19L22 19L22 18L23 18L23 17ZM18 18L18 19L19 19L19 18ZM17 21L17 22L15 22L15 23L14 23L14 24L16 24L16 23L17 23L17 24L19 24L19 22L18 22L18 21ZM17 22L17 23L18 23L18 22ZM21 22L21 23L22 23L22 22ZM10 24L10 25L11 25L11 24ZM0 0L0 7L7 7L7 0ZM1 1L1 6L6 6L6 1ZM2 2L2 5L5 5L5 2ZM18 0L18 7L25 7L25 0ZM19 1L19 6L24 6L24 1ZM20 2L20 5L23 5L23 2ZM0 18L0 25L7 25L7 18ZM1 19L1 24L6 24L6 19ZM2 20L2 23L5 23L5 20Z" fill="#000000"/></g></g></svg>
