<?xml version="1.0" encoding="UTF-8"?>
<svg xmlns="http://www.w3.org/2000/svg" version="1.1" width="500" height="500" viewBox="0 0 500 500"><rect x="0" y="0" width="500" height="500" fill="#ffffff"/><g transform="scale(20)"><g transform="translate(0,0)"><path fill-rule="evenodd" d="M10 0L10 2L11 2L11 0ZM12 0L12 1L13 1L13 0ZM14 0L14 1L15 1L15 2L14 2L14 3L13 3L13 2L12 2L12 4L13 4L13 5L11 5L11 6L10 6L10 4L11 4L11 3L8 3L8 4L9 4L9 5L8 5L8 7L9 7L9 8L6 8L6 9L5 9L5 8L0 8L0 9L4 9L4 10L1 10L1 11L0 11L0 17L1 17L1 13L3 13L3 14L2 14L2 15L3 15L3 17L4 17L4 16L5 16L5 17L7 17L7 16L6 16L6 15L8 15L8 19L10 19L10 21L11 21L11 18L9 18L9 14L8 14L8 13L11 13L11 12L6 12L6 11L7 11L7 10L6 10L6 9L8 9L8 11L9 11L9 9L10 9L10 11L11 11L11 9L12 9L12 10L13 10L13 11L12 11L12 13L14 13L14 14L15 14L15 15L16 15L16 16L15 16L15 17L14 17L14 16L13 16L13 17L12 17L12 15L13 15L13 14L10 14L10 16L11 16L11 17L12 17L12 18L13 18L13 19L12 19L12 21L14 21L14 22L11 22L11 24L9 24L9 20L8 20L8 25L13 25L13 24L12 24L12 23L14 23L14 22L15 22L15 21L18 21L18 22L16 22L16 23L15 23L15 25L16 25L16 24L17 24L17 25L25 25L25 20L24 20L24 19L25 19L25 18L24 18L24 17L23 17L23 16L25 16L25 14L23 14L23 13L25 13L25 10L23 10L23 9L24 9L24 8L23 8L23 9L22 9L22 8L21 8L21 9L22 9L22 10L19 10L19 11L18 11L18 10L17 10L17 12L16 12L16 10L15 10L15 9L18 9L18 8L15 8L15 6L16 6L16 7L17 7L17 6L16 6L16 5L15 5L15 4L17 4L17 1L15 1L15 0ZM8 1L8 2L9 2L9 1ZM14 3L14 4L15 4L15 3ZM13 5L13 7L12 7L12 6L11 6L11 7L12 7L12 9L13 9L13 10L14 10L14 9L15 9L15 8L14 8L14 6L15 6L15 5ZM9 6L9 7L10 7L10 6ZM10 8L10 9L11 9L11 8ZM13 8L13 9L14 9L14 8ZM19 8L19 9L20 9L20 8ZM5 10L5 11L3 11L3 12L4 12L4 13L5 13L5 15L6 15L6 14L7 14L7 13L5 13L5 11L6 11L6 10ZM22 10L22 11L20 11L20 12L23 12L23 10ZM13 11L13 12L14 12L14 13L15 13L15 14L17 14L17 15L18 15L18 14L19 14L19 13L18 13L18 12L17 12L17 13L15 13L15 11ZM17 13L17 14L18 14L18 13ZM20 13L20 15L19 15L19 16L23 16L23 14L22 14L22 13ZM3 14L3 15L4 15L4 14ZM21 14L21 15L22 15L22 14ZM13 17L13 18L14 18L14 19L13 19L13 20L14 20L14 21L15 21L15 19L16 19L16 17L15 17L15 18L14 18L14 17ZM17 17L17 20L20 20L20 17ZM21 17L21 22L20 22L20 24L21 24L21 23L22 23L22 24L24 24L24 22L23 22L23 21L22 21L22 20L23 20L23 19L22 19L22 17ZM18 18L18 19L19 19L19 18ZM18 22L18 23L17 23L17 24L19 24L19 22ZM22 22L22 23L23 23L23 22ZM0 0L0 7L7 7L7 0ZM1 1L1 6L6 6L6 1ZM2 2L2 5L5 5L5 2ZM18 0L18 7L25 7L25 0ZM19 1L19 6L24 6L24 1ZM20 2L20 5L23 5L23 2ZM0 18L0 25L7 25L7 18ZM1 19L1 24L6 24L6 19ZM2 20L2 23L5 23L5 20Z" fill="#000000"/></g></g></svg>
