<?xml version="1.0" encoding="UTF-8"?>
<svg xmlns="http://www.w3.org/2000/svg" version="1.1" width="500" height="500" viewBox="0 0 500 500"><rect x="0" y="0" width="500" height="500" fill="#ffffff"/><g transform="scale(20)"><g transform="translate(0,0)"><path fill-rule="evenodd" d="M8 0L8 4L9 4L9 5L8 5L8 7L9 7L9 6L10 6L10 9L11 9L11 8L12 8L12 9L13 9L13 10L14 10L14 9L15 9L15 12L14 12L14 13L12 13L12 12L13 12L13 11L12 11L12 12L11 12L11 13L9 13L9 12L10 12L10 11L11 11L11 10L9 10L9 9L7 9L7 8L4 8L4 9L3 9L3 10L2 10L2 8L0 8L0 9L1 9L1 13L0 13L0 14L2 14L2 15L3 15L3 16L0 16L0 17L4 17L4 16L6 16L6 17L7 17L7 16L8 16L8 15L9 15L9 16L12 16L12 17L13 17L13 19L12 19L12 20L11 20L11 21L10 21L10 18L9 18L9 17L8 17L8 18L9 18L9 19L8 19L8 21L9 21L9 23L8 23L8 25L11 25L11 24L12 24L12 25L14 25L14 23L15 23L15 22L16 22L16 23L18 23L18 24L17 24L17 25L19 25L19 24L20 24L20 22L19 22L19 21L21 21L21 22L22 22L22 21L23 21L23 23L21 23L21 24L22 24L22 25L25 25L25 24L24 24L24 22L25 22L25 19L22 19L22 20L21 20L21 18L24 18L24 17L23 17L23 13L25 13L25 12L23 12L23 9L25 9L25 8L21 8L21 9L20 9L20 8L19 8L19 11L17 11L17 10L18 10L18 9L17 9L17 8L16 8L16 7L17 7L17 5L16 5L16 3L17 3L17 1L16 1L16 0L15 0L15 1L11 1L11 2L12 2L12 5L14 5L14 3L15 3L15 5L16 5L16 7L15 7L15 6L14 6L14 7L15 7L15 8L14 8L14 9L13 9L13 8L12 8L12 7L13 7L13 6L12 6L12 7L11 7L11 3L10 3L10 2L9 2L9 0ZM15 1L15 2L16 2L16 1ZM13 2L13 3L14 3L14 2ZM15 8L15 9L16 9L16 10L17 10L17 9L16 9L16 8ZM4 9L4 11L2 11L2 13L3 13L3 12L4 12L4 13L5 13L5 14L7 14L7 15L6 15L6 16L7 16L7 15L8 15L8 14L9 14L9 13L8 13L8 12L9 12L9 11L8 11L8 10L7 10L7 9L6 9L6 10L5 10L5 9ZM6 10L6 11L7 11L7 12L6 12L6 13L7 13L7 14L8 14L8 13L7 13L7 12L8 12L8 11L7 11L7 10ZM20 10L20 11L21 11L21 12L20 12L20 13L22 13L22 11L21 11L21 10ZM4 11L4 12L5 12L5 11ZM15 12L15 13L14 13L14 15L12 15L12 16L13 16L13 17L14 17L14 19L13 19L13 20L12 20L12 21L11 21L11 22L12 22L12 21L13 21L13 22L14 22L14 21L13 21L13 20L15 20L15 21L16 21L16 20L15 20L15 19L16 19L16 18L15 18L15 17L16 17L16 15L15 15L15 13L16 13L16 14L17 14L17 13L18 13L18 15L19 15L19 16L21 16L21 17L22 17L22 15L21 15L21 14L20 14L20 15L19 15L19 13L18 13L18 12L17 12L17 13L16 13L16 12ZM11 13L11 14L10 14L10 15L11 15L11 14L12 14L12 13ZM14 16L14 17L15 17L15 16ZM17 17L17 20L20 20L20 17ZM18 18L18 19L19 19L19 18ZM17 21L17 22L18 22L18 21ZM9 23L9 24L10 24L10 23ZM12 23L12 24L13 24L13 23ZM0 0L0 7L7 7L7 0ZM1 1L1 6L6 6L6 1ZM2 2L2 5L5 5L5 2ZM18 0L18 7L25 7L25 0ZM19 1L19 6L24 6L24 1ZM20 2L20 5L23 5L23 2ZM0 18L0 25L7 25L7 18ZM1 19L1 24L6 24L6 19ZM2 20L2 23L5 23L5 20Z" fill="#000000"/></g></g></svg>
